<?xml version="1.0" encoding="UTF-8"?> <svg xmlns="http://www.w3.org/2000/svg" width="368" height="280" viewBox="0 0 368 280" fill="none"><g clip-path="url(#clip0_1189_5296)"><rect width="368" height="280" rx="4.8" fill="#C8D2DA"></rect><mask id="mask0_1189_5296" style="mask-type:alpha" maskUnits="userSpaceOnUse" x="0" y="0" width="368" height="280"><rect width="368" height="280" rx="3.74441" fill="#E76C73"></rect></mask><g mask="url(#mask0_1189_5296)"><rect x="-11" y="-17" width="390" height="314" rx="3.74441" fill="#E76C73"></rect></g><g clip-path="url(#clip1_1189_5296)"><path d="M326 -2H42V282H326V-2Z" fill="#E76C73"></path><mask id="mask1_1189_5296" style="mask-type:luminance" maskUnits="userSpaceOnUse" x="198" y="114" width="109" height="44"><path d="M306.026 114.298H198.438V157.927H306.026V114.298Z" fill="white"></path></mask><g mask="url(#mask1_1189_5296)"><g opacity="0.5"><path d="M362.209 42.3452L154.211 250.343L155.048 251.18L363.045 43.1819L362.209 42.3452Z" fill="#1D2529"></path><path d="M359.013 39.1499L151.016 247.147L151.852 247.984L359.85 39.9866L359.013 39.1499Z" fill="#1D2529"></path><path d="M355.802 35.9546L147.805 243.952L148.641 244.789L356.639 36.7913L355.802 35.9546Z" fill="#1D2529"></path><path d="M352.607 32.7719L144.609 240.77L145.446 241.606L353.444 33.6087L352.607 32.7719Z" fill="#1D2529"></path><path d="M349.419 29.5766L141.422 237.574L142.259 238.411L350.256 30.4134L349.419 29.5766Z" fill="#1D2529"></path><path d="M346.232 26.3891L138.234 234.387L139.071 235.223L347.069 27.2259L346.232 26.3891Z" fill="#1D2529"></path><path d="M343.037 23.1958L135.039 231.193L135.876 232.03L343.873 24.0325L343.037 23.1958Z" fill="#1D2529"></path><path d="M339.834 20.0005L131.836 227.998L132.673 228.835L340.67 20.8372L339.834 20.0005Z" fill="#1D2529"></path><path d="M336.646 16.8051L128.648 224.803L129.485 225.639L337.483 17.6419L336.646 16.8051Z" fill="#1D2529"></path><path d="M333.443 13.6099L125.445 221.607L126.282 222.444L334.28 14.4466L333.443 13.6099Z" fill="#1D2529"></path><path d="M330.255 10.4145L122.258 218.412L123.095 219.249L331.092 11.2513L330.255 10.4145Z" fill="#1D2529"></path><path d="M327.068 7.2114L119.07 215.209L119.907 216.046L327.905 8.04814L327.068 7.2114Z" fill="#1D2529"></path><path d="M323.865 4.01611L115.867 212.014L116.704 212.85L324.701 4.85285L323.865 4.01611Z" fill="#1D2529"></path><path d="M320.677 0.822724L112.68 208.82L113.516 209.657L321.514 1.65947L320.677 0.822724Z" fill="#1D2529"></path><path d="M317.482 -2.37356L109.484 205.624L110.321 206.461L318.319 -1.53682L317.482 -2.37356Z" fill="#1D2529"></path><path d="M314.287 -5.56788L106.289 202.43L107.126 203.266L315.123 -4.73114L314.287 -5.56788Z" fill="#1D2529"></path><path d="M311.091 -8.75149L103.094 199.246L103.93 200.083L311.928 -7.91475L311.091 -8.75149Z" fill="#1D2529"></path><path d="M307.888 -11.9468L99.8906 196.051L100.727 196.888L308.725 -11.11L307.888 -11.9468Z" fill="#1D2529"></path><path d="M304.709 -15.1333L96.7109 192.864L97.5477 193.701L305.545 -14.2966L304.709 -15.1333Z" fill="#1D2529"></path><path d="M301.513 -18.3277L93.5156 189.67L94.3524 190.507L302.35 -17.4909L301.513 -18.3277Z" fill="#1D2529"></path><path d="M298.318 -21.523L90.3203 186.475L91.1571 187.311L299.155 -20.6862L298.318 -21.523Z" fill="#1D2529"></path><path d="M295.123 -24.7183L87.125 183.279L87.9617 184.116L295.959 -23.8815L295.123 -24.7183Z" fill="#1D2529"></path><path d="M291.919 -27.9126L83.9219 180.085L84.7586 180.922L292.756 -27.0759L291.919 -27.9126Z" fill="#1D2529"></path><path d="M288.732 -31.1089L80.7344 176.889L81.5711 177.725L289.569 -30.2722L288.732 -31.1089Z" fill="#1D2529"></path><path d="M285.537 -34.312L77.5391 173.686L78.3758 174.522L286.373 -33.4753L285.537 -34.312Z" fill="#1D2529"></path><path d="M282.349 -37.5054L74.3516 170.492L75.1883 171.329L283.186 -36.6687L282.349 -37.5054Z" fill="#1D2529"></path><path d="M279.154 -40.7017L71.1562 167.296L71.993 168.133L279.991 -39.8649L279.154 -40.7017Z" fill="#1D2529"></path><path d="M275.943 -43.896L67.9453 164.102L68.7821 164.938L276.78 -43.0593L275.943 -43.896Z" fill="#1D2529"></path><path d="M272.755 -47.0796L64.7578 160.918L65.5946 161.755L273.592 -46.2429L272.755 -47.0796Z" fill="#1D2529"></path><path d="M269.56 -50.2749L61.5625 157.723L62.3992 158.559L270.397 -49.4382L269.56 -50.2749Z" fill="#1D2529"></path><path d="M266.388 -53.4614L58.3906 154.536L59.2274 155.373L267.225 -52.6247L266.388 -53.4614Z" fill="#1D2529"></path><path d="M263.177 -56.6558L55.1797 151.342L56.0164 152.179L264.014 -55.819L263.177 -56.6558Z" fill="#1D2529"></path><path d="M259.982 -59.8511L51.9844 148.146L52.8211 148.983L260.819 -59.0144L259.982 -59.8511Z" fill="#1D2529"></path><path d="M464.459 144.535L256.461 352.532L257.298 353.369L465.295 145.371L464.459 144.535Z" fill="#1D2529"></path><path d="M461.24 141.34L253.242 349.338L254.079 350.175L462.077 142.177L461.24 141.34Z" fill="#1D2529"></path><path d="M458.052 138.145L250.055 346.143L250.891 346.979L458.889 138.982L458.052 138.145Z" fill="#1D2529"></path><path d="M454.873 134.957L246.875 342.955L247.712 343.792L455.709 135.794L454.873 134.957Z" fill="#1D2529"></path><path d="M451.685 131.763L243.688 339.761L244.524 340.597L452.522 132.6L451.685 131.763Z" fill="#1D2529"></path><path d="M448.482 128.568L240.484 336.565L241.321 337.402L449.319 129.405L448.482 128.568Z" fill="#1D2529"></path><path d="M445.279 125.374L237.281 333.371L238.118 334.208L446.116 126.21L445.279 125.374Z" fill="#1D2529"></path><path d="M442.091 122.178L234.094 330.176L234.93 331.013L442.928 123.015L442.091 122.178Z" fill="#1D2529"></path><path d="M438.896 118.983L230.898 326.98L231.735 327.817L439.733 119.82L438.896 118.983Z" fill="#1D2529"></path><path d="M435.693 115.788L227.695 323.785L228.532 324.622L436.53 116.624L435.693 115.788Z" fill="#1D2529"></path><path d="M432.505 112.593L224.508 320.591L225.345 321.428L433.342 113.43L432.505 112.593Z" fill="#1D2529"></path><path d="M429.326 109.389L221.328 317.387L222.165 318.223L430.162 110.226L429.326 109.389Z" fill="#1D2529"></path><path d="M426.115 106.207L218.117 314.204L218.954 315.041L426.952 107.043L426.115 106.207Z" fill="#1D2529"></path><path d="M422.919 103.011L214.922 311.009L215.759 311.846L423.756 103.848L422.919 103.011Z" fill="#1D2529"></path><path d="M419.732 99.8169L211.734 307.814L212.571 308.651L420.569 100.654L419.732 99.8169Z" fill="#1D2529"></path><path d="M416.544 96.6216L208.547 304.619L209.384 305.456L417.381 97.4583L416.544 96.6216Z" fill="#1D2529"></path><path d="M413.349 93.435L205.352 301.433L206.188 302.269L414.186 94.2718L413.349 93.435Z" fill="#1D2529"></path><path d="M410.154 90.2397L202.156 298.237L202.993 299.074L410.991 91.0765L410.154 90.2397Z" fill="#1D2529"></path><path d="M406.959 87.0454L198.961 295.043L199.798 295.88L407.795 87.8821L406.959 87.0454Z" fill="#1D2529"></path><path d="M403.771 83.8501L195.773 291.848L196.61 292.684L404.608 84.6868L403.771 83.8501Z" fill="#1D2529"></path><path d="M400.568 80.6548L192.57 288.652L193.407 289.489L401.405 81.4915L400.568 80.6548Z" fill="#1D2529"></path><path d="M397.373 77.4594L189.375 285.457L190.212 286.294L398.209 78.2962L397.373 77.4594Z" fill="#1D2529"></path><path d="M394.177 74.2642L186.18 282.262L187.016 283.098L395.014 75.1009L394.177 74.2642Z" fill="#1D2529"></path><path d="M390.982 71.0708L182.984 279.068L183.821 279.905L391.819 71.9075L390.982 71.0708Z" fill="#1D2529"></path><path d="M387.794 67.8657L179.797 275.863L180.634 276.7L388.631 68.7024L387.794 67.8657Z" fill="#1D2529"></path><path d="M384.607 64.6831L176.609 272.681L177.446 273.517L385.444 65.5198L384.607 64.6831Z" fill="#1D2529"></path><path d="M381.412 61.4888L173.414 269.486L174.251 270.323L382.248 62.3255L381.412 61.4888Z" fill="#1D2529"></path><path d="M378.201 58.2934L170.203 266.291L171.04 267.128L379.037 59.1302L378.201 58.2934Z" fill="#1D2529"></path><path d="M375.005 55.0981L167.008 263.096L167.845 263.932L375.842 55.9349L375.005 55.0981Z" fill="#1D2529"></path><path d="M371.826 51.9126L163.828 259.91L164.665 260.747L372.662 52.7493L371.826 51.9126Z" fill="#1D2529"></path><path d="M368.63 48.7173L160.633 256.715L161.47 257.552L369.467 49.554L368.63 48.7173Z" fill="#1D2529"></path><path d="M365.435 45.522L157.438 253.52L158.274 254.356L366.272 46.3587L365.435 45.522Z" fill="#1D2529"></path></g></g><path d="M221.305 261.741V186.871H146.435V261.741H221.305Z" fill="#1D2529"></path><path d="M183.878 251.233C178.547 251.233 173.335 249.652 168.902 246.69C164.469 243.728 161.014 239.518 158.974 234.592C156.934 229.667 156.4 224.247 157.44 219.018C158.48 213.789 161.047 208.986 164.817 205.216C168.587 201.446 173.39 198.878 178.619 197.838C183.848 196.798 189.268 197.332 194.194 199.372C199.12 201.413 203.33 204.868 206.292 209.301C209.254 213.733 210.835 218.945 210.835 224.277C210.825 231.423 207.982 238.274 202.929 243.327C197.876 248.381 191.025 251.224 183.878 251.233ZM183.878 198.504C178.781 198.504 173.798 200.015 169.56 202.847C165.321 205.679 162.018 209.704 160.067 214.414C158.116 219.123 157.606 224.305 158.6 229.305C159.595 234.304 162.05 238.897 165.654 242.501C169.258 246.105 173.851 248.56 178.85 249.554C183.85 250.549 189.032 250.039 193.741 248.088C198.451 246.137 202.476 242.834 205.308 238.595C208.14 234.357 209.651 229.374 209.651 224.277C209.636 217.449 206.914 210.907 202.083 206.082C197.252 201.258 190.706 198.545 183.878 198.539V198.504Z" fill="white"></path><path d="M183.882 237.968C181.181 237.968 178.541 237.167 176.296 235.666C174.05 234.166 172.3 232.033 171.266 229.538C170.232 227.042 169.962 224.297 170.489 221.648C171.016 218.999 172.316 216.566 174.226 214.656C176.136 212.746 178.569 211.446 181.218 210.919C183.867 210.392 186.613 210.662 189.108 211.696C191.603 212.729 193.736 214.48 195.237 216.725C196.737 218.971 197.538 221.611 197.538 224.312C197.532 227.932 196.091 231.401 193.531 233.961C190.972 236.521 187.502 237.961 183.882 237.968ZM183.882 211.84C181.415 211.84 179.004 212.571 176.953 213.942C174.902 215.312 173.303 217.26 172.359 219.539C171.415 221.818 171.168 224.326 171.65 226.745C172.131 229.165 173.319 231.387 175.063 233.131C176.807 234.875 179.03 236.063 181.449 236.545C183.868 237.026 186.376 236.779 188.655 235.835C190.934 234.891 192.882 233.292 194.253 231.241C195.623 229.19 196.355 226.779 196.355 224.312C196.351 221.005 195.036 217.834 192.698 215.496C190.36 213.158 187.189 211.843 183.882 211.84Z" fill="white"></path><path d="M170.932 114.299H63.3438V157.928H170.932V114.299Z" fill="#E76C73"></path><path d="M171.53 158.52H62.7578V113.707H171.53V158.52ZM63.9411 157.337H170.346V114.89H63.9411V157.337Z" fill="white"></path><path d="M150.311 134.332H113V135.515H150.311V134.332Z" fill="#1D2529"></path><path d="M87.5916 146.379C93.2643 146.379 97.863 141.78 97.863 136.107C97.863 130.435 93.2643 125.836 87.5916 125.836C81.9189 125.836 77.3203 130.435 77.3203 136.107C77.3203 141.78 81.9189 146.379 87.5916 146.379Z" fill="white"></path><path d="M87.158 139.656L82.9453 135.479L83.7736 134.639L87.158 137.988L92.1516 132.982L92.9918 133.823L87.158 139.656Z" fill="#1D2529"></path><path d="M306.608 158.52H197.836V113.707H306.608V158.52ZM199.019 157.337H305.425V114.89H199.019V157.337Z" fill="#1D2529"></path><path d="M285.404 134.332H248.094V135.515H285.404V134.332Z" fill="#1D2529"></path><path d="M222.685 146.379C228.358 146.379 232.957 141.78 232.957 136.107C232.957 130.435 228.358 125.836 222.685 125.836C217.013 125.836 212.414 130.435 212.414 136.107C212.414 141.78 217.013 146.379 222.685 146.379Z" fill="#E76C73"></path><path d="M222.686 126.983C224.486 126.981 226.247 127.513 227.746 128.512C229.244 129.511 230.412 130.932 231.102 132.595C231.793 134.258 231.974 136.089 231.623 137.855C231.272 139.622 230.405 141.244 229.132 142.518C227.859 143.791 226.236 144.658 224.47 145.009C222.704 145.359 220.873 145.178 219.21 144.488C217.546 143.798 216.125 142.629 215.126 141.131C214.127 139.633 213.595 137.872 213.598 136.071C213.601 133.662 214.559 131.352 216.263 129.648C217.967 127.945 220.276 126.986 222.686 126.983ZM222.686 125.8C220.651 125.797 218.661 126.399 216.968 127.528C215.275 128.657 213.955 130.263 213.176 132.142C212.396 134.022 212.191 136.09 212.588 138.086C212.984 140.082 213.964 141.915 215.402 143.354C216.841 144.793 218.675 145.773 220.671 146.169C222.666 146.566 224.735 146.361 226.614 145.581C228.494 144.801 230.1 143.481 231.229 141.789C232.358 140.096 232.959 138.106 232.957 136.071C232.957 133.347 231.875 130.734 229.949 128.808C228.022 126.882 225.41 125.8 222.686 125.8Z" fill="#1D2529"></path><path d="M256.378 224.904H255.786V224.313H255.23V222.017H256.413L256.378 224.904ZM253.36 224.904H250.994V223.721H253.36V224.904ZM248.627 224.904H246.26V223.721H248.627V224.904ZM243.894 224.904H241.527V223.721H243.894V224.904ZM239.16 224.904H236.794V223.721H239.16V224.904ZM234.427 224.904H232.06V223.721H234.427V224.904ZM229.694 224.904H227.327V223.721H229.694V224.904ZM224.96 224.904H222.594V223.721H224.96V224.904ZM256.378 219.65H255.195V217.284H256.378V219.65ZM256.378 214.917H255.195V212.55H256.378V214.917ZM256.378 210.184H255.195V207.817H256.378V210.184ZM256.378 205.45H255.195V203.084H256.378V205.45ZM256.378 200.717H255.195V198.35H256.378V200.717ZM256.378 195.984H255.195V193.617H256.378V195.984ZM256.378 191.25H255.195V188.884H256.378V191.25ZM256.378 186.517H255.195V184.15H256.378V186.517ZM256.378 181.784H255.195V179.417H256.378V181.784ZM256.378 177.05H255.195V174.684H256.378V177.05ZM256.378 172.317H255.195V169.95H256.378V172.317ZM256.378 167.584H255.195V165.217H256.378V167.584ZM256.378 162.85H255.195V160.484H256.378V162.85ZM256.378 158.117H255.195V157.928H256.378V158.117Z" fill="#1D2529"></path><path d="M226.511 229.152L227.316 228.288L223.044 224.312L227.316 220.348L226.511 219.473L221.305 224.312L226.511 229.152Z" fill="#1D2529"></path><path d="M256.388 113.008H255.205V88.9861H112.566V113.008H111.383V87.8027H256.388V113.008Z" fill="white"></path><path d="M116.812 109.092L115.937 108.287L111.973 112.559L107.997 108.287L107.133 109.092L111.973 114.298L116.812 109.092Z" fill="white"></path><path d="M250.953 109.092L251.817 108.287L255.793 112.559L259.769 108.287L260.633 109.092L255.793 114.298L250.953 109.092Z" fill="white"></path><path d="M181.465 63.249H180.281V88.3949H181.465V63.249Z" fill="white"></path><path d="M145.167 224.904H111.383V157.928H112.566V223.721H145.167V224.904Z" fill="white"></path><path d="M141.246 219.473L140.43 220.336L144.713 224.312L140.43 228.288L141.246 229.152L146.441 224.312L141.246 219.473Z" fill="white"></path><path d="M255.796 201.794C260.214 201.794 263.796 198.212 263.796 193.794C263.796 189.376 260.214 185.795 255.796 185.795C251.378 185.795 247.797 189.376 247.797 193.794C247.797 198.212 251.378 201.794 255.796 201.794Z" fill="#E76C73"></path><path d="M255.798 204.752C253.628 204.752 251.506 204.108 249.702 202.902C247.898 201.696 246.492 199.982 245.662 197.977C244.832 195.972 244.616 193.766 245.04 191.638C245.464 189.509 246.51 187.555 248.045 186.021C249.581 184.488 251.536 183.444 253.665 183.022C255.793 182.6 257.999 182.819 260.004 183.651C262.008 184.483 263.72 185.891 264.924 187.696C266.128 189.502 266.769 191.624 266.767 193.794C266.764 196.701 265.607 199.488 263.55 201.543C261.493 203.597 258.705 204.752 255.798 204.752ZM255.798 188.741C254.798 188.741 253.821 189.037 252.99 189.593C252.159 190.148 251.512 190.937 251.129 191.86C250.747 192.783 250.647 193.799 250.842 194.78C251.037 195.76 251.518 196.66 252.225 197.367C252.931 198.073 253.832 198.555 254.812 198.75C255.792 198.945 256.808 198.844 257.731 198.462C258.655 198.08 259.444 197.432 259.999 196.601C260.554 195.77 260.85 194.793 260.85 193.794C260.85 192.454 260.318 191.169 259.371 190.221C258.423 189.273 257.138 188.741 255.798 188.741Z" fill="#E76C73"></path><path d="M255.796 201.794C260.214 201.794 263.796 198.212 263.796 193.794C263.796 189.376 260.214 185.795 255.796 185.795C251.378 185.795 247.797 189.376 247.797 193.794C247.797 198.212 251.378 201.794 255.796 201.794Z" fill="white"></path><path d="M253.86 191.042L253.023 191.879L257.726 196.581L258.563 195.745L253.86 191.042Z" fill="#1D2529"></path><path d="M257.726 191.03L253.023 195.732L253.86 196.569L258.563 191.867L257.726 191.03Z" fill="#1D2529"></path><path d="M218.852 131.781L218.016 132.618L226.492 141.094L227.329 140.258L218.852 131.781Z" fill="#1D2529"></path><path d="M226.484 131.782L218.008 140.258L218.845 141.095L227.321 132.618L226.484 131.782Z" fill="#1D2529"></path><path fill-rule="evenodd" clip-rule="evenodd" d="M223.895 164.658L222.641 140.967L240.994 155.831L233.347 156.812L237.538 164.949L233.561 167.048L229.324 158.819L223.895 164.658Z" fill="white"></path><path d="M234.667 19.6191H127.078V63.2486H234.667V19.6191Z" fill="#E76C73"></path><path d="M235.264 63.8402H126.492V19.0273H235.264V63.8402ZM127.676 62.6568H234.081V20.2107H127.676V62.6568Z" fill="white"></path><path d="M214.037 39.665H176.727V40.8484H214.037V39.665Z" fill="#1D2529"></path><path d="M151.326 51.7116C156.999 51.7116 161.597 47.113 161.597 41.4403C161.597 35.7676 156.999 31.1689 151.326 31.1689C145.653 31.1689 141.055 35.7676 141.055 41.4403C141.055 47.113 145.653 51.7116 151.326 51.7116Z" fill="white"></path><path d="M150.889 44.9787L146.664 40.8015L147.504 39.9614L150.877 43.3102L155.882 38.3047L156.711 39.1449L150.889 44.9787Z" fill="#1D2529"></path></g></g><defs><clipPath id="clip0_1189_5296"><rect width="368" height="280" rx="4.8" fill="white"></rect></clipPath><clipPath id="clip1_1189_5296"><rect x="42" y="-2" width="284" height="284" rx="11.6088" fill="white"></rect></clipPath></defs></svg>