<?xml version="1.0" encoding="UTF-8"?> <svg xmlns="http://www.w3.org/2000/svg" width="368" height="280" viewBox="0 0 368 280" fill="none"><g clip-path="url(#clip0_1189_4177)"><rect width="368" height="280" rx="4.8" fill="#C8D2DA"></rect><mask id="mask0_1189_4177" style="mask-type:alpha" maskUnits="userSpaceOnUse" x="0" y="0" width="368" height="280"><rect width="368" height="280" rx="3.74441" fill="#E76C73"></rect></mask><g mask="url(#mask0_1189_4177)"><rect x="-11" y="-17" width="390" height="314" rx="3.74441" fill="#E76C73"></rect><g clip-path="url(#clip1_1189_4177)"><path d="M315.469 10.0225H52.375V273.117H315.469V10.0225Z" fill="#E76C73"></path><path d="M315.468 130.004H194.719V10.0225H195.815V128.908H315.468V130.004Z" fill="white"></path><path d="M282.511 78.1194H218.93V69.3496H282.511V78.1194ZM220.026 77.0232H281.415V70.4458H220.026V77.0232Z" fill="white"></path><path d="M277.605 35.137H218.562V26.3672H277.605V35.137ZM219.659 34.0408H276.509V27.4634H219.659V34.0408Z" fill="white"></path><path d="M250.474 35.137H218.562V26.3672H250.474V35.137ZM219.659 34.0408H249.377V27.4634H219.659V34.0408Z" fill="white"></path><path d="M294.301 56.6341H218.562V47.8643H294.301V56.6341ZM219.659 55.5378H293.204V48.9605H219.659V55.5378Z" fill="#1D2529"></path><path d="M250.846 78.1194H218.562V69.3496H250.846V78.1194ZM219.659 77.0232H249.75V70.4458H219.659V77.0232Z" fill="white"></path><path d="M261.896 56.6341H218.562V47.8643H261.896V56.6341Z" fill="#1D2529"></path><path d="M266.55 99.6057H218.93V90.8359H266.55V99.6057ZM220.026 98.5095H265.453V91.9322H220.026V98.5095Z" fill="white"></path><path d="M248.599 99.6057H218.562V90.8359H248.599V99.6057ZM219.626 98.5095H247.503V91.9322H219.659L219.626 98.5095Z" fill="white"></path><path d="M173.124 130.004H52.375V128.908H172.028V10.0225H173.124V130.004Z" fill="white"></path><path d="M195.815 273.117H194.719V153.124H315.468V154.22H195.815V273.117Z" fill="white"></path><path d="M173.124 273.117H172.028V154.22H52.375V153.124H173.124V273.117Z" fill="white"></path><path d="M148.675 243.452H147.579V242.904H148.675V243.452ZM146.483 243.452H145.386V242.904H146.483V243.452ZM144.29 243.452H143.194V242.904H144.29V243.452ZM142.098 243.452H141.001V242.904H142.098V243.452ZM139.905 243.452H138.809V242.904H139.905V243.452ZM137.713 243.452H136.617V242.904H137.713V243.452ZM135.52 243.452H134.424V242.904H135.52V243.452ZM133.328 243.452H132.232V242.904H133.328V243.452ZM131.135 243.452H130.039V242.904H131.135V243.452ZM128.943 243.452H127.847V242.904H128.943V243.452ZM126.75 243.452H125.654V242.904H126.75V243.452ZM124.558 243.452H123.462V242.904H124.558V243.452ZM122.366 243.452H121.269V242.904H122.366V243.452ZM120.173 243.452H119.077V242.904H120.173V243.452ZM117.981 243.452H116.884V242.904H117.981V243.452ZM115.788 243.452H114.692V242.904H115.788V243.452ZM113.596 243.452H112.5V242.904H113.596V243.452ZM111.403 243.452H110.307V242.904H111.403V243.452ZM109.211 243.452H108.115V242.904H109.211V243.452ZM107.018 243.452H105.922V242.904H107.018V243.452ZM104.826 243.452H103.73V242.904H104.826V243.452ZM102.634 243.452H101.537V242.904H102.634V243.452ZM100.441 243.452H99.3448V242.904H100.441V243.452ZM98.2486 243.452H97.1524V242.904H98.2486V243.452ZM96.0562 243.452H94.9599V242.904H96.0562V243.452ZM93.8637 243.452H92.7675V242.904H93.8637V243.452ZM91.6713 243.452H90.575V242.904H91.6713V243.452ZM89.4788 243.452H88.3826V242.904H89.4788V243.452ZM87.2864 243.452H86.1901V242.904H87.2864V243.452ZM85.0939 243.452H83.9977V242.904H85.0939V243.452ZM82.9015 243.452H81.8052V242.904H82.9015V243.452ZM80.709 243.452H79.6128V242.904H80.709V243.452ZM78.5166 243.452H77.4203V242.904H78.5166V243.452ZM76.3241 243.452H75.2279V242.904H76.3241V243.452ZM74.1317 243.452H73.0354V242.904H74.1317V243.452ZM71.9392 243.452H70.843V242.904H71.9392V243.452ZM69.7468 243.452H68.6505V242.904H69.7468V243.452ZM67.5543 243.452H66.4581V242.904H67.5543V243.452ZM65.3619 243.452H64.2656V242.904H65.3619V243.452Z" fill="white"></path><path d="M104.736 243.179H104.188V242.083H104.736V243.179ZM104.736 240.987H104.188V239.89H104.736V240.987ZM104.736 238.794H104.188V237.698H104.736V238.794ZM104.736 236.602H104.188V235.505H104.736V236.602ZM104.736 234.409H104.188V233.313H104.736V234.409ZM104.736 232.217H104.188V231.121H104.736V232.217ZM104.736 230.024H104.188V228.928H104.736V230.024ZM104.736 227.832H104.188V226.736H104.736V227.832ZM104.736 225.639H104.188V224.543H104.736V225.639ZM104.736 223.447H104.188V222.351H104.736V223.447ZM104.736 221.254H104.188V220.158H104.736V221.254ZM104.736 219.062H104.188V217.966H104.736V219.062ZM104.736 216.87H104.188V215.773H104.736V216.87ZM104.736 214.677H104.188V213.581H104.736V214.677ZM104.736 212.485H104.188V211.388H104.736V212.485ZM104.736 210.292H104.188V209.196H104.736V210.292ZM104.736 208.1H104.188V207.004H104.736V208.1ZM104.736 205.907H104.188V204.811H104.736V205.907ZM104.736 203.715H104.188V202.619H104.736V203.715ZM104.736 201.522H104.188V200.426H104.736V201.522ZM104.736 199.33H104.188V198.234H104.736V199.33ZM104.736 197.138H104.188V196.041H104.736V197.138ZM104.736 194.945H104.188V193.849H104.736V194.945ZM104.736 192.753H104.188V191.656H104.736V192.753ZM104.736 190.56H104.188V189.464H104.736V190.56ZM104.736 188.368H104.188V187.611H104.736V188.368Z" fill="white"></path><path d="M76.7747 243.179H76.2266V242.083H76.7747V243.179ZM76.7747 240.987H76.2266V239.89H76.7747V240.987ZM76.7747 238.794H76.2266V237.698H76.7747V238.794ZM76.7747 236.602H76.2266V235.505H76.7747V236.602ZM76.7747 234.409H76.2266V233.313H76.7747V234.409ZM76.7747 232.217H76.2266V231.121H76.7747V232.217ZM76.7747 230.024H76.2266V228.928H76.7747V230.024ZM76.7747 227.832H76.2266V226.736H76.7747V227.832ZM76.7747 225.639H76.2266V224.543H76.7747V225.639ZM76.7747 223.447H76.2266V222.351H76.7747V223.447ZM76.7747 221.254H76.2266V220.158H76.7747V221.254ZM76.7747 219.062H76.2266V217.966H76.7747V219.062ZM76.7747 216.87H76.2266V215.773H76.7747V216.87ZM76.7747 214.677H76.2266V213.581H76.7747V214.677ZM76.7747 212.485H76.2266V211.388H76.7747V212.485ZM76.7747 210.292H76.2266V209.196H76.7747V210.292ZM76.7747 208.1H76.2266V207.004H76.7747V208.1ZM76.7747 205.907H76.2266V204.811H76.7747V205.907ZM76.7747 203.715H76.2266V202.619H76.7747V203.715ZM76.7747 201.522H76.2266V200.426H76.7747V201.522ZM76.7747 199.33H76.2266V198.234H76.7747V199.33ZM76.7747 197.138H76.2266V196.041H76.7747V197.138ZM76.7747 194.945H76.2266V193.849H76.7747V194.945ZM76.7747 192.753H76.2266V191.656H76.7747V192.753ZM76.7747 190.56H76.2266V189.464H76.7747V190.56ZM76.7747 188.368H76.2266V187.611H76.7747V188.368Z" fill="white"></path><path d="M132.681 243.179H132.133V242.083H132.681V243.179ZM132.681 240.987H132.133V239.89H132.681V240.987ZM132.681 238.794H132.133V237.698H132.681V238.794ZM132.681 236.602H132.133V235.505H132.681V236.602ZM132.681 234.409H132.133V233.313H132.681V234.409ZM132.681 232.217H132.133V231.121H132.681V232.217ZM132.681 230.024H132.133V228.928H132.681V230.024ZM132.681 227.832H132.133V226.736H132.681V227.832ZM132.681 225.639H132.133V224.543H132.681V225.639ZM132.681 223.447H132.133V222.351H132.681V223.447ZM132.681 221.254H132.133V220.158H132.681V221.254ZM132.681 219.062H132.133V217.966H132.681V219.062ZM132.681 216.87H132.133V215.773H132.681V216.87ZM132.681 214.677H132.133V213.581H132.681V214.677ZM132.681 212.485H132.133V211.388H132.681V212.485ZM132.681 210.292H132.133V209.196H132.681V210.292ZM132.681 208.1H132.133V207.004H132.681V208.1ZM132.681 205.907H132.133V204.811H132.681V205.907ZM132.681 203.715H132.133V202.619H132.681V203.715ZM132.681 201.522H132.133V200.426H132.681V201.522ZM132.681 199.33H132.133V198.234H132.681V199.33ZM132.681 197.138H132.133V196.041H132.681V197.138ZM132.681 194.945H132.133V193.849H132.681V194.945ZM132.681 192.753H132.133V191.656H132.681V192.753ZM132.681 190.56H132.133V189.464H132.681V190.56ZM132.681 188.368H132.133V187.611H132.681V188.368Z" fill="white"></path><path d="M148.675 215.763H147.579V215.215H148.675V215.763ZM146.483 215.763H145.386V215.215H146.483V215.763ZM144.29 215.763H143.194V215.215H144.29V215.763ZM142.098 215.763H141.001V215.215H142.098V215.763ZM139.905 215.763H138.809V215.215H139.905V215.763ZM137.713 215.763H136.617V215.215H137.713V215.763ZM135.52 215.763H134.424V215.215H135.52V215.763ZM133.328 215.763H132.232V215.215H133.328V215.763ZM131.135 215.763H130.039V215.215H131.135V215.763ZM128.943 215.763H127.847V215.215H128.943V215.763ZM126.75 215.763H125.654V215.215H126.75V215.763ZM124.558 215.763H123.462V215.215H124.558V215.763ZM122.366 215.763H121.269V215.215H122.366V215.763ZM120.173 215.763H119.077V215.215H120.173V215.763ZM117.981 215.763H116.884V215.215H117.981V215.763ZM115.788 215.763H114.692V215.215H115.788V215.763ZM113.596 215.763H112.5V215.215H113.596V215.763ZM111.403 215.763H110.307V215.215H111.403V215.763ZM109.211 215.763H108.115V215.215H109.211V215.763ZM107.018 215.763H105.922V215.215H107.018V215.763ZM104.826 215.763H103.73V215.215H104.826V215.763ZM102.634 215.763H101.537V215.215H102.634V215.763ZM100.441 215.763H99.3448V215.215H100.441V215.763ZM98.2486 215.763H97.1524V215.215H98.2486V215.763ZM96.0562 215.763H94.9599V215.215H96.0562V215.763ZM93.8637 215.763H92.7675V215.215H93.8637V215.763ZM91.6713 215.763H90.575V215.215H91.6713V215.763ZM89.4788 215.763H88.3826V215.215H89.4788V215.763ZM87.2864 215.763H86.1901V215.215H87.2864V215.763ZM85.0939 215.763H83.9977V215.215H85.0939V215.763ZM82.9015 215.763H81.8052V215.215H82.9015V215.763ZM80.709 215.763H79.6128V215.215H80.709V215.763ZM78.5166 215.763H77.4203V215.215H78.5166V215.763ZM76.3241 215.763H75.2279V215.215H76.3241V215.763ZM74.1317 215.763H73.0354V215.215H74.1317V215.763ZM71.9392 215.763H70.843V215.215H71.9392V215.763ZM69.7468 215.763H68.6505V215.215H69.7468V215.763ZM67.5543 215.763H66.4581V215.215H67.5543V215.763ZM65.3619 215.763H64.2656V215.215H65.3619V215.763Z" fill="white"></path><path d="M64.4995 233.488L64.0391 232.501C67.536 230.879 70.1998 224.685 72.8089 218.689C75.6152 212.111 78.29 205.972 82.1816 204.591C82.9011 204.342 83.6663 204.254 84.4237 204.331C85.1811 204.409 85.9124 204.651 86.5665 205.04C87.4157 205.53 88.1606 206.182 88.7589 206.959C90.9474 209.963 92.7863 213.207 94.2401 216.628C95.657 219.925 97.4248 223.06 99.5129 225.978C102.166 229.355 105.148 230.922 108.381 230.637C120.045 229.607 133.145 205.008 139.437 193.19L140.227 191.688L141.191 192.215L140.402 193.706C133.529 206.608 120.736 230.648 108.48 231.734C104.852 232.041 101.552 230.341 98.614 226.647C96.4767 223.667 94.6649 220.466 93.2096 217.099C91.7843 213.757 89.9861 210.587 87.8491 207.65C87.3351 206.981 86.6897 206.425 85.9526 206.016C85.4402 205.704 84.8659 205.506 84.2696 205.438C83.6732 205.37 83.0692 205.433 82.4995 205.621C79.0464 206.838 76.3606 213.076 73.7297 219.116C71.0988 225.156 68.3801 231.701 64.4995 233.488Z" fill="#1D2529"></path><path d="M64.9994 235.132H64.5938V234.036C69.8227 234.277 75.4025 228.873 81.3002 223.14C87.1979 217.407 93.0298 211.728 99.3002 210.687C104.924 209.733 109.166 213.745 112.839 217.264C113.394 217.805 113.953 218.331 114.516 218.843C114.933 219.238 115.376 219.604 115.842 219.939C117.118 220.939 118.611 221.626 120.202 221.942C121.792 222.258 123.434 222.195 124.996 221.759C134.434 219.029 141.724 203.013 143.73 198.179L144.739 198.595C142.108 204.942 134.939 220.016 125.292 222.811C123.574 223.295 121.766 223.369 120.014 223.026C118.262 222.684 116.615 221.934 115.206 220.838C114.701 220.48 114.221 220.088 113.77 219.665C113.211 219.16 112.674 218.568 112.082 218.075C108.388 214.545 104.562 210.895 99.5195 211.728C93.5889 212.748 87.768 218.404 82.1443 223.874C76.1809 229.684 70.5682 235.132 64.9994 235.132Z" fill="white"></path><mask id="mask1_1189_4177" style="mask-type:luminance" maskUnits="userSpaceOnUse" x="106" y="26" width="35" height="51"><path d="M106.742 40.0155C110.253 40.0177 113.703 40.9302 116.755 42.6639C119.808 44.3976 122.359 46.8931 124.159 49.907C125.959 52.9209 126.947 56.35 127.026 59.8596C127.105 63.3693 126.273 66.8395 124.611 69.9315L135.979 76.2676C138.757 71.1923 140.167 65.4808 140.069 59.6953C139.97 53.9098 138.367 48.2497 135.417 43.2719C132.466 38.2941 128.271 34.1703 123.243 31.3062C118.215 28.4421 112.529 26.9365 106.742 26.9375V40.0155Z" fill="white"></path></mask><g mask="url(#mask1_1189_4177)"><g opacity="0.5"><mask id="mask2_1189_4177" style="mask-type:luminance" maskUnits="userSpaceOnUse" x="86" y="6" width="91" height="91"><path d="M176.506 6.66992H86.6484V96.5275H176.506V6.66992Z" fill="white"></path></mask><g mask="url(#mask2_1189_4177)"><path d="M179.578 74.4063L130.938 123.047L131.713 123.822L180.353 75.1815L179.578 74.4063Z" fill="#1D2529"></path><path d="M176.766 71.5997L128.125 120.24L128.9 121.015L177.541 72.3748L176.766 71.5997Z" fill="#1D2529"></path><path d="M173.969 68.793L125.328 117.434L126.103 118.209L174.744 69.5682L173.969 68.793Z" fill="#1D2529"></path><path d="M171.164 65.9864L122.523 114.627L123.299 115.402L171.939 66.7615L171.164 65.9864Z" fill="#1D2529"></path><path d="M168.367 63.1915L119.727 111.832L120.502 112.607L169.142 63.9666L168.367 63.1915Z" fill="#1D2529"></path><path d="M165.562 60.3848L116.922 109.025L117.697 109.801L166.338 61.16L165.562 60.3848Z" fill="#1D2529"></path><path d="M162.75 57.5782L114.109 106.219L114.885 106.994L163.525 58.3533L162.75 57.5782Z" fill="#1D2529"></path><path d="M159.945 54.7715L111.305 103.412L112.08 104.187L160.72 55.5467L159.945 54.7715Z" fill="#1D2529"></path><path d="M157.148 51.9737L108.508 100.614L109.283 101.389L157.924 52.7488L157.148 51.9737Z" fill="#1D2529"></path><path d="M154.352 49.171L105.711 97.8115L106.486 98.5867L155.127 49.9461L154.352 49.171Z" fill="#1D2529"></path><path d="M151.539 46.3643L102.898 95.0049L103.674 95.78L152.314 47.1395L151.539 46.3643Z" fill="#1D2529"></path><path d="M148.734 43.5587L100.094 92.1992L100.869 92.9744L149.509 44.3338L148.734 43.5587Z" fill="#1D2529"></path><path d="M145.922 40.751L97.2812 89.3916L98.0564 90.1668L146.697 41.5262L145.922 40.751Z" fill="#1D2529"></path><path d="M143.117 37.9532L94.4766 86.5938L95.2517 87.3689L143.892 38.7283L143.117 37.9532Z" fill="#1D2529"></path><path d="M140.32 35.1505L91.6797 83.791L92.4548 84.5662L141.095 35.9256L140.32 35.1505Z" fill="#1D2529"></path><path d="M137.516 32.3438L88.875 80.9844L89.6501 81.7595L138.291 33.119L137.516 32.3438Z" fill="#1D2529"></path><path d="M134.703 29.5372L86.0625 78.1777L86.8376 78.9529L135.478 30.3123L134.703 29.5372Z" fill="#1D2529"></path><path d="M131.898 26.7305L83.2578 75.3711L84.033 76.1462L132.674 27.5057L131.898 26.7305Z" fill="#1D2529"></path><path d="M129.102 23.9327L80.4609 72.5732L81.2361 73.3484L129.877 24.7078L129.102 23.9327Z" fill="#1D2529"></path><path d="M126.305 21.1299L77.6641 69.7705L78.4392 70.5457L127.08 21.9051L126.305 21.1299Z" fill="#1D2529"></path><path d="M123.492 18.3223L74.8516 66.9629L75.6267 67.738L124.267 19.0975L123.492 18.3223Z" fill="#1D2529"></path><path d="M120.687 15.5176L72.0469 64.1582L72.822 64.9334L121.463 16.2928L120.687 15.5176Z" fill="#1D2529"></path><path d="M117.875 12.711L69.2344 61.3516L70.0095 62.1267L118.65 13.4861L117.875 12.711Z" fill="#1D2529"></path><path d="M115.078 9.91216L66.4375 58.5527L67.2126 59.3279L115.853 10.6873L115.078 9.91216Z" fill="#1D2529"></path><path d="M112.289 7.10845L63.6484 55.749L64.4236 56.5242L113.064 7.8836L112.289 7.10845Z" fill="#1D2529"></path><path d="M109.477 4.30182L60.8359 52.9424L61.6111 53.7175L110.252 5.07697L109.477 4.30182Z" fill="#1D2529"></path><path d="M106.672 1.49615L58.0312 50.1367L58.8064 50.9119L107.447 2.2713L106.672 1.49615Z" fill="#1D2529"></path></g></g></g><path d="M136.191 77.0136L123.87 70.1512L124.122 69.6688C125.745 66.6613 126.56 63.2837 126.485 59.8668C126.411 56.45 125.45 53.111 123.698 50.1769C121.945 47.2429 119.46 44.8143 116.487 43.1292C113.513 41.4441 110.153 40.5602 106.736 40.5641H106.188V26.3789H106.736C112.619 26.3766 118.401 27.9066 123.513 30.8182C128.625 33.7299 132.891 37.9228 135.89 42.9841C138.89 48.0454 140.519 53.8006 140.618 59.6829C140.717 65.5653 139.282 71.372 136.454 76.5312L136.191 77.0136Z" fill="#1D2529"></path><path d="M97.7174 99.6056C88.7045 99.6056 80.0608 96.0253 73.6878 89.6522C67.3147 83.2792 63.7344 74.6355 63.7344 65.6226C63.7344 56.6098 67.3147 47.9661 73.6878 41.593C80.0608 35.22 88.7045 31.6396 97.7174 31.6396H98.2655V45.8906H97.7283C94.2703 45.943 90.8868 46.9033 87.9169 48.6754C84.947 50.4474 82.4949 52.9689 80.8065 55.9871C79.1181 59.0054 78.2526 62.4144 78.2968 65.8725C78.341 69.3307 79.2933 72.7164 81.0583 75.6906C82.8233 78.6647 85.339 81.1227 88.3532 82.8182C91.3675 84.5138 94.7744 85.3873 98.2326 85.3514C101.691 85.3154 105.079 84.3711 108.057 82.6132C111.035 80.8552 113.499 78.3454 115.202 75.3352L115.476 74.8638L127.699 81.6714L127.436 82.1537C124.48 87.4413 120.169 91.8455 114.945 94.9129C109.722 97.9804 103.775 99.6002 97.7174 99.6056ZM97.1693 32.7359C91.4238 32.8373 85.8051 34.4423 80.8731 37.3912C75.941 40.34 71.8677 44.5297 69.059 49.5429C66.2502 54.556 64.804 60.2176 64.8645 65.9637C64.925 71.7098 66.4901 77.3397 69.4037 82.2926C72.3174 87.2455 76.478 91.3485 81.471 94.1929C86.4641 97.0372 92.1153 98.5237 97.8616 98.5041C103.608 98.4845 109.249 96.9596 114.222 94.0812C119.196 91.2029 123.328 87.0716 126.208 82.0989L115.882 76.3547C114.021 79.4384 111.392 81.9868 108.252 83.7512C105.112 85.5155 101.568 86.4355 97.9665 86.4212C94.3648 86.4069 90.8284 85.4589 87.7025 83.6697C84.5766 81.8805 81.9681 79.3113 80.1316 76.2129C78.2952 73.1145 77.2936 69.5929 77.2247 65.9918C77.1557 62.3908 78.0217 58.8333 79.7382 55.6669C81.4547 52.5005 83.9629 49.8333 87.0181 47.9258C90.0732 46.0182 93.5707 44.9355 97.1693 44.7834V32.7359Z" fill="white"></path><path d="M224.36 187.424C227.26 187.424 229.611 185.073 229.611 182.173C229.611 179.273 227.26 176.922 224.36 176.922C221.46 176.922 219.109 179.273 219.109 182.173C219.109 185.073 221.46 187.424 224.36 187.424Z" fill="white"></path><path d="M224.147 184.334L221.812 182.032L222.591 181.242L224.136 182.788L226.515 180.409L227.294 181.177L224.147 184.334Z" fill="#1D2529"></path><path d="M224.36 206.675C227.26 206.675 229.611 204.324 229.611 201.424C229.611 198.524 227.26 196.173 224.36 196.173C221.46 196.173 219.109 198.524 219.109 201.424C219.109 204.324 221.46 206.675 224.36 206.675Z" fill="white"></path><path d="M224.147 203.583L221.812 201.281L222.591 200.502L224.136 202.037L226.515 199.658L227.294 200.437L224.147 203.583Z" fill="#1D2529"></path><path d="M224.36 225.935C227.26 225.935 229.611 223.585 229.611 220.685C229.611 217.785 227.26 215.434 224.36 215.434C221.46 215.434 219.109 217.785 219.109 220.685C219.109 223.585 221.46 225.935 224.36 225.935Z" fill="white"></path><path d="M224.147 222.833L221.812 220.531L222.591 219.752L224.136 221.287L226.515 218.908L227.294 219.687L224.147 222.833Z" fill="#1D2529"></path><path d="M224.36 245.183C227.26 245.183 229.611 242.833 229.611 239.933C229.611 237.033 227.26 234.682 224.36 234.682C221.46 234.682 219.109 237.033 219.109 239.933C219.109 242.833 221.46 245.183 224.36 245.183Z" fill="white"></path><path d="M224.147 242.093L221.812 239.791L222.591 239.013L224.136 240.548L226.515 238.169L227.294 238.936L224.147 242.093Z" fill="#1D2529"></path><path d="M291.442 181.625H239.766V182.721H291.442V181.625Z" fill="white"></path><path d="M278.386 200.875H239.766V201.971H278.386V200.875Z" fill="white"></path><path d="M291.442 220.137H239.766V221.233H291.442V220.137Z" fill="white"></path><path d="M278.386 239.385H239.766V240.481H278.386V239.385Z" fill="white"></path></g></g></g><defs><clipPath id="clip0_1189_4177"><rect width="368" height="280" rx="4.8" fill="white"></rect></clipPath><clipPath id="clip1_1189_4177"><rect x="52.375" y="10.0225" width="263.094" height="263.094" rx="7.51697" fill="white"></rect></clipPath></defs></svg>