<?xml version="1.0" encoding="UTF-8"?> <svg xmlns="http://www.w3.org/2000/svg" width="368" height="280" viewBox="0 0 368 280" fill="none"><g clip-path="url(#clip0_1189_4158)"><rect width="368" height="280" rx="4.8" fill="#C8D2DA"></rect><mask id="mask0_1189_4158" style="mask-type:alpha" maskUnits="userSpaceOnUse" x="0" y="0" width="368" height="327"><rect width="368" height="326.182" rx="3.63519" fill="#7E6CAC"></rect></mask><g mask="url(#mask0_1189_4158)"><rect width="368" height="326.182" rx="3.63519" fill="#E76C73"></rect><g clip-path="url(#clip1_1189_4158)"><path d="M326.483 -3.36523H42.5234V280.595H326.483V-3.36523Z" fill="#E76C73"></path><path d="M211.566 -3.36523H210.383V282.417H211.566V-3.36523Z" fill="white"></path><path d="M42.5234 66.4898H110.863V22.7363H42.5234" fill="#E76C73"></path><path d="M111.455 67.0812H42.5234V65.898H110.272V23.3277H42.5234V22.1445H111.455V67.0812Z" fill="white"></path><path d="M-10.8297 67.0812H58.1016V65.898H-9.64653V23.3277H58.1016V22.1445H-10.8297V67.0812Z" fill="white"></path><path d="M94 44H-3V45H94V44Z" fill="#1D2529"></path><path d="M233.311 82.0703L301.875 82.0703V13.5058L233.311 13.5058V82.0703Z" fill="#E76C73"></path><path d="M233.318 82.6627H232.727V12.915H302.474V82.7219L233.318 82.6627ZM233.91 14.0982V81.5387H301.291V14.0982H233.91Z" fill="white"></path><path d="M267.594 68.9502L244.273 54.6103L267.594 40.2939L290.902 54.6103L267.594 68.9502ZM246.297 54.6339L267.594 67.6487L288.891 54.6339L267.594 41.6191L246.297 54.6339Z" fill="#1D2529"></path><path d="M267.594 55.2497L244.273 40.9452L267.594 26.6289L290.902 40.9452L267.594 55.2497ZM246.297 40.9452L267.594 53.96L288.891 40.9452L267.594 27.8712L246.297 40.9452Z" fill="#1D2529"></path><g opacity="0.2"><path d="M233.295 172.832H301.859V104.268L233.295 104.268V172.832Z" fill="white"></path><path d="M302.459 173.423H232.711V103.688H302.459V173.423ZM233.894 172.24H301.275V104.871H233.894V172.24Z" fill="white"></path></g><path d="M188.644 173.423H186.349V172.24H188.644V172.796H189.236V173.388L188.644 173.423ZM183.983 173.423H181.616V172.24H183.983V173.423ZM179.25 173.423H176.884V172.24H179.25V173.423ZM174.517 173.423H172.151V172.24H174.517V173.423ZM169.785 173.423H167.418V172.24H169.785V173.423ZM165.052 173.423H162.686V172.24H165.052V173.423ZM160.319 173.423H157.953V172.24H160.319V173.423ZM155.587 173.423H153.22V172.24H155.587V173.423ZM150.854 173.423H148.488V172.24H150.854V173.423ZM146.121 173.423H143.755V172.24H146.121V173.423ZM141.389 173.423H139.022V172.24H141.389V173.423ZM136.656 173.423H134.29V172.24H136.656V173.423ZM131.923 173.423H129.557V172.24H131.923V173.423ZM127.191 173.423H124.824V172.24H127.191V173.423ZM122.458 173.423H120.092V172.24H122.458V173.423ZM120.683 170.726H119.5V168.359H120.683V170.726ZM189.236 170.406H188.053V168.04H189.236V170.406ZM120.683 165.993H119.5V163.627H120.683V165.993ZM189.236 165.674H188.053V163.307H189.236V165.674ZM120.683 161.26H119.5V158.894H120.683V161.26ZM189.236 160.941H188.053V158.575H189.236V160.941ZM120.683 156.528H119.5V154.161H120.683V156.528ZM189.236 156.208H188.053V153.842H189.236V156.208ZM120.683 151.795H119.5V149.429H120.683V151.795ZM189.236 151.476H188.053V149.109H189.236V151.476ZM120.683 147.062H119.5V144.696H120.683V147.062ZM189.236 146.743H188.053V144.377H189.236V146.743ZM120.683 142.33H119.5V139.963H120.683V142.33ZM189.236 142.01H188.053V139.644H189.236V142.01ZM120.683 137.597H119.5V135.231H120.683V137.597ZM189.236 137.278H188.053V134.911H189.236V137.278ZM120.683 132.864H119.5V130.498H120.683V132.864ZM189.236 132.545H188.053V130.179H189.236V132.545ZM120.683 128.132H119.5V125.765H120.683V128.132ZM189.236 127.812H188.053V125.446H189.236V127.812ZM120.683 123.399H119.5V121.033H120.683V123.399ZM189.236 123.08H188.053V120.713H189.236V123.08ZM120.683 118.666H119.5V116.3H120.683V118.666ZM189.236 118.347H188.053V115.981H189.236V118.347ZM120.683 113.934H119.5V111.567H120.683V113.934ZM189.248 113.614H188.064V111.248H189.248V113.614ZM120.683 109.201H119.5V106.835H120.683V109.201ZM189.248 108.882H188.064V106.515H189.248V108.882ZM188.526 104.871H186.16V103.688H188.526V104.871ZM183.793 104.871H181.427V103.688H183.793V104.871ZM179.061 104.871H176.694V103.688H179.061V104.871ZM174.328 104.871H171.962V103.688H174.328V104.871ZM169.595 104.871H167.229V103.688H169.595V104.871ZM164.863 104.871H162.496V103.688H164.863V104.871ZM160.13 104.871H157.764V103.688H160.13V104.871ZM155.397 104.871H153.031V103.688H155.397V104.871ZM150.665 104.871H148.298V103.688H150.665V104.871ZM145.932 104.871H143.566V103.688H145.932V104.871ZM141.199 104.871H138.833V103.688H141.199V104.871ZM136.467 104.871H134.1V103.688H136.467V104.871ZM131.734 104.871H129.368V103.688H131.734V104.871ZM127.001 104.871H124.635V103.688H127.001V104.871ZM122.269 104.871H120.092V104.468H119.5V103.688H122.257L122.269 104.871Z" fill="white"></path><path d="M186.785 153.178L270.312 132.244L249.378 48.7167L165.851 69.6508L186.785 153.178Z" fill="#1D2529"></path><path d="M186.363 153.878L165.148 69.2103L249.816 47.9961L271.03 132.699L270.462 132.853L186.363 153.878ZM166.58 70.0621L187.214 152.446L269.598 131.812L248.952 49.4277L166.58 70.0621Z" fill="#1D2529"></path><path d="M217.641 131.906C210.764 131.901 204.085 129.6 198.662 125.37C193.24 121.139 189.385 115.22 187.707 108.551C186.145 102.318 186.568 95.7523 188.916 89.771C191.265 83.7898 195.422 78.691 200.808 75.1862C206.194 71.6814 212.54 69.9455 218.96 70.2207C225.38 70.4959 231.554 72.7685 236.62 76.7214C241.686 80.6742 245.392 86.1101 247.22 92.2704C249.048 98.4307 248.908 105.008 246.818 111.085C244.728 117.161 240.793 122.434 235.563 126.166C230.332 129.899 224.067 131.906 217.641 131.906ZM188.748 108.243C190.18 113.959 193.274 119.123 197.64 123.08C202.006 127.038 207.448 129.611 213.277 130.476C219.106 131.34 225.061 130.457 230.388 127.937C235.714 125.417 240.174 121.374 243.203 116.319C246.232 111.265 247.694 105.425 247.404 99.5394C247.114 93.6537 245.085 87.9863 241.573 83.2539C238.062 78.5215 233.226 74.9367 227.677 72.9529C222.128 70.9692 216.116 70.6755 210.4 72.1091C202.74 74.0337 196.157 78.9203 192.097 85.6955C188.037 92.4707 186.833 100.58 188.748 108.243Z" fill="white"></path><path d="M217.633 123.79C211.839 123.787 206.264 121.574 202.044 117.602C197.825 113.631 195.279 108.199 194.925 102.416C194.572 96.6321 196.437 90.9312 200.14 86.475C203.844 82.0189 209.108 79.1428 214.859 78.4332C220.61 77.7235 226.415 79.2336 231.091 82.6556C235.767 86.0777 238.962 91.1541 240.025 96.8503C241.088 102.546 239.938 108.434 236.811 113.312C233.684 118.19 228.814 121.692 223.194 123.104C221.376 123.559 219.508 123.789 217.633 123.79ZM217.633 79.3858C214.339 79.3842 211.088 80.1338 208.128 81.5775C205.167 83.0213 202.574 85.1212 200.547 87.7176C198.52 90.314 197.112 93.3385 196.429 96.5611C195.747 99.7836 195.808 103.119 196.608 106.315C197.595 110.251 199.667 113.831 202.589 116.647C205.51 119.464 209.164 121.402 213.134 122.243C217.104 123.084 221.23 122.793 225.043 121.403C228.856 120.013 232.201 117.58 234.698 114.382C237.196 111.183 238.744 107.347 239.168 103.311C239.592 99.2755 238.873 95.2018 237.095 91.5544C235.316 87.9069 232.549 84.8323 229.108 82.6809C225.667 80.5295 221.691 79.3878 217.633 79.3858Z" fill="white"></path><path d="M217.63 115.094C214.498 115.088 211.459 114.037 208.992 112.109C206.525 110.18 204.772 107.483 204.011 104.446C203.34 101.754 203.481 98.9237 204.417 96.3122C205.353 93.7007 207.043 91.4254 209.272 89.7737C211.501 88.122 214.169 87.168 216.94 87.0324C219.711 86.8968 222.46 87.5855 224.84 89.0117C227.219 90.4378 229.123 92.5373 230.31 95.0448C231.496 97.5523 231.913 100.355 231.508 103.1C231.102 105.844 229.892 108.407 228.03 110.464C226.169 112.521 223.739 113.98 221.049 114.656C219.931 114.941 218.783 115.088 217.63 115.094ZM205.041 104.209C205.771 107.131 207.492 109.71 209.911 111.505C212.329 113.3 215.296 114.201 218.304 114.054C221.313 113.906 224.177 112.72 226.408 110.697C228.64 108.674 230.101 105.94 230.542 102.96C230.983 99.9803 230.377 96.94 228.827 94.3573C227.277 91.7746 224.879 89.8094 222.042 88.7969C219.206 87.7843 216.106 87.7871 213.271 88.8046C210.436 89.8222 208.041 91.7916 206.496 94.377C204.729 97.3328 204.206 100.868 205.041 104.209Z" fill="white"></path><path fill-rule="evenodd" clip-rule="evenodd" d="M245.288 156.941L243.75 128.084L266.147 146.186L256.859 147.37L261.983 157.273L257.037 159.828L251.855 149.807L245.288 156.941Z" fill="white"></path><path d="M233.311 263.605H301.875V195.041H233.311V263.605Z" fill="#E76C73"></path><path d="M302.474 264.196H232.727V194.448H302.474V264.196ZM233.91 263.013H301.291V195.631H233.91V263.013Z" fill="white"></path><path d="M267.598 253.63C264.507 253.63 261.485 252.714 258.915 250.996C256.345 249.279 254.341 246.838 253.159 243.982C251.976 241.126 251.666 237.983 252.269 234.952C252.872 231.92 254.361 229.135 256.547 226.949C258.732 224.763 261.517 223.274 264.549 222.671C267.581 222.068 270.724 222.378 273.58 223.561C276.436 224.744 278.877 226.747 280.594 229.317C282.311 231.888 283.228 234.909 283.228 238.001C283.222 242.144 281.573 246.116 278.643 249.046C275.714 251.975 271.742 253.624 267.598 253.63ZM267.598 223.436C264.718 223.436 261.902 224.29 259.507 225.891C257.111 227.491 255.245 229.766 254.142 232.427C253.04 235.088 252.751 238.017 253.313 240.842C253.875 243.667 255.263 246.263 257.3 248.3C259.336 250.337 261.932 251.724 264.757 252.286C267.582 252.848 270.511 252.559 273.172 251.457C275.833 250.354 278.108 248.488 279.709 246.092C281.309 243.697 282.163 240.881 282.163 238.001C282.157 234.14 280.62 230.439 277.89 227.709C275.16 224.979 271.459 223.442 267.598 223.436Z" fill="#1D2529"></path><path d="M267.599 253.63C262.79 253.632 258.088 252.208 254.088 249.538C250.088 246.868 246.97 243.071 245.128 238.629C243.286 234.186 242.802 229.297 243.739 224.58C244.676 219.863 246.991 215.529 250.391 212.128C253.791 208.726 258.123 206.409 262.84 205.47C267.557 204.531 272.446 205.012 276.889 206.852C281.333 208.692 285.131 211.808 287.803 215.807C290.475 219.805 291.902 224.507 291.902 229.316C291.895 235.761 289.333 241.939 284.777 246.498C280.222 251.056 274.044 253.621 267.599 253.63ZM267.599 206.067C263.001 206.064 258.504 207.426 254.68 209.979C250.855 212.532 247.873 216.163 246.111 220.411C244.35 224.659 243.888 229.334 244.784 233.844C245.679 238.355 247.893 242.499 251.144 245.752C254.395 249.004 258.537 251.22 263.047 252.118C267.558 253.016 272.233 252.556 276.482 250.797C280.731 249.037 284.363 246.057 286.918 242.234C289.473 238.41 290.837 233.915 290.837 229.316C290.834 223.152 288.385 217.241 284.029 212.88C279.672 208.519 273.763 206.064 267.599 206.055V206.067Z" fill="#1D2529"></path><path d="M42.5234 254.766H110.863V211.013H42.5234" fill="#E76C73"></path><path d="M111.455 255.358H42.5234V254.174H110.272V211.604H42.5234V210.421H111.455V255.358Z" fill="white"></path><path d="M-10.8297 255.358H58.1016V254.174H-9.64653V211.604H58.1016V210.421H-10.8297V255.358Z" fill="white"></path><path d="M94 232H-3V233H94V232Z" fill="#1D2529"></path><path d="M157.448 102.989H156.265V51.7339H110.867V50.5508H157.448V102.989Z" fill="white"></path><path d="M161.694 99.0741L160.83 98.2695L156.855 102.541L152.891 98.2695L152.016 99.0741L156.855 104.28L161.694 99.0741Z" fill="white"></path><path d="M157.448 232.972H110.867V231.789H156.265V174.109H157.448V232.972Z" fill="white"></path><path d="M152.016 178.038L152.879 178.843L156.855 174.571L160.83 178.843L161.694 178.038L156.855 172.832L152.016 178.038Z" fill="white"></path></g></g></g><defs><clipPath id="clip0_1189_4158"><rect width="368" height="280" rx="4.8" fill="white"></rect></clipPath><clipPath id="clip1_1189_4158"><rect x="-3" y="-3.18262" width="375" height="284" rx="8.11314" fill="white"></rect></clipPath></defs></svg>