<?xml version="1.0" encoding="UTF-8"?> <svg xmlns="http://www.w3.org/2000/svg" width="368" height="280" viewBox="0 0 368 280" fill="none"><g clip-path="url(#clip0_1189_4198)"><rect width="368" height="280" rx="4.8" fill="#C8D2DA"></rect><mask id="mask0_1189_4198" style="mask-type:alpha" maskUnits="userSpaceOnUse" x="0" y="-8" width="368" height="327"><rect y="-8" width="368" height="326.182" rx="3.59805" fill="#7E6CAC"></rect></mask><g mask="url(#mask0_1189_4198)"><rect y="-8" width="368" height="326.182" rx="3.59805" fill="#E76C73"></rect></g><g clip-path="url(#clip1_1189_4198)"><path d="M323.647 0.713867H44V280.361H323.647V0.713867Z" fill="#E76C73"></path><path d="M270.047 181.622H267.716V180.457H270.047V181.622ZM265.386 181.622H263.056V180.457H265.386V181.622ZM260.725 181.622H258.395V180.457H260.725V181.622ZM256.064 181.622H253.734V180.457H256.064V181.622ZM251.404 181.622H249.073V180.457H251.404V181.622ZM246.743 181.622H244.413V180.457H246.743V181.622ZM242.082 181.622H239.752V180.457H242.082V181.622ZM237.421 181.622H235.091V180.457H237.421V181.622ZM232.761 181.622H230.43V180.457H232.761V181.622ZM228.1 181.622H225.769V180.457H228.1V181.622ZM223.439 181.622H221.109V180.457H223.439V181.622ZM218.778 181.622H216.448V180.457H218.778V181.622ZM214.117 181.622H211.787V180.457H214.117V181.622ZM209.457 181.622H207.126V180.457H209.457V181.622ZM204.796 181.622H202.465V180.457H204.796V181.622ZM200.135 181.622H197.805V180.457H200.135V181.622ZM195.474 181.622H193.144V180.457H195.474V181.622ZM190.813 181.622H188.483V180.457H190.813V181.622ZM186.153 181.622H183.822V180.457H186.153V181.622ZM181.492 181.622H179.161V180.457H181.492V181.622ZM176.831 181.622H174.501V180.457H176.831V181.622ZM172.17 181.622H169.84V180.457H172.17V181.622ZM167.509 181.622H165.179V180.457H167.509V181.622ZM162.849 181.622H160.518V180.457H162.849V181.622ZM158.188 181.622H155.857V180.457H158.188V181.622ZM153.527 181.622H151.197V180.457H153.527V181.622ZM148.866 181.622H146.536V180.457H148.866V181.622ZM145.103 180.725H143.938V178.394H145.103V180.725ZM270.629 179.979H269.464V177.648H270.629V179.979ZM145.138 176.064H143.972V173.733H145.138V176.064ZM270.664 175.318H269.499V172.988H270.664V175.318ZM145.138 171.403H143.972V169.073H145.138V171.403ZM270.664 170.657H269.499V168.327H270.664V170.657ZM145.138 166.742H143.972V164.412H145.138V166.742ZM270.664 165.996H269.499V163.666H270.664V165.996ZM145.138 162.081H143.972V159.751H145.138V162.081ZM270.664 161.336H269.499V159.005H270.664V161.336ZM145.138 157.421H143.972V155.09H145.138V157.421ZM270.664 156.675H269.499V154.344H270.664V156.675ZM145.138 152.76H143.972V150.429H145.138V152.76ZM270.664 152.014H269.499V149.684H270.664V152.014ZM145.138 148.099H143.972V145.769H145.138V148.099ZM270.664 147.353H269.499V145.023H270.664V147.353ZM145.138 143.438H143.972V141.108H145.138V143.438ZM270.664 142.692H269.499V140.362H270.664V142.692ZM145.138 138.777H143.972V136.447H145.138V138.777ZM270.664 138.032H269.499V135.701H270.664V138.032ZM145.138 134.117H143.972V131.786H145.138V134.117ZM270.664 133.371H269.499V131.04H270.664V133.371ZM145.138 129.456H143.972V127.125H145.138V129.456ZM270.664 128.71H269.499V126.38H270.664V128.71ZM145.138 124.795H143.972V122.465H145.138V124.795ZM270.664 124.049H269.499V121.719H270.664V124.049ZM145.138 120.134H143.972V117.804H145.138V120.134ZM270.664 119.388H269.499V117.058H270.664V119.388ZM145.138 115.473H143.972V113.143H145.138V115.473ZM270.664 114.728H269.499V112.397H270.664V114.728ZM145.138 110.813H143.972V108.482H145.138V110.813ZM270.664 110.067H269.499V107.737H270.664V110.067ZM145.138 106.152H143.972V103.821H145.138V106.152ZM270.664 105.406H269.499V103.076H270.664V105.406ZM145.138 101.491H143.972V99.1607H145.138V101.491ZM270.664 100.745H269.499V98.4149H270.664V100.745ZM145.138 96.8303H143.972V94.4999H145.138V96.8303ZM270.664 96.0845H269.499V93.7542H270.664V96.0845ZM145.138 92.1695H143.972V89.8391H145.138V92.1695ZM270.664 91.4238H269.499V89.0934H270.664V91.4238ZM145.138 87.5087H143.972V85.1783H145.138V87.5087ZM270.664 86.763H269.499V84.4326H270.664V86.763ZM145.138 82.8479H143.972V80.5175H145.138V82.8479ZM270.664 82.1022H269.499V79.7718H270.664V82.1022ZM145.138 78.1871H143.972V75.8567H145.138V78.1871ZM270.664 77.4414H269.499V75.111H270.664V77.4414ZM145.138 73.5263H143.972V71.1959H145.138V73.5263ZM270.664 72.7806H269.499V70.4502H270.664V72.7806ZM145.138 68.8655H143.972V66.5351H145.138V68.8655ZM270.664 68.1198H269.499V65.7894H270.664V68.1198ZM145.138 64.2047H143.972V61.8743H145.138V64.2047ZM270.664 63.459H269.499V61.1286H270.664V63.459ZM145.138 59.5439H143.972V57.2135H145.138V59.5439ZM270.664 58.7982H269.499V56.4678H270.664V58.7982ZM268.695 56.1066H266.365V54.9414H268.695V56.1066ZM264.034 56.1066H261.704V54.9414H264.034V56.1066ZM259.374 56.1066H257.043V54.9414H259.374V56.1066ZM254.713 56.1066H252.382V54.9414H254.713V56.1066ZM250.052 56.1066H247.722V54.9414H250.052V56.1066ZM245.391 56.1066H243.061V54.9414H245.391V56.1066ZM240.73 56.1066H238.4V54.9414H240.73V56.1066ZM236.07 56.1066H233.739V54.9414H236.07V56.1066ZM231.409 56.1066H229.079V54.9414H231.409V56.1066ZM226.748 56.1066H224.418V54.9414H226.748V56.1066ZM222.087 56.1066H219.757V54.9414H222.087V56.1066ZM217.427 56.1066H215.096V54.9414H217.427V56.1066ZM212.766 56.1066H210.435V54.9414H212.766V56.1066ZM208.105 56.1066H205.775V54.9414H208.105V56.1066ZM203.444 56.1066H201.114V54.9414H203.444V56.1066ZM198.783 56.1066H196.453V54.9414H198.783V56.1066ZM194.123 56.1066H191.792V54.9414H194.123V56.1066ZM189.462 56.1066H187.131V54.9414H189.462V56.1066ZM184.801 56.1066H182.471V54.9414H184.801V56.1066ZM180.14 56.1066H177.81V54.9414H180.14V56.1066ZM175.479 56.1066H173.149V54.9414H175.479V56.1066ZM170.819 56.1066H168.488V54.9414H170.819V56.1066ZM166.158 56.1066H163.827V54.9414H166.158V56.1066ZM161.497 56.1066H159.167V54.9414H161.497V56.1066ZM156.836 56.1066H154.506V54.9414H156.836V56.1066ZM152.175 56.1066H149.845V54.9414H152.175V56.1066ZM147.515 56.1066H145.184V54.9414H147.515V56.1066Z" fill="#1D2529"></path><path d="M207.321 162.432C198.589 162.432 190.054 159.842 182.793 154.991C175.533 150.14 169.874 143.245 166.533 135.177C163.191 127.11 162.317 118.233 164.02 109.669C165.724 101.105 169.929 93.2383 176.103 87.0639C182.277 80.8895 190.144 76.6847 198.708 74.9811C207.272 73.2776 216.149 74.1519 224.216 77.4935C232.284 80.8351 239.179 86.4938 244.03 93.7541C248.881 101.014 251.471 109.55 251.471 118.282C251.455 129.987 246.799 141.207 238.523 149.483C230.246 157.76 219.026 162.416 207.321 162.432ZM207.321 75.298C198.82 75.298 190.509 77.819 183.441 82.5422C176.372 87.2653 170.862 93.9785 167.609 101.833C164.356 109.687 163.504 118.33 165.163 126.668C166.822 135.006 170.915 142.665 176.927 148.677C182.938 154.688 190.597 158.782 198.935 160.44C207.274 162.099 215.916 161.248 223.771 157.994C231.625 154.741 238.338 149.232 243.061 142.163C247.784 135.094 250.305 126.784 250.305 118.282C250.29 106.887 245.756 95.9626 237.699 87.9048C229.641 79.8471 218.717 75.3134 207.321 75.298Z" fill="white"></path><path d="M207.326 140.455C202.948 140.455 198.667 139.157 195.027 136.724C191.386 134.292 188.548 130.834 186.873 126.789C185.197 122.743 184.759 118.292 185.613 113.997C186.467 109.703 188.576 105.758 191.672 102.662C194.768 99.5659 198.713 97.4574 203.007 96.6031C207.302 95.7489 211.753 96.1873 215.798 97.863C219.844 99.5386 223.301 102.376 225.734 106.017C228.167 109.658 229.465 113.938 229.465 118.316C229.447 124.182 227.108 129.803 222.96 133.951C218.813 138.098 213.192 140.437 207.326 140.455ZM207.326 97.273C203.178 97.273 199.123 98.5031 195.674 100.808C192.225 103.112 189.537 106.388 187.949 110.22C186.362 114.053 185.946 118.27 186.756 122.338C187.565 126.407 189.563 130.144 192.496 133.077C195.429 136.01 199.166 138.008 203.235 138.817C207.303 139.626 211.52 139.211 215.353 137.624C219.185 136.036 222.461 133.348 224.765 129.899C227.07 126.45 228.3 122.395 228.3 118.247C228.284 112.689 226.07 107.363 222.14 103.433C218.21 99.503 212.884 97.2884 207.326 97.273Z" fill="white"></path><path d="M251.407 66.8737L251.442 68.1088L256.638 67.9456L143.102 180.166L143.975 181.04L257.501 68.8312L257.279 74.028L258.526 74.0746L258.841 66.6406L251.407 66.8737Z" fill="#1D2529"></path><path d="M258.843 66.6403L258.529 74.0742L257.235 74.016L257.457 68.8308L143.978 181.051L143.104 180.165L256.641 67.9336L251.444 68.0968V66.8617L258.878 66.6286M258.878 59.6374H258.633L251.223 59.8705C250.303 59.8946 249.396 60.1002 248.556 60.4755C247.715 60.8508 246.957 61.3884 246.325 62.0575C245.692 62.7265 245.199 63.5139 244.871 64.3743C244.544 65.2347 244.39 66.1513 244.418 67.0714V68.3182C244.431 68.8615 244.509 69.4014 244.651 69.9261L138.152 175.19C137.502 175.839 136.986 176.61 136.634 177.459C136.283 178.308 136.102 179.218 136.102 180.136C136.102 181.055 136.283 181.965 136.634 182.814C136.986 183.662 137.502 184.433 138.152 185.083L139.014 185.957C139.66 186.61 140.428 187.131 141.274 187.487C142.121 187.844 143.03 188.031 143.948 188.036C144.867 188.042 145.778 187.866 146.629 187.519C147.48 187.172 148.254 186.661 148.907 186.015L255.394 80.7508C255.918 80.9012 256.458 80.9873 257.002 81.0072H258.237H258.529C260.333 81.0087 262.069 80.3123 263.372 79.0635C264.675 77.8148 265.445 76.1105 265.52 74.3073L265.823 67.0947C265.823 66.9199 265.823 66.7568 265.823 66.582C265.823 64.7278 265.086 62.9496 263.775 61.6385C262.464 60.3274 260.686 59.5908 258.832 59.5908L258.878 59.6374Z" fill="#E76C73"></path><path d="M293.251 252.479H290.921V251.313H293.251V252.479ZM288.591 252.479H286.26V251.313H288.591V252.479ZM283.93 252.479H281.599V251.313H283.93V252.479ZM279.269 252.479H276.939V251.313H279.269V252.479ZM274.608 252.479H272.278V251.313H274.608V252.479ZM269.947 252.479H267.617V251.313H269.947V252.479ZM265.287 252.479H262.956V251.313H265.287V252.479ZM260.626 252.479H258.295V251.313H260.626V252.479ZM255.965 252.479H253.635V251.313H255.965V252.479ZM251.304 252.479H248.974V251.313H251.304V252.479ZM246.644 252.479H244.313V251.313H246.644V252.479ZM241.983 252.479H239.652V251.313H241.983V252.479ZM237.322 252.479H234.992V251.313H237.322V252.479ZM232.661 252.479H230.331V251.313H232.661V252.479ZM228 252.479H225.67V251.313H228V252.479ZM223.34 252.479H221.009V251.313H223.34V252.479ZM218.679 252.479H216.348V251.313H218.679V252.479ZM214.018 252.479H211.688V251.313H214.018V252.479ZM209.357 252.479H207.027V251.313H209.357V252.479ZM204.696 252.479H202.366V251.313H204.696V252.479ZM200.036 252.479H197.705V251.313H200.036V252.479ZM195.375 252.479H193.044V251.313H195.375V252.479ZM190.714 252.479H188.384V251.313H190.714V252.479ZM186.053 252.479H183.723V251.313H186.053V252.479ZM181.392 252.479H179.062V251.313H181.392V252.479ZM176.732 252.479H174.401V251.313H176.732V252.479ZM172.071 252.479H169.74V251.313H172.071V252.479ZM167.41 252.479H165.08V251.313H167.41V252.479ZM162.749 252.479H160.419V251.313H162.749V252.479ZM158.088 252.479H155.758V251.313H158.088V252.479ZM153.428 252.479H151.097V251.313H153.428V252.479ZM148.767 252.479H146.437V251.313H148.767V252.479ZM144.106 252.479H141.776V251.313H144.106V252.479ZM139.445 252.479H137.115V251.313H139.445V252.479ZM134.785 252.479H132.454V251.313H134.785V252.479ZM130.124 252.479H127.793V251.313H130.124V252.479ZM125.463 252.479H123.133V251.313H125.463V252.479ZM120.802 252.479H118.472V251.313H120.802V252.479ZM116.141 252.479H113.811V251.313H116.141V252.479ZM111.481 252.479H109.15V251.313H111.481V252.479ZM106.82 252.479H104.489V251.313H106.82V252.479ZM102.159 252.479H99.8286V251.313H102.159V252.479ZM97.4982 252.479H95.1678V251.313H97.4982V252.479ZM92.8374 252.479H90.507V251.313H92.8374V252.479ZM88.1766 252.479H85.8462V251.313H88.1766V252.479ZM83.5158 252.479H81.1854V251.313H83.5158V252.479ZM78.855 252.479H76.5246V251.313H78.855V252.479ZM74.1942 252.479H71.8638V251.313H74.1942V252.479ZM295.873 251.605H294.708V249.274H295.873V251.605ZM72.4464 250.707H71.2812V248.377H72.4464V250.707ZM295.873 246.944H294.708V244.613H295.873V246.944ZM72.4464 246.047H71.2812V243.716H72.4464V246.047ZM295.873 242.283H294.708V239.953H295.873V242.283ZM72.4464 241.386H71.2812V239.055H72.4464V241.386ZM295.873 237.622H294.708V235.292H295.873V237.622ZM72.4464 236.725H71.2812V234.395H72.4464V236.725ZM295.873 232.961H294.708V230.631H295.873V232.961ZM72.4464 232.064H71.2812V229.734H72.4464V232.064ZM295.873 228.301H294.708V225.97H295.873V228.301ZM72.4464 227.403H71.2812V225.073H72.4464V227.403ZM295.873 223.64H294.708V221.309H295.873V223.64ZM72.4464 222.743H71.2812V220.412H72.4464V222.743ZM295.873 218.979H294.708V216.649H295.873V218.979ZM72.4464 218.082H71.2812V215.751H72.4464V218.082ZM295.873 214.318H294.708V211.988H295.873V214.318ZM72.4464 213.421H71.2812V211.091H72.4464V213.421ZM295.873 209.658H294.708V207.327H295.873V209.658ZM72.4464 208.76H71.2812V206.43H72.4464V208.76ZM295.873 204.997H294.708V202.666H295.873V204.997ZM72.4464 204.1H71.2812V201.769H72.4464V204.1ZM295.873 200.336H294.708V198.006H295.873V200.336ZM72.4464 199.439H71.2812V197.108H72.4464V199.439ZM295.873 195.675H294.708V193.345H295.873V195.675ZM72.4464 194.778H71.2812V192.448H72.4464V194.778ZM295.873 191.014H294.708V188.684H295.873V191.014ZM72.4464 190.117H71.2812V187.787H72.4464V190.117ZM295.873 186.354H294.708V184.023H295.873V186.354ZM72.4464 185.456H71.2812V183.126H72.4464V185.456ZM295.873 181.693H294.708V179.362H295.873V181.693ZM72.4464 180.796H71.2812V178.465H72.4464V180.796ZM295.873 177.032H294.708V174.702H295.873V177.032ZM72.4464 176.135H71.2812V173.804H72.4464V176.135ZM295.873 172.371H294.708V170.041H295.873V172.371ZM72.4464 171.474H71.2812V169.144H72.4464V171.474ZM295.873 167.71H294.708V165.38H295.873V167.71ZM72.4464 166.813H71.2812V164.483H72.4464V166.813ZM295.873 163.05H294.708V160.719H295.873V163.05ZM72.4464 162.152H71.2812V159.822H72.4464V162.152ZM295.873 158.389H294.708V156.058H295.873V158.389ZM72.4464 157.492H71.2812V155.161H72.4464V157.492ZM295.873 153.728H294.708V151.398H295.873V153.728ZM72.4464 152.831H71.2812V150.5H72.4464V152.831ZM295.873 149.067H294.708V146.737H295.873V149.067ZM72.4464 148.17H71.2812V145.84H72.4464V148.17ZM295.873 144.406H294.708V142.076H295.873V144.406ZM72.4464 143.509H71.2812V141.179H72.4464V143.509ZM295.873 139.746H294.708V137.415H295.873V139.746ZM72.4464 138.848H71.2812V136.518H72.4464V138.848ZM295.873 135.085H294.708V132.754H295.873V135.085ZM72.4464 134.188H71.2812V131.857H72.4464V134.188ZM295.873 130.424H294.708V128.094H295.873V130.424ZM72.4464 129.527H71.2812V127.196H72.4464V129.527ZM295.873 125.763H294.708V123.433H295.873V125.763ZM72.4464 124.878H71.2812V122.547H72.4464V124.878ZM295.873 121.102H294.708V118.772H295.873V121.102ZM72.4464 120.217H71.2812V117.887H72.4464V120.217ZM295.873 116.442H294.708V114.111H295.873V116.442ZM72.4464 115.556H71.2812V113.226H72.4464V115.556ZM295.873 111.781H294.708V109.45H295.873V111.781ZM72.4464 110.895H71.2812V108.565H72.4464V110.895ZM295.873 107.12H294.708V104.79H295.873V107.12ZM72.4464 106.235H71.2812V103.904H72.4464V106.235ZM295.873 102.459H294.708V100.129H295.873V102.459ZM72.4464 101.574H71.2812V99.2434H72.4464V101.574ZM295.873 97.7985H294.708V95.4681H295.873V97.7985ZM72.4464 96.913H71.2812V94.5826H72.4464V96.913ZM295.873 93.1377H294.708V90.8073H295.873V93.1377ZM72.4464 92.2522H71.2812V89.9218H72.4464V92.2522ZM295.873 88.4769H294.708V86.1465H295.873V88.4769ZM72.4464 87.5914H71.2812V85.261H72.4464V87.5914ZM295.873 83.8161H294.708V81.4857H295.873V83.8161ZM72.4464 82.9306H71.2812V80.6002H72.4464V82.9306ZM295.873 79.1553H294.708V76.825H295.873V79.1553ZM72.4464 78.2698H71.2812V75.9394H72.4464V78.2698ZM295.873 74.4946H294.708V72.1642H295.873V74.4946ZM72.4464 73.609H71.2812V71.2786H72.4464V73.609ZM295.873 69.8338H294.708V67.5034H295.873V69.8338ZM72.4464 68.9482H71.2812V66.6178H72.4464V68.9482ZM295.873 65.173H294.708V62.8426H295.873V65.173ZM72.4464 64.2874H71.2812V61.957H72.4464V64.2874ZM295.873 60.5122H294.708V58.1818H295.873V60.5122ZM72.4464 59.6266H71.2812V57.2962H72.4464V59.6266ZM295.873 55.8514H294.708V53.521H295.873V55.8514ZM72.4464 54.9658H71.2812V52.6355H72.4464V54.9658ZM295.873 51.1906H294.708V48.8602H295.873V51.1906ZM72.4464 50.3051H71.2812V47.9747H72.4464V50.3051ZM295.873 46.5298H294.708V44.1994H295.873V46.5298ZM72.4464 45.6443H71.2812V43.3139H72.4464V45.6443ZM295.873 41.869H294.708V39.5386H295.873V41.869ZM72.4464 40.9835H71.2812V38.6531H72.4464V40.9835ZM295.873 37.2082H294.708V34.8778H295.873V37.2082ZM72.4464 36.3227H71.2812V33.9923H72.4464V36.3227ZM295.873 32.5474H294.708V30.217H295.873V32.5474ZM72.4464 31.6619H71.2812V29.3315H72.4464V31.6619ZM294.72 29.0402H292.389V27.875H294.72V29.0402ZM290.059 29.0402H287.728V27.875H290.059V29.0402ZM285.398 29.0402H283.068V27.875H285.398V29.0402ZM280.737 29.0402H278.407V27.875H280.737V29.0402ZM276.076 29.0402H273.746V27.875H276.076V29.0402ZM271.416 29.0402H269.085V27.875H271.416V29.0402ZM266.755 29.0402H264.424V27.875H266.755V29.0402ZM262.094 29.0402H259.764V27.875H262.094V29.0402ZM257.433 29.0402H255.103V27.875H257.433V29.0402ZM252.772 29.0402H250.442V27.875H252.772V29.0402ZM248.112 29.0402H245.781V27.875H248.112V29.0402ZM243.451 29.0402H241.12V27.875H243.451V29.0402ZM238.79 29.0402H236.46V27.875H238.79V29.0402ZM234.129 29.0402H231.799V27.875H234.129V29.0402ZM229.468 29.0402H227.138V27.875H229.468V29.0402ZM224.808 29.0402H222.477V27.875H224.808V29.0402ZM220.147 29.0402H217.817V27.875H220.147V29.0402ZM215.486 29.0402H213.156V27.875H215.486V29.0402ZM210.825 29.0402H208.495V27.875H210.825V29.0402ZM206.165 29.0402H203.834V27.875H206.165V29.0402ZM201.504 29.0402H199.173V27.875H201.504V29.0402ZM196.843 29.0402H194.513V27.875H196.843V29.0402ZM192.182 29.0402H189.852V27.875H192.182V29.0402ZM187.521 29.0402H185.191V27.875H187.521V29.0402ZM182.861 29.0402H180.53V27.875H182.861V29.0402ZM178.2 29.0402H175.869V27.875H178.2V29.0402ZM173.539 29.0402H171.209V27.875H173.539V29.0402ZM168.878 29.0402H166.548V27.875H168.878V29.0402ZM164.217 29.0402H161.887V27.875H164.217V29.0402ZM159.557 29.0402H157.226V27.875H159.557V29.0402ZM154.896 29.0402H152.565V27.875H154.896V29.0402ZM150.235 29.0402H147.905V27.875H150.235V29.0402ZM145.574 29.0402H143.244V27.875H145.574V29.0402ZM140.913 29.0402H138.583V27.875H140.913V29.0402ZM136.253 29.0402H133.922V27.875H136.253V29.0402ZM131.592 29.0402H129.261V27.875H131.592V29.0402ZM126.931 29.0402H124.601V27.875H126.931V29.0402ZM122.27 29.0402H119.94V27.875H122.27V29.0402ZM117.61 29.0402H115.279V27.875H117.61V29.0402ZM112.949 29.0402H110.618V27.875H112.949V29.0402ZM108.288 29.0402H105.958V27.875H108.288V29.0402ZM103.627 29.0402H101.297V27.875H103.627V29.0402ZM98.9663 29.0402H96.636V27.875H98.9663V29.0402ZM94.3056 29.0402H91.9752V27.875H94.3056V29.0402ZM89.6448 29.0402H87.3144V27.875H89.6448V29.0402ZM84.984 29.0402H82.6536V27.875H84.984V29.0402ZM80.3232 29.0402H77.9928V27.875H80.3232V29.0402ZM75.6624 29.0402H73.332V27.875H75.6624V29.0402Z" fill="white"></path><path d="M81.6377 19.6836H64.0781V37.2431H81.6377V19.6836Z" fill="#E76C73"></path><path d="M82.2247 37.8253H63.5V19.1006H82.2247V37.8253ZM64.6652 36.6601H81.0595V20.2658H64.6652V36.6601Z" fill="white"></path><path d="M304.567 19.6836H287.008V37.2431H304.567V19.6836Z" fill="#E76C73"></path><path d="M305.147 37.8253H286.422V19.1006H305.147V37.8253ZM287.587 36.6601H303.981V20.2658H287.587V36.6601Z" fill="white"></path><path d="M303.567 243.109H286.008V260.669H303.567V243.109Z" fill="#E76C73"></path><path d="M304.147 261.252H285.422V242.527H304.147V261.252ZM286.587 260.087H302.981V243.693H286.587V260.087Z" fill="white"></path><path d="M71.8633 251.896H137.312V186.446H71.8633L71.8633 251.896Z" fill="#1D2529"></path><path d="M137.896 252.478H71.2812V185.863H137.896V252.478ZM72.4464 251.312H136.73V187.028H72.4464V251.312Z" fill="#1D2529"></path><path d="M132.226 191.526H76.9375V246.815H132.226V191.526Z" fill="#1D2529"></path><path d="M104.588 239.217C100.622 239.22 96.7433 238.046 93.4441 235.844C90.1449 233.642 87.5728 230.51 86.0532 226.846C84.5337 223.182 84.1349 219.15 84.9073 215.259C85.6798 211.369 87.5887 207.794 90.3927 204.989C93.1967 202.183 96.7698 200.272 100.66 199.498C104.55 198.723 108.583 199.119 112.248 200.637C115.913 202.154 119.045 204.724 121.249 208.022C123.453 211.32 124.63 215.198 124.63 219.164C124.623 224.479 122.51 229.574 118.753 233.333C114.997 237.092 109.903 239.208 104.588 239.217ZM104.588 200.277C100.852 200.274 97.1991 201.38 94.0914 203.454C90.9838 205.528 88.5611 208.477 87.1297 211.928C85.6984 215.379 85.3227 219.177 86.0501 222.842C86.7776 226.507 88.5756 229.873 91.2166 232.516C93.8577 235.159 97.2232 236.959 100.887 237.688C104.552 238.418 108.35 238.045 111.802 236.616C115.254 235.186 118.204 232.765 120.28 229.659C122.356 226.553 123.464 222.901 123.464 219.164C123.461 214.158 121.472 209.357 117.933 205.816C114.394 202.275 109.595 200.283 104.588 200.277Z" fill="white"></path><path d="M104.598 229.395C102.574 229.395 100.596 228.795 98.9139 227.671C97.2315 226.547 95.9203 224.949 95.1459 223.08C94.3716 221.211 94.169 219.154 94.5638 217.169C94.9585 215.185 95.9329 213.362 97.3636 211.931C98.7944 210.5 100.617 209.526 102.602 209.131C104.586 208.736 106.643 208.939 108.513 209.713C110.382 210.488 111.98 211.799 113.104 213.481C114.228 215.164 114.828 217.142 114.828 219.165C114.828 221.878 113.75 224.48 111.832 226.399C109.913 228.318 107.311 229.395 104.598 229.395ZM104.598 210.088C102.805 210.088 101.052 210.62 99.5612 211.616C98.0705 212.612 96.9086 214.028 96.2224 215.684C95.5363 217.341 95.3568 219.163 95.7066 220.922C96.0564 222.68 96.9197 224.296 98.1875 225.563C99.4553 226.831 101.071 227.695 102.829 228.044C104.588 228.394 106.41 228.215 108.067 227.529C109.723 226.842 111.139 225.681 112.135 224.19C113.131 222.699 113.663 220.946 113.663 219.153C113.66 216.75 112.704 214.446 111.004 212.747C109.305 211.047 107.001 210.091 104.598 210.088Z" fill="white"></path><path d="M80.6533 243.109H63.0938V260.669H80.6533V243.109Z" fill="#E76C73"></path><path d="M81.2908 261.252H62.5078V242.527H81.2908V261.252ZM63.7313 260.087H80.1256V243.693H63.673L63.7313 260.087Z" fill="white"></path><path d="M257.508 67.104L143.133 180.209L143.952 181.037L258.328 67.9325L257.508 67.104Z" fill="#1D2529"></path><path d="M258.528 73.6318L257.363 73.5852L257.608 67.8408L251.863 68.0156L251.828 66.8504L258.831 66.6406L258.528 73.6318Z" fill="#1D2529"></path></g></g><defs><clipPath id="clip0_1189_4198"><rect width="368" height="280" rx="4.8" fill="white"></rect></clipPath><clipPath id="clip1_1189_4198"><rect x="44" y="0.352539" width="279.647" height="279.647" rx="7.98993" fill="white"></rect></clipPath></defs></svg>