<?xml version="1.0" encoding="UTF-8"?> <svg xmlns="http://www.w3.org/2000/svg" width="368" height="280" viewBox="0 0 368 280" fill="none"><g clip-path="url(#clip0_1189_5277)"><rect width="368" height="280" rx="4.8" fill="#C8D2DA"></rect><mask id="mask0_1189_5277" style="mask-type:alpha" maskUnits="userSpaceOnUse" x="0" y="0" width="368" height="327"><rect width="368" height="326.182" rx="3.63519" fill="#7E6CAC"></rect></mask><g mask="url(#mask0_1189_5277)"><rect width="368" height="326.182" rx="3.63519" fill="#E76C73"></rect></g><g clip-path="url(#clip1_1189_5277)"><path d="M334 -7H40V287H334V-7Z" fill="#E76C73"></path><path d="M195.169 164.88H133.797V165.982H195.169V164.88Z" fill="white"></path><path d="M195.169 179.751H133.797V180.853H195.169V179.751Z" fill="white"></path><path d="M170.412 194.635H133.797V195.737H170.412V194.635Z" fill="white"></path><path d="M264.582 227.711H107.672V27.166H217.726L217.885 27.3253L264.582 72.8095V227.711ZM108.774 226.608H263.48V73.275L217.273 28.2685H108.774V226.608Z" fill="white"></path><path d="M278.017 119.555C278.017 123.545 277.231 127.497 275.704 131.183C274.176 134.87 271.937 138.22 269.115 141.041C266.292 143.862 262.942 146.1 259.255 147.626C255.567 149.152 251.616 149.936 247.625 149.935C251.615 149.933 255.565 150.717 259.252 152.243C262.938 153.768 266.288 156.004 269.11 158.824C271.933 161.644 274.172 164.992 275.7 168.677C277.228 172.363 278.016 176.313 278.017 180.302C278.017 172.248 281.217 164.524 286.912 158.829C292.607 153.134 300.331 149.935 308.385 149.935C304.396 149.935 300.446 149.149 296.761 147.622C293.076 146.095 289.727 143.857 286.907 141.036C284.087 138.215 281.851 134.865 280.325 131.18C278.8 127.494 278.016 123.544 278.017 119.555ZM278.017 119.555C278.017 123.545 277.231 127.497 275.704 131.183C274.176 134.87 271.937 138.22 269.115 141.041C266.292 143.862 262.942 146.1 259.255 147.626C255.567 149.152 251.616 149.936 247.625 149.935C251.615 149.933 255.565 150.717 259.252 152.243C262.938 153.768 266.288 156.004 269.11 158.824C271.933 161.644 274.172 164.992 275.7 168.677C277.228 172.363 278.016 176.313 278.017 180.302C278.017 172.248 281.217 164.524 286.912 158.829C292.607 153.134 300.331 149.935 308.385 149.935C304.396 149.935 300.446 149.149 296.761 147.622C293.076 146.095 289.727 143.857 286.907 141.036C284.087 138.215 281.851 134.865 280.325 131.18C278.8 127.494 278.016 123.544 278.017 119.555ZM278.017 119.555C278.017 123.545 277.231 127.497 275.704 131.183C274.176 134.87 271.937 138.22 269.115 141.041C266.292 143.862 262.942 146.1 259.255 147.626C255.567 149.152 251.616 149.936 247.625 149.935C251.615 149.933 255.565 150.717 259.252 152.243C262.938 153.768 266.288 156.004 269.11 158.824C271.933 161.644 274.172 164.992 275.7 168.677C277.228 172.363 278.016 176.313 278.017 180.302C278.017 172.248 281.217 164.524 286.912 158.829C292.607 153.134 300.331 149.935 308.385 149.935C304.396 149.935 300.446 149.149 296.761 147.622C293.076 146.095 289.727 143.857 286.907 141.036C284.087 138.215 281.851 134.865 280.325 131.18C278.8 127.494 278.016 123.544 278.017 119.555Z" fill="#E76C73"></path><path d="M284.142 180.302H271.892C271.883 173.87 269.322 167.705 264.773 163.158C260.224 158.611 254.057 156.054 247.625 156.047V143.797C254.055 143.791 260.22 141.236 264.769 136.691C269.318 132.147 271.879 125.985 271.892 119.555H284.142C284.152 125.981 286.709 132.142 291.254 136.686C295.798 141.23 301.958 143.788 308.385 143.797V156.047C301.956 156.057 295.794 158.616 291.249 163.163C286.705 167.71 284.149 173.874 284.142 180.302ZM267.85 149.922C271.871 152.615 275.325 156.069 278.017 160.09C280.705 156.069 284.155 152.615 288.172 149.922C284.152 147.238 280.702 143.787 278.017 139.767C275.329 143.788 271.874 147.239 267.85 149.922Z" fill="#E76C73"></path><path d="M219.111 112.793H133.68V104.549H219.111V112.793ZM134.905 111.568H217.886V105.774H134.905V111.568Z" fill="white"></path><path d="M212.494 73.5074H133.188V65.2754H212.494V73.5074ZM134.413 72.2824H211.269V66.5004H134.413V72.2824Z" fill="white"></path><path d="M175.977 73.5074H133.188V65.2754H175.977V73.5074ZM134.462 72.2824H174.752V66.5004H134.413L134.462 72.2824Z" fill="white"></path><path d="M234.985 93.1438H133.188V84.875H234.985V93.1438ZM134.412 91.9188H233.76V86.1H134.412V91.9188Z" fill="white"></path><path d="M176.43 112.793H133.188V104.549H176.43V112.793ZM134.413 111.568H175.205V105.774H134.413V111.568Z" fill="white"></path><path d="M202.731 93.1438H133.188V84.875H202.731V93.1438Z" fill="white"></path><path d="M197.6 132.442H133.68V124.197H197.6V132.442ZM134.905 131.217H196.375V125.422H134.905V131.217Z" fill="white"></path><path d="M173.453 132.442H133.188V124.197H173.453V132.442Z" fill="white"></path><path d="M251.449 239.788H94.3672V45.9199H95.4697V238.686H251.449V239.788Z" fill="white"></path><path d="M239.843 252.834H82.7734V58.9531H83.8759V251.731H239.843V252.834Z" fill="white"></path><path d="M278.017 119.555C278.017 123.545 277.231 127.497 275.704 131.183C274.176 134.87 271.937 138.22 269.115 141.041C266.292 143.862 262.942 146.1 259.255 147.626C255.567 149.152 251.616 149.936 247.625 149.935C251.615 149.933 255.565 150.717 259.252 152.243C262.938 153.768 266.288 156.004 269.11 158.824C271.933 161.644 274.172 164.992 275.7 168.677C277.228 172.363 278.016 176.313 278.017 180.302C278.017 172.248 281.217 164.524 286.912 158.829C292.607 153.134 300.331 149.935 308.385 149.935C304.396 149.935 300.446 149.149 296.761 147.622C293.076 146.095 289.727 143.857 286.907 141.036C284.087 138.215 281.851 134.865 280.325 131.18C278.8 127.494 278.016 123.544 278.017 119.555ZM278.017 119.555C278.017 123.545 277.231 127.497 275.704 131.183C274.176 134.87 271.937 138.22 269.115 141.041C266.292 143.862 262.942 146.1 259.255 147.626C255.567 149.152 251.616 149.936 247.625 149.935C251.615 149.933 255.565 150.717 259.252 152.243C262.938 153.768 266.288 156.004 269.11 158.824C271.933 161.644 274.172 164.992 275.7 168.677C277.228 172.363 278.016 176.313 278.017 180.302C278.017 172.248 281.217 164.524 286.912 158.829C292.607 153.134 300.331 149.935 308.385 149.935C304.396 149.935 300.446 149.149 296.761 147.622C293.076 146.095 289.727 143.857 286.907 141.036C284.087 138.215 281.851 134.865 280.325 131.18C278.8 127.494 278.016 123.544 278.017 119.555ZM278.017 119.555C278.017 123.545 277.231 127.497 275.704 131.183C274.176 134.87 271.937 138.22 269.115 141.041C266.292 143.862 262.942 146.1 259.255 147.626C255.567 149.152 251.616 149.936 247.625 149.935C251.615 149.933 255.565 150.717 259.252 152.243C262.938 153.768 266.288 156.004 269.11 158.824C271.933 161.644 274.172 164.992 275.7 168.677C277.228 172.363 278.016 176.313 278.017 180.302C278.017 172.248 281.217 164.524 286.912 158.829C292.607 153.134 300.331 149.935 308.385 149.935C304.396 149.935 300.446 149.149 296.761 147.622C293.076 146.095 289.727 143.857 286.907 141.036C284.087 138.215 281.851 134.865 280.325 131.18C278.8 127.494 278.016 123.544 278.017 119.555Z" fill="#E76C73"></path><path d="M278.63 180.302H277.405C277.392 172.409 274.25 164.844 268.667 159.264C263.085 153.684 255.518 150.545 247.625 150.535V149.31C255.517 149.303 263.084 146.167 268.667 140.589C274.249 135.011 277.392 127.447 277.405 119.555H278.63C278.639 127.443 281.778 135.006 287.356 140.584C292.934 146.162 300.496 149.3 308.385 149.31V150.535C300.495 150.548 292.933 153.689 287.355 159.269C281.777 164.849 278.639 172.413 278.63 180.302Z" fill="#1D2529"></path><path d="M229.127 177.865C229.124 181.269 227.77 184.533 225.363 186.939C222.956 189.346 219.693 190.7 216.289 190.703C219.694 190.703 222.959 192.056 225.367 194.463C227.774 196.871 229.127 200.136 229.127 203.541C229.127 200.136 230.48 196.871 232.887 194.463C235.295 192.056 238.56 190.703 241.965 190.703C238.56 190.703 235.295 189.351 232.887 186.943C230.48 184.535 229.127 181.27 229.127 177.865ZM229.127 177.865C229.124 181.269 227.77 184.533 225.363 186.939C222.956 189.346 219.693 190.7 216.289 190.703C219.694 190.703 222.959 192.056 225.367 194.463C227.774 196.871 229.127 200.136 229.127 203.541C229.127 200.136 230.48 196.871 232.887 194.463C235.295 192.056 238.56 190.703 241.965 190.703C238.56 190.703 235.295 189.351 232.887 186.943C230.48 184.535 229.127 181.27 229.127 177.865ZM229.127 177.865C229.124 181.269 227.77 184.533 225.363 186.939C222.956 189.346 219.693 190.7 216.289 190.703C219.694 190.703 222.959 192.056 225.367 194.463C227.774 196.871 229.127 200.136 229.127 203.541C229.127 200.136 230.48 196.871 232.887 194.463C235.295 192.056 238.56 190.703 241.965 190.703C238.56 190.703 235.295 189.351 232.887 186.943C230.48 184.535 229.127 181.27 229.127 177.865Z" fill="#E76C73"></path><path d="M229.741 203.541H228.516C228.516 200.293 227.225 197.177 224.928 194.879C222.63 192.582 219.515 191.291 216.266 191.291V190.066C219.515 190.066 222.63 188.776 224.928 186.478C227.225 184.181 228.516 181.065 228.516 177.816H229.741C229.741 181.065 231.031 184.181 233.329 186.478C235.626 188.776 238.742 190.066 241.991 190.066V191.291C238.742 191.291 235.626 192.582 233.329 194.879C231.031 197.177 229.741 200.293 229.741 203.541Z" fill="#1D2529"></path></g></g><defs><clipPath id="clip0_1189_5277"><rect width="368" height="280" rx="4.8" fill="white"></rect></clipPath><clipPath id="clip1_1189_5277"><rect x="40" y="-7" width="294" height="294" rx="8.4" fill="white"></rect></clipPath></defs></svg>