<?xml version="1.0" encoding="UTF-8"?> <svg xmlns="http://www.w3.org/2000/svg" xmlns:xlink="http://www.w3.org/1999/xlink" id="Layer_1" data-name="Layer 1" viewBox="0 0 240 240"><defs><style>.cls-1,.cls-12,.cls-5,.cls-9{fill:none;}.cls-2,.cls-6{fill:#e76c73;}.cls-3{clip-path:url(#clip-path);}.cls-4{opacity:0.5;}.cls-5{stroke:#1d2529;}.cls-12,.cls-5,.cls-6{stroke-miterlimit:10;}.cls-10,.cls-11,.cls-12,.cls-6,.cls-9{stroke:#fff;}.cls-7{fill:#fff;}.cls-10,.cls-11,.cls-8{fill:#1d2529;}.cls-10,.cls-11{stroke-dasharray:2 2;}.cls-11{opacity:0;}</style><clipPath id="clip-path"><rect class="cls-1" x="-127.8" y="98.28" width="90.92" height="36.87"></rect></clipPath></defs><rect class="cls-2" width="240" height="240"></rect><g class="cls-3"><g class="cls-4"><line class="cls-5" x1="-164.83" y1="213.61" x2="10.94" y2="37.84"></line><line class="cls-5" x1="-167.53" y1="210.91" x2="8.24" y2="35.14"></line><line class="cls-5" x1="-170.23" y1="208.21" x2="5.54" y2="32.44"></line><line class="cls-5" x1="-172.93" y1="205.51" x2="2.84" y2="29.74"></line><line class="cls-5" x1="-175.63" y1="202.81" x2="0.14" y2="27.04"></line><line class="cls-5" x1="-78.42" y1="299.96" x2="97.35" y2="124.19"></line><line class="cls-5" x1="-81.12" y1="297.26" x2="94.65" y2="121.49"></line><line class="cls-5" x1="-83.82" y1="294.56" x2="91.95" y2="118.79"></line><line class="cls-5" x1="-86.52" y1="291.86" x2="89.25" y2="116.09"></line><line class="cls-5" x1="-89.22" y1="289.16" x2="86.55" y2="113.39"></line><line class="cls-5" x1="-91.92" y1="286.46" x2="83.86" y2="110.69"></line><line class="cls-5" x1="-94.62" y1="283.76" x2="81.16" y2="107.99"></line><line class="cls-5" x1="-97.31" y1="281.06" x2="78.46" y2="105.29"></line><line class="cls-5" x1="-100.01" y1="278.36" x2="75.76" y2="102.59"></line><line class="cls-5" x1="-102.71" y1="275.67" x2="73.06" y2="99.89"></line><line class="cls-5" x1="-105.41" y1="272.97" x2="70.36" y2="97.19"></line><line class="cls-5" x1="-108.11" y1="270.27" x2="67.66" y2="94.5"></line><line class="cls-5" x1="-110.81" y1="267.57" x2="64.96" y2="91.8"></line><line class="cls-5" x1="-113.51" y1="264.87" x2="62.26" y2="89.1"></line><line class="cls-5" x1="-116.21" y1="262.17" x2="59.56" y2="86.4"></line><line class="cls-5" x1="-118.91" y1="259.47" x2="56.86" y2="83.7"></line><line class="cls-5" x1="-121.61" y1="256.77" x2="54.16" y2="81"></line><line class="cls-5" x1="-124.31" y1="254.07" x2="51.46" y2="78.3"></line><line class="cls-5" x1="-127.01" y1="251.37" x2="48.77" y2="75.6"></line><line class="cls-5" x1="-129.71" y1="248.67" x2="46.07" y2="72.9"></line><line class="cls-5" x1="-132.4" y1="245.97" x2="43.37" y2="70.2"></line><line class="cls-5" x1="-135.1" y1="243.28" x2="40.67" y2="67.5"></line><line class="cls-5" x1="-137.8" y1="240.58" x2="37.97" y2="64.8"></line><line class="cls-5" x1="-140.5" y1="237.88" x2="35.27" y2="62.11"></line><line class="cls-5" x1="-143.2" y1="235.18" x2="32.57" y2="59.41"></line><line class="cls-5" x1="-145.9" y1="232.48" x2="29.87" y2="56.71"></line><line class="cls-5" x1="-148.6" y1="229.78" x2="27.17" y2="54.01"></line><line class="cls-5" x1="-151.3" y1="227.08" x2="24.47" y2="51.31"></line><line class="cls-5" x1="-154" y1="224.38" x2="21.77" y2="48.61"></line><line class="cls-5" x1="-156.7" y1="221.68" x2="19.07" y2="45.91"></line><line class="cls-5" x1="-159.4" y1="218.98" x2="16.38" y2="43.21"></line><line class="cls-5" x1="-162.1" y1="216.28" x2="13.68" y2="40.51"></line></g></g><rect class="cls-6" x="24.66" y="32.62" width="190.68" height="174.77"></rect><rect class="cls-7" x="43.96" y="48.93" width="54.92" height="54.92"></rect><line class="cls-6" x1="192.77" y1="67.47" x2="125.51" y2="67.47"></line><line class="cls-6" x1="170.04" y1="85.31" x2="125.51" y2="85.31"></line><circle class="cls-8" cx="71.26" cy="69.92" r="7.71"></circle><path class="cls-8" d="M57.3,90.57H85.54V90a8.49,8.49,0,0,0-8.47-8.47H65.77A8.49,8.49,0,0,0,57.3,90Z"></path><rect class="cls-9" x="39.99" y="139.25" width="45.18" height="45.18" transform="translate(125.17 323.67) rotate(180)"></rect><path class="cls-6" d="M73.11,162.07c-.12-.18-.23-.41-.45-.49-.58-.21-1.16-.45-1.73-.68-.16-.47-.22-1-.37-1.45,0-.12-.1-.29,0-.38.47-.55,1.13-1,1.39-1.66.06-.52-.42-.9-.67-1.31-.58-.66-1.09-1.37-1.66-2a1,1,0,0,0-1.26-.1c-.45.28-.91.54-1.37.79-.17,0-.3-.13-.46-.2-.35-.21-.77-.31-1.11-.54-.13-.08-.1-.25-.12-.37,0-.32-.06-.64-.11-1A3.9,3.9,0,0,0,65,152c-.28-.52-.93-.45-1.43-.41-.89-.09-1.79,0-2.68,0a.82.82,0,0,0-.89.69c-.08.58-.14,1.17-.24,1.74l-.08.06c-.28.19-.62.27-.91.45s-.45.3-.72.29l-.68-.41c-.24-.14-.48-.28-.71-.44a1,1,0,0,0-1.3.28l-.32.42c-.53.67-1.06,1.34-1.6,2a1,1,0,0,0,0,1.33l.49.5.68.67,0,.08a8.41,8.41,0,0,0-.35,1.64c-.59.29-1.22.48-1.8.75a.92.92,0,0,0-.5.83c.28,1.13.48,2.29.78,3.42a.83.83,0,0,0,.64.63,9.21,9.21,0,0,0,2-.14,1.92,1.92,0,0,1,.39.5,11.16,11.16,0,0,1,.75.95c-.1.39-.25.77-.36,1.16a1.66,1.66,0,0,0-.12,1.2,2,2,0,0,0,.42.34c.31.19.67.32,1,.48.63.35,1.29.61,1.92.95a1,1,0,0,0,1.13-.12,18.72,18.72,0,0,1,1.15-1.65,7.31,7.31,0,0,0,1.75,0c.3.5.64,1,1,1.47a.93.93,0,0,0,1.24.27c1-.52,2-.94,3-1.45a.92.92,0,0,0,.38-1.06c-.15-.55-.4-1.07-.53-1.63.36-.49.76-1,1.14-1.46a7.63,7.63,0,0,0,2.13.16c.53-.18.58-.79.7-1.26s.25-1,.35-1.56A4.06,4.06,0,0,1,73,163,1.69,1.69,0,0,0,73.11,162.07Zm-10.52,4.07A4.37,4.37,0,1,1,67,161.77,4.37,4.37,0,0,1,62.59,166.14Z"></path><rect class="cls-9" x="97.41" y="139.25" width="45.18" height="45.18" transform="translate(240 323.67) rotate(180)"></rect><rect class="cls-10" x="154.83" y="139.25" width="45.18" height="45.18" transform="translate(354.83 323.67) rotate(180)"></rect><line class="cls-6" x1="117.02" y1="161.77" x2="108.59" y2="161.77"></line><polyline class="cls-6" points="123.18 161.77 131.6 161.77 131.61 161.77"></polyline><path class="cls-6" d="M130.25,155.58H110a1.36,1.36,0,0,0-1.36,1.36V170a1.35,1.35,0,0,0,1.36,1.35h20.3A1.34,1.34,0,0,0,131.6,170V156.94A1.35,1.35,0,0,0,130.25,155.58ZM123.18,164a.88.88,0,0,1-.87.87h-4.42A.87.87,0,0,1,117,164v-2.8a.87.87,0,0,1,.87-.88h4.42a.88.88,0,0,1,.87.88Z"></path><path class="cls-6" d="M115.4,155.58v-2a1.54,1.54,0,0,1,1.54-1.54h6.31a1.55,1.55,0,0,1,1.55,1.54v2"></path><rect class="cls-11" x="160.61" y="145.03" width="34.25" height="34.25" transform="translate(355.46 324.3) rotate(180)"></rect><line class="cls-12" x1="168.66" y1="160.92" x2="186.17" y2="160.92"></line><line class="cls-12" x1="177.42" y1="169.67" x2="177.42" y2="152.16"></line><line class="cls-12" x1="215.34" y1="120.58" x2="24.66" y2="120.58"></line></svg>