<?xml version="1.0" encoding="UTF-8"?> <svg xmlns="http://www.w3.org/2000/svg" xmlns:xlink="http://www.w3.org/1999/xlink" version="1.1" id="Layer_1" x="0px" y="0px" viewBox="0 0 206 207" style="enable-background:new 0 0 206 207;" xml:space="preserve"> <style type="text/css"> .st0{fill:#EB6C73;} .st1{fill:#FFFFFF;} </style> <path class="st0" d="M206,167c0-44.3,0-88.7,0-133c0.4-11.1-5.8-22-14.9-28.1c-5.8-4-13-5.9-20-5.9C126.4,0,81.7,0,37,0 c-2.8,0-5.7,0.1-8.5,0.6C12.3,3.3-0.2,18.7,0,34.9C0,80.6,0,126.3,0,172c-0.2,13.9,8.7,27.4,21.6,32.5c5.1,2.2,10.8,2.7,16.4,2.5 c45,0,90,0,135,0c13.5-0.1,26.2-9.3,31-21.9C206.4,179.3,206,173,206,167z"></path> <path class="st1" d="M79.7,50.5c2.3-4.6,7.1-8,12.3-8.1c6.7-0.1,13.4,0,20.1,0c4.1-0.2,8.3,1.5,11.1,4.5c4,3.9,4.6,9.7,4.2,15 c5.6,0.1,11.2,0,16.8,0c2-5.9,6.7-11,13-12.5c10.5-3.2,22.5,5.6,22.4,16.6c0.6,7.2-3.9,14.3-10.4,17.2c-3.6,1.8-7.8,1.7-11.6,1.2 c-6.3-1.5-11.3-6.6-13.4-12.6c-3.9,0-7.9,0-11.8,0.1c12.9,10.2,20.7,26.1,21.3,42.5c7.3-0.8,14.8,4.5,15.9,11.8 c0.3,5.3,0.1,10.6,0.1,15.9c0.6,7.2-5.5,14-12.6,14.5c-5,0.2-10,0.1-15,0.1c-5.4,0.2-10.6-3.1-13-7.8c-2.3-3.9-1.4-8.5-1.6-12.8 c0.2-4.9-0.9-10.3,2-14.7c2.9-4.9,8.6-7.6,14.2-7.1c-0.2-12.9-6.3-25.9-16.5-33.8c-1.4,3.4-3.4,6.8-6.8,8.7 c-5.1,3.2-11.4,1.9-17.1,2.2c-5.8-0.3-12.2,1.1-17.5-2c-3-1.9-5.7-4.8-6.6-8.4c-3,0.5-4.7,3.3-6.6,5.4c-6.4,7.5-9.8,17.1-10.6,26.9 c1,1.9,3.5,0.9,5.2,1.4c6.8,1.6,11.8,8.4,11.4,15.3c-0.3,5.4,0.6,10.9-0.7,16.2c-1.7,6-7.5,10.5-13.7,10.5c-5.3,0-10.7,0.2-16-0.1 c-7.3-1-12.9-8.2-12.4-15.5c0.5-6.5-1.3-13.6,2.1-19.5c2.2-3.5,5.9-6.5,10.2-6.9c1.4-0.4,3.6,0.4,4.3-1.3c0.1-11,4.2-21.7,10.5-30.5 c2.9-4.1,6.8-7.4,10.5-10.9c-3.8-0.1-7.7,0-11.6-0.1c-2,3.8-4.1,7.8-7.8,10.2c-6.3,4.3-15.6,4-21.4-1.2c-5.2-4.1-7.7-11.2-6.1-17.7 c1.6-8.8,10.9-15.4,19.7-14.1c6.9,0.8,13.2,6.1,15,12.8c5.8,0.3,11.5,0.2,17.3,0.1C78.5,58.1,77.7,53.9,79.7,50.5 M91.3,52.5 c-1.1,0.3-2,1.2-2.7,2.1c-1,7.5-1,15-0.3,22.5c-0.4,3,3,4.9,5.7,4.6c6,0,12.1,0,18.1,0c3,0.3,5.9-2.4,5.4-5.5c0-6.4,0-12.7,0-19.1 c0.1-2.8-2.7-5.1-5.4-4.7C105.1,52.4,98.2,51.9,91.3,52.5 M36.6,63.1c-3.2,5,1.5,12.4,7.4,11.8c4.5,0.4,7.7-3.8,8.4-7.8 c-0.6-2.7-1.5-5.8-4.2-7.2C44.4,57.3,38.5,58.9,36.6,63.1 M158.3,59.4c-2.9,1.3-5,4.4-4.8,7.6c-0.3,4.9,4.9,8.9,9.6,7.8 c6.3-0.4,8.9-9.3,4.6-13.4C165.4,58.7,161.4,57.8,158.3,59.4 M48.5,124.5c-1.7,0.7-3,2.6-2.9,4.5c0,4.3,0,8.7,0,13 c-0.1,2.4,1.8,4.8,4.3,4.7c4.8,0.1,9.5,0.2,14.3,0c2.3-0.1,4.3-2.4,4.2-4.7c0-4.8,0.1-9.5-0.1-14.3c-0.7-1.8-2.1-3.7-4.3-3.5 C58.9,124.2,53.6,123.9,48.5,124.5 M140.3,124.4c-1.6,0.4-3.1,1.9-3,3.7c-0.2,4.9-0.2,9.9,0,14.8c-0.1,2.4,2.5,4,4.7,3.9 c4.3,0.1,8.7,0.1,13,0c2.2,0.2,4.7-1.4,4.6-3.8c0.2-5,0.2-10.1,0-15.1c0-2.3-2.5-3.9-4.6-3.7C150.1,124.3,145.2,124,140.3,124.4z"></path> </svg>