<?xml version="1.0" encoding="UTF-8"?> <svg xmlns="http://www.w3.org/2000/svg" xmlns:xlink="http://www.w3.org/1999/xlink" version="1.1" id="Layer_1" x="0px" y="0px" viewBox="0 0 198 198" style="enable-background:new 0 0 198 198;" xml:space="preserve"> <style type="text/css"> .st0{fill:#EB6C73;} .st1{fill:#FFFFFF;} </style> <path class="st0" d="M198,33.1c-0.5-11.8-7.4-23.5-18-28.9c-5.2-2.8-11.1-4.3-17-4.1C120,0,77,0,34,0c-1.7,0-3.3,0.1-4.9,0.2 C13.6,2.2-0.4,15.9,0.1,32C0,76.7,0,121.3,0,166c-0.9,16.7,14.2,32.1,30.9,32c44.4,0.1,88.8,0,133.1,0c4.8,0,9.8-0.4,14.1-2.6 c11.8-5.1,19.6-17.6,19.8-30.3C198,121.1,198,77.1,198,33.1z"></path> <path class="st1" d="M82.5,32.9c8.9-1.1,18.5,0.3,25.7,5.9c3.7,2.7,6.3,6.6,8.8,10.4c12.4,4.1,26.1,6.8,35.8,16.2 c6,5.5,8.9,13.7,8.8,21.7c-0.2,10.3-4.1,19.9-7.2,29.6c-2.6,7.8-4.7,15.8-8.3,23.3c-3.7,7.6-9.8,14.6-18,17.4 c-9.8,3.4-20.4,1.2-29.9-1.9c-6.5-2.2-13.2-4-19.2-7.2c-5.4-3.2-11.9-1.1-17.6-3.3c-10.9-2.8-18.2-12.7-21.6-23 c-3.4-10.7-5.4-21.9-8.2-32.8c-2.6-11.1-4.3-23.7,1.6-34c5.4-9.4,15.8-14.5,25.9-17.1C66.7,36,74.5,34,82.5,32.9 M84,42.8 c-6.1,0.8-12,2.3-18,3.7c-6.9,1.6-13.9,3.5-19.5,8c-4.2,3.3-7,8.2-7.2,13.6C38.3,79,42,89.5,44.3,100c2.4,9.6,3.7,19.8,9.6,28.1 c3.4,5,9.2,7.7,15.1,8.2c8.9,0.6,17.6-2.2,26.2-4.1c7.9-2,16.5-4.6,21.8-11.3c4.9-6.2,4.1-14.7,3.2-22.1c-1.9-9.3-4.3-18.5-6.4-27.8 c-1.9-8.1-4-16.6-10-22.8C98.7,43.1,90.9,42,84,42.8 M130.2,97.9c1.2,9.6,1.3,20.3-4.8,28.5c-7.4,10.2-20.2,13.7-31.8,16.6 c9.5,4,20.1,7.5,30.5,5.1c8.9-2.6,13.2-11.8,16-19.8c3.3-10.4,7-20.8,10-31.3c1.9-7.4,2.6-16.1-2.4-22.4 c-6.3-7.8-16.4-10.2-25.5-13.3C124.1,73.6,127.9,85.6,130.2,97.9z"></path> <path class="st1" d="M69,75c7-1.7,13.9-3.7,21-5.3c3.8-1.3,7.9,3.6,5.6,7c-0.8,2-3.1,2.5-4.9,3.1c-10,2.6-20.1,4.9-30,7.7 c-2.8-1.3-4.4-3.7-4.8-6.8C59,76.5,64.4,76.3,69,75z"></path> <path class="st1" d="M86.5,95.8c4.2-1.2,8.5-2.2,12.8-2.7c1.2,1.9,3.7,3.8,2.9,6.3c-1.2,3.5-5.2,4.1-8.3,4.9c-5,1-9.8,3-14.9,3.3 c-4.3,0.2-6.3-6.2-2.9-8.6C79.3,97.1,83,96.8,86.5,95.8z"></path> </svg>