<?xml version="1.0" encoding="UTF-8"?> <svg xmlns="http://www.w3.org/2000/svg" xmlns:xlink="http://www.w3.org/1999/xlink" version="1.1" id="Layer_1" x="0px" y="0px" viewBox="0 0 198.1 198.1" style="enable-background:new 0 0 198.1 198.1;" xml:space="preserve"> <style type="text/css"> .st0{fill:#EB6C73;} .st1{fill:#FFFFFF;} </style> <path class="st0" d="M198,36.1c0.7-13.9-7.8-27.9-20.8-33.2C171.6,0.2,165.2-0.1,159,0c-41.6,0-83.3,0-125,0c-1.6,0-3.3,0.1-4.9,0.2 c-10.8,1.5-21,8-25.8,18C0.5,23-0.1,28.6,0,34.1c0,44,0,88,0,132c-0.9,17.1,15,32.7,32,32c44.7,0,89.3,0,134,0 c13.3,0.2,25.6-9.5,29.8-21.9c2.8-6.3,2.1-13.4,2.2-20.1C198,116.1,198,76.1,198,36.1z"></path> <g> <path class="st1" d="M123.5,33.5c9.2-3.8,20.5-1.6,27.6,5.4c6.7,6.2,10,16.3,7.3,25.2c-1.6,7.2-6.9,12.8-13,16.7 c4.3,13.2,3.8,27.8-2,40.5c-6.9,15.8-21.6,27.8-38.4,31.7c-14.5,3.6-30.4,1-43-6.9c-12.3-7.5-21.5-19.9-24.9-33.9 c-3.5-13.3-1.5-27.9,5-39.9c6.1-11.3,16.1-20.3,28-25.2c12.4-5.2,26.7-5.8,39.5-1.5C113.2,40.5,117.5,35.6,123.5,33.5 M129.7,40.2 c-8.2,1.6-15,9.4-14.3,17.9C115,70,129.1,79.2,139.8,74c9.4-3.3,13.7-15.3,9.4-24.1C145.8,42.8,137.4,38.5,129.7,40.2 M58.3,64.4 C49.4,72.8,44.2,84.8,43.6,97c-0.5,14,5.7,27.6,15.7,37.1c2.5-5.4,5.9-10.6,10.8-14c11.6-8.3,28.1-8.9,40.4-1.7 c5.7,3.4,10.5,8.6,12.6,15c0.4,0.1,1.1,0.2,1.5,0.3c3.7-3.8,7.2-7.8,9.6-12.5c6.4-11.4,7.2-25.5,3.3-37.8 c-10.3,1.4-21.2-3.3-26.7-12.2c-3.6-5.2-3.9-11.6-3.5-17.7C90.7,47.3,70.8,51.9,58.3,64.4 M74.7,126.9c-4.2,3-7,7.8-7.6,12.9 c14.7,8.4,33.6,9,48.3,0.4c1-4.2-1.8-8.2-4.5-11.1C101.5,119.8,85.3,119.1,74.7,126.9z"></path> <path class="st1" d="M128.5,53.3c0.3-2.8,0.2-6.6,3.4-7.8c2.4-0.6,4,1.4,5.5,2.8c0,1.7-0.1,3.3-0.1,5c2.4,0.4,6-0.7,7.3,2.1 c1.9,2-0.3,4.3-1.3,6.1c-1.9,0-3.9,0-5.8,0c-0.3,2.7,0.2,6-2.2,7.9c-1.8,0.5-4.6,0.9-5.6-1.2c-1.2-1.9-0.9-4.3-1.3-6.5 c-2.4-0.4-5.6,0.4-7-2c-1.9-1.9-0.3-4.5,1.5-5.8C124.7,53.3,126.6,53.5,128.5,53.3z"></path> <path class="st1" d="M84.5,71.8c10.4-4.5,23.5,2.4,26.1,13.3c2.9,9.8-3.7,20.8-13.5,23.4c-11.4,3.9-25.1-5.4-24.9-17.6 C71.4,82.8,76.8,74.7,84.5,71.8 M88.2,79.2c-3,1-5.4,3.3-6.8,6c-2.8,5.5,0,12.8,5.7,15.1c6.8,3.5,16.4-2.4,15.7-10.2 C103.4,82.7,95,76.7,88.2,79.2z"></path> </g> </svg>