<svg xmlns="http://www.w3.org/2000/svg" width="63" height="17" viewBox="0 0 63 17" fill="none"><path d="M10.6044 12.6602H8.22678C7.84238 12.6602 7.46611 12.763 7.13663 12.9565L1.58618 16.234L1.75703 16.5182L5.99562 15.3209C6.37596 15.2141 6.7685 15.1597 7.16307 15.1597H11.6681C12.0627 15.1597 12.4552 15.2141 12.8355 15.3209L17.0741 16.5182L17.245 16.234L11.6945 12.9585C11.3651 12.763 10.9888 12.6622 10.6044 12.6622" fill="white"/><path d="M7.69027 0.0742188L6.54317 5.01061C6.44351 5.44196 6.2747 5.85719 6.04283 6.23614L3.89913 9.77365C3.72218 10.0659 3.51066 10.334 3.26863 10.5759L0.09375 13.7425L0.262562 14.0247L5.6747 10.8319C5.97572 10.6545 6.22792 10.4066 6.40893 10.1082L7.71671 7.95954C7.91603 7.63098 8.02383 7.25405 8.02383 6.86906V0.0742188H7.69027Z" fill="white"/><path d="M11.1461 0.0742188L12.2932 5.01061C12.3928 5.44196 12.5616 5.85719 12.7935 6.23614L14.9372 9.77365C15.1141 10.0659 15.3257 10.334 15.5677 10.5759L18.7426 13.7425L18.5738 14.0247L13.1616 10.8319C12.8606 10.6545 12.6084 10.4066 12.4274 10.1082L11.1196 7.95954C10.9203 7.63098 10.8125 7.25405 10.8125 6.86906V0.0742188H11.1461Z" fill="white"/><path d="M32.7802 5.61729L32.0074 6.38325C31.7613 6.62714 31.625 6.95771 31.625 7.3024V9.18504C31.625 9.52972 31.7613 9.86029 32.0094 10.1042L32.7843 10.8641C33.0304 11.108 33.364 11.2451 33.7118 11.2451H37.8181V9.72121H33.9518C33.8582 9.72121 33.7707 9.68492 33.7036 9.62042L33.2684 9.18907C33.2033 9.12457 33.1667 9.03588 33.1667 8.94315V7.53621C33.1667 7.44551 33.2033 7.35682 33.2684 7.29232L33.7036 6.86096C33.7687 6.79646 33.8582 6.76018 33.9518 6.76018H37.8181V5.23633H33.7097C33.3619 5.23633 33.0284 5.37138 32.7823 5.61729" fill="white"/><path d="M52.6242 5.61729C52.3781 5.37339 52.0445 5.23633 51.6967 5.23633H46.5938V11.243H48.1314V10.0437H51.6886C52.0364 10.0437 52.37 9.90866 52.6161 9.66275L53.1733 9.11247C53.4194 8.86858 53.5557 8.538 53.5557 8.19332V7.07866C53.5557 6.73801 53.4235 6.40945 53.1835 6.16757L52.6262 5.61527L52.6242 5.61729ZM52.0262 7.96152C52.0262 8.05223 51.9896 8.14092 51.9245 8.20542L51.7089 8.4211C51.6439 8.4856 51.5544 8.52188 51.4608 8.52188H48.1415V6.75816H51.4608C51.5544 6.75816 51.6418 6.79445 51.7089 6.85895L51.9245 7.07462C51.9896 7.13913 52.0262 7.22782 52.0262 7.31852V7.96152Z" fill="white"/><path d="M39.1875 6.76012H41.4817V11.245H43.0193V6.76012H45.3135V5.23828H39.1875V6.76012Z" fill="white"/><path d="M27.5244 5.24414H26.2614C25.8485 5.24414 25.4722 5.47393 25.2892 5.83876L22.5312 11.2448H24.2539L24.9027 9.97695H28.883L29.5318 11.2529H31.2525L28.4966 5.84078C28.3115 5.47594 27.9353 5.24616 27.5244 5.24616M25.6777 8.44705L26.4627 6.90304C26.5075 6.81637 26.597 6.75993 26.6966 6.75993H27.0871C27.1848 6.75993 27.2763 6.81435 27.321 6.90304L28.1061 8.44705H25.6777Z" fill="white"/><path d="M59.8247 5.83877C59.6417 5.47393 59.2654 5.24414 58.8525 5.24414H57.5875C57.1766 5.24414 56.8004 5.47393 56.6153 5.83877L53.8594 11.2509H55.58L56.2349 9.97493H60.2152L60.864 11.2509H62.5745L59.8227 5.83877H59.8247ZM57.0098 8.44302L57.797 6.89901C57.8417 6.81234 57.9312 6.7559 58.0309 6.7559H58.4214C58.519 6.7559 58.6105 6.81032 58.6553 6.89901L59.4383 8.44302H57.0098Z" fill="white"/></svg>