<svg xmlns="http://www.w3.org/2000/svg" width="58" height="12" viewBox="0 0 58 12" fill="none"><path d="M11.7099 6.08398C11.6576 7.48952 11.099 8.97109 10.052 9.94329C8.93021 10.985 7.49014 11.5258 5.96023 11.4602C5.13013 11.4246 4.31819 11.1748 3.59375 10.775C3.72842 10.7971 3.86165 10.8574 3.99346 10.8945C5.4898 11.3157 7.1858 10.8543 8.50729 10.1114C9.72998 9.42397 10.8996 8.35888 11.4373 7.03673C11.565 6.72288 11.6194 6.40684 11.7099 6.08398Z" fill="white"/><path d="M45.6223 1.1582L46.271 1.16735C46.3679 1.16825 46.4508 1.14539 46.5473 1.17409C46.6136 1.19374 46.6492 1.37092 46.6871 1.43996C46.7883 1.62349 46.9504 1.73797 47.1488 1.79564C47.4525 1.88387 47.9028 1.87831 48.1834 1.72169C48.4002 1.60036 48.4996 1.4095 48.5637 1.17948L49.6919 1.16985C49.6649 1.55662 49.5766 1.83849 49.3757 2.17047C49.2053 2.50968 48.7658 2.80398 48.42 2.92886C47.9485 3.09922 47.1146 3.12137 46.6525 2.89889C46.1248 2.64486 45.7466 2.24624 45.5549 1.69032C45.5142 1.57162 45.4418 1.28643 45.4959 1.17634L45.6223 1.1582Z" fill="white"/><path d="M31.6442 3.61691C31.7305 3.58778 31.8833 3.60427 31.9775 3.60414L32.7898 3.60454L36.1025 3.60893C36.1385 3.73166 36.1148 3.91628 36.1149 4.04525L36.1156 5.1106L36.1155 8.99987L36.1148 9.92503C36.1147 10.0371 36.1355 10.1989 36.1023 10.3051L34.7193 10.3025C34.6625 9.8822 34.7105 9.39351 34.7104 8.9671L34.7102 6.02589L34.7077 5.31423C34.7062 5.22627 34.72 5.12775 34.6752 5.05196L34.5563 5.05625L32.8431 5.04969L32.7779 6.91442C32.73 7.68785 32.6538 8.45574 32.4277 9.20015C32.2935 9.64213 32.0545 9.99981 31.6372 10.2208C31.3357 10.3805 30.9264 10.4513 30.5882 10.3996C30.4526 10.3789 30.2972 10.3143 30.1642 10.2733L30.1562 8.71196C30.2761 8.721 30.385 8.75173 30.5078 8.75356C30.7693 8.75742 30.9401 8.76358 31.1397 8.5678C31.3395 8.37185 31.4354 7.9757 31.4837 7.70957C31.521 7.50418 31.5188 7.28712 31.5304 7.07928C31.5394 6.91636 31.5728 6.74746 31.5846 6.58306C31.5927 6.47143 31.5794 6.35833 31.5849 6.24637C31.5917 6.10816 31.6234 5.9742 31.6313 5.83667L31.6405 4.8215C31.6414 4.7675 31.6637 4.71906 31.6667 4.66603L31.6702 4.16553C31.6696 3.97966 31.6417 3.80255 31.6442 3.61691Z" fill="white"/><path d="M52.2124 3.60367L53.6204 3.60683L53.6276 6.0879L56.3465 6.09201L56.3533 3.60352L57.7599 3.60665L57.7592 10.3063L57.4177 10.3042L56.3587 10.3005L56.3461 7.5126L53.6226 7.50208L53.619 10.3044L52.2109 10.301L52.2124 3.60367Z" fill="white"/><path d="M23.2578 3.60879L24.6795 3.6078L24.6836 8.20384L27.478 3.61838C27.6186 3.58224 27.8008 3.60437 27.9485 3.60428L28.9696 3.60488L28.9698 8.43304L28.9708 9.71297C28.9709 9.89837 28.9961 10.1213 28.9594 10.3019L28.867 10.3091L27.5688 10.3012L27.5695 5.62998L24.737 10.3072L23.2822 10.3014L23.2578 3.60879Z" fill="white"/><path d="M44.75 3.60609L46.153 3.60439V8.18642C46.2521 8.09136 46.3349 7.89638 46.4055 7.77614L46.9019 6.95559L48.9724 3.60352L50.4406 3.60592L50.4301 10.2856L50.361 10.305L49.0376 10.3033L49.0412 5.65895C48.9507 5.70938 48.3024 6.86723 48.1875 7.05922L46.2305 10.2902C46.1015 10.3292 45.9153 10.306 45.7802 10.3057L44.75 10.3012V3.60609Z" fill="white"/><path d="M39.6677 3.4722C39.9386 3.44269 40.2307 3.4528 40.5026 3.46668C41.1622 3.50033 41.8185 3.71764 42.2673 4.21651C42.5713 4.55435 42.7435 5.07924 42.7712 5.52943C42.7831 5.71811 42.7615 5.9111 42.7604 6.10043L42.7554 6.91745L42.7485 7.94549C42.7464 8.17807 42.7215 8.43843 42.7626 8.66659C42.7781 8.75224 42.8181 8.85152 42.8782 8.91542C43.0338 9.07978 43.2762 9.06181 43.4834 9.06667L43.4769 10.3671C42.9647 10.3745 42.3894 10.3926 41.9539 10.0747C41.6546 9.85621 41.58 9.56048 41.526 9.21525C41.2198 9.76461 40.8261 10.168 40.2055 10.3471C39.5971 10.5225 38.8954 10.4129 38.349 10.111C38.0936 9.91337 37.8886 9.70063 37.769 9.39201C37.5828 8.91149 37.5543 8.32497 37.7658 7.85003C38.1663 6.94976 39.3262 6.58282 40.1727 6.25017L41.4064 5.7591C41.3769 5.60522 41.3455 5.45058 41.2641 5.31435C41.1204 5.07362 40.9018 4.98616 40.6435 4.92298C40.2606 4.82929 39.6414 4.87824 39.3089 5.08219C39.0647 5.23193 38.9959 5.43963 38.9329 5.70326L37.5781 5.6988C37.6033 5.54827 37.6087 5.38679 37.6466 5.23935C37.7395 4.87788 37.9337 4.57135 38.1512 4.27446C38.4754 3.83253 39.14 3.55551 39.6677 3.4722ZM41.334 6.7496L40.338 7.15566C39.918 7.3269 39.2203 7.52678 39.028 7.9769C38.9512 8.15635 38.9595 8.38202 39.033 8.56108C39.0719 8.65535 39.1385 8.73755 39.2145 8.80426C39.6104 9.02914 40.1954 9.07748 40.6352 8.95735C40.8769 8.89136 41.2087 8.73063 41.3654 8.52953C41.405 8.28956 41.397 8.04008 41.3992 7.79733L41.4071 6.7496C41.3826 6.7479 41.3585 6.74527 41.334 6.7496Z" fill="white"/><path d="M8.9338 1.24023C9.6746 1.66349 10.2908 2.23129 10.772 2.93684C10.8544 3.05755 10.9125 3.19198 10.9878 3.31675C10.981 3.45723 11.025 3.57529 11.0476 3.71124C11.0684 3.83659 11.0681 3.96326 11.0655 4.08991C11.0453 5.0928 10.4749 6.02714 9.83716 6.76657L9.82697 6.76935C8.93214 7.8991 7.43252 8.8007 6.07335 9.24001C5.72935 9.35117 5.36605 9.46125 5.00721 9.50923L4.98268 9.51002C4.06509 9.68959 2.92724 9.65865 2.1092 9.16203C1.99132 9.09045 1.87668 9.00617 1.7757 8.91208C1.70583 8.84695 1.63185 8.73695 1.54045 8.70608L1.53594 8.70464C1.18792 8.17358 0.926809 7.4371 0.856181 6.80566C0.810794 6.39988 0.832812 5.96662 0.838242 5.55768C0.84008 6.01673 0.837087 6.33868 1.17945 6.68052C1.5861 7.08651 2.20538 7.19 2.75716 7.18758L3.20656 7.17066C4.886 7.01267 6.6499 6.08189 7.88484 4.95116C8.20326 4.65961 8.4607 4.33604 8.75038 4.02046C8.82091 3.88078 8.93102 3.74671 9.01167 3.60993C9.22834 3.24251 9.40693 2.83095 9.42876 2.39942C9.45473 1.88659 9.25997 1.60301 8.9338 1.24023Z" fill="white"/><path d="M1.50408 3.34957C1.58569 3.13874 1.71437 2.96444 1.84471 2.78253C2.1936 2.29558 2.6328 1.86777 3.12371 1.52399C3.82182 1.03512 4.60309 0.726297 5.44334 0.59083C5.70496 0.548653 5.99233 0.507263 6.2555 0.553588C6.51845 0.6448 6.83706 0.740586 6.96893 1.01008C7.05632 1.18862 7.02955 1.44459 6.96515 1.62713C6.79999 2.0954 6.40672 2.59999 6.0062 2.89871C5.86349 3.06357 5.65554 3.20555 5.47774 3.33177C4.9361 3.71622 4.32562 4.04202 3.69129 4.24414C3.2675 4.39607 2.75956 4.50561 2.30766 4.46163C2.03081 4.43472 1.76267 4.36852 1.57952 4.14159C1.41169 3.93362 1.47724 3.59649 1.50408 3.34957Z" fill="white"/><path d="M3.69979 4.24114C3.6368 4.23278 3.57129 4.23573 3.50781 4.23534C3.51421 4.20429 3.52269 4.17169 3.53753 4.14348C3.9003 3.45376 4.69148 3.0081 5.4107 2.78636C5.56624 2.73841 5.96344 2.6681 6.10871 2.7453C6.05911 2.78258 6.03927 2.84075 6.0147 2.89571C5.87199 3.06057 5.66404 3.20254 5.48624 3.32877C4.94459 3.71322 4.33411 4.03902 3.69979 4.24114Z" fill="white"/><path d="M20.9799 0.591575C21.0469 0.580424 21.1091 0.583686 21.1764 0.587976C21.2217 1.07335 21.214 1.5909 21.3047 2.06838C21.2165 2.12556 20.9642 2.12584 20.8493 2.14254L19.233 2.36141C18.4294 2.4661 17.6123 2.48768 16.967 3.04575C16.4009 3.53539 16.3458 4.39231 16.2959 5.08748C16.3573 4.96216 16.4371 4.84599 16.5195 4.73368C16.9883 4.09446 17.702 3.77433 18.464 3.65855C19.2055 3.54589 20.0901 3.82586 20.685 4.26847C21.326 4.74532 21.7345 5.47812 21.8485 6.26395C21.9927 7.2573 21.7252 8.40395 21.1248 9.20689L21.0901 9.26056C20.6176 9.90011 19.8027 10.2882 19.0313 10.3994C18.1784 10.5224 17.2008 10.3802 16.4972 9.85202C16.2798 9.68892 16.0256 9.47283 15.858 9.25742C15.7855 9.1642 15.729 9.04231 15.6686 8.93983C15.3552 8.40798 15.1807 7.85881 15.0801 7.2506C15.0471 7.05122 15.0453 6.84533 15.0174 6.6443C14.9861 6.41992 15.0065 6.16644 15.0072 5.93894C15.0109 4.72349 15.1502 3.20018 15.9092 2.19882C16.138 1.89705 16.5071 1.55005 16.8417 1.36704C16.9217 1.32331 17.0252 1.30209 17.1105 1.26665C17.7663 0.994191 18.4208 0.936389 19.116 0.844118L20.9799 0.591575ZM18.0102 5.12321C17.4709 5.19907 16.9011 5.40136 16.5625 5.85317C16.539 5.88454 16.4699 5.9671 16.4625 6.00341C16.4445 6.09109 16.4599 6.22501 16.4593 6.31802C16.4572 6.60089 16.4531 6.88149 16.4943 7.16227C16.5768 7.7229 16.8154 8.25071 17.281 8.59536C17.6516 8.86962 18.2161 9.00495 18.6712 8.93504L18.841 8.92164C19.3261 8.83303 19.7643 8.63153 20.0522 8.2125C20.3189 7.82441 20.4038 7.36111 20.4037 6.89932C20.4036 6.77926 20.4127 6.64916 20.3901 6.53101C20.3035 6.07708 20.1448 5.6811 19.7447 5.41091C19.3188 5.12332 18.8543 5.10307 18.3605 5.11046C18.2601 5.11194 18.1204 5.09648 18.024 5.11712C18.0171 5.1186 18.0155 5.12 18.0102 5.12321Z" fill="white"/></svg>