<svg xmlns="http://www.w3.org/2000/svg" width="41" height="40" viewBox="0 0 41 40" fill="none"><path d="M25.6779 31.2756C24.8146 31.4689 24.3744 31.3368 24.2731 30.8646C24.4441 30.8558 24.6185 30.8626 24.7872 30.8347C25.1351 30.7771 25.3399 30.5487 25.4206 30.1674C25.4936 29.8218 25.3895 29.5432 25.1029 29.3408C24.4952 28.9118 23.3731 29.0854 23.0809 29.9523C23.0752 29.9686 23.0673 29.9844 23.0543 30.0152C22.983 29.9305 22.9195 29.8557 22.8481 29.7713C22.7364 29.9635 22.6246 30.1278 22.5406 30.3051C22.3174 30.7762 22.4368 31.1748 22.8811 31.4407C23.0941 31.5683 23.33 31.6589 23.5382 31.7933C23.7086 31.9034 23.8753 32.0352 24.002 32.1913C24.092 32.3022 24.1126 32.4696 24.1648 32.613C23.7591 32.4869 23.3827 32.3697 23.0064 32.2526C22.9976 32.2734 22.9889 32.2946 22.9801 32.3155C23.3091 32.4815 23.6367 32.6511 23.9676 32.8132C24.4483 33.0483 24.9384 33.2657 25.411 33.516C25.6325 33.6332 25.826 33.8057 26.026 33.9606C26.2241 34.1142 26.4238 34.2604 26.6746 34.3174C27.003 34.392 27.2787 34.2079 27.3077 33.8737C27.3221 33.7091 27.2945 33.5409 27.2855 33.3698C27.5473 33.2866 27.9109 33.4525 28.1042 33.7557C28.3612 34.1594 28.2718 34.5698 27.8085 35.0658C27.8937 35.1431 27.973 35.2284 28.0647 35.297C28.8208 35.8632 28.6795 36.7919 28.2718 37.3031C28.1592 37.4443 28.0255 37.5688 27.8805 37.7234C27.813 37.5925 27.7614 37.4942 27.7118 37.3949C27.6319 37.2357 27.5676 37.066 27.4688 36.9195C27.3975 36.8137 27.2815 36.7377 27.1751 36.6392C27.0993 36.9348 27.0507 37.1936 26.9664 37.4403C26.6693 38.3075 26.0133 38.6059 25.161 38.2674C24.9875 38.1985 24.8244 38.1031 24.6334 38.0088C24.3118 38.4114 23.903 38.725 23.3729 38.8418C22.843 38.9587 22.3493 38.8221 21.8539 38.5785C21.8 38.6987 21.7568 38.8159 21.6967 38.9237C21.5788 39.1357 21.4803 39.3691 21.3201 39.5444C21.1562 39.7237 20.9361 39.8578 20.7234 39.9817C20.6554 40.0212 20.5174 39.9907 20.4353 39.9473C19.9577 39.6946 19.6214 39.3183 19.4721 38.7888C19.4569 38.7349 19.4298 38.6843 19.4069 38.633C19.3993 38.616 19.3872 38.6013 19.3818 38.5926C18.2948 39.1196 17.3666 38.9265 16.5842 37.9998C16.3969 38.0958 16.207 38.1974 16.0132 38.2911C15.6035 38.489 15.2054 38.4565 14.8164 38.227C14.5492 38.0695 14.3954 37.8276 14.3057 37.5425C14.2157 37.2571 14.1418 36.9667 14.0594 36.6731C13.6788 36.9122 13.5609 37.326 13.3699 37.7124C12.8877 37.3681 12.6674 36.9164 12.6341 36.3595C12.5974 35.7486 13.0201 35.4141 13.4317 35.059C12.9972 34.72 12.8731 34.3014 13.101 33.8155C13.2647 33.4672 13.5852 33.3554 13.9663 33.3416C13.9539 33.4667 13.9378 33.5807 13.9325 33.6953C13.9048 34.2822 14.205 34.486 14.7377 34.237C14.8731 34.1738 15.0082 34.0992 15.1236 34.0055C15.7364 33.5065 16.4437 33.1813 17.1586 32.8657C17.4803 32.7237 17.7886 32.5521 18.1015 32.3914C18.1503 32.3663 18.1921 32.3276 18.2372 32.2952C18.2316 32.2811 18.2262 32.2667 18.2206 32.2526C17.8479 32.3737 17.4752 32.495 17.1002 32.617C17.0864 32.3175 17.2255 32.0818 17.4797 31.9217C17.6857 31.7922 17.91 31.6922 18.1249 31.5771C18.2367 31.5172 18.3515 31.461 18.4545 31.3885C18.7377 31.1892 18.8294 30.9383 18.7496 30.6009C18.6782 30.2989 18.5242 30.0364 18.3501 29.7691C18.297 29.8557 18.2496 29.9333 18.2022 30.011C18.1816 29.9997 18.1698 29.9971 18.1684 29.9918C17.9401 29.1955 16.9879 28.9541 16.3114 29.2381C15.9438 29.3922 15.7457 29.7637 15.8053 30.1789C15.8577 30.5459 16.1181 30.7872 16.5253 30.8369C16.6641 30.8539 16.8048 30.8533 16.9448 30.8606C16.9295 31.0709 16.6954 31.3075 16.4386 31.3693C16.185 31.4303 15.9449 31.3685 15.7059 31.2931C15.6275 31.2682 15.5502 31.24 15.4723 31.2132C15.4602 31.2242 15.4484 31.2352 15.4362 31.2465C15.5457 31.4116 15.6521 31.579 15.7658 31.7414C15.86 31.876 15.97 31.9999 16.0603 32.1371C16.1596 32.2881 16.1356 32.4135 15.97 32.4857C15.8185 32.5518 15.6487 32.5941 15.4836 32.6074C15.006 32.6461 14.5261 32.6554 14.0481 32.6938C12.6335 32.807 11.3687 33.3153 10.236 34.1636C10.1985 34.1918 10.1519 34.2141 10.1259 34.2505C10.0777 34.3191 10.006 34.399 10.0117 34.469C10.0159 34.5232 10.1231 34.5687 10.1838 34.6189C10.2131 34.6432 10.2625 34.6675 10.2653 34.6957C10.3192 35.2191 10.3675 35.743 10.4194 36.2928C10.3655 36.2598 10.3305 36.2412 10.2983 36.218C9.93128 35.9552 9.56874 35.6865 9.19633 35.4316C9.05865 35.3373 8.97006 35.2507 9.10238 35.0635C8.88767 34.967 8.68933 34.8755 8.48874 34.7886C8.38971 34.7457 8.28617 34.7135 8.18658 34.6723C7.97695 34.5859 7.93887 34.5032 8.00573 34.2881C8.01673 34.2531 8.02689 34.2175 8.03959 34.174C7.92137 34.1585 7.80993 34.1478 7.6999 34.1289C7.40789 34.0789 7.33256 33.9635 7.39887 33.6772C7.40818 33.6371 7.41861 33.5971 7.43018 33.5502C7.3447 33.5189 7.26344 33.4969 7.18896 33.4604C7.04902 33.3921 6.99626 33.2939 7.05269 33.1497C7.13282 32.945 7.21633 32.7358 7.33623 32.5538C7.53542 32.2517 7.47871 31.9449 7.40564 31.6315C7.39774 31.5977 7.36162 31.5565 7.3289 31.544C7.05777 31.4421 6.9593 31.231 6.94097 30.9611C6.92404 30.7124 6.90203 30.4643 6.88059 30.2162C6.86592 30.0446 6.7968 29.9209 6.62018 29.8543C6.3973 29.7699 6.35921 29.5695 6.35018 29.3561C6.34652 29.266 6.33269 29.1686 6.29404 29.0888C5.49391 27.4298 4.69125 25.7722 3.88266 24.1175C3.84062 24.0317 3.75345 23.9575 3.66993 23.9052C3.5599 23.8358 3.51053 23.7528 3.48994 23.6244C3.47583 23.5366 3.42251 23.4223 3.35197 23.383C3.15363 23.2732 3.11357 23.1222 3.1652 22.9223C3.16859 22.9091 3.16774 22.8947 3.16802 22.8806C3.16802 22.8763 3.1652 22.8718 3.15646 22.8458C3.03824 22.8599 2.91467 22.8735 2.79138 22.8902C2.54592 22.9235 2.52871 22.9074 2.47624 22.6657C2.46072 22.5943 2.41106 22.5305 2.38257 22.4746C2.27226 22.5396 2.191 22.6034 2.09875 22.6372C2.00875 22.67 1.90351 22.6409 1.8753 22.5444C1.85357 22.4696 1.87304 22.3741 1.89984 22.2968C1.92157 22.2339 2.00423 22.1895 2.0189 22.1274C2.03639 22.0538 2.0206 21.966 1.99492 21.8929C1.98787 21.8728 1.88997 21.8706 1.8389 21.8824C1.23063 22.0241 0.649719 21.603 0.568465 20.943C0.544202 20.7451 0.564797 20.5416 0.564797 20.3276C0.604013 20.3389 0.633919 20.3457 0.662415 20.3558C0.993073 20.475 1.32147 20.6006 1.6558 20.7084C1.7221 20.7299 1.82536 20.7025 1.88263 20.6596C1.91028 20.6387 1.88969 20.519 1.85922 20.4611C1.71138 20.1819 1.55931 20.1249 1.25743 20.2246C1.19451 20.2455 1.1285 20.3155 1.08223 20.2133C1.03878 20.1176 1.09069 20.0481 1.17392 20.0052C1.28085 19.9499 1.25376 19.8971 1.19339 19.8203C1.15897 19.7766 1.1268 19.6761 1.14853 19.6535C1.20834 19.5909 1.29241 19.5386 1.37564 19.5175C1.41712 19.507 1.48878 19.564 1.52687 19.6078C1.56016 19.6459 1.5658 19.7086 1.59486 19.7924C1.63972 19.7153 1.66934 19.6648 1.70602 19.6016C1.59373 19.5076 1.4789 19.4201 1.37451 19.3218C1.23147 19.1869 1.22273 19.1409 1.38072 19.0204C1.52743 18.9086 1.69417 18.7968 1.86909 18.7533C2.33235 18.6384 2.80407 18.5557 3.2741 18.4696C3.48401 18.4312 3.69787 18.4146 3.90862 18.3759C3.30147 18.3172 2.70138 18.2286 2.13429 18.0061C1.84455 17.8924 1.56665 17.7363 1.30567 17.5652C1.16687 17.474 1.07235 17.3128 0.964859 17.1776C0.896584 17.0918 0.914076 17.0261 1.01903 16.9673C1.33868 16.7878 1.68627 16.713 2.04458 16.6921C2.54649 16.6625 3.04953 16.6523 3.55229 16.6326C3.62084 16.6297 3.6894 16.6196 3.75909 16.5894C3.46595 16.4818 3.17141 16.3782 2.88053 16.2656C2.30555 16.0429 1.74326 15.7939 1.24671 15.419C0.959781 15.2025 0.792759 14.9959 0.710659 14.7512C1.22414 14.6111 1.74523 14.5711 2.27056 14.6334C2.78545 14.6944 3.2978 14.7763 3.82285 14.8243C3.75457 14.7771 3.68573 14.7305 3.6183 14.6823C3.13389 14.3345 2.63226 14.0079 2.17069 13.6322C1.77373 13.309 1.46846 12.8991 1.34348 12.3831C1.33699 12.3557 1.33078 12.3281 1.32768 12.3001C1.32571 12.2823 1.32909 12.264 1.33191 12.2168C1.61771 12.2741 1.89759 12.3227 2.17351 12.3868C2.87969 12.5508 3.52492 12.8649 4.16169 13.2006C4.44382 13.3493 4.73526 13.4809 5.02304 13.6186C5.06761 13.6401 5.11642 13.6528 5.17426 13.6486C4.8783 13.427 4.56965 13.2201 4.28865 12.981C3.7842 12.5516 3.27044 12.1282 2.80774 11.6562C2.22599 11.0629 1.9653 10.3219 2.00395 9.48577C2.0127 9.29748 2.08012 9.12868 2.26012 8.99601C3.46878 10.2502 4.80608 11.3502 6.22971 12.3458C6.24156 12.3337 6.25341 12.3216 6.26526 12.3091C6.20517 12.2422 6.14789 12.1722 6.08413 12.1087C5.29924 11.3268 4.58686 10.4794 3.94727 9.57892C3.33251 8.71373 3.09608 7.72518 3.24702 6.66239C3.28595 6.38858 3.38526 6.13368 3.61351 5.95302C3.66401 5.91294 3.72269 5.88358 3.78758 5.84321C4.09736 6.82188 4.62044 7.67239 5.19373 8.49242C5.76335 9.30736 6.34144 10.1189 7.1915 10.7224C7.23015 10.6109 7.25639 10.535 7.29448 10.4258C7.38702 10.5534 7.47476 10.6519 7.53739 10.7645C7.90614 11.4281 8.36968 12.0158 8.92379 12.5336C9.05667 12.6578 9.1904 12.7814 9.32977 12.9104C9.37237 12.8164 9.42147 12.7077 9.48015 12.5776C9.52614 12.6292 9.56281 12.6628 9.59074 12.7029C10.1344 13.482 10.8482 14.0813 11.6102 14.6326C11.8952 14.8387 12.1793 15.0512 12.4358 15.2906C12.8559 15.6832 12.8914 16.0708 12.5796 16.5513C12.4569 16.7401 12.3156 16.9171 12.1841 17.1003C12.0247 17.3227 11.8687 17.5508 11.8247 17.8266C11.7318 18.4067 11.9838 18.8437 12.4355 19.1739C12.8319 19.4638 13.2822 19.5426 13.7621 19.4376C14.2823 19.3238 15.0254 18.8411 15.296 18.4335C14.9027 18.3991 14.5032 18.3965 14.2039 18.1038C13.9014 17.808 13.8845 17.4204 13.8727 16.999C14.0103 17.0591 14.1297 17.1054 14.2437 17.1624C14.7089 17.3944 15.1922 17.4105 15.6851 17.2815C15.9799 17.2045 16.2265 17.0467 16.411 16.7994C16.4268 16.7782 16.4369 16.7534 16.4592 16.7127C15.8171 16.8033 15.3098 16.6167 14.9321 16.0527C15.1665 16.0813 15.3682 16.1058 15.5702 16.1307C16.3148 16.2224 17.0935 15.6765 17.1284 14.739C17.1778 13.4165 16.3625 12.1491 15.1552 11.6805C14.9919 11.617 14.9541 11.626 14.9058 11.7864C14.8737 11.8939 14.8082 11.9185 14.7182 11.9035C14.464 11.8609 14.2112 11.8106 13.9573 11.766C13.6455 11.711 13.3479 11.7618 13.068 11.9041C12.8056 12.0373 12.7193 12.249 12.7927 12.5561C12.8144 12.6467 12.8465 12.7351 12.8745 12.8254C12.6364 12.8455 12.3807 12.7015 12.2854 12.4969C12.2185 12.3532 12.2216 12.2651 12.313 11.7991C12.0899 11.8535 11.8732 11.9097 11.6551 11.9588C11.2598 12.048 10.8634 12.1132 10.4546 12.0624C10.0238 12.0091 9.70585 11.7553 9.6325 11.3734C9.773 11.4188 9.90814 11.4541 10.0365 11.5058C10.5099 11.6963 10.9783 11.6782 11.4514 11.4996C11.8328 11.3556 12.2174 11.2193 12.6056 11.0953C12.769 11.0431 12.945 11.0307 13.1126 11.0008C12.7187 10.5195 11.3879 10.6028 10.9077 11.1433C10.5435 10.8729 10.3333 10.2581 10.4611 9.82958C10.5796 9.43157 10.8812 9.23651 11.2596 9.15917C11.5197 9.1061 11.7894 9.1013 12.0724 9.07307C12.1003 8.79813 12.2944 8.74647 12.5511 8.77188C12.5954 8.77639 12.6474 8.70272 12.6959 8.66489C12.6561 8.62848 12.6222 8.57259 12.5757 8.55819C12.0789 8.40548 11.5772 8.26829 11.0838 8.10626C10.9266 8.05488 10.7839 7.95072 10.6445 7.85644C10.1691 7.53492 9.99842 7.08045 10.0873 6.52238C10.1367 6.21187 10.1962 5.90306 10.2459 5.59255C10.2577 5.51915 10.2512 5.44237 10.247 5.36729C10.2346 5.15134 10.2092 5.12876 10.0004 5.1663C9.91802 5.18098 9.83761 5.20977 9.75777 5.23659C9.54476 5.30857 9.33485 5.391 9.11959 5.45479C8.60328 5.60751 8.40692 6.1461 8.71924 6.58251C8.8256 6.73127 8.95172 6.86592 9.06513 7.00988C9.48438 7.54113 9.46886 8.14267 9.02394 8.65162C8.9125 8.77893 8.7957 8.90201 8.68905 9.03327C8.50538 9.25909 8.51977 9.39882 8.73589 9.58936C8.76749 9.61703 8.7988 9.64469 8.83097 9.67292C8.64363 9.83495 8.27488 9.80361 8.11943 9.60235C7.90614 9.32571 7.85846 9.02395 7.99388 8.70159C8.05708 8.55113 8.14002 8.40886 8.22579 8.24006C8.16937 8.25276 8.13608 8.26151 8.1025 8.26716C7.8215 8.31571 7.54191 8.37612 7.25893 8.40717C7.0984 8.42467 6.98808 8.49863 6.88793 8.609C6.8442 8.65727 6.80018 8.70554 6.72542 8.78768C6.65912 8.60957 6.5852 8.45939 6.54852 8.30047C6.50366 8.10654 6.59789 7.95185 6.7542 7.83922C6.9373 7.7074 7.12181 7.57755 7.3114 7.4556C7.41805 7.38701 7.43441 7.30486 7.37122 7.20804C7.27924 7.0669 7.19291 6.91757 7.07724 6.79732C6.64247 6.34511 6.84504 5.75317 7.33313 5.52791C7.56335 5.42177 7.81501 5.3495 8.02266 5.21062C8.3567 4.98734 8.66281 4.72171 8.98021 4.47359C9.16868 4.32595 9.34642 4.16167 9.54645 4.03238C10.0639 3.69816 10.6033 3.71623 11.0948 4.08489C11.2737 4.21925 11.4367 4.3793 11.588 4.54529C11.8723 4.85692 11.8989 5.22163 11.7392 5.59678C11.6644 5.77208 11.5493 5.93072 11.45 6.09529C11.4136 6.15542 11.3693 6.21103 11.3304 6.26946C10.9382 6.85632 11.0355 7.41072 11.6043 7.83019C11.8695 8.02581 12.1627 8.15679 12.4899 8.2059C12.5272 8.21155 12.5644 8.21691 12.6019 8.21832C12.9546 8.23018 13.0962 8.03569 12.9481 7.71728C12.8595 7.52674 12.7371 7.35172 12.6268 7.17163C12.5148 6.98871 12.4281 6.79817 12.427 6.57856C12.4245 6.14102 12.6437 5.84095 13.0734 5.71393C13.2348 5.66622 13.4029 5.64025 13.5696 5.61344C13.6058 5.60751 13.6498 5.63743 13.687 5.65663C13.7113 5.66905 13.7282 5.69473 13.7511 5.71054C13.9195 5.82853 14.0086 5.80257 14.0896 5.61259C13.8515 5.34612 13.8585 5.2078 14.1023 4.93935C14.15 4.88685 14.1559 4.7968 14.1909 4.69574C14.0572 4.7172 13.9536 4.73385 13.8391 4.75248V4.37309C13.9443 4.38975 14.0445 4.40556 14.1666 4.42475C14.1506 4.3141 14.1356 4.21107 14.119 4.09646H14.5024C14.4835 4.20457 14.466 4.3045 14.4454 4.42249C14.563 4.40415 14.6674 4.38806 14.78 4.37055V4.75107C14.6697 4.73244 14.5661 4.71465 14.4626 4.69715C14.4499 4.70619 14.4372 4.71494 14.4245 4.72397C14.4727 4.81035 14.5058 4.91197 14.5723 4.98056C14.7238 5.13582 14.7464 5.36164 14.6053 5.52791C14.5811 5.55642 14.5543 5.58239 14.53 5.60836C14.6147 5.80849 14.7444 5.85366 14.9027 5.70461C15.0147 5.59932 15.1216 5.60469 15.2483 5.62191C15.6032 5.66961 15.9096 5.7941 16.0961 6.12747C16.2414 6.38689 16.2414 6.65195 16.1224 6.91278C16.025 7.1259 15.8967 7.32462 15.7934 7.53549C15.7299 7.66505 15.6741 7.8014 15.6396 7.94084C15.6061 8.07662 15.6653 8.15255 15.8067 8.15114C15.9308 8.15001 16.0583 8.1232 16.1777 8.0865C16.6034 7.95467 16.9874 7.73534 17.3536 7.48722C17.7268 7.23401 18.0897 6.96528 18.4579 6.70445C18.5225 6.65872 18.5916 6.61949 18.6271 6.59719C18.5938 6.34708 18.5842 6.11279 18.527 5.89064C18.4703 5.67102 18.3777 5.45818 18.2793 5.25268C18.1069 4.89334 17.8815 4.55573 17.7429 4.18481C17.4566 3.41729 17.875 2.57609 18.6367 2.31019C18.9242 2.20969 19.2216 2.23736 19.5167 2.24357C19.5579 2.24442 19.6126 2.27293 19.6366 2.30623C19.7689 2.49 19.9678 2.48887 20.158 2.49028C20.2085 2.49056 20.2595 2.40701 20.3188 2.3545C20.1447 2.21336 20.035 2.06686 20.0248 1.86334C20.0155 1.67872 20.0601 1.49863 20.2105 1.39814C20.3848 1.28184 20.3823 1.11642 20.4229 0.931245C20.2392 0.96286 20.0714 0.991935 19.8959 1.02214V0.425962C20.0685 0.457577 20.2322 0.487499 20.415 0.520808C20.384 0.339584 20.3557 0.175861 20.3256 0H20.9273C20.8943 0.172756 20.8636 0.333091 20.8283 0.516574C21.0047 0.486088 21.172 0.457013 21.3514 0.425962V1.02299C21.183 0.992217 21.019 0.962013 20.8388 0.928986C20.8656 1.11473 20.8749 1.26659 21.0365 1.3956C21.3034 1.60844 21.2902 2.02254 21.0425 2.25909C21.0157 2.28478 20.9872 2.30877 20.9604 2.33277C20.9894 2.47617 21.0611 2.53347 21.21 2.50214C21.357 2.47137 21.4879 2.43185 21.5827 2.30144C21.6129 2.25994 21.6894 2.22268 21.7385 2.22945C22.0672 2.27575 22.4032 2.30369 22.7194 2.39628C23.2369 2.54787 23.4533 2.98004 23.5853 3.45963C23.6838 3.81785 23.6214 4.16251 23.4361 4.47867C23.2792 4.74599 23.0992 4.99919 22.9341 5.26171C22.7652 5.53016 22.6797 5.82035 22.685 6.14328C22.6876 6.28752 22.6294 6.4329 22.5928 6.60594C23.2135 7.02202 23.855 7.46209 24.5079 7.88439C24.7491 8.04049 25.0262 8.12828 25.3179 8.1486C25.4011 8.15425 25.4852 8.14945 25.6079 8.14945C25.5752 7.99052 25.5684 7.84741 25.5156 7.72377C25.4177 7.49569 25.2936 7.27889 25.1791 7.05815C25.0747 6.85632 24.9762 6.65195 25.014 6.41511C25.0721 6.05069 25.4053 5.72607 25.7916 5.65409C25.879 5.63771 25.9685 5.63094 26.0565 5.61682C26.1598 5.60017 26.2407 5.58944 26.3177 5.70574C26.4148 5.85168 26.5937 5.79692 26.6786 5.60948C26.5508 5.4946 26.4639 5.35741 26.5212 5.17703C26.5429 5.10844 26.5951 5.04972 26.6335 4.98649C26.6834 4.90435 26.7333 4.8222 26.7833 4.74034C26.7709 4.72792 26.7584 4.71522 26.7463 4.7028C26.6433 4.71861 26.5401 4.7347 26.425 4.75248V4.37309C26.5316 4.3906 26.632 4.40697 26.7519 4.42645C26.7356 4.31269 26.7209 4.20881 26.7048 4.09533H27.088C27.0693 4.20062 27.0516 4.29998 27.0301 4.42024C27.1416 4.40471 27.2445 4.39031 27.3602 4.37422V4.75079C27.2556 4.73328 27.1523 4.71578 27.0346 4.69602C27.0535 4.81402 27.0572 4.91084 27.1596 4.99665C27.3487 5.15473 27.325 5.37632 27.1018 5.63094C27.1483 5.67836 27.1898 5.75712 27.2465 5.77038C27.3461 5.79325 27.4519 5.7749 27.5168 5.66735C27.534 5.63856 27.5803 5.60412 27.6079 5.60836C27.8116 5.63884 28.0221 5.65465 28.2151 5.72014C28.7221 5.89233 28.9435 6.47185 28.6998 6.97149C28.6095 7.15638 28.4887 7.3266 28.3813 7.50302C28.2814 7.66675 28.2199 7.84007 28.2278 8.03625C28.2317 8.13364 28.2746 8.17937 28.3674 8.19461C28.9198 8.28522 29.3732 8.07831 29.7665 7.7153C30.0032 7.49681 30.1429 7.223 30.131 6.89019C30.1234 6.67284 30.0385 6.48089 29.9254 6.29797C29.7894 6.07835 29.6449 5.86241 29.5304 5.63178C29.2787 5.12509 29.3715 4.73018 29.8057 4.36547C29.9172 4.27176 30.0281 4.17747 30.1375 4.0815C30.5029 3.76111 31.1174 3.70324 31.5911 3.97451C31.8131 4.10154 32.0256 4.25962 32.2089 4.43802C32.6728 4.88967 33.18 5.26284 33.7945 5.48669C34.0718 5.58775 34.2899 5.7718 34.3692 6.08061C34.4231 6.29006 34.3946 6.48258 34.2665 6.6559C34.1827 6.76909 34.0899 6.87551 34.0013 6.98532C33.9748 7.01835 33.9471 7.05053 33.924 7.0861C33.7762 7.31333 33.7886 7.37939 34.0115 7.52871C34.1207 7.60182 34.2372 7.66477 34.3441 7.74099C34.7803 8.05263 34.8187 8.30894 34.4939 8.75409C34.4688 8.72728 34.4395 8.70498 34.4217 8.67562C34.3153 8.49948 34.1593 8.41479 33.9559 8.40576C33.6351 8.39164 33.3076 8.4131 33.0212 8.20703C33.015 8.21889 33.0091 8.23075 33.0029 8.24288C33.0601 8.34281 33.1185 8.44189 33.1744 8.54267C33.3104 8.78712 33.3561 9.04033 33.2689 9.31555C33.14 9.72316 32.8025 9.87701 32.3909 9.69239C32.4493 9.6382 32.5035 9.58908 32.5562 9.53855C32.6869 9.41322 32.7117 9.31809 32.6169 9.16312C32.5292 9.01972 32.418 8.89072 32.315 8.75663C32.2321 8.64852 32.1395 8.54746 32.0628 8.43512C31.7634 7.99673 31.762 7.58968 32.0628 7.15102C32.201 6.94975 32.363 6.76458 32.499 6.5619C32.5735 6.45096 32.6307 6.32281 32.6694 6.19465C32.7264 6.00609 32.6663 5.8322 32.5128 5.71534C32.3802 5.61428 32.2304 5.53045 32.0777 5.46213C31.8684 5.36813 31.6497 5.29587 31.4348 5.21429C31.426 5.2109 31.4173 5.20723 31.4085 5.20413C31.0784 5.08868 30.9269 5.19764 30.965 5.54823C30.993 5.80398 31.0643 6.05492 31.1021 6.31011C31.1315 6.50911 31.1569 6.71179 31.1524 6.91193C31.1439 7.29583 30.9582 7.59279 30.6454 7.80902C30.2151 8.10626 29.7425 8.30611 29.2319 8.42016C28.9952 8.47294 28.7613 8.53956 28.5184 8.60194C28.5446 8.71966 28.5909 8.80688 28.7054 8.78204C28.908 8.73772 29.035 8.83454 29.1247 8.99008C29.178 9.08239 29.2401 9.09819 29.338 9.10158C29.5529 9.10864 29.7722 9.11372 29.9809 9.15888C30.6008 9.29353 30.9137 9.79797 30.7737 10.4181C30.7105 10.6984 30.5822 10.9457 30.3508 11.1447C30.3046 11.1055 30.26 11.0727 30.221 11.0344C29.9767 10.7916 29.6791 10.6897 29.3394 10.6925C28.9495 10.6956 28.5745 10.7704 28.2148 10.9217C28.1784 10.937 28.1446 10.9587 28.0805 10.9929C28.2797 11.0375 28.4501 11.0648 28.6132 11.1145C28.9585 11.2201 29.3075 11.3195 29.6418 11.4541C30.2309 11.6912 30.8096 11.7051 31.3922 11.4462C31.4545 11.4185 31.5211 11.4008 31.5908 11.3765C31.5724 11.6811 31.3033 11.9526 30.9546 12.0342C30.5641 12.1254 30.1787 12.0667 29.795 11.9916C29.5372 11.9413 29.2815 11.8789 29.0248 11.8231C28.9895 11.8154 28.9531 11.8137 28.9139 11.8087C29.0773 12.5039 28.9043 12.822 28.3593 12.8328C28.388 12.7004 28.4261 12.5705 28.4428 12.4379C28.4783 12.1584 28.3813 11.9919 28.1242 11.8747C27.7919 11.7231 27.4499 11.7347 27.1035 11.8177C26.9621 11.8516 26.8194 11.8812 26.6763 11.9058C26.4622 11.9422 26.3702 11.8973 26.2802 11.7048C26.2421 11.6229 26.1973 11.6393 26.1344 11.6633C25.6113 11.8626 25.1813 12.1895 24.836 12.6253C24.384 13.1963 24.1058 13.8394 24.0844 14.5767C24.0615 15.3612 24.4077 15.8882 25.2053 16.1002C25.4646 16.169 25.7622 16.0959 26.0424 16.0841C26.1149 16.081 26.1868 16.064 26.2898 16.0488C26.1265 16.3455 25.8827 16.4942 25.6246 16.6326C25.354 16.7774 25.069 16.7339 24.7618 16.7446C24.8524 16.8403 24.9299 16.9549 25.0357 17.0289C25.5236 17.3699 26.0548 17.4715 26.627 17.2728C26.8609 17.1915 27.0919 17.1017 27.3433 17.0085C27.3732 17.4235 27.3481 17.8068 27.0346 18.1041C26.7333 18.3897 26.3443 18.414 25.9394 18.4276C25.9611 18.4739 25.9724 18.5077 25.9913 18.5368C26.4244 19.1982 27.6565 19.6371 28.4067 19.3981C28.9385 19.2287 29.448 18.5413 29.426 18.0166C29.4144 17.7408 29.3007 17.4972 29.156 17.2694C29.04 17.087 28.9018 16.9191 28.7881 16.7353C28.6874 16.5724 28.5926 16.4031 28.5218 16.2258C28.4114 15.95 28.458 15.6767 28.6527 15.4597C28.8394 15.2514 29.0547 15.0656 29.2719 14.8883C29.7959 14.4607 30.3446 14.0621 30.851 13.6153C31.1515 13.3499 31.3905 13.0151 31.6568 12.7114C31.6876 12.6764 31.7172 12.6405 31.7663 12.583C31.801 12.7026 31.8298 12.8023 31.867 12.9302C31.9671 12.8582 32.0628 12.8023 32.1432 12.7292C32.6657 12.2549 33.0833 11.6924 33.4825 11.1157C33.6295 10.9037 33.7607 10.6807 33.9029 10.4568C33.9488 10.5401 33.9937 10.6217 34.0496 10.7227C35.599 9.39177 36.6928 7.75256 37.4659 5.83192C37.5787 5.94907 37.6806 6.03065 37.7517 6.1334C37.9571 6.42951 38.0144 6.77305 38.0302 7.12392C38.0634 7.87253 37.8626 8.56525 37.5122 9.21929C37.1513 9.89253 36.6593 10.4673 36.1466 11.0259C35.8095 11.3929 35.4687 11.7564 35.1307 12.1226C35.0881 12.1688 35.0525 12.2216 35.0139 12.2716C35.0215 12.2812 35.0291 12.2908 35.0367 12.3001C35.1434 12.2374 35.2596 12.1863 35.3553 12.1098C36.0157 11.5817 36.6824 11.0606 37.3257 10.5121C37.851 10.0642 38.3464 9.58089 38.8554 9.11344C38.896 9.07618 38.9389 9.04174 38.9886 8.9994C39.2255 9.25288 39.2882 9.54646 39.2594 9.86741C39.2202 10.3024 39.0467 10.6911 38.8416 11.0699C38.5301 11.6449 38.0649 12.0819 37.5708 12.4909C37.0861 12.8923 36.591 13.2807 36.1167 13.6615C36.1523 13.646 36.216 13.6212 36.2773 13.5913C36.8771 13.2997 37.4732 13.0004 38.0767 12.7176C38.5194 12.5098 38.9776 12.3391 39.4665 12.2736C39.6084 12.2547 39.7534 12.2575 39.9072 12.2499C39.8866 12.5756 39.7576 12.8325 39.585 13.071C39.2831 13.4885 38.8881 13.8072 38.4714 14.0999C38.1715 14.3108 37.8637 14.5101 37.5598 14.715C37.5068 14.7509 37.4552 14.7893 37.4072 14.8375C38.4488 14.7695 39.4828 14.5084 40.5566 14.7718C39.6897 15.6917 38.5721 16.1213 37.4803 16.6176C37.5471 16.6232 37.614 16.63 37.6809 16.6342C38.2717 16.6721 38.8633 16.6992 39.4527 16.7517C39.7562 16.7788 40.0513 16.8635 40.3103 17.0489C40.266 17.2457 40.1391 17.3755 39.9932 17.4896C39.6504 17.7572 39.2521 17.9138 38.8427 18.0392C38.5383 18.1323 38.2248 18.1972 37.9156 18.2751C37.8854 18.2828 37.8561 18.2938 37.7855 18.3164C38.1297 18.3821 38.4373 18.4222 38.7338 18.5027C39.0628 18.5919 39.3858 18.7082 39.7035 18.8326C39.8544 18.8919 40.0231 18.9904 40.0183 19.1767C40.0138 19.3472 39.8324 19.3983 39.7038 19.4667C39.1429 19.7639 38.5383 19.874 37.9088 19.8723C37.7255 19.8717 37.5421 19.8743 37.359 19.8813C37.3031 19.8836 37.2478 19.9053 37.197 19.9169C37.5328 20.0366 37.8716 20.1303 38.1853 20.2779C38.4409 20.3982 38.6805 20.5659 38.9 20.7454C39.0202 20.8439 39.0893 21.0082 39.1719 21.1485C39.2224 21.2343 39.1872 21.2893 39.0901 21.326C38.5865 21.5171 38.0663 21.5479 37.5359 21.5078C37.1208 21.4765 36.7445 21.3159 36.3622 21.1725C36.2493 21.1301 36.1342 21.094 36.02 21.0548C36.0152 21.0661 36.0101 21.0776 36.0053 21.0889C36.1385 21.1572 36.2719 21.225 36.4048 21.2941C36.8915 21.5476 37.3471 21.8426 37.702 22.2717C37.8338 22.4312 37.9244 22.6073 37.9424 22.8173C37.9506 22.9113 37.9249 22.9729 37.8352 23.0223C37.3796 23.2741 36.9132 23.2379 36.4434 23.081C35.8425 22.88 35.3276 22.5252 34.8192 22.1596C34.6172 22.0142 34.4163 21.8672 34.1932 21.741C34.2307 21.7808 34.2662 21.8226 34.3057 21.8598C34.7538 22.2824 35.2066 22.7002 35.6492 23.1281C35.9373 23.4064 36.1701 23.7268 36.2341 24.1344C36.2609 24.3044 36.2541 24.4811 36.246 24.6538C36.244 24.6931 36.1785 24.7515 36.1325 24.7631C35.6566 24.8836 35.2131 24.7761 34.8497 24.4695C34.547 24.2143 34.2854 23.9055 34.0318 23.5987C33.6757 23.1676 33.3448 22.7157 33.0003 22.2748C32.9538 22.2152 32.892 22.1675 32.8372 22.1142C32.8274 22.1221 32.8172 22.13 32.8073 22.1382C32.837 22.1825 32.8666 22.2271 32.8965 22.2714C33.2991 22.8673 33.6975 23.466 34.106 24.0577C34.4093 24.4969 34.477 24.9556 34.2956 25.4614C34.1666 25.8211 34.1793 25.8228 33.8021 25.7426C33.224 25.6201 32.809 25.2797 32.5427 24.7656C32.3334 24.3617 32.1655 23.9363 31.9638 23.5281C31.8309 23.2594 31.672 23.0033 31.5219 22.7434C31.4974 22.7007 31.4593 22.666 31.4274 22.6276C31.4159 22.6333 31.4046 22.6386 31.393 22.6443C31.419 22.7205 31.4415 22.7976 31.4712 22.8724C31.6788 23.3957 31.9051 23.9126 32.091 24.4435C32.2403 24.8704 32.3204 25.3166 32.2496 25.7753C32.2084 26.0424 32.1045 26.2781 31.9183 26.4779C31.8501 26.5511 31.7792 26.5759 31.6952 26.5273C31.5332 26.4339 31.3625 26.3498 31.2184 26.2335C30.7681 25.8705 30.5277 25.3793 30.3878 24.8272C30.2634 24.336 30.1231 23.8491 29.9888 23.3604C29.9807 23.3308 29.9646 23.3034 29.9175 23.278C29.9175 23.3912 29.9036 23.5064 29.92 23.617C29.9781 24.0117 30.0687 24.4029 30.1059 24.7989C30.1649 25.4267 29.9465 25.9506 29.4469 26.3518C29.3419 26.4362 29.264 26.4455 29.1532 26.3659C28.5144 25.908 28.1595 25.313 28.2323 24.5045C28.258 24.2188 28.2859 23.9335 28.3127 23.6478C28.3178 23.5922 28.3223 23.5363 28.3313 23.4316C28.2357 23.5208 28.1722 23.5851 28.1036 23.6433C27.749 23.945 27.8012 23.9131 27.4511 23.6842C27.2358 23.5434 27.1444 23.3105 27.0499 23.0844C27.0389 23.0863 27.0259 23.0849 27.0236 23.0894C26.8656 23.3906 26.6445 23.6326 26.3699 23.8349C26.3059 23.8824 26.2788 24.006 26.2698 24.0977C26.221 24.5884 26.3228 25.0507 26.5581 25.484C26.5917 25.5459 26.6253 25.6082 26.6535 25.6726C26.7297 25.8459 26.6837 25.9173 26.489 25.9202C26.4106 25.9213 26.3321 25.9041 26.2165 25.8911C26.2785 26.0031 26.3166 26.1031 26.3807 26.1821C26.7378 26.6236 27.189 26.8243 27.7611 26.7012C27.8779 26.6761 27.9973 26.6634 28.1152 26.6448C28.1279 26.658 28.1406 26.6716 28.1533 26.6849C28.0904 26.8302 28.0272 26.9756 27.9623 27.1252C28.1857 27.1628 28.4303 27.1949 28.6707 27.2463C29.345 27.3908 29.6864 27.8018 29.7047 28.4954C29.7149 28.8759 29.6997 29.257 29.7115 29.6375C29.7157 29.771 29.7533 29.9074 29.7981 30.0344C29.8791 30.2639 30.0377 30.4239 30.2763 30.4956C30.339 30.5146 30.4002 30.538 30.493 30.5699C30.2394 30.7717 29.973 30.9013 29.6796 30.8129C29.4065 30.7308 29.1563 30.5733 28.8851 30.444C28.765 30.8623 28.8552 31.2414 29.2087 31.546C28.9091 31.7871 28.6278 31.6524 28.1821 31.0548C28.1612 31.1641 28.1378 31.2519 28.129 31.3414C28.1206 31.4294 28.1271 31.5189 28.1271 31.6075C28.1155 31.6177 28.1039 31.6279 28.0924 31.6383C28.0021 31.5582 27.8999 31.4873 27.8243 31.3947C27.7487 31.3018 27.6996 31.187 27.6218 31.0517C27.5456 31.1915 27.4824 31.3072 27.4167 31.428C27.7981 31.8334 28.2399 32.136 28.7545 32.3276C29.3199 32.5382 29.9019 32.6856 30.5035 32.7412C31.0251 32.7895 31.5014 32.6706 31.9079 32.32C31.9725 32.2644 31.9906 32.2119 31.9553 32.1396C31.819 31.8579 31.6847 31.5748 31.5428 31.2959C31.4889 31.1901 31.4757 31.1189 31.588 31.0325C31.6517 30.9834 31.6777 30.8745 31.7014 30.7872C31.7321 30.6735 31.7524 30.5679 31.8591 30.4863C31.9234 30.4372 31.9547 30.3381 31.9886 30.2563C32.2301 29.6739 32.6254 29.2432 33.2122 28.9967C33.3575 28.9358 33.4687 28.8375 33.5643 28.7054C33.6187 28.6303 33.7367 28.588 33.8343 28.562C33.9091 28.5423 33.9477 28.5177 33.9635 28.4443C33.9861 28.3404 34.0146 28.2377 34.0459 28.1126C33.8713 28.1426 33.7161 28.1694 33.5499 28.1979V27.6294C33.7087 27.6582 33.8634 27.6861 34.0394 27.7177C34.0118 27.5481 33.9861 27.3897 33.959 27.2218H34.5303C34.5007 27.3827 34.4725 27.5365 34.4403 27.7115C34.6172 27.6827 34.7761 27.657 34.9425 27.6299V28.1976C34.7769 28.1677 34.6217 28.14 34.4443 28.1081C34.4795 28.2504 34.5058 28.3768 34.5453 28.4991C34.5537 28.5256 34.6079 28.5485 34.6437 28.5533C34.8006 28.5742 34.9134 28.6439 34.9789 28.796C35.0003 28.846 35.0593 28.8861 35.1098 28.9157C35.2317 28.9863 35.3587 29.0478 35.4836 29.1133C36.0146 29.3919 36.3622 29.8213 36.5436 30.3912C36.5879 30.5306 36.6054 30.6915 36.7764 30.7545C36.7958 30.7616 36.8085 30.8002 36.8156 30.8265C36.8816 31.0709 36.9064 31.316 36.817 31.5613C36.7803 31.6623 36.7583 31.7707 36.7086 31.8647C36.6748 31.9285 36.6065 31.9751 36.5504 32.0259C36.4767 32.0928 36.3808 32.1433 36.3281 32.2232C36.1639 32.4722 35.996 32.711 35.7361 32.875C35.6741 32.9142 35.6292 33.0063 35.6095 33.0825C35.5364 33.3676 35.3609 33.5033 35.0681 33.5234C34.666 33.5511 34.288 33.6696 33.9235 33.8463C33.7271 33.9414 33.5073 33.9872 33.3008 34.0625C33.2257 34.0899 33.1527 34.1314 33.0889 34.1797C32.8889 34.3316 32.6688 34.3793 32.4394 34.2799C32.1945 34.1738 31.9545 34.0529 31.7237 33.9189C30.9509 33.47 30.1226 33.2281 29.2327 33.1327C28.6064 33.0655 27.9899 32.9029 27.3712 32.7722C27.0197 32.698 26.669 32.6559 26.3087 32.6689C26.0844 32.6771 25.859 32.6526 25.6344 32.639C25.5884 32.6362 25.5422 32.6209 25.4979 32.6057C25.2499 32.5207 25.1751 32.3522 25.2998 32.123C25.3641 32.0047 25.4547 31.9 25.5402 31.7941C25.6796 31.6214 25.7191 31.4898 25.6793 31.277L25.6779 31.2756ZM15.0009 25.8931C14.8903 25.9021 14.7972 25.9224 14.7069 25.9145C14.5278 25.8987 14.5018 25.8549 14.5656 25.6887C14.6025 25.5927 14.6519 25.5007 14.7024 25.4106C14.936 24.9934 15.0065 24.5452 14.9529 24.0755C14.9442 23.9992 14.9216 23.91 14.8731 23.8556C14.6527 23.608 14.4208 23.3706 14.1836 23.1194C14.1517 23.1741 14.1237 23.2216 14.0961 23.2695C13.9782 23.475 13.8487 23.6681 13.6351 23.7912C13.5022 23.8677 13.3902 23.8829 13.2717 23.7596C13.1603 23.6438 13.0319 23.5445 12.8891 23.4186C12.9244 23.7466 12.9495 24.0419 12.9893 24.3349C13.1022 25.1653 12.8037 25.8163 12.1429 26.3142C11.987 26.4316 11.8456 26.421 11.7189 26.2823C11.7 26.2614 11.6816 26.2397 11.6622 26.2197C11.2765 25.8236 11.1236 25.3553 11.1865 24.8026C11.237 24.3594 11.2553 23.9123 11.2833 23.4666C11.2875 23.3985 11.2675 23.3291 11.2584 23.2602C11.2212 23.2828 11.2127 23.3037 11.2071 23.3254C11.0355 23.9789 10.8795 24.6372 10.6854 25.2839C10.6087 25.5394 10.4687 25.7838 10.3184 26.0071C10.1214 26.2995 9.8393 26.4966 9.48212 26.5592C9.43444 26.5677 9.35629 26.5581 9.33316 26.5265C9.07078 26.17 8.86595 25.7844 8.96893 25.3251C9.04228 24.9971 9.15401 24.6764 9.26488 24.358C9.45532 23.8132 9.66015 23.2732 9.85425 22.7298C9.88021 22.657 9.87824 22.574 9.88924 22.4958C9.87739 22.4938 9.86554 22.4919 9.85369 22.4899C9.84128 22.5147 9.82886 22.5393 9.81645 22.5641C9.45024 23.3054 9.08968 24.0492 8.71614 24.7868C8.38943 25.4318 7.82122 25.7093 7.1314 25.7821C7.09727 25.7858 7.03435 25.7561 7.02645 25.7296C6.95423 25.4877 6.86818 25.2464 6.83122 24.9982C6.77564 24.6253 6.95874 24.3109 7.15454 24.0153C7.50749 23.4824 7.87369 22.9585 8.23369 22.43C8.2746 22.3699 8.31128 22.307 8.34965 22.2451C7.8751 22.7798 7.42482 23.3285 6.97426 23.877C6.74009 24.1618 6.48363 24.4227 6.16595 24.6157C5.90611 24.7738 5.62906 24.8602 5.3204 24.8215C5.03489 24.7857 4.94517 24.6922 4.94009 24.4018C4.93388 24.0407 5.06423 23.7271 5.30404 23.4652C5.61495 23.1256 5.93489 22.7933 6.25877 22.4659C6.4983 22.2237 6.75081 21.9939 6.99739 21.7588C6.94238 21.7647 6.89949 21.7881 6.85971 21.8164C6.4763 22.0879 6.09598 22.3643 5.70946 22.6313C5.33451 22.8904 4.92711 23.077 4.47147 23.147C4.33887 23.1674 4.20796 23.1987 4.05561 23.2289C4.08946 23.282 4.10357 23.326 4.13376 23.3477C4.24464 23.4271 4.27003 23.549 4.25395 23.6611C4.2294 23.8333 4.2895 23.9752 4.35975 24.1186C4.44664 24.2956 4.53777 24.4706 4.63031 24.6448C5.37147 26.039 6.11263 27.4332 6.85661 28.8262C6.88764 28.8841 6.93504 28.9468 6.9909 28.9756C7.27162 29.119 7.33454 29.2299 7.33256 29.5429C7.332 29.6432 7.35937 29.7659 7.42059 29.8402C7.61075 30.0714 7.81755 30.2896 8.02915 30.5016C8.13325 30.6057 8.21225 30.7122 8.22861 30.8612C8.26078 31.1519 8.27291 31.1443 8.4309 31.3733C8.52739 31.513 8.64476 31.546 8.79118 31.5186C8.88683 31.5008 8.98219 31.4704 9.07106 31.4306C9.34642 31.3072 9.51993 31.3577 9.67567 31.6169C9.70219 31.6612 9.72927 31.7055 9.7541 31.7507C9.93382 32.0773 10.2086 32.2842 10.5638 32.3847C11.0559 32.5238 11.5434 32.4598 12.0233 32.326C12.631 32.1566 13.1916 31.8876 13.6839 31.4876C13.7203 31.4579 13.7652 31.3905 13.7542 31.3594C13.7175 31.2575 13.6565 31.1641 13.5942 31.0475C13.4827 31.3052 13.3837 31.5387 13.1151 31.6476C13.0759 31.4831 13.0392 31.3301 13.0045 31.1844C12.864 31.3151 12.7405 31.4585 12.5895 31.5627C12.4228 31.6776 12.2301 31.6846 12.0453 31.5816C12.1505 31.4018 12.2755 31.2358 12.3491 31.0495C12.4259 30.8553 12.4143 30.6413 12.3723 30.4197C12.3209 30.4584 12.2865 30.4908 12.2464 30.5134C12.047 30.6258 11.8557 30.7618 11.6435 30.8406C11.3044 30.9665 11.0116 30.8477 10.7526 30.5865C10.8341 30.5518 10.9027 30.5239 10.9701 30.494C11.3072 30.3438 11.4853 30.0798 11.5106 29.7157C11.5233 29.5333 11.5188 29.3496 11.5211 29.1664C11.5239 28.9219 11.5101 28.6763 11.5312 28.4336C11.5916 27.7358 11.9276 27.3604 12.6141 27.2192C12.8367 27.1735 13.0649 27.1563 13.307 27.1238C13.2077 26.9745 13.0522 26.852 13.1264 26.6363C13.4918 26.7286 13.8554 26.804 14.22 26.6496C14.5732 26.5 14.8548 26.2787 15.0003 25.8939L15.0009 25.8931ZM23.7441 9.7051C23.4555 9.65372 23.2064 9.58344 23.1305 9.25288C23.5977 9.31753 24.0505 9.37737 24.5042 9.26276C24.4413 9.22607 24.3761 9.20405 24.3112 9.1809C23.8641 9.02226 23.4149 8.86644 23.0247 8.58642C22.9217 8.51246 22.8337 8.4179 22.7389 8.33265C23.1985 8.23244 23.6319 8.33406 24.07 8.35071C23.9958 8.30894 23.9205 8.27393 23.8415 8.25191C23.1542 8.0594 22.533 7.73873 21.971 7.29922C21.8457 7.20127 21.7105 7.11319 21.5712 7.03641C21.5023 6.99831 21.4143 6.97996 21.3347 6.97968C20.8043 6.97798 20.2739 6.98165 19.7438 6.98984C19.6913 6.99068 19.6315 7.02117 19.5892 7.05533C19.4284 7.18461 19.2822 7.33366 19.1147 7.4525C18.5955 7.82087 17.9997 8.02948 17.4095 8.24796C17.2622 8.30244 17.116 8.36059 16.9693 8.41705C16.9724 8.42778 16.9755 8.43879 16.9786 8.44951C17.4794 8.37753 17.9799 8.30555 18.4807 8.23385L18.5021 8.29652C18.0426 8.85487 17.3601 9.01746 16.6889 9.26643C17.1795 9.39798 17.6383 9.29636 18.1089 9.25655C17.9954 9.54984 17.7508 9.65429 17.4882 9.74095C17.6194 9.99839 17.8293 10.1429 18.073 10.2217C18.3662 10.3165 18.6694 10.382 18.9708 10.4498C19.1367 10.487 19.3076 10.5028 19.4899 10.5305C19.3909 10.6877 19.2577 10.7541 19.1096 10.7885C18.966 10.8218 18.8193 10.8404 18.6548 10.8687C18.9394 11.1205 19.2109 11.3607 19.4936 11.6105C19.3773 11.6797 19.2822 11.7364 19.151 11.8143C19.2221 11.8705 19.2814 11.9086 19.3302 11.9574C19.4696 12.0966 19.6191 12.2287 19.7379 12.3839C19.9136 12.6132 19.9018 12.649 19.708 12.852C19.702 12.8582 19.7009 12.8686 19.6981 12.8762C19.7616 13.0078 19.8392 13.1337 19.8849 13.27C20.0158 13.6615 20.1343 14.057 20.2564 14.4514C20.349 14.7506 20.4297 15.0543 20.6218 15.3394C20.6658 15.2539 20.7104 15.1876 20.7349 15.1147C20.7973 14.9281 20.8571 14.7399 20.9062 14.5496C21.0526 13.9831 21.144 13.3985 21.4665 12.8827C21.4253 12.8319 21.3765 12.7856 21.346 12.7292C21.3252 12.6908 21.3099 12.6301 21.3254 12.5937C21.4549 12.2925 21.6172 12.0139 21.9018 11.8284C21.9351 11.8067 21.9619 11.7753 21.9986 11.742C21.9086 11.6811 21.8316 11.6291 21.7402 11.5673C22.0144 11.3423 22.2776 11.1264 22.5471 10.9054C22.2618 10.8331 21.9298 10.8475 21.7373 10.524C21.8649 10.5073 21.971 10.4952 22.0762 10.4791C22.5183 10.4119 22.955 10.323 23.3503 10.1C23.5097 10.01 23.6525 9.89931 23.7444 9.70538L23.7441 9.7051ZM19.4292 38.0619C19.3562 37.9193 19.3006 37.8059 19.241 37.6947C19.0596 37.3562 18.9806 36.9957 18.9806 36.6113C18.9806 36.1624 19.0828 35.7345 19.2303 35.3178C19.456 34.681 19.7043 34.0524 19.9314 33.4161C20.0719 33.0221 20.189 32.6192 20.1698 32.1936C20.1645 32.0744 20.1317 31.9567 20.1117 31.8382C20.0968 31.8393 20.0821 31.8401 20.0671 31.8413C19.8888 32.9653 19.4134 33.9793 18.9248 34.9904C18.758 35.3354 18.6125 35.695 18.5007 36.0611C18.3667 36.5 18.3484 36.9514 18.5586 37.381C18.7321 37.7356 18.995 37.9837 19.4295 38.0619H19.4292ZM21.8008 38.0687C22.2438 37.9611 22.5499 37.7313 22.7067 37.3283C22.8453 36.9726 22.8504 36.6039 22.7809 36.2324C22.6935 35.7647 22.4833 35.3424 22.2714 34.9249C21.8113 34.0188 21.4044 33.0935 21.1669 32.101C21.1471 32.0186 21.1183 31.9384 21.0938 31.8574L21.0382 31.8627C21.0382 31.9915 21.0346 32.1205 21.0388 32.2492C21.0588 32.8264 21.2546 33.3602 21.4518 33.8932C21.6781 34.5043 21.9368 35.1056 22.1256 35.728C22.3389 36.4323 22.3233 37.1386 21.9303 37.798C21.8849 37.8742 21.8533 37.9583 21.8008 38.069V38.0687ZM24.5304 35.341C24.5211 35.1993 24.5268 35.0624 24.5008 34.9317C24.4232 34.539 24.204 34.2181 23.9216 33.9516C23.5529 33.6038 23.1607 33.2806 22.7745 32.9518C22.3812 32.6167 22.0231 32.2574 21.82 31.7673C21.763 31.6296 21.6665 31.5082 21.5881 31.3792C21.5463 31.6584 21.6194 31.9031 21.7292 32.138C21.9444 32.5995 22.2666 32.9859 22.6046 33.3597C22.8125 33.5897 23.0264 33.8147 23.2403 34.0394C23.5074 34.3205 23.7315 34.6285 23.8982 34.9822C24.0426 35.2885 24.2108 35.3754 24.5304 35.3413V35.341ZM19.8033 31.3563C19.7833 31.3529 19.763 31.3498 19.743 31.3464C19.6637 31.6363 19.4862 31.8675 19.2975 32.0902C18.9189 32.5365 18.4858 32.9247 18.0318 33.293C17.759 33.5146 17.498 33.7537 17.2523 34.0052C17.0105 34.2525 16.8257 34.5455 16.7484 34.8888C16.7134 35.0435 16.712 35.2058 16.6942 35.3766C17.0314 35.3449 17.2464 35.2001 17.3646 34.9258C17.5006 34.6099 17.7077 34.3462 17.9365 34.0933C18.312 33.6786 18.6838 33.2603 19.0452 32.8335C19.3096 32.5213 19.5596 32.1944 19.7074 31.8074C19.7616 31.6654 19.7729 31.5071 19.8036 31.3563H19.8033Z" fill="#5E656B"/></svg>