<svg xmlns="http://www.w3.org/2000/svg" width="1117" height="128" viewBox="0 0 1117 128" fill="none"><path d="M124.458 124.703V3.34326H139.365V63.7805L208.177 3.34326H227.762L179.28 46.4875L235.151 124.703H217.095L168.481 56.8986L139.322 81.6028V124.747H124.414L124.458 124.703Z" fill="#3F4549"/><path d="M266.078 124.68V3.54053H273.904L351.765 94.064V3.54053H366.76V124.68H359.153L280.986 34.1562V124.68H266.078Z" fill="#3F4549"/><path d="M466.298 113.722C479.763 113.722 490.954 109.09 499.785 99.7814C508.616 90.4732 513.032 78.6945 513.032 64.4455C513.032 50.1964 508.616 38.2854 499.785 29.0213C490.998 19.7131 479.85 15.0811 466.298 15.0811C452.745 15.0811 441.641 19.7572 432.81 29.1096C423.979 38.4178 419.564 50.1964 419.564 64.4455C419.564 78.6945 423.979 90.4732 432.81 99.7814C441.641 109.09 452.833 113.722 466.298 113.722ZM466.298 127.882C448.33 127.882 433.466 121.927 421.706 110.016C410.033 98.0168 404.219 82.8413 404.219 64.4896C404.219 46.1379 410.077 30.8742 421.837 18.9632C433.597 6.96396 448.417 0.964355 466.298 0.964355C484.178 0.964355 499.173 6.96396 510.977 18.9632C522.781 30.9624 528.683 46.1379 528.683 64.4896C528.683 82.8413 522.781 98.0168 510.977 110.016C499.217 121.927 484.353 127.882 466.298 127.882Z" fill="#3F4549"/><path d="M565.422 124.68V3.54053H579.237L627.719 77.6974L676.552 3.54053H690.148V124.68H675.372V30.0976L627.763 101.74L580.155 30.0976V124.68H565.466H565.422Z" fill="#3F4549"/><path d="M757.049 77.918H809.904L783.367 24.2745L757.049 77.918ZM718.359 124.68L777.16 3.54053H789.575L849.075 124.68H832.856L816.549 92.0788H750.23L734.36 124.68H718.359Z" fill="#3F4549"/><path d="M892.705 57.4929H945.647C953.166 57.4929 958.893 55.8165 962.74 52.4638C966.675 49.1111 968.598 44.1702 968.598 37.6412C968.598 31.1122 966.631 26.3479 962.74 22.8187C958.893 19.2454 953.472 17.4367 946.434 17.4367H892.705V57.4929ZM877.797 124.636V3.54053H946.608C958.368 3.54053 967.549 6.54033 974.238 12.5399C980.927 18.4513 984.249 26.7008 984.249 37.2442C984.249 46.023 981.626 53.5667 976.424 59.8309C971.221 66.0511 964.314 69.9332 955.745 71.4772L985.779 124.68H969.254L939.264 71.6978H892.705V124.68H877.797V124.636Z" fill="#3F4549"/><path d="M1047.54 124.68V63.9777L993.508 3.54053H1012.22L1055.15 51.3609L1097.91 3.54053H1116.84L1062.45 64.1983V124.68H1047.54Z" fill="#3F4549"/><path d="M15.4922 31.0895C23.7505 31.0895 30.4453 24.334 30.4453 16.0006C30.4453 7.66717 23.7505 0.911621 15.4922 0.911621C7.23379 0.911621 0.539062 7.66717 0.539062 16.0006C0.539062 24.334 7.23379 31.0895 15.4922 31.0895Z" fill="#3F4549"/><path d="M15.4922 76.2827C23.7505 76.2827 30.4453 69.5272 30.4453 61.1938C30.4453 52.8604 23.7505 46.1049 15.4922 46.1049C7.23379 46.1049 0.539062 52.8604 0.539062 61.1938C0.539062 69.5272 7.23379 76.2827 15.4922 76.2827Z" fill="#3F4549"/><path d="M60.2969 76.2829C68.5552 76.2829 75.25 69.5273 75.25 61.1939C75.25 52.8605 68.5552 46.105 60.2969 46.105C52.0385 46.105 45.3438 52.8605 45.3438 61.1939C45.3438 69.5273 52.0385 76.2829 60.2969 76.2829Z" fill="#3F4549"/><path d="M15.4922 121.48C23.7505 121.48 30.4453 114.725 30.4453 106.391C30.4453 98.0578 23.7505 91.3022 15.4922 91.3022C7.23379 91.3022 0.539062 98.0578 0.539062 106.391C0.539062 114.725 7.23379 121.48 15.4922 121.48Z" fill="#3F4549"/><path d="M60.0625 31.0895C68.3208 31.0895 75.0156 24.334 75.0156 16.0006C75.0156 7.66717 68.3208 0.911621 60.0625 0.911621C51.8041 0.911621 45.1094 7.66717 45.1094 16.0006C45.1094 24.334 51.8041 31.0895 60.0625 31.0895Z" fill="#3F4549"/><path d="M60.2969 121.48C68.5552 121.48 75.25 114.725 75.25 106.391C75.25 98.0578 68.5552 91.3022 60.2969 91.3022C52.0385 91.3022 45.3438 98.0578 45.3438 106.391C45.3438 114.725 52.0385 121.48 60.2969 121.48Z" fill="#3F4549"/></svg>