<?xml version="1.0" encoding="UTF-8"?> <svg xmlns="http://www.w3.org/2000/svg" width="133" height="16" viewBox="0 0 133 16" fill="none"><path d="M14.7239 15.4431V1.02148H16.4955V8.20348L24.6726 1.02148H27L21.2386 6.14848L27.878 15.4431H25.7324L19.9554 7.38567L16.4903 10.3214V15.4484H14.7188L14.7239 15.4431Z" fill="white"></path><path d="M31.5547 15.4404V1.04492H32.4846L41.7371 11.8022V1.04492H43.5191V15.4404H42.6151L33.3262 4.6831V15.4404H31.5547Z" fill="white"></path><path d="M55.3458 14.1377C56.9459 14.1377 58.2759 13.5872 59.3253 12.4811C60.3747 11.375 60.8994 9.97527 60.8994 8.28199C60.8994 6.58872 60.3747 5.17329 59.3253 4.0724C58.2811 2.96627 56.9563 2.41583 55.3458 2.41583C53.7354 2.41583 52.4158 2.97151 51.3664 4.08289C50.317 5.18902 49.7922 6.58872 49.7922 8.28199C49.7922 9.97527 50.317 11.375 51.3664 12.4811C52.4158 13.5872 53.7457 14.1377 55.3458 14.1377ZM55.3458 15.8205C53.2106 15.8205 51.4443 15.1127 50.0468 13.6973C48.6597 12.2714 47.9688 10.468 47.9688 8.28724C47.9688 6.10643 48.6649 4.29258 50.0624 2.87715C51.4599 1.45124 53.221 0.738281 55.3458 0.738281C57.4707 0.738281 59.2526 1.45124 60.6553 2.87715C62.058 4.30307 62.7593 6.10643 62.7593 8.28724C62.7593 10.468 62.058 12.2714 60.6553 13.6973C59.2578 15.1127 57.4914 15.8205 55.3458 15.8205Z" fill="white"></path><path d="M67.125 15.4404V1.04492H68.7667L74.5281 9.85728L80.331 1.04492H81.9467V15.4404H80.1908V4.20081L74.5333 12.7144L68.8758 4.20081V15.4404H67.1302H67.125Z" fill="white"></path><path d="M89.9024 9.88349H96.1833L93.0299 3.50882L89.9024 9.88349ZM85.3047 15.4404L92.2921 1.04492H93.7676L100.838 15.4404H98.9107L96.973 11.5663H89.0919L87.2061 15.4404H85.3047Z" fill="white"></path><path d="M106.022 7.45629H112.313C113.206 7.45629 113.887 7.25708 114.344 6.85867C114.812 6.46025 115.04 5.87311 115.04 5.09724C115.04 4.32138 114.807 3.75521 114.344 3.33582C113.887 2.91119 113.243 2.69626 112.406 2.69626H106.022V7.45629ZM104.25 15.4351V1.04492H112.427C113.825 1.04492 114.916 1.4014 115.71 2.11436C116.505 2.81683 116.9 3.79715 116.9 5.05006C116.9 6.09329 116.588 6.98973 115.97 7.73414C115.352 8.4733 114.531 8.93463 113.513 9.11811L117.082 15.4404H115.118L111.554 9.14432H106.022V15.4404H104.25V15.4351Z" fill="white"></path><path d="M124.421 15.4404V8.22692L118 1.04492H120.224L125.325 6.72761L130.406 1.04492H132.655L126.193 8.25313V15.4404H124.421Z" fill="white"></path><path d="M1.77694 4.31858C2.75831 4.31858 3.55387 3.51579 3.55387 2.5255C3.55387 1.53521 2.75831 0.732422 1.77694 0.732422C0.795561 0.732422 0 1.53521 0 2.5255C0 3.51579 0.795561 4.31858 1.77694 4.31858Z" fill="white"></path><path d="M1.77694 9.68772C2.75831 9.68772 3.55387 8.88493 3.55387 7.89464C3.55387 6.90435 2.75831 6.10156 1.77694 6.10156C0.795561 6.10156 0 6.90435 0 7.89464C0 8.88493 0.795561 9.68772 1.77694 9.68772Z" fill="white"></path><path d="M7.10506 9.68772C8.08644 9.68772 8.882 8.88493 8.882 7.89464C8.882 6.90435 8.08644 6.10156 7.10506 6.10156C6.12369 6.10156 5.32812 6.90435 5.32812 7.89464C5.32812 8.88493 6.12369 9.68772 7.10506 9.68772Z" fill="white"></path><path d="M1.77694 15.0608C2.75831 15.0608 3.55387 14.258 3.55387 13.2677C3.55387 12.2774 2.75831 11.4746 1.77694 11.4746C0.795561 11.4746 0 12.2774 0 13.2677C0 14.258 0.795561 15.0608 1.77694 15.0608Z" fill="white"></path><path d="M7.07381 4.31858C8.05519 4.31858 8.85075 3.51579 8.85075 2.5255C8.85075 1.53521 8.05519 0.732422 7.07381 0.732422C6.09244 0.732422 5.29688 1.53521 5.29688 2.5255C5.29688 3.51579 6.09244 4.31858 7.07381 4.31858Z" fill="white"></path><path d="M7.10506 15.0608C8.08644 15.0608 8.882 14.258 8.882 13.2677C8.882 12.2774 8.08644 11.4746 7.10506 11.4746C6.12369 11.4746 5.32812 12.2774 5.32812 13.2677C5.32812 14.258 6.12369 15.0608 7.10506 15.0608Z" fill="white"></path></svg>