<svg xmlns="http://www.w3.org/2000/svg" width="57" height="14" viewBox="0 0 57 14" fill="none"><path d="M41.4609 0.652344L43.0425 0.653233L43.0358 2.18821L41.4623 2.18465L41.4609 0.652344Z" fill="white"/><path d="M9.1835 11.8027L10.7624 11.805L10.7634 13.346L9.16406 13.3409L9.1835 11.8027Z" fill="white"/><path d="M41.463 3.43431L43.0386 3.43164L43.0391 10.5643L41.4609 10.5719L41.463 3.43431Z" fill="white"/><path d="M9.18197 3.43359L10.7622 3.43499L10.7669 10.5692L9.16406 10.5609L9.18197 3.43359Z" fill="white"/><path d="M43.6211 3.43164L49.5001 3.43532L49.5037 4.74409L47.3381 4.75145L47.3179 8.28654L47.3263 10.5644L45.7811 10.5682L45.7743 4.75488L43.6172 4.74307L43.6211 3.43164Z" fill="white"/><path d="M28.587 3.28451C29.2932 3.20119 30.2328 3.39578 30.7981 3.82445C31.3955 4.27739 31.5216 4.84032 31.6172 5.54335L30.1479 5.55376C30.0272 5.31536 30.0392 5.10489 29.8504 4.88554C29.5917 4.58502 29.2575 4.51173 28.8732 4.49471C28.5556 4.48061 28.099 4.5083 27.8546 4.73629C27.7105 4.8708 27.5868 5.07301 27.592 5.27712C27.5977 5.49877 27.7254 5.67786 27.9071 5.79801C28.162 5.96669 28.5255 6.03566 28.8184 6.11238C29.621 6.32221 30.7337 6.52581 31.3601 7.11897C31.7219 7.46166 31.8582 7.8836 31.8729 8.3721C31.8914 8.9852 31.7024 9.51816 31.2683 9.95687C30.5864 10.6459 29.578 10.7258 28.6673 10.7261C27.9812 10.7101 27.2509 10.5162 26.7007 10.0998C26.0571 9.61266 25.9139 8.95891 25.8125 8.20825C25.9372 8.14995 26.1379 8.177 26.2762 8.17739L27.3639 8.18348C27.419 8.59666 27.5155 8.94379 27.8516 9.21599C28.2277 9.52057 28.8252 9.56465 29.2926 9.51295C29.5953 9.47942 29.9598 9.36282 30.1507 9.1098C30.2999 8.91204 30.3518 8.70958 30.3144 8.46444C30.2932 8.32511 30.2498 8.19606 30.1351 8.10575C29.8859 7.90938 29.4869 7.8159 29.1854 7.72674C28.376 7.48757 27.3773 7.31749 26.6936 6.80232C26.3729 6.56074 26.1662 6.16356 26.1126 5.7688C26.0355 5.19926 26.1454 4.62109 26.5094 4.16536C27.0268 3.51771 27.8087 3.3691 28.587 3.28451Z" fill="white"/><path d="M50.068 3.42837L51.6469 3.43129L51.6465 6.11131L54.5752 6.11779L54.5809 3.43205L56.1423 3.42773L56.1458 8.31655C56.1458 9.00979 56.2413 9.86245 56.1137 10.5388L55.9181 10.5692L54.5797 10.565L54.5795 8.46643C54.5792 8.1687 54.6282 7.7653 54.5499 7.48066L51.6521 7.47939L51.6485 10.568L50.0625 10.5598L50.068 3.42837Z" fill="white"/><path d="M11.9051 3.43498L13.513 3.43358L16.4442 8.16794C16.5132 7.67715 16.4592 7.11346 16.4587 6.61556L16.4704 3.42773L17.9548 3.43409L17.9582 10.561L16.3848 10.5646L13.4333 5.81422L13.4357 10.5629L11.9342 10.5627C11.8116 10.3727 11.8948 9.34105 11.8944 9.05958L11.9051 3.43498Z" fill="white"/><path d="M32.5828 3.43069L34.845 3.42954L36.5219 8.29067L38.1325 3.42383L40.3229 3.43374L40.3259 10.5586L38.8668 10.5625L38.8703 6.96869L38.8539 5.52199L37.109 10.5547L35.8508 10.572C35.6477 9.77319 35.3055 8.98163 35.0289 8.20429C34.7284 7.35977 34.4756 6.43231 34.0675 5.63605L34.074 10.5559L32.5781 10.5645L32.5828 3.43069Z" fill="white"/><path d="M0.313008 3.42188L2.56219 3.42657L4.22914 8.28516L5.82724 3.43432L8.06169 3.43483L8.06106 10.5661L6.55352 10.5517L6.55517 7.18584L6.55212 5.48193L4.82281 10.5241C4.59659 10.6506 3.86803 10.5658 3.57869 10.5648L2.4917 7.47531C2.27806 6.87249 2.09681 6.22662 1.80925 5.65607L1.8123 10.5586L0.3125 10.5696L0.313008 3.42188Z" fill="white"/><path fill-rule="evenodd" clip-rule="evenodd" d="M21.2948 3.43423L19.1291 3.43359L19.125 10.5734L21.2657 10.5687C21.2983 10.5685 21.3306 10.5684 21.3629 10.5683C22.6098 10.5634 23.6159 10.5594 24.5963 9.63079C25.3796 8.6454 25.5741 7.54164 25.4373 6.30147C25.3435 5.45123 24.9799 4.63503 24.302 4.0942C23.4735 3.43324 22.4811 3.43377 21.485 3.4343C21.4216 3.43433 21.3582 3.43437 21.2948 3.43423ZM21.0054 4.70557C20.8966 4.70813 20.789 4.71065 20.6835 4.71168L20.6792 9.28257C20.7833 9.28278 20.8853 9.28385 20.9855 9.2849C21.821 9.29368 22.5284 9.30111 23.2829 8.79242C23.8063 8.21984 23.9208 7.51681 23.887 6.76348C23.8636 6.24158 23.6864 5.56853 23.2809 5.21212C22.6602 4.66668 21.7982 4.68694 21.0054 4.70557Z" fill="white"/></svg>