<svg xmlns="http://www.w3.org/2000/svg" width="120" height="33" viewBox="0 0 120 33" fill="none"><g clip-path="url(#clip0_1088_1661)"><path d="M2.42511 8.48145L3.53682 10.8188L5.80279 15.6444L7.25553 18.7356C7.44232 19.1357 7.71989 19.5769 7.82872 19.9977L7.32378 20.4148L1.8125 9.58777L2.42511 8.48145Z" fill="#FEFEFE"/><path d="M96.4068 7.35416C96.8873 7.22222 97.5979 7.31471 98.1143 7.31473L102.024 7.302L102.075 8.70816C102.093 8.95063 102.178 9.34379 102.089 9.56964C101.953 9.60028 101.9 9.62085 101.768 9.57827L100.809 7.73743L98.7703 7.74178L98.7639 11.4353L98.7617 12.9089C98.7603 13.145 98.7286 13.4501 98.7754 13.6787C98.871 14.1486 99.6313 13.8591 99.9543 14.0589L99.9708 14.3172C99.796 14.4345 99.2983 14.3782 99.0811 14.3789L96.4334 14.3615C96.3708 14.225 96.3816 14.2045 96.4183 14.0589C96.6204 13.9634 96.9081 13.9787 97.1297 13.9659C97.285 13.8658 97.3325 13.7866 97.3749 13.6039C97.4303 13.3638 97.4051 13.084 97.4059 12.838L97.4087 11.4354L97.408 9.28675C97.4073 8.92373 97.4382 8.52554 97.3951 8.16727C97.3757 8.0073 97.3159 7.88528 97.2296 7.75106C96.9714 7.69276 96.6931 7.68988 96.4298 7.67141C96.3536 7.55659 96.3888 7.48426 96.4068 7.35416Z" fill="#FEFEFE"/><path d="M4.80675 5.48924C4.88686 5.4637 4.89152 5.45281 4.9656 5.48924L8.90071 19.0815C8.81864 19.2591 8.41966 19.4981 8.25566 19.626L8.1682 19.4817L3.91406 6.45965L4.80675 5.48924Z" fill="#FEFEFE"/><path d="M8.26542 2.92252L8.43193 2.91211L10.1475 18.0861L9.41705 18.6606L9.35469 18.3928L7.08594 3.63439L8.26542 2.92252Z" fill="#FEFEFE"/><path d="M81.3636 7.35393C81.6226 7.27899 81.9534 7.31457 82.2246 7.31396L83.9056 7.31215L86.2734 7.31271C86.7036 7.31315 87.1682 7.27892 87.5933 7.33482C87.6048 7.48615 87.625 7.53688 87.535 7.66523L86.7762 7.73284C86.7158 7.79744 86.6503 7.87199 86.6151 7.9543C86.5115 8.19595 86.5115 13.4752 86.6158 13.7335L86.6446 13.8024C86.746 14.0335 87.3567 13.9549 87.5933 14.0466L87.6062 14.3203C87.5768 14.3425 87.543 14.3651 87.5055 14.3695C87.1517 14.4116 84.3666 14.435 84.2033 14.3043L84.2098 14.0707C84.4493 13.9468 84.7514 13.9958 85.0132 13.9334C85.106 13.8288 85.1614 13.7343 85.1866 13.5959C85.2506 13.2356 85.2046 12.7937 85.2053 12.4259L85.206 9.9192L85.1852 7.75447C84.909 7.7558 83.2208 7.70689 83.1251 7.76633C83.1072 7.77722 83.1079 8.14438 83.1021 8.27097C83.0302 9.79814 82.9691 13.046 81.8139 14.1432C81.4212 14.5168 81.0234 14.511 80.5156 14.4968L80.4883 13.1183C80.8537 13.1388 81.2234 13.1503 81.5262 12.9087C82.4965 12.1352 82.4541 10.1175 82.585 8.99629C82.6252 8.65205 82.6684 8.14985 82.439 7.86577C82.2836 7.67307 81.6542 7.69754 81.3802 7.66535C81.3075 7.55602 81.3449 7.47843 81.3636 7.35393Z" fill="#FEFEFE"/><path d="M56.4374 7.35427C56.6567 7.25504 57.1344 7.31304 57.3823 7.31268L59.8811 7.3114C59.9395 7.44067 59.9109 7.51153 59.8894 7.64578C59.6851 7.7357 59.4035 7.72393 59.1811 7.73876C59.0404 7.85327 59.0369 7.87748 58.9873 8.05388C59.0521 8.33662 59.2546 8.57456 59.4167 8.80948L60.2447 10.0076L61.1322 8.77136C61.3357 8.49501 61.5706 8.2547 61.604 7.90814C61.5903 7.88298 61.5309 7.75275 61.5145 7.74395C61.3518 7.65657 60.9205 7.72983 60.6978 7.64926C60.6865 7.49356 60.6748 7.45478 60.7561 7.32194L62.5612 7.30609C62.7138 7.30463 63.0702 7.26178 63.1818 7.35427L63.1684 7.61663C63.0363 7.74811 62.6343 7.74141 62.4461 7.76031L60.4961 10.3684L62.5652 13.2353C62.6393 13.3388 62.9627 13.8692 63.0451 13.9066C63.2478 13.9983 63.5858 13.8837 63.7714 14.0441C63.8024 14.0708 63.7998 14.2695 63.8031 14.3214C63.6289 14.4407 62.9249 14.3756 62.6812 14.3772L60.1728 14.3651C60.1275 14.2274 60.1411 14.1828 60.1728 14.0411C60.4375 13.9514 60.8908 14.0181 61.1014 13.8939C61.1747 13.8507 61.1749 13.7596 61.1955 13.6801C61.1616 13.3691 60.8885 13.0681 60.7145 12.8163L59.6473 11.2605L58.4809 12.825C58.2866 13.0867 57.9965 13.3804 57.9427 13.7092C58.1592 14.1605 58.7157 13.805 59.0555 14.059L59.0721 14.3089C59.0445 14.3305 59.0099 14.3558 58.9758 14.3656C58.8091 14.4137 58.5008 14.3763 58.3204 14.3768H56.9074C56.7451 14.3765 56.5494 14.4096 56.4141 14.3214C56.4149 13.7138 56.7784 14.1032 57.1048 13.9044C57.164 13.8683 57.2916 13.6343 57.3439 13.5651L59.376 10.9191L57.6178 8.43351C57.5029 8.27175 57.287 7.86354 57.149 7.77121C56.9758 7.65527 56.6283 7.80314 56.4267 7.61663L56.4374 7.35427Z" fill="#FEFEFE"/><path d="M40.8088 4.31719L49.2863 4.31055L49.3485 6.08972C49.3665 6.3675 49.4641 6.73453 49.41 7.00355L49.2038 7.06485C49.1774 7.05394 49.1066 7.0337 49.0872 7.01664C49.0116 6.95027 48.9093 6.67619 48.8584 6.5784L47.9621 4.82975C47.7839 4.71277 46.1141 4.79533 45.7775 4.79753L45.7704 11.1019L45.7709 12.7888C45.7713 13.0966 45.7392 13.4351 45.816 13.735L45.8203 13.7515C46.083 14.1447 46.8009 13.8178 47.1797 14.0343C47.2019 14.1481 47.2248 14.2385 47.1817 14.3496L47.0976 14.3697C46.7169 14.4164 42.9901 14.4061 42.8873 14.3205L42.882 14.0873C43.0963 13.9024 43.7889 13.9508 44.0995 13.918C44.182 13.8439 44.232 13.8063 44.277 13.7028C44.3646 13.5009 44.327 13.211 44.3278 12.9932L44.3306 11.3984L44.3235 4.78446L42.1215 4.78337L41.3884 6.24371C41.26 6.5003 41.139 6.81566 40.9493 7.03092L40.7451 7.03146L40.6641 6.94525L40.8088 4.31719Z" fill="#FEFEFE"/><path d="M64.2279 7.35518C64.4929 7.25918 64.9509 7.31641 65.2377 7.31599C65.9876 7.31488 66.7763 7.26583 67.5219 7.33604C67.5413 7.48354 67.55 7.52462 67.4883 7.65978L66.7636 7.74177C66.5198 8.04816 66.5758 8.44607 66.5733 8.81434L66.5699 10.4596L69.586 10.4603C69.5908 9.7284 69.6863 8.85253 69.5796 8.13656C69.4785 7.45933 68.9519 7.88214 68.6016 7.61754L68.6107 7.38433C68.7865 7.24079 71.4998 7.30814 71.9555 7.3205C72.0043 7.41871 71.9711 7.53758 71.9555 7.64183C71.722 7.72903 71.4443 7.71207 71.1971 7.71845C71.0728 7.79498 70.9977 7.85387 70.9544 8.00105C70.8553 8.33796 70.933 8.88979 70.9321 9.25216C70.9304 9.87326 70.822 13.517 71.0035 13.8062C71.1469 14.0347 71.6927 13.9678 71.9555 14.0217C71.9971 14.1388 71.9778 14.2318 71.9568 14.3514L71.7221 14.3764L68.6595 14.3653L68.5996 14.2639C68.6796 13.7485 69.156 14.151 69.417 13.895C69.4986 13.815 69.5526 13.7077 69.5739 13.5954C69.6237 13.3329 69.587 12.9923 69.5869 12.7226L69.5768 10.927L66.5693 10.9294L66.5749 12.7825C66.5769 13.1061 66.5387 13.509 66.6667 13.8113C66.7568 14.0241 67.3076 13.9575 67.5219 14.0447L67.5547 14.2931C67.3398 14.4673 64.7842 14.3746 64.2843 14.3724L64.2091 14.2931L64.2276 14.0599C64.4939 13.8924 64.8211 14.0652 65.1046 13.8558C65.1864 13.7312 65.2148 13.6255 65.2199 13.4777C65.2407 12.8673 65.2989 8.11944 65.1268 7.86821C64.9125 7.55531 64.4374 7.84515 64.1992 7.58839L64.2279 7.35518Z" fill="#FEFEFE"/><path d="M102.801 7.35521C103.119 7.25144 103.629 7.3156 103.967 7.31461L105.348 7.31278C105.605 7.31296 105.887 7.28916 106.138 7.34563C106.152 7.47871 106.15 7.55148 106.08 7.66737L105.321 7.74427C105.212 7.87498 105.153 8.02317 105.133 8.19163C105.055 8.82977 105.12 9.56458 105.12 10.2121C105.118 11.1808 105.055 12.2032 105.139 13.166L108.446 7.31429L109.89 7.30999C110.147 7.30996 110.437 7.28142 110.688 7.33904C110.708 7.46357 110.703 7.53085 110.652 7.64672C110.414 7.71571 110.12 7.64592 109.906 7.72579C109.8 7.76558 109.738 7.88262 109.696 7.98513C109.583 8.26665 109.66 8.88882 109.659 9.20163C109.658 9.77936 109.549 13.3933 109.711 13.7476C109.896 14.1519 110.375 13.8502 110.688 14.0567L110.708 14.2932C110.457 14.44 110 14.375 109.704 14.3759C108.927 14.3781 108.138 14.409 107.363 14.3621C107.341 14.3215 107.33 14.2853 107.334 14.2393C107.361 13.8261 107.918 14.1016 108.177 13.8851C108.434 13.3835 108.318 12.5191 108.318 11.9642L108.305 8.49027L104.996 14.3794L102.842 14.368L102.781 14.2932L102.809 14.0599C103.1 13.9371 103.422 14.0537 103.673 13.8617C103.919 13.3955 103.784 10.3997 103.784 9.74268C103.784 9.21875 103.854 8.57493 103.771 8.06259C103.675 7.47715 103.109 7.85707 102.782 7.61758L102.801 7.35521Z" fill="#FEFEFE"/><path d="M82.0979 22.1626C82.4475 22.0943 85.1858 22.0782 85.3865 22.1962L85.3922 22.4249C85.1923 22.6036 84.8477 22.5036 84.5859 22.5888C84.5082 22.6809 84.432 22.7749 84.4111 22.8969C84.3435 23.2952 84.3975 23.7921 84.3975 24.2039C84.3975 25.4813 84.4694 26.805 84.3601 28.0758L87.7061 22.1436L89.1123 22.1438C89.3684 22.1448 89.636 22.121 89.8827 22.2019C89.9007 22.3405 89.915 22.3815 89.8517 22.5056L89.1008 22.5707C88.9742 22.6987 88.9311 22.826 88.9167 23.0019C88.8318 24.011 88.9045 25.0916 88.9045 26.1072C88.9045 26.8537 88.8268 27.6981 88.9145 28.4348C88.9275 28.546 88.967 28.6257 89.039 28.7097C89.1713 28.8642 89.6381 28.8499 89.8481 28.8673C89.9172 29.0052 89.8942 29.0496 89.8668 29.2016C89.3267 29.3187 88.6117 29.2363 88.0536 29.2367C87.6198 29.2369 87.012 29.3114 86.5999 29.1939L86.5733 28.9839C86.7294 28.6992 87.189 28.9443 87.3897 28.751C87.486 28.6576 87.5371 28.5125 87.5544 28.3813C87.6169 27.9003 87.563 27.334 87.5637 26.8452L87.5572 23.3414L85.1239 27.6575C84.842 28.1486 84.5607 28.7996 84.2047 29.233L82.6467 29.2346C82.4504 29.234 82.2159 29.2668 82.0361 29.1793L82.0195 28.9256C82.2065 28.7756 82.6165 28.8566 82.8661 28.7712C82.9416 28.6574 83.0071 28.5421 83.0265 28.4052C83.1193 27.7685 83.038 26.9769 83.038 26.3231C83.0388 25.2276 83.1186 24.0652 83.0258 22.9788C83.0164 22.8655 82.9798 22.7586 82.9107 22.6675C82.7762 22.4908 82.2849 22.5368 82.0497 22.5084C82.0174 22.3295 82.0087 22.3188 82.0979 22.1626Z" fill="#FEFEFE"/><path d="M53.03 7.125C53.7306 7.15391 54.4445 7.40694 54.9577 7.89202C55.68 8.57481 55.8108 9.41694 55.8363 10.3618L50.9649 10.3681C50.9762 10.8607 51.0034 11.3589 51.1152 11.8406C51.2664 12.4916 51.6418 13.1601 52.2215 13.5173C52.6597 13.7873 53.2686 13.8812 53.7719 13.7585C54.5554 13.5675 54.9876 13.0176 55.3889 12.3626L55.5015 12.2205L55.7722 12.3266L55.8106 12.427C55.6028 12.8989 55.3625 13.3114 55.0038 13.6862C54.4592 14.2553 53.7251 14.5434 52.9448 14.5588C52.0198 14.5771 51.1951 14.3148 50.5229 13.6646C49.8223 12.9871 49.5147 11.9527 49.5006 10.9986C49.4847 9.90922 49.7648 8.79743 50.5448 8.00004C51.232 7.29757 52.0854 7.1327 53.03 7.125ZM52.4464 7.62815C51.9109 7.81615 51.5733 8.09455 51.3231 8.61538C51.1394 8.9976 51.059 9.47089 50.9889 9.88792L52.8764 9.89109H54.3207C54.3115 9.21677 54.2855 8.49217 53.768 7.9861C53.5214 7.74497 53.1631 7.59984 52.8168 7.6077L52.4464 7.62815Z" fill="#FEFEFE"/><path d="M69.3465 21.98C69.4723 21.9625 69.6119 21.966 69.7392 21.9635C70.4685 21.949 71.3415 22.2039 71.8749 22.7235C72.597 23.4268 72.7337 24.2304 72.7524 25.2016L67.9052 25.2127L67.9265 26.0329C68.0215 26.8646 68.2965 27.7071 68.9781 28.2428C69.4329 28.6002 70.0134 28.6988 70.5771 28.6267C71.2105 28.5457 71.6787 28.1114 72.0532 27.6275L72.415 27.0562C72.5618 27.113 72.6625 27.1195 72.7351 27.2645C72.6042 27.5507 72.4704 27.8373 72.2856 28.0934C71.7821 28.7911 71.1377 29.2379 70.2785 29.3758C69.4815 29.5037 68.4966 29.3238 67.8388 28.8424C67.0887 28.2933 66.5997 27.4052 66.4703 26.4893C66.3067 25.3307 66.517 24.0505 67.2359 23.1079C67.7753 22.4009 68.4899 22.097 69.3465 21.98ZM69.3072 22.486C68.7669 22.7103 68.4356 23.0225 68.208 23.5681C68.0586 23.9262 67.9722 24.3376 67.9086 24.72L69.7949 24.7279L71.2347 24.7216C71.2241 24.0236 71.2007 23.315 70.6559 22.7954C70.3794 22.5316 70.0521 22.4457 69.6793 22.4589L69.3072 22.486Z" fill="#FEFEFE"/><path d="M93.8984 22.159C94.2336 22.1146 94.6105 22.1475 94.9493 22.1468L96.9784 22.1456C97.2121 22.1459 97.6681 22.0869 97.8717 22.1957L97.8803 22.4547C97.6768 22.5796 97.3387 22.5441 97.097 22.5556C97.0064 22.6367 96.9453 22.6794 96.9021 22.7953C96.782 23.1226 96.7748 28.3269 96.8949 28.5829C97.087 28.9922 97.5423 28.7155 97.8717 28.8974L97.8832 29.1595C97.8386 29.1875 97.7847 29.218 97.7322 29.2274C97.3898 29.2882 94.6321 29.2852 94.4717 29.1772L94.4551 28.9262C94.6443 28.7945 94.996 28.8291 95.2298 28.8158C95.3219 28.7419 95.3679 28.7063 95.4197 28.5982C95.5283 28.3699 95.4909 28.0442 95.4916 27.7956L95.4758 26.1107L95.2737 26.0859C95.0989 26.0859 94.6975 26.0326 94.5486 26.0859C94.545 26.0873 92.9051 28.5587 92.7814 28.7383C92.7073 28.845 92.5361 29.1582 92.4296 29.2121C92.3282 29.2632 92.1031 29.2368 91.9873 29.2374C91.601 29.2395 91.0155 29.3135 90.6552 29.1849L90.6343 29.1084C90.6279 29.0773 90.643 28.9231 90.6624 28.9018C90.725 28.8345 90.9199 28.7798 91.0076 28.7349C91.1903 28.6411 91.3471 28.5008 91.4845 28.3497C92.1146 27.6571 92.6404 26.7689 93.1806 26.0002C92.8202 25.9048 92.3858 25.769 92.0988 25.5221C91.7168 25.1937 91.5025 24.762 91.4716 24.2599C91.4442 23.805 91.5737 23.2998 91.883 22.9536C92.3922 22.3833 93.1662 22.2052 93.8984 22.159ZM94.0696 22.6197C93.6884 22.6995 93.3546 22.8045 93.1281 23.1464C92.8706 23.5348 92.8346 24.1688 92.9346 24.6119C93.0022 24.9125 93.1971 25.2245 93.4625 25.386C93.7157 25.54 93.9732 25.5944 94.2645 25.6239L95.4873 25.6193L95.4772 22.6098L94.0696 22.6197Z" fill="#FEFEFE"/><path d="M119.526 14.3682C119.113 14.3957 116.317 14.4461 116.156 14.3212L116.159 14.0925C116.318 13.9475 116.711 13.9673 116.927 13.9422C117.273 13.5328 117.124 12.425 117.124 11.9074L117.127 8.47104L113.799 14.3762L111.621 14.3693C111.581 14.2203 111.581 14.1902 111.621 14.0414L112.388 13.9488C112.479 13.8451 112.562 13.7431 112.584 13.6029C112.677 13.0015 112.592 12.267 112.593 11.648C112.594 10.4943 112.662 9.29965 112.587 8.15031C112.579 8.02688 112.536 7.88789 112.457 7.79154C112.374 7.68895 111.783 7.68701 111.621 7.67317C111.557 7.55761 111.587 7.48048 111.603 7.35411C111.865 7.25549 112.339 7.31535 112.625 7.31435C113.363 7.31176 114.222 7.22344 114.947 7.33326C114.962 7.49809 114.968 7.52413 114.888 7.66741L114.13 7.74447C114.027 7.86041 113.981 7.96951 113.958 8.12168C113.887 8.61554 113.943 9.19154 113.944 9.69309L113.929 13.185L117.261 7.30687L119.526 7.31346V7.65842V14.0124V14.3682ZM119.526 7.65842C119.393 7.6708 118.68 7.70341 118.627 7.76867C118.546 7.86818 118.494 7.96628 118.479 8.09514C118.373 9.00798 118.467 10.0327 118.466 10.9595C118.465 11.7933 118.373 12.7552 118.472 13.5749C118.488 13.7079 118.545 13.8084 118.622 13.9159C118.902 14.008 119.233 13.9914 119.526 14.0124V7.65842Z" fill="#FEFEFE"/><path d="M58.8784 22.1637C59.2948 22.0841 59.8277 22.1445 60.2553 22.144C61.3697 22.1429 62.7541 21.9848 63.8148 22.3743C64.2371 22.5293 64.6235 22.8265 64.8128 23.242C64.9673 23.5814 64.9891 24.0769 64.8548 24.4281C64.634 25.0058 64.1814 25.2342 63.6526 25.4743C64.0239 25.5941 64.3916 25.7065 64.7034 25.9527C65.0024 26.1887 65.2307 26.6016 65.2686 26.9787C65.3309 27.5966 65.1838 28.0354 64.7923 28.5129C64.5894 28.7035 64.3193 28.8724 64.0603 28.9728C63.7442 29.0954 63.4074 29.1709 63.0703 29.2045C62.0879 29.3024 61.0388 29.237 60.0493 29.2362C59.7313 29.236 59.1527 29.308 58.8689 29.1842C58.8326 29.0525 58.8336 28.9847 58.8854 28.8582C59.1446 28.8454 59.4215 28.8502 59.673 28.7838C59.7687 28.684 59.8404 28.57 59.8538 28.4292C59.9523 27.395 59.8609 26.2652 59.8585 25.222C59.8567 24.4836 59.9395 23.6445 59.8475 22.9195C59.834 22.8138 59.7824 22.7058 59.7124 22.6267C59.6041 22.5042 59.0675 22.5301 58.8854 22.5198C58.818 22.4011 58.8528 22.2894 58.8784 22.1637ZM61.226 25.7509L61.2248 27.8601C61.2248 28.1238 61.1765 28.5057 61.2407 28.7567C61.971 28.7699 62.8742 28.9179 63.4704 28.4103C63.8225 27.9362 63.9275 27.5109 63.843 26.9174C63.7859 26.5167 63.6227 26.2143 63.2966 25.9696C62.8027 25.5991 61.8203 25.747 61.226 25.7509ZM61.2288 22.6105C61.2275 23.473 61.3077 24.4192 61.213 25.2714C61.9608 25.2802 62.5427 25.3797 63.1977 24.9606C63.5186 24.5238 63.5978 24.1545 63.5192 23.6193C63.476 23.3257 63.326 23.0303 63.0827 22.8547C62.5816 22.4932 61.8176 22.6057 61.2288 22.6105Z" fill="#FEFEFE"/><path d="M75.7575 7.1623C76.5602 7.0454 77.4312 7.14888 78.1426 7.55274C78.918 7.99347 79.397 8.80317 79.6272 9.64271C79.9106 10.6739 79.7955 11.9883 79.2604 12.922C78.7425 13.8262 77.9944 14.2542 77.0176 14.5167C76.1099 14.6287 75.1871 14.5445 74.4045 14.0294C73.5831 13.4882 73.1933 12.6514 73.0005 11.7213C72.789 10.6988 72.9638 9.44526 73.545 8.56623C74.0909 7.74067 74.8001 7.3579 75.7575 7.1623ZM76.0294 7.62575C75.4856 7.77439 75.1468 8.00232 74.8634 8.49776C74.2585 9.55316 74.2822 11.4013 74.6052 12.5482C74.7498 13.0598 75.0504 13.6089 75.5323 13.8722C75.8905 14.0681 76.2351 14.0734 76.6321 14.0707C77.1824 13.9159 77.5384 13.6832 77.8247 13.1757C78.4123 12.1341 78.4231 10.35 78.1059 9.21927C77.9484 8.65744 77.6729 8.09158 77.1428 7.7982C76.7796 7.59721 76.4307 7.59798 76.0294 7.62575Z" fill="#FEFEFE"/><path d="M91.8518 7.12207C92.6768 7.15595 93.3522 7.2287 94.0412 7.74243C94.7742 8.28892 95.2187 9.16147 95.3453 10.0571C95.5021 11.1607 95.3309 12.3974 94.6433 13.3039C94.0362 14.1038 93.2148 14.4307 92.2474 14.5621C91.4008 14.5704 90.4866 14.4433 89.8176 13.8734C89.0444 13.2151 88.6467 12.281 88.5704 11.279C88.4942 10.2682 88.6848 9.07933 89.371 8.28813C90.0385 7.51856 90.8462 7.19505 91.8518 7.12207ZM91.6712 7.62518C91.1548 7.77143 90.7944 7.9729 90.5204 8.45673C89.8982 9.55787 89.891 11.3167 90.2284 12.5065C90.3772 13.0313 90.6549 13.5984 91.1562 13.8718C91.4763 14.0467 91.8956 14.1096 92.2574 14.0732C92.7955 13.9221 93.1903 13.6735 93.4723 13.1689C94.0549 12.1269 94.0556 10.3179 93.7312 9.18953C93.5665 8.61633 93.2759 8.06551 92.7322 7.77125C92.3919 7.58749 92.0431 7.60122 91.6712 7.62518Z" fill="#FEFEFE"/><path d="M54.1109 21.9799L54.114 21.979C54.9785 21.8943 55.9013 22.0893 56.5942 22.6295C57.3108 23.1881 57.7426 24.1315 57.849 25.0211C57.9778 26.0974 57.7814 27.3155 57.0936 28.1806C56.5514 28.8624 55.8066 29.2762 54.9416 29.3739L54.8643 29.3878C54.0798 29.5133 53.0561 29.277 52.4156 28.8074C51.6277 28.2296 51.2192 27.332 51.0818 26.3844C50.9248 25.3017 51.1259 24.0978 51.7951 23.2118C52.3821 22.4345 53.1755 22.111 54.1109 21.9799ZM54.0462 22.4858C53.5026 22.6841 53.1521 22.9553 52.9004 23.4907C52.3778 24.6023 52.3714 26.4583 52.7932 27.6148C52.9643 28.0838 53.2743 28.5576 53.7414 28.771C54.0955 28.9327 54.5085 28.9413 54.8898 28.8902C55.4955 28.638 55.8361 28.3284 56.0932 27.7094C56.5568 26.5933 56.5414 24.7419 56.0721 23.6267C55.8824 23.1759 55.5551 22.7432 55.0894 22.5548C54.7599 22.4216 54.392 22.4528 54.0462 22.4858Z" fill="#FEFEFE"/><path d="M27.8733 26.8867L28.0227 26.8711C28.0193 26.8937 28.0142 26.9151 28.0067 26.9367C27.9483 27.1043 27.6432 27.3784 27.5193 27.5133C26.2032 28.9461 24.6223 30.1248 22.8795 30.989C19.0264 32.8996 14.6798 33.0733 10.6302 31.7108L9.54297 31.2761C9.723 31.1153 26.0881 27.3099 27.8733 26.8867Z" fill="#FEFEFE"/><path d="M31.164 20.2966L31.2991 20.2891C31.2056 21.1954 30.7721 22.3036 30.3742 23.114L8.02217 30.5201L7.4379 30.1614L6.80469 29.7236L31.164 20.2966Z" fill="#FEFEFE"/><path d="M0.0546875 16.2059C0.147482 15.6896 0.147973 15.163 0.208114 14.6424C0.297921 13.8651 0.482851 13.0692 0.706655 12.3199C0.785445 12.0561 0.860106 11.7088 1.01008 11.4785L6.92529 20.7427L2.16502 24.6332C1.18937 22.9465 0.551441 21.1052 0.246785 19.1815C0.187303 18.8059 0.153808 18.4239 0.125877 18.0448C0.110684 17.8386 0.1215 17.5887 0.0546875 17.3932V16.2059Z" fill="#FEFEFE"/><path d="M77.8549 21.9709C78.403 21.9389 78.923 21.9969 79.4171 22.2542C80.1292 22.6254 80.6126 23.3387 80.8435 24.0934C81.1873 25.2157 81.1089 26.6002 80.5536 27.6437C80.135 28.4307 79.4524 29.0141 78.5921 29.2697C77.6038 29.5637 76.7314 29.3926 75.8438 28.911L75.856 31.7249C75.9243 32.4034 76.7299 31.9098 77.0644 32.1913L77.0565 32.4828C76.9184 32.5747 76.6551 32.5365 76.4911 32.534L74.5613 32.5417C74.2376 32.5417 73.8449 32.5887 73.5428 32.4629L73.537 32.2631C73.7946 32.0975 73.9895 32.118 74.2887 32.1C74.4182 31.9502 74.4815 31.8081 74.4851 31.6082V23.6862L74.4735 22.7635C74.4728 22.745 74.4872 22.7196 74.4728 22.7079C74.452 22.6911 74.2858 22.6737 74.2499 22.667C73.9902 22.6187 73.5687 22.5856 73.3867 22.3965L73.4141 22.2073C73.7794 22.1004 74.2297 22.1424 74.6131 22.1318C75.0144 22.1207 75.4165 22.0671 75.815 22.0196L75.7884 23.1106C76.4465 22.525 76.9824 22.1594 77.8549 21.9709ZM77.1939 22.787C76.6472 22.9542 76.2667 23.245 75.838 23.6137L75.8409 25.6396C75.8445 26.5496 75.7114 27.7095 76.4134 28.4119C76.7479 28.7464 77.1809 28.8967 77.6499 28.8967C77.834 28.8968 77.998 28.8729 78.1721 28.815C78.7317 28.5559 79.0776 28.1648 79.2898 27.5837C79.6926 26.4815 79.7077 24.875 79.2014 23.8066C79.0021 23.3859 78.6518 23.0127 78.2044 22.8576C77.888 22.7476 77.5247 22.7607 77.1939 22.787Z" fill="#FEFEFE"/><path d="M31.2069 13.7089C31.2937 13.6871 31.3179 13.6743 31.404 13.7089C31.5862 14.5055 31.6633 15.2994 31.6888 16.115L11.4513 25.9768L7.05135 28.1216C6.6246 28.3263 6.0577 28.7046 5.6012 28.7882L5.33269 28.5728L4.57031 27.8312L31.2069 13.7089Z" fill="#FEFEFE"/><path d="M28.8635 7.99476L29.0175 7.97461C29.451 8.56148 29.8023 9.22789 30.1221 9.88258L3.9922 26.5581C3.85248 26.6453 3.75618 26.7407 3.58845 26.7294L2.88281 25.7647L28.8635 7.99476Z" fill="#FEFEFE"/><path d="M42.0454 19.1891C42.3854 19.1237 42.7992 19.1663 43.1494 19.1661L45.3418 19.1649L48.44 19.1613C48.8823 19.1612 49.4315 19.0998 49.8564 19.1891C49.8654 19.3417 49.8952 19.4201 49.8008 19.5473L48.7934 19.6292L48.6756 19.7707C48.5881 20.1167 48.6258 20.5125 48.6254 20.8679L48.6251 22.8451L48.6326 28.3533C48.6362 28.4552 48.6564 28.5417 48.7011 28.6341C48.9972 28.8603 49.7091 28.7981 50.0886 28.8142L50.1008 31.1096C50.1083 31.4119 50.1684 31.7146 50.1357 32.0155C50.0102 32.1025 49.9965 32.0939 49.8456 32.0739L48.6767 29.2424L48.4871 29.2354L41.9501 29.2233L40.743 32.0818L40.5388 32.09C40.5224 32.0732 40.4614 32.0222 40.4539 32.0036C40.3927 31.8517 40.4661 31.2948 40.4716 31.1167L40.4903 28.8309L41.3151 28.7925C42.35 27.5287 42.8098 26.001 43.0701 24.4111C43.2178 23.5092 43.7222 20.4482 43.2001 19.7467C43.0495 19.5443 42.2924 19.585 42.0046 19.5389C41.9746 19.3719 41.9804 19.3465 42.0454 19.1891ZM44.0376 19.6423C43.7984 22.7509 43.7866 26.0665 41.9983 28.7519L45.1182 28.7479L47.1732 28.7409L47.1644 19.6422L44.0376 19.6423Z" fill="#FEFEFE"/><path d="M14.9269 0.996141L15.0231 0.984541C19.0577 0.629447 23.2286 2.27624 26.2617 4.85107L16.7807 12.6363L10.5625 17.7498L10.8496 1.78979C12.1954 1.36268 13.5186 1.10712 14.9269 0.996141Z" fill="#FEFEFE"/></g><defs><clipPath id="clip0_1088_1661"><rect width="119.472" height="32.0079" fill="white" transform="translate(0.0546875 0.795898)"/></clipPath></defs></svg>