<?xml version="1.0" encoding="UTF-8"?> <svg xmlns="http://www.w3.org/2000/svg" width="368" height="280" viewBox="0 0 368 280" fill="none"><g clip-path="url(#clip0_1185_3673)"><rect width="368" height="280" rx="4.8" fill="#C8D2DA"></rect><mask id="mask0_1185_3673" style="mask-type:alpha" maskUnits="userSpaceOnUse" x="0" y="0" width="368" height="327"><rect width="368" height="326.182" rx="3.63519" fill="#7E6CAC"></rect></mask><g mask="url(#mask0_1185_3673)"><rect width="368" height="326.182" rx="3.63519" fill="#7E6CAC"></rect><rect x="37.7969" y="26.8633" width="70.1907" height="70.1907" stroke="white"></rect><rect x="47.8945" y="36.959" width="49.9984" height="49.9984" rx="24.9992" fill="#1D2529"></rect><rect x="148.5" y="26.8633" width="70.1907" height="70.1907" stroke="white"></rect><rect x="158.598" y="36.959" width="49.9984" height="49.9984" rx="24.9992" fill="#1D2529"></rect><rect x="279.5" y="42.8496" width="42.1376" height="42.1376" rx="21.0688" stroke="#1D2529"></rect><path d="M184.148 97V217.079" stroke="#F0F4F7" stroke-dasharray="2.42 2.42"></path><path d="M239.001 217L239 169.348L301 169.348L301 117" stroke="#F0F4F7" stroke-dasharray="2.42 2.42"></path><path d="M132.124 216.586L132.125 170.139L70.0348 170.139L70.0348 96.3789" stroke="#F0F4F7" stroke-dasharray="2.42 2.42"></path><path d="M284.964 326.41C284.964 299.631 274.326 273.949 255.391 255.013C236.455 236.077 210.773 225.439 183.994 225.439C157.215 225.439 131.533 236.077 112.597 255.013C93.6614 273.949 83.0234 299.631 83.0234 326.41L183.994 326.41H284.964Z" fill="#1D2529"></path><path d="M293.249 326.079V217.08H74.7734V326.079" stroke="#F0F4F7"></path></g></g><defs><clipPath id="clip0_1185_3673"><rect width="368" height="280" rx="4.8" fill="white"></rect></clipPath></defs></svg>