<?xml version="1.0" encoding="UTF-8"?> <svg xmlns="http://www.w3.org/2000/svg" width="368" height="280" viewBox="0 0 368 280" fill="none"><g clip-path="url(#clip0_1185_3692)"><rect width="368" height="280" rx="4.8" fill="#C8D2DA"></rect><mask id="mask0_1185_3692" style="mask-type:alpha" maskUnits="userSpaceOnUse" x="0" y="0" width="368" height="280"><rect width="368" height="280" rx="3.74441" fill="#E76C73"></rect></mask><g mask="url(#mask0_1185_3692)"><rect x="-11" y="-17" width="390" height="314" rx="3.74441" fill="#7E6CAC"></rect><rect x="188.562" y="125.562" width="120.877" height="57.8767" fill="#7E6CAC"></rect><rect x="188.562" y="125.562" width="120.877" height="57.8767" stroke="white" stroke-width="1.12332"></rect><rect x="194" y="131" width="110" height="47" rx="23.5" fill="#1D2529"></rect><rect width="126.619" height="215.521" transform="translate(185.82 -95.8867)" fill="#7E6CAC"></rect><rect x="195.805" y="-85.9014" width="106.649" height="195.551" rx="49.9255" fill="#1D2529"></rect><rect width="126.619" height="215.521" transform="translate(185.82 189.678)" fill="#7E6CAC"></rect><rect x="196.366" y="200.225" width="105.525" height="194.428" rx="49.3638" stroke="#1D2529" stroke-width="1.12332"></rect><rect x="56.2022" y="-95.2627" width="125.371" height="152.311" fill="#7E6CAC"></rect><rect x="56.2022" y="-95.2627" width="125.371" height="152.311" stroke="white" stroke-width="1.24814" stroke-dasharray="2.5 2.5"></rect><rect x="65.5625" y="-85.9014" width="106.649" height="133.589" rx="49.9255" fill="#1D2529"></rect><rect width="125.721" height="61.9624" transform="translate(55.5781 57.6641)" fill="#7E6CAC"></rect><rect x="66.1242" y="68.2111" width="104.627" height="40.8689" rx="20.4344" stroke="#1D2529" stroke-width="1.12332"></rect><rect x="56.2022" y="124.746" width="124.473" height="124.473" fill="#7E6CAC"></rect><rect x="56.2022" y="124.746" width="124.473" height="124.473" stroke="white" stroke-width="1.24814" stroke-dasharray="2.5 2.5"></rect><rect x="65.5625" y="134.107" width="105.751" height="105.751" rx="49.9255" fill="#1D2529"></rect></g></g><defs><clipPath id="clip0_1185_3692"><rect width="368" height="280" rx="4.8" fill="white"></rect></clipPath></defs></svg>