<?xml version="1.0" encoding="UTF-8"?> <svg xmlns="http://www.w3.org/2000/svg" width="368" height="280" viewBox="0 0 368 280" fill="none"><g clip-path="url(#clip0_1185_3713)"><rect width="368" height="280" rx="4.8" fill="#C8D2DA"></rect><mask id="mask0_1185_3713" style="mask-type:alpha" maskUnits="userSpaceOnUse" x="0" y="-8" width="368" height="327"><rect y="-8" width="368" height="326.182" rx="3.59805" fill="#7E6CAC"></rect></mask><g mask="url(#mask0_1185_3713)"><rect y="-8" width="368" height="326.182" rx="3.59805" fill="#7E6CAC"></rect><rect x="36.3125" y="20.9883" width="41.8182" height="41.8182" rx="20.9091" fill="#1D2529"></rect><rect x="36.3125" y="104.275" width="41.8182" height="41.8182" rx="20.9091" fill="#1D2529"></rect><rect x="36.3125" y="177.462" width="41.8182" height="41.8182" rx="20.9091" fill="#1D2529"></rect><rect x="36.3125" y="250.643" width="41.8182" height="41.8182" rx="20.9091" fill="#1D2529"></rect><rect x="95.3522" y="62.9251" width="40.7388" height="144.263" rx="20.3694" transform="rotate(-90 95.3522 62.9251)" stroke="#1D2529" stroke-width="1.07942"></rect><rect x="256.867" y="63.4648" width="41.8182" height="166.227" rx="20.9091" transform="rotate(-90 256.867 63.4648)" fill="#1D2529"></rect><path d="M86.4453 21.6436L86.4453 323.1" stroke="white" stroke-width="1.19935" stroke-dasharray="2.4 2.4"></path><path d="M27.8672 72.2812L368.016 72.2813" stroke="white" stroke-width="1.19935" stroke-dasharray="2.4 2.4"></path><path d="M27.9375 21.6436L27.9375 323.1" stroke="white" stroke-width="1.19935" stroke-dasharray="2.4 2.4"></path><path d="M248.516 21.6436L248.516 323.1" stroke="white" stroke-width="1.19935" stroke-dasharray="2.4 2.4"></path><rect x="145.629" y="163.168" width="162.011" height="57.466" transform="rotate(-10.5053 145.629 163.168)" fill="#7E6CAC"></rect><rect x="145.629" y="163.168" width="162.011" height="57.466" transform="rotate(-10.5053 145.629 163.168)" stroke="white" stroke-width="1.07942"></rect><rect x="156.184" y="170.42" width="143.901" height="39.3558" rx="19.6779" transform="rotate(-10.5053 156.184 170.42)" fill="#1D2529"></rect><path fill-rule="evenodd" clip-rule="evenodd" d="M267.438 214.328L265.766 183.089L289.988 202.684L279.948 203.983L285.485 214.698L280.133 217.464L274.524 206.611L267.438 214.328Z" fill="white"></path></g></g><defs><clipPath id="clip0_1185_3713"><rect width="368" height="280" rx="4.8" fill="white"></rect></clipPath></defs></svg>