<?xml version="1.0" encoding="UTF-8"?> <svg xmlns="http://www.w3.org/2000/svg" width="302" height="221" viewBox="0 0 302 221" fill="none"><g clip-path="url(#clip0_2192_1192)"><path d="M268.348 138.299H266.613V137.43H268.348V138.299ZM264.879 138.299H263.144V137.43H264.879V138.299ZM261.41 138.299H259.675V137.43H261.41V138.299ZM257.94 138.299H256.206V137.43H257.94V138.299ZM254.471 138.299H252.736V137.43H254.471V138.299ZM251.002 138.299H249.267V137.43H251.002V138.299ZM247.533 138.299H245.798V137.43H247.533V138.299ZM244.063 138.299H242.329V137.43H244.063V138.299ZM240.594 138.299H238.859V137.43H240.594V138.299ZM237.125 138.299H235.39V137.43H237.125V138.299ZM233.655 138.299H231.921V137.43H233.655V138.299ZM230.186 138.299H228.452V137.43H230.186V138.299ZM226.717 138.299H224.982V137.43H226.717V138.299ZM223.248 138.299H221.513V137.43H223.248V138.299ZM219.778 138.299H218.044V137.43H219.778V138.299ZM216.309 138.299H214.574V137.43H216.309V138.299ZM212.84 138.299H211.105V137.43H212.84V138.299ZM209.371 138.299H207.636V137.43H209.371V138.299ZM205.901 138.299H204.167V137.43H205.901V138.299ZM202.432 138.299H200.697V137.43H202.432V138.299ZM198.963 138.299H197.228V137.43H198.963V138.299ZM195.493 138.299H193.759V137.43H195.493V138.299ZM192.024 138.299H190.29V137.43H192.024V138.299ZM188.555 138.299H186.82V137.43H188.555V138.299ZM185.086 138.299H183.351V137.43H185.086V138.299ZM181.616 138.299H179.882V137.43H181.616V138.299ZM178.147 138.299H176.412V137.43H178.147V138.299ZM174.678 138.299H172.943V137.43H174.678V138.299ZM171.209 138.299H169.474V137.43H171.209V138.299ZM167.739 138.299H166.005V137.43H167.739V138.299ZM164.27 138.299H162.535V137.43H164.27V138.299ZM160.801 138.299H159.066V137.43H160.801V138.299ZM157.331 138.299H155.597V137.43H157.331V138.299ZM153.862 138.299H152.128V137.43H153.862V138.299ZM150.393 138.299H148.658V137.43H150.393V138.299ZM146.924 138.299H145.189V137.43H146.924V138.299ZM143.454 138.299H141.72V137.43H143.454V138.299ZM139.985 138.299H138.25V137.43H139.985V138.299Z" fill="#1D2529"></path><path d="M268.348 107.025H266.613V106.156H268.348V107.025ZM264.879 107.025H263.144V106.156H264.879V107.025ZM261.41 107.025H259.675V106.156H261.41V107.025ZM257.94 107.025H256.206V106.156H257.94V107.025ZM254.471 107.025H252.736V106.156H254.471V107.025ZM251.002 107.025H249.267V106.156H251.002V107.025ZM247.533 107.025H245.798V106.156H247.533V107.025ZM244.063 107.025H242.329V106.156H244.063V107.025ZM240.594 107.025H238.859V106.156H240.594V107.025ZM237.125 107.025H235.39V106.156H237.125V107.025ZM233.655 107.025H231.921V106.156H233.655V107.025ZM230.186 107.025H228.452V106.156H230.186V107.025ZM226.717 107.025H224.982V106.156H226.717V107.025ZM223.248 107.025H221.513V106.156H223.248V107.025ZM219.778 107.025H218.044V106.156H219.778V107.025ZM216.309 107.025H214.574V106.156H216.309V107.025ZM212.84 107.025H211.105V106.156H212.84V107.025ZM209.371 107.025H207.636V106.156H209.371V107.025ZM205.901 107.025H204.167V106.156H205.901V107.025ZM202.432 107.025H200.697V106.156H202.432V107.025ZM198.963 107.025H197.228V106.156H198.963V107.025ZM195.493 107.025H193.759V106.156H195.493V107.025ZM192.024 107.025H190.29V106.156H192.024V107.025ZM188.555 107.025H186.82V106.156H188.555V107.025ZM185.086 107.025H183.351V106.156H185.086V107.025ZM181.616 107.025H179.882V106.156H181.616V107.025ZM178.147 107.025H176.412V106.156H178.147V107.025ZM174.678 107.025H172.943V106.156H174.678V107.025ZM171.209 107.025H169.474V106.156H171.209V107.025ZM167.739 107.025H166.005V106.156H167.739V107.025ZM164.27 107.025H162.535V106.156H164.27V107.025ZM160.801 107.025H159.066V106.156H160.801V107.025ZM157.331 107.025H155.597V106.156H157.331V107.025ZM153.862 107.025H152.128V106.156H153.862V107.025ZM150.393 107.025H148.658V106.156H150.393V107.025ZM146.924 107.025H145.189V106.156H146.924V107.025ZM143.454 107.025H141.72V106.156H143.454V107.025ZM139.985 107.025H138.25V106.156H139.985V107.025Z" fill="#1D2529"></path><path d="M188.902 137.951H188.034V136.214H188.902V137.951ZM188.902 134.477H188.034V132.739H188.902V134.477ZM188.902 131.002H188.034V129.264H188.902V131.002ZM188.902 127.527H188.034V125.789H188.902V127.527ZM188.902 124.052H188.034V122.315H188.902V124.052ZM188.902 120.577H188.034V118.84H188.902V120.577ZM188.902 117.102H188.034V115.365H188.902V117.102ZM188.902 113.627H188.034V111.89H188.902V113.627ZM188.902 110.153H188.034V108.415H188.902V110.153ZM188.902 106.678H188.034V104.94H188.902V106.678ZM188.902 103.203H188.034V101.466H188.902V103.203ZM188.902 99.7281H188.034V97.9907H188.902V99.7281ZM188.902 96.2532H188.034V94.5158H188.902V96.2532ZM188.902 92.7784H188.034V91.041H188.902V92.7784ZM188.902 89.3036H188.034V87.5661H188.902V89.3036ZM188.902 85.8287H188.034V84.0913H188.902V85.8287ZM188.902 82.3539H188.034V80.6164H188.902V82.3539ZM188.902 78.879H188.034V77.1416H188.902V78.879Z" fill="#1D2529"></path><path d="M157.678 137.951H156.811V136.214H157.678V137.951ZM157.678 134.477H156.811V132.739H157.678V134.477ZM157.678 131.002H156.811V129.264H157.678V131.002ZM157.678 127.527H156.811V125.789H157.678V127.527ZM157.678 124.052H156.811V122.315H157.678V124.052ZM157.678 120.577H156.811V118.84H157.678V120.577ZM157.678 117.102H156.811V115.365H157.678V117.102ZM157.678 113.627H156.811V111.89H157.678V113.627ZM157.678 110.153H156.811V108.415H157.678V110.153ZM157.678 106.678H156.811V104.94H157.678V106.678ZM157.678 103.203H156.811V101.466H157.678V103.203ZM157.678 99.7281H156.811V97.9907H157.678V99.7281ZM157.678 96.2532H156.811V94.5158H157.678V96.2532ZM157.678 92.7784H156.811V91.041H157.678V92.7784ZM157.678 89.3036H156.811V87.5661H157.678V89.3036ZM157.678 85.8287H156.811V84.0913H157.678V85.8287ZM157.678 82.3539H156.811V80.6164H157.678V82.3539ZM157.678 78.879H156.811V77.1416H157.678V78.879Z" fill="#1D2529"></path><path d="M220.125 137.951H219.258V136.214H220.125V137.951ZM220.125 134.477H219.258V132.739H220.125V134.477ZM220.125 131.002H219.258V129.264H220.125V131.002ZM220.125 127.527H219.258V125.789H220.125V127.527ZM220.125 124.052H219.258V122.315H220.125V124.052ZM220.125 120.577H219.258V118.84H220.125V120.577ZM220.125 117.102H219.258V115.365H220.125V117.102ZM220.125 113.627H219.258V111.89H220.125V113.627ZM220.125 110.153H219.258V108.415H220.125V110.153ZM220.125 106.678H219.258V104.94H220.125V106.678ZM220.125 103.203H219.258V101.466H220.125V103.203ZM220.125 99.7281H219.258V97.9907H220.125V99.7281ZM220.125 96.2532H219.258V94.5158H220.125V96.2532ZM220.125 92.7784H219.258V91.041H220.125V92.7784ZM220.125 89.3036H219.258V87.5661H220.125V89.3036ZM220.125 85.8287H219.258V84.0913H220.125V85.8287ZM220.125 82.3539H219.258V80.6164H220.125V82.3539ZM220.125 78.879H219.258V77.1416H220.125V78.879Z" fill="#1D2529"></path><path d="M251.349 137.951H250.481V136.214H251.349V137.951ZM251.349 134.477H250.481V132.739H251.349V134.477ZM251.349 131.002H250.481V129.264H251.349V131.002ZM251.349 127.527H250.481V125.789H251.349V127.527ZM251.349 124.052H250.481V122.315H251.349V124.052ZM251.349 120.577H250.481V118.84H251.349V120.577ZM251.349 117.102H250.481V115.365H251.349V117.102ZM251.349 113.627H250.481V111.89H251.349V113.627ZM251.349 110.153H250.481V108.415H251.349V110.153ZM251.349 106.678H250.481V104.94H251.349V106.678ZM251.349 103.203H250.481V101.466H251.349V103.203ZM251.349 99.7281H250.481V97.9907H251.349V99.7281ZM251.349 96.2532H250.481V94.5158H251.349V96.2532ZM251.349 92.7784H250.481V91.041H251.349V92.7784ZM251.349 89.3036H250.481V87.5661H251.349V89.3036ZM251.349 85.8287H250.481V84.0913H251.349V85.8287ZM251.349 82.3539H250.481V80.6164H251.349V82.3539ZM251.349 78.879H250.481V77.1416H251.349V78.879Z" fill="#1D2529"></path><path d="M174.504 134.303L154.903 104.245L155.597 103.724L174.331 132.565L197.748 82.5275L218.39 119.708L260.022 66.022L260.542 76.794H259.675L259.328 68.2806L218.217 121.446L197.748 84.4386L174.504 134.303Z" fill="#E76C73"></path><path d="M259.418 66.6634L250.326 68.9216L250.535 69.7648L259.626 67.5065L259.418 66.6634Z" fill="#E76C73"></path></g><defs><clipPath id="clip0_2192_1192"><rect width="302" height="221" fill="white"></rect></clipPath></defs></svg>