<?xml version="1.0" encoding="UTF-8"?> <svg xmlns="http://www.w3.org/2000/svg" width="302" height="221" viewBox="0 0 302 221" fill="none"><g clip-path="url(#clip0_2187_990)"><path d="M202.085 191.29C188.034 191.29 174.157 187.989 161.147 181.561C139.464 170.441 123.332 151.677 115.7 128.569C108.068 105.462 109.976 80.7902 120.904 58.8987C131.832 37.181 150.566 21.0229 173.637 13.3783C196.707 5.73362 221.339 7.64479 243.196 18.5905C265.052 29.5363 281.011 48.3004 288.643 71.4082C296.275 94.5159 294.367 119.187 283.439 141.079C272.511 162.797 253.777 178.955 230.706 186.599C221.339 189.727 211.625 191.29 202.085 191.29ZM202.258 9.55595C192.718 9.55595 183.177 11.1196 173.81 14.0732C150.913 21.7179 132.352 37.7022 121.598 59.2462C110.843 80.7902 108.935 105.288 116.567 128.222C124.2 151.156 140.158 169.746 161.668 180.518C183.177 191.29 207.636 193.201 230.533 185.557C277.715 169.92 303.561 118.666 287.949 71.4082C280.317 48.4742 264.358 29.8838 242.849 19.1118C230.012 12.8571 216.135 9.55595 202.258 9.55595Z" fill="#F0F4F7"></path><path d="M202.085 199.977C186.473 199.977 171.382 196.329 157.331 189.205C133.567 177.217 115.873 156.542 107.547 131.349C99.221 105.983 101.129 78.879 113.098 55.0763C125.067 31.0999 145.709 13.3782 170.861 5.03857C196.187 -3.30105 223.247 -1.38989 247.012 10.5983C270.776 22.5865 288.47 43.0881 296.796 68.4545C305.122 93.8208 303.214 120.925 291.245 144.727C279.276 168.53 258.807 186.252 233.482 194.591C223.247 198.24 212.666 199.977 202.085 199.977ZM202.258 18.243C193.585 18.243 184.912 19.6329 176.586 22.4128C155.944 29.1887 139.118 43.7831 129.404 63.2422C119.69 82.7013 117.955 104.94 124.72 125.616C131.485 146.291 146.056 163.144 165.484 172.873C184.912 182.603 207.115 184.34 227.757 177.565C270.429 163.491 293.674 117.102 279.623 74.3617C272.858 53.6864 258.287 36.8334 238.859 27.1038C227.411 21.1966 215.095 18.243 202.258 18.243Z" fill="#F0F4F7"></path><path d="M133.059 158.603L65.0151 208.159L65.5252 208.862L133.569 159.306L133.059 158.603Z" fill="#F0F4F7"></path><path d="M134.97 146.476L52.896 206.25L63.6075 221.005L145.681 161.231L134.97 146.476Z" fill="#F0F4F7"></path><path d="M202.085 193.375C187.688 193.375 173.464 190.074 160.28 183.298C138.077 172.178 121.424 152.893 113.619 129.264C105.813 105.635 107.721 80.2689 118.823 58.0299C130.098 35.6171 149.352 19.1116 172.943 11.2932C196.534 3.47482 221.86 5.38599 244.063 16.5055C266.267 27.7987 282.919 46.9104 290.725 70.713C306.857 119.535 280.317 172.526 231.4 188.684C221.86 191.811 211.972 193.375 202.085 193.375ZM202.258 11.8144C192.891 11.8144 183.698 13.3781 174.504 16.3317C152.128 23.6289 134.087 39.4394 123.506 60.4622C112.925 81.485 111.19 105.461 118.476 127.7C125.761 150.113 141.546 168.182 162.535 178.781C183.524 189.379 207.462 191.116 229.666 183.819C275.807 168.53 300.959 118.666 285.694 72.4505C278.409 50.0377 262.624 31.9685 241.635 21.3703C229.319 14.9418 215.789 11.8144 202.258 11.8144Z" fill="#E76C73"></path><path d="M131.842 156.952L63.7637 206.458L66.821 210.676L134.899 161.17L131.842 156.952Z" fill="#E76C73"></path><circle cx="201.5" cy="100.5" r="82.5" fill="#F0F4F7"></circle></g><defs><clipPath id="clip0_2187_990"><rect width="302" height="221" fill="white"></rect></clipPath></defs></svg>