<?xml version="1.0" encoding="UTF-8"?> <svg xmlns="http://www.w3.org/2000/svg" width="112" height="75" viewBox="0 0 112 75" fill="none"><path d="M98.835 1.65746L1.9021 22.4451L12.8696 73.5238L109.802 52.7362L98.835 1.65746Z" fill="#F0F4F7"></path><path d="M12.2564 74.6795L0.899902 21.7151L1.80121 21.535L99.6831 0.637451L111.04 53.6018L110.138 53.782L12.2564 74.6795ZM3.06303 23.1563L13.6985 72.5177L108.876 52.1606L98.2411 2.79926L3.06303 23.1563Z" fill="#1D2529"></path><path d="M86.5177 28.4347L24.3044 41.7766L25.4012 46.8845L87.6145 33.5426L86.5177 28.4347Z" fill="#A1A5B2"></path><path fill-rule="evenodd" clip-rule="evenodd" d="M84.0003 69.2749L82.7385 44.5942L102.027 60.0872L94.095 61.1681L98.4213 69.6352L94.095 71.797L89.5884 63.1498L84.0003 69.2749Z" fill="#F0F4F7"></path><path d="M93.9148 72.3376L89.5885 63.8705L83.6399 70.3559L82.1978 43.5134L102.928 60.2675L94.6358 61.3484L98.9621 69.6353L93.9148 72.3376ZM89.7687 62.4293L94.2753 71.2567L97.7002 69.4552L93.1937 60.8079L100.765 59.9072L83.0991 45.6752L84.3609 68.3742L89.7687 62.4293Z" fill="#1D2529"></path></svg>