<?xml version="1.0" encoding="UTF-8"?> <svg xmlns="http://www.w3.org/2000/svg" width="302" height="221" viewBox="0 0 302 221" fill="none"><g clip-path="url(#clip0_2187_1022)"><path d="M272.685 201.367H16.8259V191.29H17.6932V200.498H271.817V191.29H272.685V201.367Z" fill="#1D2529"></path><path d="M288.47 183.472H0V16.5056H288.47V183.472ZM0.867318 182.603H287.603V17.3743H0.867318V182.603Z" fill="#1D2529"></path><path d="M94.8846 79.0527H35.2131V79.9214H94.8846V79.0527Z" fill="#1D2529"></path><path d="M94.8846 94.8633H35.2131V95.732H94.8846V94.8633Z" fill="#1D2529"></path><path d="M70.7732 110.848H35.2131V111.716H70.7732V110.848Z" fill="#1D2529"></path><path d="M21.1625 38.2232C18.734 38.2232 16.8259 36.3121 16.8259 33.8797C16.8259 31.4473 18.734 29.5361 21.1625 29.5361C23.591 29.5361 25.4991 31.4473 25.4991 33.8797C25.4991 36.3121 23.4175 38.2232 21.1625 38.2232ZM21.1625 30.5786C19.2544 30.5786 17.6932 32.1423 17.6932 34.0534C17.6932 35.9646 19.2544 37.5283 21.1625 37.5283C23.0706 37.5283 24.6318 35.9646 24.6318 34.0534C24.4583 32.1423 22.8972 30.5786 21.1625 30.5786Z" fill="#1D2529"></path></g><defs><clipPath id="clip0_2187_1022"><rect width="302" height="221" fill="white"></rect></clipPath></defs></svg>