<?xml version="1.0" encoding="UTF-8"?> <svg xmlns="http://www.w3.org/2000/svg" width="400" height="201" viewBox="0 0 400 201" fill="none"><g clip-path="url(#clip0_2186_247)"><path d="M228.932 178.999H186.751V26.8589H228.932V178.999ZM188.553 177.197H227.129V28.6615H188.553V177.197Z" fill="#E76C73"></path><path d="M399.82 43.4429H281.027V162.235H399.82V43.4429Z" fill="#E76C73"></path><path d="M341.235 145.29C317.981 145.29 298.873 126.363 298.873 102.929C298.873 79.4951 317.801 60.5676 341.235 60.5676C364.489 60.5676 383.596 79.4951 383.596 102.929C383.596 126.363 364.489 145.29 341.235 145.29ZM341.235 61.4689C318.342 61.4689 299.775 80.0359 299.775 102.929C299.775 125.822 318.342 144.389 341.235 144.389C364.128 144.389 382.695 125.822 382.695 102.929C382.695 80.0359 363.948 61.4689 341.235 61.4689Z" fill="#F0F4F7"></path><path d="M341.235 133.934C324.11 133.934 310.23 120.054 310.23 102.929C310.23 85.8042 324.11 71.9241 341.235 71.9241C358.36 71.9241 372.24 85.8042 372.24 102.929C372.24 120.054 358.36 133.934 341.235 133.934ZM341.235 72.8254C324.651 72.8254 311.131 86.345 311.131 102.929C311.131 119.513 324.651 133.033 341.235 133.033C357.819 133.033 371.338 119.513 371.338 102.929C371.338 86.345 357.819 72.8254 341.235 72.8254Z" fill="#F0F4F7"></path><path d="M341.235 122.037C330.78 122.037 322.127 113.384 322.127 102.929C322.127 92.4741 330.78 83.8215 341.235 83.8215C351.69 83.8215 360.342 92.4741 360.342 102.929C360.342 113.384 351.69 122.037 341.235 122.037ZM341.235 84.7228C331.14 84.7228 323.028 92.8346 323.028 102.929C323.028 113.024 331.14 121.136 341.235 121.136C351.329 121.136 359.441 113.024 359.441 102.929C359.441 92.8346 351.149 84.7228 341.235 84.7228Z" fill="#F0F4F7"></path><path d="M113.204 200.811H0V140.243H113.204V200.811ZM1.80261 199.009H111.402V142.046H1.80261V199.009Z" fill="#1D2529"></path><path d="M92.2938 167.643H20.9103V173.592H92.2938V167.643Z" fill="#A1A5B2"></path><path d="M142.947 103.29H131.771V30.6445H112.303V29.7432H132.672V102.389H142.947V103.29Z" fill="#1D2529"></path><path d="M140.424 106.174L141.866 102.929L140.424 99.5044L148.355 102.929L140.424 106.174Z" fill="#1D2529"></path><path d="M132.672 171.068H112.303V170.167H131.771V102.208H142.947V103.11H132.672V171.068Z" fill="#1D2529"></path><path d="M140.424 105.994L141.866 102.749L140.424 99.324L148.355 102.749L140.424 105.994Z" fill="#1D2529"></path><path d="M162.596 111.402C167.275 111.402 171.068 107.608 171.068 102.929C171.068 98.2502 167.275 94.457 162.596 94.457C157.917 94.457 154.123 98.2502 154.123 102.929C154.123 107.608 157.917 111.402 162.596 111.402Z" fill="#F0F4F7"></path><path d="M162.596 115.007C155.926 115.007 150.518 109.599 150.518 102.929C150.518 96.2596 155.926 90.8518 162.596 90.8518C169.265 90.8518 174.673 96.2596 174.673 102.929C174.673 109.599 169.265 115.007 162.596 115.007ZM162.596 98.0623C159.892 98.0623 157.729 100.225 157.729 102.929C157.729 105.633 159.892 107.796 162.596 107.796C165.3 107.796 167.463 105.633 167.463 102.929C167.463 100.225 165.3 98.0623 162.596 98.0623Z" fill="#F0F4F7"></path><path d="M162.596 111.402C167.275 111.402 171.068 107.608 171.068 102.929C171.068 98.2502 167.275 94.457 162.596 94.457C157.917 94.457 154.123 98.2502 154.123 102.929C154.123 107.608 157.917 111.402 162.596 111.402Z" fill="#E76C73"></path><path d="M160.441 100.03L159.804 100.667L164.774 105.639L165.411 105.002L160.441 100.03Z" fill="#1D2529"></path><path d="M164.645 100.148L159.674 105.119L160.311 105.756L165.282 100.785L164.645 100.148Z" fill="#1D2529"></path><path d="M218.657 38.2153H197.206V39.1166H218.657V38.2153Z" fill="#E76C73"></path><path d="M218.657 46.3271H197.206V47.2285H218.657V46.3271Z" fill="#E76C73"></path><path d="M218.657 54.2585H197.206V55.1599H218.657V54.2585Z" fill="#E76C73"></path><path d="M218.657 62.3704H197.206V63.2717H218.657V62.3704Z" fill="#E76C73"></path><path d="M218.657 70.3018H197.206V71.2031H218.657V70.3018Z" fill="#E76C73"></path><path d="M218.657 78.4136H197.206V79.3149H218.657V78.4136Z" fill="#E76C73"></path><path d="M218.657 86.3452H197.206V87.2465H218.657V86.3452Z" fill="#E76C73"></path><path d="M218.657 94.4568H197.206V95.3581H218.657V94.4568Z" fill="#E76C73"></path><path d="M218.657 102.388H197.206V103.29H218.657V102.388Z" fill="#E76C73"></path><path d="M218.657 110.5H197.206V111.402H218.657V110.5Z" fill="#E76C73"></path><path d="M218.657 118.612H197.206V119.513H218.657V118.612Z" fill="#E76C73"></path><path d="M218.657 126.543H197.206V127.445H218.657V126.543Z" fill="#E76C73"></path><path d="M218.657 134.655H197.206V135.557H218.657V134.655Z" fill="#E76C73"></path><path d="M218.657 142.587H197.206V143.488H218.657V142.587Z" fill="#E76C73"></path><path d="M218.657 150.698H197.206V151.6H218.657V150.698Z" fill="#E76C73"></path><path d="M218.657 158.63H197.206V159.531H218.657V158.63Z" fill="#E76C73"></path><path d="M218.657 166.742H197.206V167.643H218.657V166.742Z" fill="#E76C73"></path><path d="M113.204 60.5678H0V0H113.204V60.5678ZM1.80261 58.7652H111.402V1.80261H1.80261V58.7652Z" fill="#1D2529"></path><path d="M92.2938 27.2195H20.9103V33.1681H92.2938V27.2195Z" fill="#A1A5B2"></path></g><defs><clipPath id="clip0_2186_247"><rect width="400" height="200.811" fill="white"></rect></clipPath></defs></svg>