<?xml version="1.0" encoding="UTF-8"?> <svg xmlns="http://www.w3.org/2000/svg" width="400" height="217" viewBox="0 0 400 217" fill="none"><g clip-path="url(#clip0_2185_188)"><path d="M274.899 108.811H273.096V107.91H274.899V108.811ZM271.293 108.811H269.491V107.91H271.293V108.811ZM267.688 108.811H265.886V107.91H267.688V108.811ZM264.083 108.811H262.28V107.91H264.083V108.811ZM260.478 108.811H258.675V107.91H260.478V108.811ZM256.872 108.811H255.07V107.91H256.872V108.811ZM253.267 108.811H251.465V107.91H253.267V108.811ZM249.662 108.811H247.859V107.91H249.662V108.811ZM246.057 108.811H244.254V107.91H246.057V108.811ZM242.452 108.811H240.649V107.91H242.452V108.811ZM238.846 108.811H237.044V107.91H238.846V108.811ZM235.241 108.811H233.438V107.91H235.241V108.811ZM231.636 108.811H229.833V107.91H231.636V108.811ZM228.031 108.811H226.228V107.91H228.031V108.811ZM224.425 108.811H222.623V107.91H224.425V108.811ZM220.82 108.811H219.018V107.91H220.82V108.811ZM217.215 108.811H215.412V107.91H217.215V108.811ZM213.61 108.811H211.807V107.91H213.61V108.811ZM210.005 108.811H208.202V107.91H210.005V108.811ZM206.399 108.811H204.597V107.91H206.399V108.811ZM202.794 108.811H200.991V107.91H202.794V108.811ZM199.189 108.811H197.386V107.91H199.189V108.811ZM195.584 108.811H193.781V107.91H195.584V108.811ZM191.978 108.811H190.176V107.91H191.978V108.811ZM188.373 108.811H186.571V107.91H188.373V108.811ZM184.768 108.811H182.965V107.91H184.768V108.811ZM181.163 108.811H179.36V107.91H181.163V108.811ZM177.557 108.811H175.755V107.91H177.557V108.811ZM173.952 108.811H172.15V107.91H173.952V108.811ZM170.347 108.811H168.544V107.91H170.347V108.811ZM166.742 108.811H164.939V107.91H166.742V108.811ZM163.137 108.811H161.334V107.91H163.137V108.811ZM159.531 108.811H157.729V107.91H159.531V108.811ZM155.926 108.811H154.123V107.91H155.926V108.811ZM152.321 108.811H150.518V107.91H152.321V108.811ZM148.716 108.811H146.913V107.91H148.716V108.811ZM145.11 108.811H143.308V107.91H145.11V108.811ZM141.505 108.811H139.703V107.91H141.505V108.811ZM137.9 108.811H136.097V107.91H137.9V108.811ZM134.295 108.811H132.492V107.91H134.295V108.811ZM130.69 108.811H128.887V107.91H130.69V108.811ZM127.084 108.811H125.282V107.91H127.084V108.811ZM123.479 108.811H121.676V107.91H123.479V108.811ZM119.874 108.811H118.071V107.91H119.874V108.811ZM116.269 108.811H114.466V107.91H116.269V108.811ZM112.663 108.811H110.861V107.91H112.663V108.811ZM109.058 108.811H107.256V107.91H109.058V108.811ZM105.453 108.811H103.65V107.91H105.453V108.811ZM101.848 108.811H100.045V107.91H101.848V108.811Z" fill="#1D2529"></path><path d="M273.096 111.693L274.538 108.271L273.096 105.028L281.027 108.271L273.096 111.693Z" fill="#1D2529"></path><path d="M399.82 48.8208H281.027V167.54H399.82V48.8208Z" fill="#E76C73"></path><path d="M341.235 150.606C317.981 150.606 298.873 131.69 298.873 108.271C298.873 84.8509 317.801 65.9351 341.235 65.9351C364.669 65.9351 383.596 84.8509 383.596 108.271C383.596 131.69 364.489 150.606 341.235 150.606ZM341.235 66.8358C318.342 66.8358 299.775 85.3914 299.775 108.271C299.775 131.15 318.342 149.705 341.235 149.705C364.128 149.705 382.695 131.15 382.695 108.271C382.695 85.3914 363.948 66.8358 341.235 66.8358Z" fill="#F0F4F7"></path><path d="M341.235 139.437C324.11 139.437 310.23 125.565 310.23 108.451C310.23 91.3365 324.11 77.4648 341.235 77.4648C358.36 77.4648 372.24 91.3365 372.24 108.451C372.24 125.385 358.36 139.437 341.235 139.437ZM341.235 78.1855C324.651 78.1855 311.131 91.6968 311.131 108.271C311.131 124.845 324.651 138.356 341.235 138.356C357.819 138.356 371.338 125.025 371.338 108.271C371.338 91.6968 357.819 78.1855 341.235 78.1855Z" fill="#F0F4F7"></path><path d="M341.235 127.367C330.78 127.367 322.127 118.719 322.127 108.271C322.127 97.8218 330.78 89.1746 341.235 89.1746C351.69 89.1746 360.342 97.8218 360.342 108.271C360.342 118.899 351.69 127.367 341.235 127.367ZM341.235 90.0753C331.14 90.0753 323.028 98.1821 323.028 108.271C323.028 118.359 331.14 126.466 341.235 126.466C351.329 126.466 359.441 118.359 359.441 108.271C359.441 98.1821 351.149 90.0753 341.235 90.0753Z" fill="#F0F4F7"></path><path d="M117.711 201.409H116.449V200.508H116.809V199.967H117.711V201.409ZM114.646 201.409H112.844V200.508H114.646V201.409ZM111.041 201.409H109.238V200.508H111.041V201.409ZM107.436 201.409H105.633V200.508H107.436V201.409ZM103.831 201.409H102.028V200.508H103.831V201.409ZM117.711 198.346H116.809V196.544H117.711V198.346ZM117.711 194.743H116.809V192.941H117.711V194.743ZM117.711 191.14H116.809V189.338H117.711V191.14ZM117.711 187.537H116.809V185.735H117.711V187.537ZM117.711 183.934H116.809V182.132H117.711V183.934ZM117.711 180.331H116.809V178.529H117.711V180.331ZM117.711 176.728H116.809V174.926H117.711V176.728ZM117.711 173.125H116.809V171.323H117.711V173.125ZM117.711 169.522H116.809V167.72H117.711V169.522ZM117.711 165.919H116.809V164.117H117.711V165.919ZM117.711 162.316H116.809V160.514H117.711V162.316ZM117.711 158.713H116.809V156.911H117.711V158.713ZM117.711 155.11H116.809V153.308H117.711V155.11ZM117.711 151.507H116.809V149.705H117.711V151.507ZM117.711 147.904H116.809V146.102H117.711V147.904ZM117.711 144.301H116.809V142.499H117.711V144.301ZM117.711 140.698H116.809V138.896H117.711V140.698ZM117.711 137.095H116.809V135.293H117.711V137.095ZM117.711 133.492H116.809V131.69H117.711V133.492ZM117.711 129.889H116.809V128.087H117.711V129.889ZM117.711 126.286H116.809V124.484H117.711V126.286ZM117.711 122.683H116.809V120.881H117.711V122.683ZM117.711 119.08H116.809V117.278H117.711V119.08ZM117.711 115.477H116.809V113.675H117.711V115.477ZM117.711 111.874H116.809V110.072H117.711V111.874ZM117.711 108.271H116.809V106.469H117.711V108.271ZM117.711 104.668H116.809V102.866H117.711V104.668ZM117.711 101.065H116.809V99.263H117.711V101.065ZM117.711 97.4615H116.809V95.66H117.711V97.4615ZM117.711 93.8585H116.809V92.057H117.711V93.8585ZM117.711 90.2555H116.809V88.454H117.711V90.2555ZM117.711 86.6525H116.809V84.8509H117.711V86.6525ZM117.711 83.0494H116.809V81.2479H117.711V83.0494ZM117.711 79.4464H116.809V77.6449H117.711V79.4464ZM117.711 75.8434H116.809V74.0419H117.711V75.8434ZM117.711 72.2404H116.809V70.4389H117.711V72.2404ZM117.711 68.6374H116.809V66.8359H117.711V68.6374ZM117.711 65.0344H116.809V63.2328H117.711V65.0344ZM117.711 61.4313H116.809V59.6298H117.711V61.4313ZM117.711 57.8283H116.809V56.0268H117.711V57.8283ZM117.711 54.2253H116.809V52.4238H117.711V54.2253ZM117.711 50.6223H116.809V48.8208H117.711V50.6223ZM117.711 47.0193H116.809V45.2178H117.711V47.0193ZM117.711 43.4163H116.809V41.6147H117.711V43.4163ZM117.711 39.8132H116.809V38.0117H117.711V39.8132ZM117.711 36.2102H116.809V34.4087H117.711V36.2102ZM117.711 32.6072H116.809V30.8057H117.711V32.6072ZM117.711 29.0042H116.809V27.2027H117.711V29.0042ZM117.711 25.4012H116.809V23.5997H117.711V25.4012ZM117.711 21.7982H116.809V19.9966H117.711V21.7982ZM117.711 18.1951H116.809V16.3936H117.711V18.1951ZM116.269 16.0333H114.466V15.1326H116.269V16.0333ZM112.663 16.0333H110.861V15.1326H112.663V16.0333ZM109.058 16.0333H107.256V15.1326H109.058V16.0333ZM105.453 16.0333H103.65V15.1326H105.453V16.0333ZM101.848 16.0333H100.045V15.1326H101.848V16.0333Z" fill="#1D2529"></path><path d="M100.946 135.293H0V81.248H100.946V135.293ZM1.80261 133.492H99.1438V83.0496H1.80261V133.492Z" fill="#1D2529"></path><path d="M82.3795 105.749H18.7472V110.973H82.3795V105.749Z" fill="#A1A5B2"></path><path d="M100.946 54.0453H0V0H100.946V54.0453ZM1.80261 52.2438H99.1438V1.80151H1.80261V52.2438Z" fill="#1D2529"></path><path d="M82.3795 24.3203H18.7472V29.5447H82.3795V24.3203Z" fill="#A1A5B2"></path><path d="M100.946 216.541H0V162.496H100.946V216.541ZM1.80261 214.74H99.1438V164.298H1.80261V214.74Z" fill="#1D2529"></path><path d="M82.3795 186.997H18.7472V192.221H82.3795V186.997Z" fill="#A1A5B2"></path></g><defs><clipPath id="clip0_2185_188"><rect width="400" height="216.541" fill="white"></rect></clipPath></defs></svg>