<?xml version="1.0" encoding="UTF-8"?> <svg xmlns="http://www.w3.org/2000/svg" width="330" height="180" viewBox="0 0 330 180" fill="none"><g clip-path="url(#clip0_2187_609)"><rect y="40" width="101" height="109" fill="#F0F4F7"></rect><path d="M221.296 168.496H0V0H221.296V168.496ZM0.845287 167.65H220.451V0.845865H0.845287V167.65Z" fill="#1D2529"></path><path d="M220.789 29.9436H0.338104V30.7895H220.789V29.9436Z" fill="#1D2529"></path><path d="M21.1322 18.9475H17.582C16.5676 18.9475 15.5533 18.1016 15.5533 16.9174V13.3648C15.5533 12.3498 16.3986 11.3347 17.582 11.3347H21.1322C22.1465 11.3347 23.1609 12.1806 23.1609 13.3648V16.9174C22.9918 18.1016 22.1465 18.9475 21.1322 18.9475Z" fill="#E76C73"></path><path d="M21.1322 19.2858H17.582C16.2295 19.2858 15.2152 18.2708 15.2152 16.9174V13.3648C15.2152 12.0114 16.2295 10.9963 17.582 10.9963H21.1322C22.4846 10.9963 23.499 12.0114 23.499 13.3648V16.9174C23.499 18.2708 22.4846 19.2858 21.1322 19.2858ZM17.582 11.8422C16.7367 11.8422 16.0605 12.5189 16.0605 13.3648V16.9174C16.0605 17.7633 16.7367 18.4399 17.582 18.4399H21.1322C21.9775 18.4399 22.6537 17.7633 22.6537 16.9174V13.3648C22.6537 12.5189 21.9775 11.8422 21.1322 11.8422H17.582Z" fill="#E76C73"></path><path d="M36.3473 19.2858H32.7971C31.4447 19.2858 30.4303 18.2708 30.4303 16.9174V13.3648C30.4303 12.0114 31.4447 10.9963 32.7971 10.9963H36.3473C37.6998 10.9963 38.7141 12.0114 38.7141 13.3648V16.9174C38.7141 18.2708 37.6998 19.2858 36.3473 19.2858ZM32.7971 11.8422C31.9518 11.8422 31.2756 12.5189 31.2756 13.3648V16.9174C31.2756 17.7633 31.9518 18.4399 32.7971 18.4399H36.3473C37.1926 18.4399 37.8689 17.7633 37.8689 16.9174V13.3648C37.8689 12.5189 37.1926 11.8422 36.3473 11.8422H32.7971Z" fill="#1D2529"></path><path d="M51.5625 19.2858H48.0123C46.6598 19.2858 45.6455 18.2708 45.6455 16.9174V13.3648C45.6455 12.0114 46.6598 10.9963 48.0123 10.9963H51.5625C52.915 10.9963 53.9293 12.0114 53.9293 13.3648V16.9174C53.9293 18.2708 52.915 19.2858 51.5625 19.2858ZM48.0123 11.8422C47.167 11.8422 46.4908 12.5189 46.4908 13.3648V16.9174C46.4908 17.7633 47.167 18.4399 48.0123 18.4399H51.5625C52.4078 18.4399 53.084 17.7633 53.084 16.9174V13.3648C53.084 12.5189 52.4078 11.8422 51.5625 11.8422H48.0123Z" fill="#1D2529"></path><path d="M72.6947 57.8572H20.7941V58.703H72.6947V57.8572Z" fill="#1D2529"></path><path d="M72.6947 70.5452H20.7941V71.391H72.6947V70.5452Z" fill="#1D2529"></path><path d="M51.7316 83.064H20.7941V83.9098H51.7316V83.064Z" fill="#1D2529"></path><path d="M329.662 179.493H203.545V17.9324H291.962L329.662 54.6429V179.493Z" fill="#F0F4F7"></path><path d="M330 180H203.038V17.594H292.131L330 54.4737V180ZM203.883 179.154H329.155V54.812L291.793 18.2707H203.883V179.154Z" fill="#1D2529"></path><path d="M230.932 72.406C235.041 72.406 238.371 69.0734 238.371 64.9624C238.371 60.8514 235.041 57.5188 230.932 57.5188C226.824 57.5188 223.494 60.8514 223.494 64.9624C223.494 69.0734 226.824 72.406 230.932 72.406Z" fill="#E76C73"></path><path d="M230.594 67.5L227.551 64.4549L228.227 63.9474L230.594 66.3158L234.144 62.7632L234.821 63.2707L230.594 67.5Z" fill="#1D2529"></path><path d="M301.598 64.4548H247.669V65.3007H301.598V64.4548Z" fill="#1D2529"></path><path d="M230.932 99.4736C235.041 99.4736 238.371 96.141 238.371 92.03C238.371 87.919 235.041 84.5864 230.932 84.5864C226.824 84.5864 223.494 87.919 223.494 92.03C223.494 96.141 226.824 99.4736 230.932 99.4736Z" fill="#E76C73"></path><path d="M230.594 94.5677L227.551 91.6917L228.227 91.015L230.594 93.3834L234.144 89.8308L234.821 90.3383L230.594 94.5677Z" fill="#1D2529"></path><path d="M288.074 91.6917H247.669V92.5375H288.074V91.6917Z" fill="#1D2529"></path><path d="M230.932 126.71C235.041 126.71 238.371 123.378 238.371 119.267C238.371 115.156 235.041 111.823 230.932 111.823C226.824 111.823 223.494 115.156 223.494 119.267C223.494 123.378 226.824 126.71 230.932 126.71Z" fill="#E76C73"></path><path d="M230.594 121.804L227.551 118.759L228.227 118.083L230.594 120.62L234.144 116.898L234.821 117.575L230.594 121.804Z" fill="#1D2529"></path><path d="M301.598 118.759H247.669V119.605H301.598V118.759Z" fill="#1D2529"></path><path d="M230.932 153.778C235.041 153.778 238.371 150.445 238.371 146.334C238.371 142.223 235.041 138.891 230.932 138.891C226.824 138.891 223.494 142.223 223.494 146.334C223.494 150.445 226.824 153.778 230.932 153.778Z" fill="#E76C73"></path><path d="M230.594 148.872L227.551 145.827L228.227 145.319L230.594 147.688L234.144 144.135L234.821 144.643L230.594 148.872Z" fill="#1D2529"></path><path d="M288.074 145.827H247.669V146.673H288.074V145.827Z" fill="#1D2529"></path></g><defs><clipPath id="clip0_2187_609"><rect width="330" height="180" fill="white"></rect></clipPath></defs></svg>