<?xml version="1.0" encoding="UTF-8"?> <svg xmlns="http://www.w3.org/2000/svg" width="320" height="165" viewBox="0 0 320 165" fill="none"><path d="M0 6C0 2.68629 2.68629 0 6 0H314C317.314 0 320 2.68629 320 6V111H0V6Z" fill="url(#paint0_radial_2297_3737)"></path><path d="M0 14H99C101.209 14 103 15.7909 103 18V36C103 38.2091 101.209 40 99 40H0V14Z" fill="#09747F"></path><path d="M16.1 30L18.73 22.93H19.98L22.6 30H21.66L21.1 28.48H17.6L17.04 30H16.1ZM17.89 27.69H20.81L19.35 23.69L17.89 27.69ZM23.5692 30V22.93H24.4392V29.21H28.3192V30H23.5692ZM29.3114 30V22.93H31.8214C32.5547 22.93 33.1681 23.08 33.6614 23.38C34.1547 23.6733 34.5247 24.0867 34.7714 24.62C35.0247 25.1467 35.1514 25.7633 35.1514 26.47C35.1514 27.17 35.0281 27.7867 34.7814 28.32C34.5347 28.8467 34.1647 29.26 33.6714 29.56C33.1781 29.8533 32.5614 30 31.8214 30H29.3114ZM30.1814 29.21H31.7614C32.3347 29.21 32.8047 29.0933 33.1714 28.86C33.5381 28.6267 33.8114 28.3067 33.9914 27.9C34.1714 27.4867 34.2614 27.01 34.2614 26.47C34.2614 25.9433 34.1714 25.4733 33.9914 25.06C33.8181 24.6467 33.5514 24.32 33.1914 24.08C32.8314 23.84 32.3714 23.72 31.8114 23.72H30.1814V29.21ZM38.434 30L41.064 22.93H42.314L44.934 30H43.994L43.434 28.48H39.934L39.374 30H38.434ZM40.224 27.69H43.144L41.684 23.69L40.224 27.69ZM47.9032 30.06C47.1765 30.06 46.6232 29.8667 46.2432 29.48C45.8699 29.0933 45.6832 28.5 45.6832 27.7V24.73H46.5332V27.66C46.5332 28.0067 46.5832 28.3033 46.6832 28.55C46.7832 28.7967 46.9332 28.9867 47.1332 29.12C47.3399 29.2467 47.5965 29.31 47.9032 29.31C48.2232 29.31 48.4865 29.2467 48.6932 29.12C48.8999 28.9867 49.0499 28.7967 49.1432 28.55C49.2432 28.3033 49.2932 28.0067 49.2932 27.66V24.73H50.1432V27.7C50.1432 28.5 49.9499 29.0933 49.5632 29.48C49.1832 29.8667 48.6299 30.06 47.9032 30.06ZM53.4449 30.06C52.8916 30.06 52.5016 29.91 52.2749 29.61C52.0549 29.31 51.9449 28.8833 51.9449 28.33V25.48H51.0849V24.73H51.9449V23.15H52.7949V24.73H54.4149V25.48H52.7949V28.22C52.7949 28.42 52.8116 28.6033 52.8449 28.77C52.8783 28.93 52.9483 29.06 53.0549 29.16C53.1616 29.2533 53.3216 29.3033 53.5349 29.31C53.6883 29.31 53.8216 29.2833 53.9349 29.23C54.0549 29.1767 54.1549 29.1133 54.2349 29.04L54.6049 29.66C54.4916 29.7533 54.3716 29.83 54.2449 29.89C54.1249 29.95 53.9983 29.9933 53.8649 30.02C53.7383 30.0467 53.5983 30.06 53.4449 30.06ZM57.7298 30.06C57.1764 30.06 56.7131 29.9467 56.3398 29.72C55.9664 29.4867 55.6864 29.1667 55.4998 28.76C55.3198 28.3533 55.2298 27.89 55.2298 27.37C55.2298 26.8433 55.3231 26.38 55.5098 25.98C55.6964 25.5733 55.9764 25.2533 56.3498 25.02C56.7231 24.7867 57.1898 24.67 57.7498 24.67C58.3031 24.67 58.7631 24.7867 59.1298 25.02C59.5031 25.2533 59.7798 25.5733 59.9598 25.98C60.1464 26.38 60.2398 26.8433 60.2398 27.37C60.2398 27.89 60.1464 28.3533 59.9598 28.76C59.7731 29.1667 59.4931 29.4867 59.1198 29.72C58.7531 29.9467 58.2898 30.06 57.7298 30.06ZM57.7298 29.31C58.1164 29.31 58.4298 29.2233 58.6698 29.05C58.9164 28.8767 59.0964 28.6433 59.2098 28.35C59.3298 28.0567 59.3898 27.73 59.3898 27.37C59.3898 27.01 59.3298 26.6833 59.2098 26.39C59.0964 26.0967 58.9164 25.8633 58.6698 25.69C58.4298 25.5167 58.1164 25.43 57.7298 25.43C57.3498 25.43 57.0364 25.5167 56.7898 25.69C56.5498 25.8633 56.3698 26.0967 56.2498 26.39C56.1364 26.6833 56.0798 27.01 56.0798 27.37C56.0798 27.73 56.1364 28.0567 56.2498 28.35C56.3698 28.6433 56.5498 28.8767 56.7898 29.05C57.0364 29.2233 57.3498 29.31 57.7298 29.31ZM61.377 30V24.73H62.197L62.237 25.36C62.3504 25.2 62.477 25.07 62.617 24.97C62.7637 24.87 62.9237 24.7967 63.097 24.75C63.277 24.6967 63.467 24.67 63.667 24.67C64.0337 24.67 64.3304 24.75 64.557 24.91C64.7837 25.0633 64.9537 25.2667 65.067 25.52C65.187 25.34 65.3237 25.1867 65.477 25.06C65.637 24.9333 65.8137 24.8367 66.007 24.77C66.207 24.7033 66.427 24.67 66.667 24.67C67.0537 24.67 67.3637 24.7533 67.597 24.92C67.837 25.0867 68.0104 25.3133 68.117 25.6C68.2237 25.88 68.277 26.1967 68.277 26.55V30H67.427V26.98C67.427 26.8067 67.417 26.63 67.397 26.45C67.3837 26.27 67.3437 26.1033 67.277 25.95C67.2104 25.79 67.1104 25.6633 66.977 25.57C66.8504 25.47 66.6704 25.42 66.437 25.42C66.217 25.42 66.0304 25.4733 65.877 25.58C65.7304 25.68 65.6104 25.8167 65.517 25.99C65.4237 26.1633 65.357 26.35 65.317 26.55C65.277 26.7433 65.257 26.9367 65.257 27.13V30H64.407V26.97C64.407 26.8033 64.397 26.63 64.377 26.45C64.3637 26.27 64.327 26.1033 64.267 25.95C64.2137 25.79 64.1204 25.6633 63.987 25.57C63.8604 25.47 63.6837 25.42 63.457 25.42C63.137 25.42 62.887 25.5133 62.707 25.7C62.527 25.88 62.4004 26.1033 62.327 26.37C62.2604 26.63 62.227 26.8867 62.227 27.14V30H61.377ZM71.2604 30.06C71.0204 30.06 70.7871 30.03 70.5604 29.97C70.3404 29.9033 70.1404 29.8067 69.9604 29.68C69.7871 29.5467 69.6471 29.3833 69.5404 29.19C69.4404 28.99 69.3904 28.76 69.3904 28.5C69.3904 28.2 69.4437 27.9467 69.5504 27.74C69.6637 27.5333 69.8137 27.37 70.0004 27.25C70.1871 27.13 70.4037 27.0433 70.6504 26.99C70.8971 26.9367 71.1537 26.91 71.4204 26.91H72.9704C72.9704 26.61 72.9271 26.35 72.8404 26.13C72.7604 25.91 72.6271 25.74 72.4404 25.62C72.2537 25.4933 72.0071 25.43 71.7004 25.43C71.5137 25.43 71.3404 25.45 71.1804 25.49C71.0204 25.53 70.8837 25.5933 70.7704 25.68C70.6571 25.7667 70.5737 25.8833 70.5204 26.03H69.6104C69.6571 25.79 69.7471 25.5867 69.8804 25.42C70.0204 25.2467 70.1871 25.1067 70.3804 25C70.5804 24.8867 70.7937 24.8033 71.0204 24.75C71.2471 24.6967 71.4737 24.67 71.7004 24.67C72.4604 24.67 73.0004 24.8933 73.3204 25.34C73.6404 25.7867 73.8004 26.39 73.8004 27.15V30H73.0904L73.0404 29.33C72.8937 29.53 72.7171 29.6833 72.5104 29.79C72.3037 29.8967 72.0904 29.9667 71.8704 30C71.6571 30.04 71.4537 30.06 71.2604 30.06ZM71.3404 29.31C71.6737 29.31 71.9604 29.2567 72.2004 29.15C72.4471 29.0367 72.6371 28.8733 72.7704 28.66C72.9037 28.4467 72.9704 28.1867 72.9704 27.88V27.62H72.0404C71.8204 27.62 71.6037 27.6233 71.3904 27.63C71.1771 27.6367 70.9837 27.6633 70.8104 27.71C70.6371 27.7567 70.4971 27.8367 70.3904 27.95C70.2904 28.0633 70.2404 28.2267 70.2404 28.44C70.2404 28.64 70.2904 28.8033 70.3904 28.93C70.4971 29.0567 70.6337 29.1533 70.8004 29.22C70.9737 29.28 71.1537 29.31 71.3404 29.31ZM77.2573 30C76.8573 30 76.5339 29.94 76.2873 29.82C76.0473 29.7 75.8706 29.5133 75.7573 29.26C75.6506 29.0067 75.5973 28.6867 75.5973 28.3V25.48H74.7373V24.73H75.5973V23.16H76.4473V24.73H77.8573V25.48H76.4473V28.21C76.4473 28.57 76.5106 28.8367 76.6373 29.01C76.7706 29.1767 77.0373 29.26 77.4373 29.26H77.8273V30H77.2573ZM78.8184 30V24.73H79.6684V30H78.8184ZM79.2384 23.95C79.0651 23.95 78.9251 23.8967 78.8184 23.79C78.7184 23.6833 78.6684 23.5467 78.6684 23.38C78.6684 23.2133 78.7218 23.08 78.8284 22.98C78.9351 22.8733 79.0718 22.82 79.2384 22.82C79.3918 22.82 79.5251 22.8733 79.6384 22.98C79.7584 23.0867 79.8184 23.22 79.8184 23.38C79.8184 23.5467 79.7618 23.6833 79.6484 23.79C79.5351 23.8967 79.3984 23.95 79.2384 23.95ZM83.3059 30.06C82.7526 30.06 82.2893 29.9467 81.9159 29.72C81.5426 29.4867 81.2626 29.1667 81.0759 28.76C80.8959 28.3533 80.8059 27.89 80.8059 27.37C80.8059 26.8433 80.8993 26.38 81.0859 25.98C81.2726 25.5733 81.5526 25.2533 81.9259 25.02C82.2993 24.7867 82.7659 24.67 83.3259 24.67C83.8793 24.67 84.3393 24.7867 84.7059 25.02C85.0793 25.2533 85.3559 25.5733 85.5359 25.98C85.7226 26.38 85.8159 26.8433 85.8159 27.37C85.8159 27.89 85.7226 28.3533 85.5359 28.76C85.3493 29.1667 85.0693 29.4867 84.6959 29.72C84.3293 29.9467 83.8659 30.06 83.3059 30.06ZM83.3059 29.31C83.6926 29.31 84.0059 29.2233 84.2459 29.05C84.4926 28.8767 84.6726 28.6433 84.7859 28.35C84.9059 28.0567 84.9659 27.73 84.9659 27.37C84.9659 27.01 84.9059 26.6833 84.7859 26.39C84.6726 26.0967 84.4926 25.8633 84.2459 25.69C84.0059 25.5167 83.6926 25.43 83.3059 25.43C82.9259 25.43 82.6126 25.5167 82.3659 25.69C82.1259 25.8633 81.9459 26.0967 81.8259 26.39C81.7126 26.6833 81.6559 27.01 81.6559 27.37C81.6559 27.73 81.7126 28.0567 81.8259 28.35C81.9459 28.6433 82.1259 28.8767 82.3659 29.05C82.6126 29.2233 82.9259 29.31 83.3059 29.31ZM86.9532 30V24.73H87.7732L87.8132 25.53C87.9332 25.3367 88.0865 25.1767 88.2732 25.05C88.4599 24.9233 88.6632 24.83 88.8832 24.77C89.1099 24.7033 89.3299 24.67 89.5432 24.67C90.0565 24.67 90.4565 24.7767 90.7432 24.99C91.0365 25.2033 91.2432 25.4933 91.3632 25.86C91.4899 26.22 91.5532 26.63 91.5532 27.09V30H90.7032V27.32C90.7032 27.0733 90.6865 26.8367 90.6532 26.61C90.6265 26.3833 90.5665 26.18 90.4732 26C90.3865 25.82 90.2599 25.68 90.0932 25.58C89.9265 25.4733 89.7032 25.42 89.4232 25.42C89.0765 25.42 88.7799 25.5167 88.5332 25.71C88.2932 25.9033 88.1099 26.1633 87.9832 26.49C87.8632 26.8167 87.8032 27.1833 87.8032 27.59V30H86.9532Z" fill="white"></path><rect x="241" y="14" width="63" height="26" rx="4" fill="#95ADB1"></rect><path d="M251.86 30V22.93H254.34C254.693 22.93 255.013 22.96 255.3 23.02C255.587 23.0733 255.833 23.1667 256.04 23.3C256.253 23.4333 256.417 23.6133 256.53 23.84C256.643 24.0667 256.7 24.3533 256.7 24.7C256.7 25.06 256.617 25.38 256.45 25.66C256.29 25.94 256.04 26.1467 255.7 26.28C256.153 26.36 256.493 26.5533 256.72 26.86C256.947 27.16 257.06 27.55 257.06 28.03C257.06 28.41 256.987 28.7267 256.84 28.98C256.7 29.2333 256.5 29.4367 256.24 29.59C255.987 29.7367 255.693 29.8433 255.36 29.91C255.027 29.97 254.67 30 254.29 30H251.86ZM252.73 29.21H254.26C254.467 29.21 254.68 29.2 254.9 29.18C255.127 29.1533 255.337 29.1033 255.53 29.03C255.723 28.95 255.88 28.8267 256 28.66C256.12 28.4933 256.18 28.27 256.18 27.99C256.18 27.75 256.133 27.5533 256.04 27.4C255.953 27.2467 255.833 27.1267 255.68 27.04C255.533 26.9533 255.363 26.8933 255.17 26.86C254.977 26.8267 254.78 26.81 254.58 26.81H252.73V29.21ZM252.73 26.03H254.09C254.337 26.03 254.567 26.01 254.78 25.97C254.993 25.9233 255.18 25.85 255.34 25.75C255.5 25.65 255.623 25.52 255.71 25.36C255.803 25.2 255.85 25 255.85 24.76C255.85 24.4533 255.78 24.2267 255.64 24.08C255.5 23.9333 255.317 23.8367 255.09 23.79C254.863 23.7433 254.617 23.72 254.35 23.72H252.73V26.03ZM260.918 31.9V24.73H261.728L261.768 25.54C261.948 25.2533 262.191 25.0367 262.498 24.89C262.811 24.7433 263.148 24.67 263.508 24.67C264.041 24.67 264.478 24.79 264.818 25.03C265.158 25.2633 265.408 25.5833 265.568 25.99C265.735 26.3967 265.818 26.8567 265.818 27.37C265.818 27.8833 265.735 28.3433 265.568 28.75C265.401 29.1567 265.145 29.4767 264.798 29.71C264.451 29.9433 264.008 30.06 263.468 30.06C263.201 30.06 262.961 30.0333 262.748 29.98C262.535 29.92 262.348 29.8367 262.188 29.73C262.028 29.6233 261.888 29.5033 261.768 29.37V31.9H260.918ZM263.398 29.31C263.785 29.31 264.091 29.2233 264.318 29.05C264.545 28.87 264.708 28.6333 264.808 28.34C264.915 28.0467 264.968 27.7233 264.968 27.37C264.968 27.01 264.915 26.6833 264.808 26.39C264.708 26.0967 264.541 25.8633 264.308 25.69C264.075 25.5167 263.765 25.43 263.378 25.43C263.031 25.43 262.735 25.52 262.488 25.7C262.248 25.8733 262.065 26.11 261.938 26.41C261.811 26.7033 261.748 27.0267 261.748 27.38C261.748 27.7467 261.808 28.0767 261.928 28.37C262.048 28.6633 262.231 28.8933 262.478 29.06C262.725 29.2267 263.031 29.31 263.398 29.31ZM268.604 30.06C268.364 30.06 268.131 30.03 267.904 29.97C267.684 29.9033 267.484 29.8067 267.304 29.68C267.131 29.5467 266.991 29.3833 266.884 29.19C266.784 28.99 266.734 28.76 266.734 28.5C266.734 28.2 266.787 27.9467 266.894 27.74C267.007 27.5333 267.157 27.37 267.344 27.25C267.531 27.13 267.747 27.0433 267.994 26.99C268.241 26.9367 268.497 26.91 268.764 26.91H270.314C270.314 26.61 270.271 26.35 270.184 26.13C270.104 25.91 269.971 25.74 269.784 25.62C269.597 25.4933 269.351 25.43 269.044 25.43C268.857 25.43 268.684 25.45 268.524 25.49C268.364 25.53 268.227 25.5933 268.114 25.68C268.001 25.7667 267.917 25.8833 267.864 26.03H266.954C267.001 25.79 267.091 25.5867 267.224 25.42C267.364 25.2467 267.531 25.1067 267.724 25C267.924 24.8867 268.137 24.8033 268.364 24.75C268.591 24.6967 268.817 24.67 269.044 24.67C269.551 24.67 269.957 24.7733 270.264 24.98C270.571 25.18 270.794 25.4667 270.934 25.84C271.074 26.2067 271.144 26.6433 271.144 27.15V30H270.434L270.384 29.33C270.237 29.53 270.061 29.6833 269.854 29.79C269.647 29.8967 269.434 29.9667 269.214 30C269.001 30.04 268.797 30.06 268.604 30.06ZM268.684 29.31C269.017 29.31 269.304 29.2567 269.544 29.15C269.791 29.0367 269.981 28.8733 270.114 28.66C270.247 28.4467 270.314 28.1867 270.314 27.88V27.62H269.384C269.164 27.62 268.947 27.6233 268.734 27.63C268.521 27.6367 268.327 27.6633 268.154 27.71C267.981 27.7567 267.841 27.8367 267.734 27.95C267.634 28.0633 267.584 28.2267 267.584 28.44C267.584 28.64 267.634 28.8033 267.734 28.93C267.841 29.0567 267.977 29.1533 268.144 29.22C268.317 29.28 268.497 29.31 268.684 29.31ZM274.681 30.06C274.348 30.06 274.051 30.0133 273.791 29.92C273.531 29.82 273.308 29.6833 273.121 29.51C272.934 29.33 272.781 29.12 272.661 28.88C272.541 28.6333 272.451 28.3667 272.391 28.08C272.331 27.7933 272.301 27.49 272.301 27.17C272.301 26.6567 272.311 26.18 272.331 25.74C272.358 25.2933 272.431 24.8967 272.551 24.55C272.671 24.1967 272.874 23.9033 273.161 23.67C273.448 23.4367 273.851 23.2733 274.371 23.18C274.638 23.1333 274.901 23.0933 275.161 23.06C275.421 23.0267 275.684 22.9933 275.951 22.96C276.038 22.9467 276.128 22.9333 276.221 22.92C276.314 22.9067 276.411 22.89 276.511 22.87C276.618 22.85 276.718 22.8333 276.811 22.82V23.6C276.738 23.6267 276.658 23.65 276.571 23.67C276.491 23.6833 276.404 23.6967 276.311 23.71C276.224 23.7233 276.134 23.7333 276.041 23.74C275.954 23.7467 275.868 23.7567 275.781 23.77C275.694 23.7767 275.611 23.7867 275.531 23.8C275.298 23.8267 275.051 23.8533 274.791 23.88C274.531 23.9 274.284 23.9533 274.051 24.04C273.824 24.12 273.631 24.2767 273.471 24.51C273.391 24.63 273.321 24.7733 273.261 24.94C273.208 25.1067 273.168 25.2767 273.141 25.45C273.121 25.6167 273.108 25.7767 273.101 25.93C273.234 25.7433 273.398 25.5933 273.591 25.48C273.784 25.36 273.991 25.2733 274.211 25.22C274.431 25.16 274.641 25.13 274.841 25.13C275.321 25.13 275.728 25.23 276.061 25.43C276.394 25.6233 276.648 25.9 276.821 26.26C276.994 26.62 277.081 27.04 277.081 27.52C277.081 28 276.988 28.4333 276.801 28.82C276.614 29.2 276.341 29.5033 275.981 29.73C275.628 29.95 275.194 30.06 274.681 30.06ZM274.701 29.31C275.034 29.31 275.314 29.23 275.541 29.07C275.768 28.91 275.938 28.6967 276.051 28.43C276.171 28.1633 276.231 27.87 276.231 27.55C276.231 27.2367 276.171 26.9567 276.051 26.71C275.938 26.4567 275.768 26.2567 275.541 26.11C275.321 25.9633 275.048 25.89 274.721 25.89C274.401 25.89 274.124 25.9667 273.891 26.12C273.664 26.2733 273.488 26.48 273.361 26.74C273.241 26.9933 273.181 27.27 273.181 27.57C273.181 27.8767 273.238 28.1633 273.351 28.43C273.464 28.6967 273.631 28.91 273.851 29.07C274.078 29.23 274.361 29.31 274.701 29.31ZM280.523 30.06C279.969 30.06 279.506 29.9467 279.133 29.72C278.759 29.4867 278.479 29.1667 278.293 28.76C278.113 28.3533 278.023 27.89 278.023 27.37C278.023 26.8433 278.113 26.38 278.293 25.98C278.479 25.5733 278.759 25.2533 279.133 25.02C279.506 24.7867 279.976 24.67 280.543 24.67C281.096 24.67 281.556 24.7867 281.923 25.02C282.296 25.2533 282.573 25.5733 282.753 25.98C282.939 26.38 283.033 26.8433 283.033 27.37C283.033 27.89 282.939 28.3533 282.753 28.76C282.566 29.1667 282.286 29.4867 281.913 29.72C281.546 29.9467 281.083 30.06 280.523 30.06ZM280.523 29.31C280.909 29.31 281.223 29.2233 281.463 29.05C281.709 28.8767 281.889 28.6433 282.003 28.35C282.123 28.0567 282.183 27.73 282.183 27.37C282.183 27.01 282.123 26.6833 282.003 26.39C281.889 26.0967 281.709 25.8633 281.463 25.69C281.223 25.5167 280.909 25.43 280.523 25.43C280.143 25.43 279.829 25.5167 279.583 25.69C279.343 25.8633 279.163 26.0967 279.043 26.39C278.929 26.6833 278.873 27.01 278.873 27.37C278.873 27.73 278.929 28.0567 279.043 28.35C279.163 28.6433 279.343 28.8767 279.583 29.05C279.829 29.2233 280.143 29.31 280.523 29.31ZM285.4 30V25.48H283.59V24.73H288.06V25.48H286.25V30H285.4ZM291.098 30.06C290.538 30.06 290.075 29.9467 289.708 29.72C289.342 29.4867 289.068 29.1667 288.888 28.76C288.708 28.3533 288.618 27.89 288.618 27.37C288.618 26.8433 288.712 26.38 288.898 25.98C289.092 25.5733 289.372 25.2533 289.738 25.02C290.105 24.7867 290.555 24.67 291.088 24.67C291.482 24.67 291.825 24.7467 292.118 24.9C292.418 25.0467 292.665 25.2467 292.858 25.5C293.058 25.7533 293.202 26.0367 293.288 26.35C293.382 26.6633 293.422 26.9867 293.408 27.32C293.402 27.38 293.398 27.44 293.398 27.5C293.398 27.56 293.395 27.62 293.388 27.68H289.478C289.505 27.9867 289.582 28.2633 289.708 28.51C289.835 28.7567 290.015 28.9533 290.248 29.1C290.482 29.24 290.772 29.31 291.118 29.31C291.292 29.31 291.465 29.29 291.638 29.25C291.818 29.2033 291.978 29.1267 292.118 29.02C292.265 28.9133 292.368 28.77 292.428 28.59H293.298C293.218 28.93 293.068 29.21 292.848 29.43C292.628 29.6433 292.365 29.8033 292.058 29.91C291.752 30.01 291.432 30.06 291.098 30.06ZM289.498 26.94H292.548C292.542 26.64 292.475 26.3767 292.348 26.15C292.222 25.9233 292.048 25.7467 291.828 25.62C291.615 25.4933 291.358 25.43 291.058 25.43C290.732 25.43 290.455 25.5 290.228 25.64C290.008 25.78 289.838 25.9633 289.718 26.19C289.598 26.4167 289.525 26.6667 289.498 26.94Z" fill="white"></path><path d="M17.328 90V78.688H26.4V90H24.704V80.224H19.024V90H17.328ZM28.7424 93.072V81.568H30.3104L30.3904 82.784C30.689 82.336 31.0837 82.0053 31.5744 81.792C32.065 81.568 32.5877 81.456 33.1424 81.456C33.9744 81.456 34.6624 81.648 35.2064 82.032C35.7504 82.416 36.1557 82.9333 36.4224 83.584C36.689 84.2347 36.8224 84.9707 36.8224 85.792C36.8224 86.6133 36.6837 87.3493 36.4064 88C36.1397 88.6507 35.7237 89.1627 35.1584 89.536C34.6037 89.9093 33.8944 90.096 33.0304 90.096C32.6144 90.096 32.241 90.0533 31.9104 89.968C31.5797 89.8827 31.2917 89.76 31.0464 89.6C30.801 89.4293 30.5824 89.248 30.3904 89.056V93.072H28.7424ZM32.8384 88.624C33.4144 88.624 33.873 88.496 34.2144 88.24C34.5557 87.9733 34.801 87.6267 34.9504 87.2C35.0997 86.7733 35.1744 86.3093 35.1744 85.808C35.1744 85.2853 35.0944 84.8107 34.9344 84.384C34.785 83.9467 34.5344 83.6 34.1824 83.344C33.841 83.0773 33.3824 82.944 32.8064 82.944C32.2837 82.944 31.841 83.0773 31.4784 83.344C31.1157 83.6 30.8384 83.9467 30.6464 84.384C30.465 84.8213 30.3744 85.296 30.3744 85.808C30.3744 86.3307 30.4597 86.8107 30.6304 87.248C30.8117 87.6747 31.0837 88.0107 31.4464 88.256C31.8197 88.5013 32.2837 88.624 32.8384 88.624ZM42.1731 90.096C41.2878 90.096 40.5465 89.9147 39.9491 89.552C39.3518 89.1893 38.8985 88.688 38.5891 88.048C38.2905 87.3973 38.1411 86.6507 38.1411 85.808C38.1411 84.9547 38.2958 84.2027 38.6051 83.552C38.9251 82.9013 39.3838 82.3893 39.9811 82.016C40.5891 81.6427 41.3198 81.456 42.1731 81.456C42.8025 81.456 43.3518 81.5733 43.8211 81.808C44.3011 82.032 44.7011 82.3467 45.0211 82.752C45.3518 83.1467 45.5918 83.5947 45.7411 84.096C45.8905 84.5973 45.9598 85.1253 45.9491 85.68C45.9385 85.7973 45.9278 85.9093 45.9171 86.016C45.9171 86.1227 45.9118 86.2347 45.9011 86.352H39.8051C39.8371 86.7787 39.9438 87.168 40.1251 87.52C40.3171 87.872 40.5838 88.1547 40.9251 88.368C41.2665 88.5707 41.6878 88.672 42.1891 88.672C42.4665 88.672 42.7331 88.64 42.9891 88.576C43.2558 88.5013 43.4905 88.3893 43.6931 88.24C43.9065 88.08 44.0558 87.8773 44.1411 87.632H45.8051C45.6665 88.1973 45.4158 88.6667 45.0531 89.04C44.7011 89.4027 44.2691 89.6693 43.7571 89.84C43.2558 90.0107 42.7278 90.096 42.1731 90.096ZM39.8371 85.04H44.3171C44.3065 84.624 44.2105 84.256 44.0291 83.936C43.8478 83.6053 43.5971 83.3493 43.2771 83.168C42.9571 82.976 42.5731 82.88 42.1251 82.88C41.6345 82.88 41.2238 82.9813 40.8931 83.184C40.5731 83.3867 40.3225 83.6533 40.1411 83.984C39.9705 84.304 39.8691 84.656 39.8371 85.04ZM46.7571 92.512V88.544C47.0558 88.544 47.2958 88.464 47.4771 88.304C47.6585 88.144 47.8025 87.936 47.9091 87.68C48.0158 87.424 48.0958 87.1413 48.1491 86.832C48.2131 86.512 48.2665 86.2027 48.3091 85.904C48.3625 85.424 48.3945 84.9387 48.4051 84.448C48.4265 83.9467 48.4371 83.5307 48.4371 83.2C48.4478 82.9333 48.4531 82.6667 48.4531 82.4C48.4531 82.1227 48.4531 81.8453 48.4531 81.568H54.7091V88.544H55.7971V92.512H54.1811V90H48.3731V92.512H46.7571ZM49.2211 88.544H53.0451V83.04H49.9731C49.9731 83.456 49.9678 83.9147 49.9571 84.416C49.9465 84.9173 49.9251 85.392 49.8931 85.84C49.8718 86.096 49.8451 86.384 49.8131 86.704C49.7811 87.024 49.7225 87.344 49.6371 87.664C49.5518 87.984 49.4131 88.2773 49.2211 88.544ZM57.1018 90V81.568H60.6538C61.0164 81.568 61.3791 81.5947 61.7418 81.648C62.1151 81.6907 62.4511 81.7867 62.7498 81.936C63.0591 82.0853 63.3044 82.304 63.4858 82.592C63.6778 82.8693 63.7738 83.2373 63.7738 83.696C63.7738 83.9733 63.7311 84.224 63.6458 84.448C63.5604 84.672 63.4378 84.8693 63.2778 85.04C63.1284 85.2 62.9364 85.3387 62.7018 85.456C63.2351 85.5947 63.6191 85.8453 63.8538 86.208C64.0991 86.56 64.2218 86.9813 64.2218 87.472C64.2218 87.92 64.1364 88.304 63.9658 88.624C63.7951 88.944 63.5658 89.2053 63.2778 89.408C62.9898 89.6107 62.6644 89.76 62.3018 89.856C61.9391 89.952 61.5658 90 61.1818 90H57.1018ZM58.7818 88.56H60.8938C61.1924 88.56 61.4644 88.5333 61.7098 88.48C61.9658 88.416 62.1684 88.304 62.3178 88.144C62.4778 87.984 62.5578 87.7653 62.5578 87.488C62.5578 87.2 62.4938 86.9813 62.3658 86.832C62.2378 86.672 62.0724 86.56 61.8698 86.496C61.6671 86.432 61.4484 86.3947 61.2138 86.384C60.9791 86.3627 60.7498 86.352 60.5258 86.352H58.7818V88.56ZM58.7818 85.104H60.0298C60.2218 85.104 60.4404 85.0933 60.6858 85.072C60.9311 85.04 61.1658 84.9867 61.3898 84.912C61.6244 84.8373 61.8111 84.7307 61.9498 84.592C62.0991 84.4427 62.1738 84.24 62.1738 83.984C62.1738 83.6427 62.0778 83.408 61.8858 83.28C61.7044 83.1413 61.4858 83.0613 61.2298 83.04C60.9738 83.008 60.7231 82.992 60.4778 82.992H58.7818V85.104ZM68.6015 90.096C68.2282 90.096 67.8655 90.048 67.5135 89.952C67.1615 89.8453 66.8468 89.6907 66.5695 89.488C66.2922 89.2747 66.0682 89.0133 65.8975 88.704C65.7375 88.384 65.6575 88.0107 65.6575 87.584C65.6575 87.072 65.7535 86.6507 65.9455 86.32C66.1482 85.9787 66.4148 85.7173 66.7455 85.536C67.0762 85.344 67.4548 85.2107 67.8815 85.136C68.3188 85.0507 68.7722 85.008 69.2415 85.008H71.3055C71.3055 84.592 71.2415 84.2293 71.1135 83.92C70.9855 83.6 70.7828 83.3547 70.5055 83.184C70.2388 83.0027 69.8815 82.912 69.4335 82.912C69.1668 82.912 68.9108 82.944 68.6655 83.008C68.4308 83.0613 68.2282 83.152 68.0575 83.28C67.8868 83.408 67.7695 83.5787 67.7055 83.792H65.9775C66.0415 83.3867 66.1855 83.04 66.4095 82.752C66.6335 82.4533 66.9108 82.208 67.2415 82.016C67.5722 81.824 67.9242 81.6853 68.2975 81.6C68.6815 81.504 69.0708 81.456 69.4655 81.456C70.2762 81.456 70.9322 81.616 71.4335 81.936C71.9455 82.256 72.3188 82.7147 72.5535 83.312C72.7882 83.9093 72.9055 84.6187 72.9055 85.44V90H71.4815L71.4175 88.96C71.1722 89.2693 70.8895 89.5093 70.5695 89.68C70.2602 89.84 69.9348 89.9467 69.5935 90C69.2522 90.064 68.9215 90.096 68.6015 90.096ZM68.8895 88.704C69.3802 88.704 69.8068 88.624 70.1695 88.464C70.5322 88.2933 70.8095 88.0533 71.0015 87.744C71.2042 87.424 71.3055 87.0453 71.3055 86.608V86.272H69.8015C69.4922 86.272 69.1882 86.2827 68.8895 86.304C68.5908 86.3147 68.3188 86.3573 68.0735 86.432C67.8388 86.496 67.6522 86.608 67.5135 86.768C67.3748 86.928 67.3055 87.1573 67.3055 87.456C67.3055 87.744 67.3802 87.9787 67.5295 88.16C67.6788 88.3413 67.8762 88.48 68.1215 88.576C68.3668 88.6613 68.6228 88.704 68.8895 88.704ZM74.883 93.072V81.568H76.451L76.531 82.784C76.8297 82.336 77.2243 82.0053 77.715 81.792C78.2057 81.568 78.7283 81.456 79.283 81.456C80.115 81.456 80.803 81.648 81.347 82.032C81.891 82.416 82.2963 82.9333 82.563 83.584C82.8297 84.2347 82.963 84.9707 82.963 85.792C82.963 86.6133 82.8243 87.3493 82.547 88C82.2803 88.6507 81.8643 89.1627 81.299 89.536C80.7443 89.9093 80.035 90.096 79.171 90.096C78.755 90.096 78.3817 90.0533 78.051 89.968C77.7203 89.8827 77.4323 89.76 77.187 89.6C76.9417 89.4293 76.723 89.248 76.531 89.056V93.072H74.883ZM78.979 88.624C79.555 88.624 80.0137 88.496 80.355 88.24C80.6963 87.9733 80.9417 87.6267 81.091 87.2C81.2403 86.7733 81.315 86.3093 81.315 85.808C81.315 85.2853 81.235 84.8107 81.075 84.384C80.9257 83.9467 80.675 83.6 80.323 83.344C79.9817 83.0773 79.523 82.944 78.947 82.944C78.4243 82.944 77.9817 83.0773 77.619 83.344C77.2563 83.6 76.979 83.9467 76.787 84.384C76.6057 84.8213 76.515 85.296 76.515 85.808C76.515 86.3307 76.6003 86.8107 76.771 87.248C76.9523 87.6747 77.2243 88.0107 77.587 88.256C77.9603 88.5013 78.4243 88.624 78.979 88.624ZM84.6018 90V81.568H86.2498V87.536C86.3244 87.408 86.4204 87.2693 86.5378 87.12C86.6551 86.96 86.7458 86.832 86.8098 86.736L90.6658 81.568H92.2018V90H90.5538V84.064C90.4684 84.2027 90.3778 84.3413 90.2818 84.48C90.1858 84.608 90.0951 84.7253 90.0098 84.832L86.1538 90H84.6018ZM96.1951 90V83.04H93.3471V81.568H100.691V83.04H97.8431V90H96.1951ZM105.548 90.096C104.663 90.096 103.921 89.9147 103.324 89.552C102.727 89.1893 102.273 88.688 101.964 88.048C101.665 87.3973 101.516 86.6507 101.516 85.808C101.516 84.9547 101.671 84.2027 101.98 83.552C102.3 82.9013 102.759 82.3893 103.356 82.016C103.964 81.6427 104.695 81.456 105.548 81.456C106.177 81.456 106.727 81.5733 107.196 81.808C107.676 82.032 108.076 82.3467 108.396 82.752C108.727 83.1467 108.967 83.5947 109.116 84.096C109.265 84.5973 109.335 85.1253 109.324 85.68C109.313 85.7973 109.303 85.9093 109.292 86.016C109.292 86.1227 109.287 86.2347 109.276 86.352H103.18C103.212 86.7787 103.319 87.168 103.5 87.52C103.692 87.872 103.959 88.1547 104.3 88.368C104.641 88.5707 105.063 88.672 105.564 88.672C105.841 88.672 106.108 88.64 106.364 88.576C106.631 88.5013 106.865 88.3893 107.068 88.24C107.281 88.08 107.431 87.8773 107.516 87.632H109.18C109.041 88.1973 108.791 88.6667 108.428 89.04C108.076 89.4027 107.644 89.6693 107.132 89.84C106.631 90.0107 106.103 90.096 105.548 90.096ZM103.212 85.04H107.692C107.681 84.624 107.585 84.256 107.404 83.936C107.223 83.6053 106.972 83.3493 106.652 83.168C106.332 82.976 105.948 82.88 105.5 82.88C105.009 82.88 104.599 82.9813 104.268 83.184C103.948 83.3867 103.697 83.6533 103.516 83.984C103.345 84.304 103.244 84.656 103.212 85.04ZM110.21 90.016V88.544C110.434 88.544 110.626 88.496 110.786 88.4C110.956 88.2933 111.106 88.144 111.234 87.952C111.372 87.7387 111.479 87.44 111.554 87.056C111.628 86.672 111.682 86.272 111.714 85.856C111.756 85.3547 111.783 84.8587 111.794 84.368C111.815 83.8773 111.831 83.3973 111.842 82.928C111.863 82.4587 111.874 82.0053 111.874 81.568H117.97V90H116.322V83.04H113.442C113.431 83.392 113.415 83.76 113.394 84.144C113.383 84.528 113.367 84.912 113.346 85.296C113.324 85.6693 113.298 86.0427 113.266 86.416C113.244 86.8427 113.186 87.296 113.09 87.776C113.004 88.256 112.839 88.688 112.594 89.072C112.348 89.4453 112.044 89.696 111.682 89.824C111.33 89.952 110.839 90.016 110.21 90.016ZM119.992 90V81.568H121.672V84.608H123.48C123.982 84.608 124.43 84.6507 124.824 84.736C125.23 84.8213 125.576 84.9653 125.864 85.168C126.163 85.36 126.392 85.6267 126.552 85.968C126.712 86.2987 126.792 86.72 126.792 87.232C126.792 87.712 126.707 88.128 126.536 88.48C126.366 88.832 126.126 89.12 125.816 89.344C125.518 89.568 125.16 89.7333 124.744 89.84C124.339 89.9467 123.896 90 123.416 90H119.992ZM121.672 88.56H122.584C122.915 88.56 123.23 88.5493 123.528 88.528C123.827 88.5067 124.099 88.4587 124.344 88.384C124.59 88.2987 124.782 88.1707 124.92 88C125.07 87.8187 125.144 87.5787 125.144 87.28C125.144 86.9813 125.086 86.752 124.968 86.592C124.851 86.432 124.696 86.3093 124.504 86.224C124.323 86.1387 124.12 86.0853 123.896 86.064C123.683 86.0427 123.459 86.032 123.224 86.032H121.672V88.56ZM128.446 90V81.568H130.094V85.12H133.982V81.568H135.63V90H133.982V86.576H130.094V90H128.446ZM141.409 90.096C140.534 90.096 139.793 89.92 139.185 89.568C138.577 89.2053 138.113 88.6987 137.793 88.048C137.483 87.3973 137.329 86.6453 137.329 85.792C137.329 84.928 137.483 84.176 137.793 83.536C138.113 82.8853 138.577 82.3787 139.185 82.016C139.793 81.6427 140.539 81.456 141.425 81.456C142.299 81.456 143.041 81.6427 143.649 82.016C144.257 82.3787 144.715 82.8853 145.025 83.536C145.334 84.1867 145.489 84.944 145.489 85.808C145.489 86.6507 145.329 87.3973 145.009 88.048C144.699 88.6987 144.241 89.2053 143.633 89.568C143.035 89.92 142.294 90.096 141.409 90.096ZM141.409 88.624C141.985 88.624 142.449 88.496 142.801 88.24C143.163 87.984 143.43 87.6427 143.601 87.216C143.771 86.7893 143.857 86.32 143.857 85.808C143.857 85.296 143.771 84.8267 143.601 84.4C143.43 83.9627 143.163 83.616 142.801 83.36C142.449 83.0933 141.985 82.96 141.409 82.96C140.843 82.96 140.379 83.0933 140.017 83.36C139.654 83.616 139.387 83.9573 139.217 84.384C139.057 84.8107 138.977 85.2853 138.977 85.808C138.977 86.32 139.057 86.7893 139.217 87.216C139.387 87.6427 139.654 87.984 140.017 88.24C140.379 88.496 140.843 88.624 141.409 88.624ZM150.892 90.096C150.007 90.096 149.265 89.9147 148.668 89.552C148.071 89.1893 147.617 88.688 147.308 88.048C147.009 87.3973 146.86 86.6507 146.86 85.808C146.86 84.9547 147.015 84.2027 147.324 83.552C147.644 82.9013 148.103 82.3893 148.7 82.016C149.308 81.6427 150.039 81.456 150.892 81.456C151.521 81.456 152.071 81.5733 152.54 81.808C153.02 82.032 153.42 82.3467 153.74 82.752C154.071 83.1467 154.311 83.5947 154.46 84.096C154.609 84.5973 154.679 85.1253 154.668 85.68C154.657 85.7973 154.647 85.9093 154.636 86.016C154.636 86.1227 154.631 86.2347 154.62 86.352H148.524C148.556 86.7787 148.663 87.168 148.844 87.52C149.036 87.872 149.303 88.1547 149.644 88.368C149.985 88.5707 150.407 88.672 150.908 88.672C151.185 88.672 151.452 88.64 151.708 88.576C151.975 88.5013 152.209 88.3893 152.412 88.24C152.625 88.08 152.775 87.8773 152.86 87.632H154.524C154.385 88.1973 154.135 88.6667 153.772 89.04C153.42 89.4027 152.988 89.6693 152.476 89.84C151.975 90.0107 151.447 90.096 150.892 90.096ZM148.556 85.04H153.036C153.025 84.624 152.929 84.256 152.748 83.936C152.567 83.6053 152.316 83.3493 151.996 83.168C151.676 82.976 151.292 82.88 150.844 82.88C150.353 82.88 149.943 82.9813 149.612 83.184C149.292 83.3867 149.041 83.6533 148.86 83.984C148.689 84.304 148.588 84.656 148.556 85.04ZM162.742 90V83.04H159.894V81.568H167.238V83.04H164.39V90H162.742ZM172.095 90.096C171.21 90.096 170.468 89.9147 169.871 89.552C169.274 89.1893 168.82 88.688 168.511 88.048C168.212 87.3973 168.063 86.6507 168.063 85.808C168.063 84.9547 168.218 84.2027 168.527 83.552C168.847 82.9013 169.306 82.3893 169.903 82.016C170.511 81.6427 171.242 81.456 172.095 81.456C172.724 81.456 173.274 81.5733 173.743 81.808C174.223 82.032 174.623 82.3467 174.943 82.752C175.274 83.1467 175.514 83.5947 175.663 84.096C175.812 84.5973 175.882 85.1253 175.871 85.68C175.86 85.7973 175.85 85.9093 175.839 86.016C175.839 86.1227 175.834 86.2347 175.823 86.352H169.727C169.759 86.7787 169.866 87.168 170.047 87.52C170.239 87.872 170.506 88.1547 170.847 88.368C171.188 88.5707 171.61 88.672 172.111 88.672C172.388 88.672 172.655 88.64 172.911 88.576C173.178 88.5013 173.412 88.3893 173.615 88.24C173.828 88.08 173.978 87.8773 174.063 87.632H175.727C175.588 88.1973 175.338 88.6667 174.975 89.04C174.623 89.4027 174.191 89.6693 173.679 89.84C173.178 90.0107 172.65 90.096 172.095 90.096ZM169.759 85.04H174.239C174.228 84.624 174.132 84.256 173.951 83.936C173.77 83.6053 173.519 83.3493 173.199 83.168C172.879 82.976 172.495 82.88 172.047 82.88C171.556 82.88 171.146 82.9813 170.815 83.184C170.495 83.3867 170.244 83.6533 170.063 83.984C169.892 84.304 169.791 84.656 169.759 85.04ZM181.235 90.096C180.349 90.096 179.608 89.9147 179.011 89.552C178.424 89.1893 177.981 88.688 177.683 88.048C177.395 87.3973 177.251 86.6507 177.251 85.808C177.251 84.976 177.4 84.2347 177.699 83.584C178.008 82.9227 178.467 82.4053 179.075 82.032C179.693 81.648 180.456 81.456 181.363 81.456C181.981 81.456 182.531 81.5627 183.011 81.776C183.491 81.9787 183.88 82.2827 184.179 82.688C184.488 83.0827 184.69 83.5787 184.786 84.176H183.139C183 83.7387 182.765 83.424 182.435 83.232C182.115 83.04 181.736 82.944 181.299 82.944C180.712 82.944 180.243 83.0827 179.891 83.36C179.539 83.6373 179.283 83.9947 179.123 84.432C178.973 84.8693 178.899 85.328 178.899 85.808C178.899 86.3093 178.979 86.7733 179.139 87.2C179.309 87.6267 179.565 87.9733 179.907 88.24C180.259 88.496 180.717 88.624 181.283 88.624C181.709 88.624 182.104 88.5333 182.467 88.352C182.829 88.16 183.064 87.84 183.171 87.392H184.867C184.771 88.0107 184.547 88.5227 184.195 88.928C183.843 89.3227 183.405 89.616 182.883 89.808C182.371 90 181.821 90.096 181.235 90.096ZM188.445 90V83.04H185.597V81.568H192.941V83.04H190.093V90H188.445ZM194.086 90V81.568H195.734V87.536C195.809 87.408 195.905 87.2693 196.022 87.12C196.139 86.96 196.23 86.832 196.294 86.736L200.15 81.568H201.686V90H200.038V84.064C199.953 84.2027 199.862 84.3413 199.766 84.48C199.67 84.608 199.579 84.7253 199.494 84.832L195.638 90H194.086ZM203.696 93.072V81.568H205.264L205.344 82.784C205.642 82.336 206.037 82.0053 206.528 81.792C207.018 81.568 207.541 81.456 208.096 81.456C208.928 81.456 209.616 81.648 210.16 82.032C210.704 82.416 211.109 82.9333 211.376 83.584C211.642 84.2347 211.776 84.9707 211.776 85.792C211.776 86.6133 211.637 87.3493 211.36 88C211.093 88.6507 210.677 89.1627 210.112 89.536C209.557 89.9093 208.848 90.096 207.984 90.096C207.568 90.096 207.194 90.0533 206.864 89.968C206.533 89.8827 206.245 89.76 206 89.6C205.754 89.4293 205.536 89.248 205.344 89.056V93.072H203.696ZM207.792 88.624C208.368 88.624 208.826 88.496 209.168 88.24C209.509 87.9733 209.754 87.6267 209.904 87.2C210.053 86.7733 210.128 86.3093 210.128 85.808C210.128 85.2853 210.048 84.8107 209.888 84.384C209.738 83.9467 209.488 83.6 209.136 83.344C208.794 83.0773 208.336 82.944 207.76 82.944C207.237 82.944 206.794 83.0773 206.432 83.344C206.069 83.6 205.792 83.9467 205.6 84.384C205.418 84.8213 205.328 85.296 205.328 85.808C205.328 86.3307 205.413 86.8107 205.584 87.248C205.765 87.6747 206.037 88.0107 206.4 88.256C206.773 88.5013 207.237 88.624 207.792 88.624ZM217.174 90.096C216.3 90.096 215.558 89.92 214.95 89.568C214.342 89.2053 213.878 88.6987 213.558 88.048C213.249 87.3973 213.094 86.6453 213.094 85.792C213.094 84.928 213.249 84.176 213.558 83.536C213.878 82.8853 214.342 82.3787 214.95 82.016C215.558 81.6427 216.305 81.456 217.19 81.456C218.065 81.456 218.806 81.6427 219.414 82.016C220.022 82.3787 220.481 82.8853 220.79 83.536C221.1 84.1867 221.254 84.944 221.254 85.808C221.254 86.6507 221.094 87.3973 220.774 88.048C220.465 88.6987 220.006 89.2053 219.398 89.568C218.801 89.92 218.06 90.096 217.174 90.096ZM217.174 88.624C217.75 88.624 218.214 88.496 218.566 88.24C218.929 87.984 219.196 87.6427 219.366 87.216C219.537 86.7893 219.622 86.32 219.622 85.808C219.622 85.296 219.537 84.8267 219.366 84.4C219.196 83.9627 218.929 83.616 218.566 83.36C218.214 83.0933 217.75 82.96 217.174 82.96C216.609 82.96 216.145 83.0933 215.782 83.36C215.42 83.616 215.153 83.9573 214.982 84.384C214.822 84.8107 214.742 85.2853 214.742 85.808C214.742 86.32 214.822 86.7893 214.982 87.216C215.153 87.6427 215.42 87.984 215.782 88.24C216.145 88.496 216.609 88.624 217.174 88.624ZM222.946 90V81.568H226.498C226.86 81.568 227.223 81.5947 227.586 81.648C227.959 81.6907 228.295 81.7867 228.594 81.936C228.903 82.0853 229.148 82.304 229.33 82.592C229.522 82.8693 229.618 83.2373 229.618 83.696C229.618 83.9733 229.575 84.224 229.49 84.448C229.404 84.672 229.282 84.8693 229.122 85.04C228.972 85.2 228.78 85.3387 228.546 85.456C229.079 85.5947 229.463 85.8453 229.698 86.208C229.943 86.56 230.066 86.9813 230.066 87.472C230.066 87.92 229.98 88.304 229.81 88.624C229.639 88.944 229.41 89.2053 229.122 89.408C228.834 89.6107 228.508 89.76 228.146 89.856C227.783 89.952 227.41 90 227.026 90H222.946ZM224.626 88.56H226.738C227.036 88.56 227.308 88.5333 227.554 88.48C227.81 88.416 228.012 88.304 228.162 88.144C228.322 87.984 228.402 87.7653 228.402 87.488C228.402 87.2 228.338 86.9813 228.21 86.832C228.082 86.672 227.916 86.56 227.714 86.496C227.511 86.432 227.292 86.3947 227.058 86.384C226.823 86.3627 226.594 86.352 226.37 86.352H224.626V88.56ZM224.626 85.104H225.874C226.066 85.104 226.284 85.0933 226.53 85.072C226.775 85.04 227.01 84.9867 227.234 84.912C227.468 84.8373 227.655 84.7307 227.794 84.592C227.943 84.4427 228.018 84.24 228.018 83.984C228.018 83.6427 227.922 83.408 227.73 83.28C227.548 83.1413 227.33 83.0613 227.074 83.04C226.818 83.008 226.567 82.992 226.322 82.992H224.626V85.104ZM234.445 90.096C234.072 90.096 233.709 90.048 233.357 89.952C233.005 89.8453 232.691 89.6907 232.413 89.488C232.136 89.2747 231.912 89.0133 231.741 88.704C231.581 88.384 231.501 88.0107 231.501 87.584C231.501 87.072 231.597 86.6507 231.789 86.32C231.992 85.9787 232.259 85.7173 232.589 85.536C232.92 85.344 233.299 85.2107 233.725 85.136C234.163 85.0507 234.616 85.008 235.085 85.008H237.149C237.149 84.592 237.085 84.2293 236.957 83.92C236.829 83.6 236.627 83.3547 236.349 83.184C236.083 83.0027 235.725 82.912 235.277 82.912C235.011 82.912 234.755 82.944 234.509 83.008C234.275 83.0613 234.072 83.152 233.901 83.28C233.731 83.408 233.613 83.5787 233.549 83.792H231.821C231.885 83.3867 232.029 83.04 232.253 82.752C232.477 82.4533 232.755 82.208 233.085 82.016C233.416 81.824 233.768 81.6853 234.141 81.6C234.525 81.504 234.915 81.456 235.309 81.456C236.12 81.456 236.776 81.616 237.277 81.936C237.789 82.256 238.163 82.7147 238.397 83.312C238.632 83.9093 238.749 84.6187 238.749 85.44V90H237.325L237.261 88.96C237.016 89.2693 236.733 89.5093 236.413 89.68C236.104 89.84 235.779 89.9467 235.437 90C235.096 90.064 234.765 90.096 234.445 90.096ZM234.733 88.704C235.224 88.704 235.651 88.624 236.013 88.464C236.376 88.2933 236.653 88.0533 236.845 87.744C237.048 87.424 237.149 87.0453 237.149 86.608V86.272H235.645C235.336 86.272 235.032 86.2827 234.733 86.304C234.435 86.3147 234.163 86.3573 233.917 86.432C233.683 86.496 233.496 86.608 233.357 86.768C233.219 86.928 233.149 87.1573 233.149 87.456C233.149 87.744 233.224 87.9787 233.373 88.16C233.523 88.3413 233.72 88.48 233.965 88.576C234.211 88.6613 234.467 88.704 234.733 88.704ZM240.727 90V81.568H242.375V85.12H246.263V81.568H247.911V90H246.263V86.576H242.375V90H240.727ZM249.93 90V81.568H251.578V87.536C251.653 87.408 251.749 87.2693 251.866 87.12C251.983 86.96 252.074 86.832 252.138 86.736L255.994 81.568H257.53V90H255.882V84.064C255.797 84.2027 255.706 84.3413 255.61 84.48C255.514 84.608 255.423 84.7253 255.338 84.832L251.482 90H249.93ZM263.251 90.096C262.366 90.096 261.625 89.9147 261.027 89.552C260.43 89.1893 259.977 88.688 259.667 88.048C259.369 87.3973 259.219 86.6507 259.219 85.808C259.219 84.9547 259.374 84.2027 259.683 83.552C260.003 82.9013 260.462 82.3893 261.059 82.016C261.667 81.6427 262.398 81.456 263.251 81.456C263.881 81.456 264.43 81.5733 264.899 81.808C265.379 82.032 265.779 82.3467 266.099 82.752C266.43 83.1467 266.67 83.5947 266.819 84.096C266.969 84.5973 267.038 85.1253 267.027 85.68C267.017 85.7973 267.006 85.9093 266.995 86.016C266.995 86.1227 266.99 86.2347 266.979 86.352H260.883C260.915 86.7787 261.022 87.168 261.203 87.52C261.395 87.872 261.662 88.1547 262.003 88.368C262.345 88.5707 262.766 88.672 263.267 88.672C263.545 88.672 263.811 88.64 264.067 88.576C264.334 88.5013 264.569 88.3893 264.771 88.24C264.985 88.08 265.134 87.8773 265.219 87.632H266.883C266.745 88.1973 266.494 88.6667 266.131 89.04C265.779 89.4027 265.347 89.6693 264.835 89.84C264.334 90.0107 263.806 90.096 263.251 90.096ZM260.915 85.04H265.395C265.385 84.624 265.289 84.256 265.107 83.936C264.926 83.6053 264.675 83.3493 264.355 83.168C264.035 82.976 263.651 82.88 263.203 82.88C262.713 82.88 262.302 82.9813 261.971 83.184C261.651 83.3867 261.401 83.6533 261.219 83.984C261.049 84.304 260.947 84.656 260.915 85.04Z" fill="white"></path><rect width="51.6667" height="3" transform="translate(0 108)" fill="#51B7CE"></rect><rect width="51.6667" height="3" transform="translate(53.6665 108)" fill="#51B7CE"></rect><rect width="51.6667" height="3" transform="translate(107.333 108)" fill="#51B7CE"></rect><rect width="51.6667" height="3" transform="translate(161 108)" fill="#D5D9E1"></rect><rect width="51.6667" height="3" transform="translate(214.667 108)" fill="#D5D9E1"></rect><rect width="51.6667" height="3" transform="translate(268.333 108)" fill="#D5D9E1"></rect><path d="M0.5 111.5H319.5V159C319.5 162.038 317.038 164.5 314 164.5H6C2.96244 164.5 0.5 162.038 0.5 159V111.5Z" fill="white"></path><path d="M0.5 111.5H319.5V159C319.5 162.038 317.038 164.5 314 164.5H6C2.96244 164.5 0.5 162.038 0.5 159V111.5Z" stroke="#D5D9E1"></path><path d="M30.4 132.106H29.112V130.03H28.312V132.106H21.688V130.03H20.888V132.106H19.6C19.109 132.107 18.6383 132.302 18.2911 132.649C17.9439 132.996 17.7486 133.467 17.748 133.958V144.518C17.7486 145.009 17.9439 145.48 18.2911 145.827C18.6383 146.174 19.109 146.37 19.6 146.37H30.4C30.8911 146.37 31.3618 146.174 31.709 145.827C32.0562 145.48 32.2515 145.009 32.252 144.518V133.958C32.2515 133.467 32.0562 132.996 31.709 132.649C31.3618 132.302 30.8911 132.107 30.4 132.106ZM19.6 132.906H30.4C30.6789 132.907 30.9462 133.018 31.1433 133.215C31.3405 133.412 31.4515 133.679 31.452 133.958V135.188H18.542V133.958C18.5423 133.82 18.5699 133.683 18.6232 133.555C18.6766 133.427 18.7546 133.311 18.8529 133.213C18.9511 133.115 19.0677 133.038 19.1959 132.985C19.3241 132.933 19.4615 132.906 19.6 132.906ZM30.4 145.57H19.6C19.3212 145.57 19.0539 145.459 18.8568 145.262C18.6596 145.064 18.5486 144.797 18.548 144.518V135.988H31.458V144.518C31.4578 144.657 31.4302 144.794 31.3769 144.922C31.3235 145.05 31.2455 145.166 31.1472 145.264C31.0489 145.361 30.9324 145.439 30.8042 145.491C30.676 145.544 30.5386 145.571 30.4 145.57Z" fill="#A1A5B2"></path><path d="M45.69 134V128.33H44.25V127.74C44.5167 127.72 44.7533 127.69 44.96 127.65C45.1667 127.603 45.35 127.527 45.51 127.42C45.6767 127.307 45.8233 127.143 45.95 126.93H46.56V134H45.69ZM47.9328 134V133.27L49.9328 131.54C50.1128 131.387 50.3095 131.22 50.5228 131.04C50.7428 130.853 50.9495 130.653 51.1428 130.44C51.3428 130.227 51.5061 130 51.6328 129.76C51.7661 129.513 51.8328 129.253 51.8328 128.98C51.8328 128.553 51.7061 128.227 51.4528 128C51.1995 127.767 50.8595 127.65 50.4328 127.65C50.0928 127.65 49.7961 127.72 49.5428 127.86C49.2895 128 49.1228 128.203 49.0428 128.47H48.1128C48.1795 128.103 48.3295 127.803 48.5628 127.57C48.8028 127.33 49.0895 127.15 49.4228 127.03C49.7628 126.91 50.1128 126.85 50.4728 126.85C50.9128 126.85 51.2995 126.93 51.6328 127.09C51.9728 127.25 52.2361 127.483 52.4228 127.79C52.6161 128.09 52.7128 128.46 52.7128 128.9C52.7128 129.333 52.6295 129.713 52.4628 130.04C52.3028 130.367 52.0895 130.663 51.8228 130.93C51.5628 131.19 51.2828 131.447 50.9828 131.7L49.1928 133.21H52.7928V134H47.9328ZM58.3522 134.06C58.1122 134.06 57.8789 134.03 57.6522 133.97C57.4322 133.903 57.2322 133.807 57.0522 133.68C56.8789 133.547 56.7389 133.383 56.6322 133.19C56.5322 132.99 56.4822 132.76 56.4822 132.5C56.4822 132.2 56.5355 131.947 56.6422 131.74C56.7555 131.533 56.9055 131.37 57.0922 131.25C57.2789 131.13 57.4955 131.043 57.7422 130.99C57.9889 130.937 58.2455 130.91 58.5122 130.91H60.0622C60.0622 130.61 60.0189 130.35 59.9322 130.13C59.8522 129.91 59.7189 129.74 59.5322 129.62C59.3455 129.493 59.0989 129.43 58.7922 129.43C58.6055 129.43 58.4322 129.45 58.2722 129.49C58.1122 129.53 57.9755 129.593 57.8622 129.68C57.7489 129.767 57.6655 129.883 57.6122 130.03H56.7022C56.7489 129.79 56.8389 129.587 56.9722 129.42C57.1122 129.247 57.2789 129.107 57.4722 129C57.6722 128.887 57.8855 128.803 58.1122 128.75C58.3389 128.697 58.5655 128.67 58.7922 128.67C59.2989 128.67 59.7055 128.773 60.0122 128.98C60.3189 129.18 60.5422 129.467 60.6822 129.84C60.8222 130.207 60.8922 130.643 60.8922 131.15V134H60.1822L60.1322 133.33C59.9855 133.53 59.8089 133.683 59.6022 133.79C59.3955 133.897 59.1822 133.967 58.9622 134C58.7489 134.04 58.5455 134.06 58.3522 134.06ZM58.4322 133.31C58.7655 133.31 59.0522 133.257 59.2922 133.15C59.5389 133.037 59.7289 132.873 59.8622 132.66C59.9955 132.447 60.0622 132.187 60.0622 131.88V131.62H59.1322C58.9122 131.62 58.6955 131.623 58.4822 131.63C58.2689 131.637 58.0755 131.663 57.9022 131.71C57.7289 131.757 57.5889 131.837 57.4822 131.95C57.3822 132.063 57.3322 132.227 57.3322 132.44C57.3322 132.64 57.3822 132.803 57.4822 132.93C57.5889 133.057 57.7255 133.153 57.8922 133.22C58.0655 133.28 58.2455 133.31 58.4322 133.31ZM62.2091 134V128.73H64.2491C64.4824 128.73 64.7124 128.747 64.9391 128.78C65.1724 128.807 65.3824 128.867 65.5691 128.96C65.7624 129.047 65.9157 129.177 66.0291 129.35C66.1491 129.523 66.2091 129.753 66.2091 130.04C66.2091 130.213 66.1824 130.373 66.1291 130.52C66.0757 130.66 65.9957 130.783 65.8891 130.89C65.7891 130.997 65.6591 131.09 65.4991 131.17C65.8591 131.25 66.1191 131.407 66.2791 131.64C66.4391 131.873 66.5191 132.14 66.5191 132.44C66.5191 132.707 66.4691 132.94 66.3691 133.14C66.2757 133.333 66.1424 133.493 65.9691 133.62C65.8024 133.747 65.6057 133.843 65.3791 133.91C65.1591 133.97 64.9224 134 64.6691 134H62.2091ZM63.0791 133.26H64.4691C64.6757 133.26 64.8691 133.24 65.0491 133.2C65.2291 133.16 65.3757 133.087 65.4891 132.98C65.6024 132.867 65.6591 132.707 65.6591 132.5C65.6591 132.287 65.6091 132.127 65.5091 132.02C65.4157 131.907 65.2924 131.83 65.1391 131.79C64.9924 131.743 64.8324 131.717 64.6591 131.71C64.4857 131.703 64.3224 131.7 64.1691 131.7H63.0791V133.26ZM63.0791 130.98H63.8091C63.9424 130.98 64.0957 130.973 64.2691 130.96C64.4491 130.947 64.6224 130.917 64.7891 130.87C64.9624 130.817 65.1024 130.737 65.2091 130.63C65.3224 130.523 65.3791 130.377 65.3791 130.19C65.3791 129.943 65.3091 129.773 65.1691 129.68C65.0357 129.58 64.8757 129.523 64.6891 129.51C64.5024 129.49 64.3291 129.48 64.1691 129.48H63.0791V130.98ZM67.6778 134V128.73H71.3178V129.48H68.5278V134H67.6778ZM74.5441 134V133.27L76.5441 131.54C76.7241 131.387 76.9208 131.22 77.1341 131.04C77.3541 130.853 77.5608 130.653 77.7541 130.44C77.9541 130.227 78.1175 130 78.2441 129.76C78.3775 129.513 78.4441 129.253 78.4441 128.98C78.4441 128.553 78.3175 128.227 78.0641 128C77.8108 127.767 77.4708 127.65 77.0441 127.65C76.7041 127.65 76.4075 127.72 76.1541 127.86C75.9008 128 75.7341 128.203 75.6541 128.47H74.7241C74.7908 128.103 74.9408 127.803 75.1741 127.57C75.4141 127.33 75.7008 127.15 76.0341 127.03C76.3741 126.91 76.7241 126.85 77.0841 126.85C77.5241 126.85 77.9108 126.93 78.2441 127.09C78.5841 127.25 78.8475 127.483 79.0341 127.79C79.2275 128.09 79.3241 128.46 79.3241 128.9C79.3241 129.333 79.2408 129.713 79.0741 130.04C78.9141 130.367 78.7008 130.663 78.4341 130.93C78.1741 131.19 77.8941 131.447 77.5941 131.7L75.8041 133.21H79.4041V134H74.5441ZM83.2382 134.08C82.7449 134.08 82.3215 133.99 81.9682 133.81C81.6215 133.623 81.3382 133.367 81.1182 133.04C80.8982 132.707 80.7349 132.323 80.6282 131.89C80.5282 131.45 80.4782 130.977 80.4782 130.47C80.4782 129.963 80.5282 129.493 80.6282 129.06C80.7282 128.62 80.8882 128.237 81.1082 127.91C81.3282 127.577 81.6115 127.317 81.9582 127.13C82.3115 126.943 82.7382 126.85 83.2382 126.85C83.7649 126.85 84.2049 126.953 84.5582 127.16C84.9182 127.36 85.2015 127.633 85.4082 127.98C85.6215 128.327 85.7715 128.717 85.8582 129.15C85.9515 129.577 85.9982 130.017 85.9982 130.47C85.9982 130.923 85.9515 131.367 85.8582 131.8C85.7715 132.227 85.6215 132.613 85.4082 132.96C85.2015 133.3 84.9182 133.573 84.5582 133.78C84.2049 133.98 83.7649 134.08 83.2382 134.08ZM83.2382 133.29C83.6315 133.29 83.9482 133.207 84.1882 133.04C84.4349 132.867 84.6249 132.64 84.7582 132.36C84.8915 132.08 84.9815 131.777 85.0282 131.45C85.0749 131.117 85.0982 130.79 85.0982 130.47C85.0982 130.157 85.0749 129.837 85.0282 129.51C84.9815 129.177 84.8915 128.87 84.7582 128.59C84.6249 128.303 84.4349 128.073 84.1882 127.9C83.9482 127.727 83.6315 127.64 83.2382 127.64C82.8382 127.64 82.5149 127.727 82.2682 127.9C82.0215 128.073 81.8315 128.303 81.6982 128.59C81.5715 128.87 81.4849 129.177 81.4382 129.51C81.3915 129.837 81.3682 130.157 81.3682 130.47C81.3682 130.79 81.3915 131.117 81.4382 131.45C81.4849 131.777 81.5715 132.08 81.6982 132.36C81.8315 132.64 82.0215 132.867 82.2682 133.04C82.5149 133.207 82.8382 133.29 83.2382 133.29ZM86.7121 134V133.27L88.7121 131.54C88.8921 131.387 89.0888 131.22 89.3021 131.04C89.5221 130.853 89.7288 130.653 89.9221 130.44C90.1221 130.227 90.2854 130 90.4121 129.76C90.5454 129.513 90.6121 129.253 90.6121 128.98C90.6121 128.553 90.4854 128.227 90.2321 128C89.9788 127.767 89.6388 127.65 89.2121 127.65C88.8721 127.65 88.5754 127.72 88.3221 127.86C88.0688 128 87.9021 128.203 87.8221 128.47H86.8921C86.9588 128.103 87.1088 127.803 87.3421 127.57C87.5821 127.33 87.8688 127.15 88.2021 127.03C88.5421 126.91 88.8921 126.85 89.2521 126.85C89.6921 126.85 90.0788 126.93 90.4121 127.09C90.7521 127.25 91.0154 127.483 91.2021 127.79C91.3954 128.09 91.4921 128.46 91.4921 128.9C91.4921 129.333 91.4088 129.713 91.2421 130.04C91.0821 130.367 90.8688 130.663 90.6021 130.93C90.3421 131.19 90.0621 131.447 89.7621 131.7L87.9721 133.21H91.5721V134H86.7121ZM96.1409 134V132.59H92.3009V131.94L95.7609 126.93H97.0109V131.8H97.8409V132.59H97.0109V134H96.1409ZM93.3509 131.8H96.1409V127.72L93.3509 131.8ZM101.644 131.57V130.79H105.944V131.57H101.644ZM44.3 148V147.27L46.3 145.54C46.48 145.387 46.6767 145.22 46.89 145.04C47.11 144.853 47.3167 144.653 47.51 144.44C47.71 144.227 47.8733 144 48 143.76C48.1333 143.513 48.2 143.253 48.2 142.98C48.2 142.553 48.0733 142.227 47.82 142C47.5667 141.767 47.2267 141.65 46.8 141.65C46.46 141.65 46.1633 141.72 45.91 141.86C45.6567 142 45.49 142.203 45.41 142.47H44.48C44.5467 142.103 44.6967 141.803 44.93 141.57C45.17 141.33 45.4567 141.15 45.79 141.03C46.13 140.91 46.48 140.85 46.84 140.85C47.28 140.85 47.6667 140.93 48 141.09C48.34 141.25 48.6033 141.483 48.79 141.79C48.9833 142.09 49.08 142.46 49.08 142.9C49.08 143.333 48.9967 143.713 48.83 144.04C48.67 144.367 48.4567 144.663 48.19 144.93C47.93 145.19 47.65 145.447 47.35 145.7L45.56 147.21H49.16V148H44.3ZM52.5341 148.08C52.1941 148.08 51.8674 148.023 51.5541 147.91C51.2474 147.797 50.9807 147.627 50.7541 147.4C50.5274 147.167 50.3707 146.88 50.2841 146.54H51.2441C51.3641 146.793 51.5574 146.983 51.8241 147.11C52.0974 147.23 52.3674 147.29 52.6341 147.29C52.9941 147.29 53.2907 147.217 53.5241 147.07C53.7641 146.917 53.9507 146.71 54.0841 146.45C54.2241 146.19 54.3241 145.9 54.3841 145.58C54.4441 145.253 54.4741 144.917 54.4741 144.57C54.4741 144.537 54.4741 144.5 54.4741 144.46C54.4741 144.42 54.4741 144.383 54.4741 144.35C54.3474 144.61 54.1774 144.82 53.9641 144.98C53.7507 145.133 53.5141 145.247 53.2541 145.32C52.9941 145.387 52.7307 145.42 52.4641 145.42C52.0507 145.42 51.6707 145.337 51.3241 145.17C50.9841 144.997 50.7107 144.747 50.5041 144.42C50.3041 144.087 50.2041 143.683 50.2041 143.21C50.2041 142.737 50.3074 142.323 50.5141 141.97C50.7207 141.617 51.0074 141.343 51.3741 141.15C51.7474 140.95 52.1774 140.85 52.6641 140.85C53.1841 140.85 53.6141 140.96 53.9541 141.18C54.3007 141.4 54.5707 141.693 54.7641 142.06C54.9641 142.427 55.1041 142.83 55.1841 143.27C55.2641 143.703 55.3041 144.137 55.3041 144.57C55.3041 145.07 55.2541 145.533 55.1541 145.96C55.0541 146.38 54.8941 146.75 54.6741 147.07C54.4541 147.39 54.1674 147.64 53.8141 147.82C53.4607 147.993 53.0341 148.08 52.5341 148.08ZM52.5941 144.62C52.8807 144.62 53.1407 144.56 53.3741 144.44C53.6141 144.32 53.8041 144.153 53.9441 143.94C54.0907 143.727 54.1641 143.477 54.1641 143.19C54.1641 142.883 54.0974 142.617 53.9641 142.39C53.8307 142.157 53.6474 141.973 53.4141 141.84C53.1874 141.707 52.9274 141.64 52.6341 141.64C52.3341 141.64 52.0674 141.707 51.8341 141.84C51.6074 141.973 51.4274 142.153 51.2941 142.38C51.1607 142.607 51.0941 142.857 51.0941 143.13C51.0941 143.597 51.2274 143.963 51.4941 144.23C51.7674 144.49 52.1341 144.62 52.5941 144.62ZM59.2305 148V142.73H60.0805V145.04H62.7205V142.73H63.5705V148H62.7205V145.79H60.0805V148H59.2305ZM67.2141 148.06C66.6608 148.06 66.1975 147.947 65.8241 147.72C65.4508 147.487 65.1708 147.167 64.9841 146.76C64.8041 146.353 64.7141 145.89 64.7141 145.37C64.7141 144.843 64.8041 144.38 64.9841 143.98C65.1708 143.573 65.4508 143.253 65.8241 143.02C66.1975 142.787 66.6675 142.67 67.2341 142.67C67.7875 142.67 68.2475 142.787 68.6141 143.02C68.9875 143.253 69.2641 143.573 69.4441 143.98C69.6308 144.38 69.7241 144.843 69.7241 145.37C69.7241 145.89 69.6308 146.353 69.4441 146.76C69.2575 147.167 68.9775 147.487 68.6041 147.72C68.2375 147.947 67.7741 148.06 67.2141 148.06ZM67.2141 147.31C67.6008 147.31 67.9141 147.223 68.1541 147.05C68.4008 146.877 68.5808 146.643 68.6941 146.35C68.8141 146.057 68.8741 145.73 68.8741 145.37C68.8741 145.01 68.8141 144.683 68.6941 144.39C68.5808 144.097 68.4008 143.863 68.1541 143.69C67.9141 143.517 67.6008 143.43 67.2141 143.43C66.8341 143.43 66.5208 143.517 66.2741 143.69C66.0341 143.863 65.8541 144.097 65.7341 144.39C65.6208 144.683 65.5641 145.01 65.5641 145.37C65.5641 145.73 65.6208 146.057 65.7341 146.35C65.8541 146.643 66.0341 146.877 66.2741 147.05C66.5208 147.223 66.8341 147.31 67.2141 147.31ZM70.5314 148L71.9014 145.92C71.5214 145.813 71.2214 145.64 71.0014 145.4C70.7814 145.153 70.6714 144.827 70.6714 144.42C70.6714 144.1 70.7181 143.833 70.8114 143.62C70.9047 143.4 71.0414 143.227 71.2214 143.1C71.4014 142.967 71.6181 142.873 71.8714 142.82C72.1247 142.76 72.4147 142.73 72.7414 142.73H74.8614V148H74.0114V146.05H72.8014L71.5214 148H70.5314ZM73.3814 145.31H74.0114V143.48H72.8814C72.6814 143.48 72.4981 143.49 72.3314 143.51C72.1647 143.53 72.0214 143.573 71.9014 143.64C71.7881 143.7 71.6981 143.79 71.6314 143.91C71.5647 144.023 71.5314 144.18 71.5314 144.38C71.5314 144.6 71.5847 144.773 71.6914 144.9C71.8047 145.027 71.9481 145.12 72.1214 145.18C72.3014 145.233 72.5014 145.27 72.7214 145.29C72.9414 145.303 73.1614 145.31 73.3814 145.31ZM78.5285 148V147.27L80.5285 145.54C80.7085 145.387 80.9052 145.22 81.1185 145.04C81.3385 144.853 81.5452 144.653 81.7385 144.44C81.9385 144.227 82.1018 144 82.2285 143.76C82.3618 143.513 82.4285 143.253 82.4285 142.98C82.4285 142.553 82.3018 142.227 82.0485 142C81.7952 141.767 81.4552 141.65 81.0285 141.65C80.6885 141.65 80.3918 141.72 80.1385 141.86C79.8852 142 79.7185 142.203 79.6385 142.47H78.7085C78.7752 142.103 78.9252 141.803 79.1585 141.57C79.3985 141.33 79.6852 141.15 80.0185 141.03C80.3585 140.91 80.7085 140.85 81.0685 140.85C81.5085 140.85 81.8952 140.93 82.2285 141.09C82.5685 141.25 82.8318 141.483 83.0185 141.79C83.2118 142.09 83.3085 142.46 83.3085 142.9C83.3085 143.333 83.2252 143.713 83.0585 144.04C82.8985 144.367 82.6852 144.663 82.4185 144.93C82.1585 145.19 81.8785 145.447 81.5785 145.7L79.7885 147.21H83.3885V148H78.5285ZM87.2226 148.08C86.7292 148.08 86.3059 147.99 85.9526 147.81C85.6059 147.623 85.3226 147.367 85.1026 147.04C84.8826 146.707 84.7192 146.323 84.6126 145.89C84.5126 145.45 84.4626 144.977 84.4626 144.47C84.4626 143.963 84.5126 143.493 84.6126 143.06C84.7126 142.62 84.8726 142.237 85.0926 141.91C85.3126 141.577 85.5959 141.317 85.9426 141.13C86.2959 140.943 86.7226 140.85 87.2226 140.85C87.7492 140.85 88.1892 140.953 88.5426 141.16C88.9026 141.36 89.1859 141.633 89.3926 141.98C89.6059 142.327 89.7559 142.717 89.8426 143.15C89.9359 143.577 89.9826 144.017 89.9826 144.47C89.9826 144.923 89.9359 145.367 89.8426 145.8C89.7559 146.227 89.6059 146.613 89.3926 146.96C89.1859 147.3 88.9026 147.573 88.5426 147.78C88.1892 147.98 87.7492 148.08 87.2226 148.08ZM87.2226 147.29C87.6159 147.29 87.9326 147.207 88.1726 147.04C88.4192 146.867 88.6092 146.64 88.7426 146.36C88.8759 146.08 88.9659 145.777 89.0126 145.45C89.0592 145.117 89.0826 144.79 89.0826 144.47C89.0826 144.157 89.0592 143.837 89.0126 143.51C88.9659 143.177 88.8759 142.87 88.7426 142.59C88.6092 142.303 88.4192 142.073 88.1726 141.9C87.9326 141.727 87.6159 141.64 87.2226 141.64C86.8226 141.64 86.4992 141.727 86.2526 141.9C86.0059 142.073 85.8159 142.303 85.6826 142.59C85.5559 142.87 85.4692 143.177 85.4226 143.51C85.3759 143.837 85.3526 144.157 85.3526 144.47C85.3526 144.79 85.3759 145.117 85.4226 145.45C85.4692 145.777 85.5559 146.08 85.6826 146.36C85.8159 146.64 86.0059 146.867 86.2526 147.04C86.4992 147.207 86.8226 147.29 87.2226 147.29ZM90.6965 148V147.27L92.6965 145.54C92.8765 145.387 93.0732 145.22 93.2865 145.04C93.5065 144.853 93.7132 144.653 93.9065 144.44C94.1065 144.227 94.2698 144 94.3965 143.76C94.5298 143.513 94.5965 143.253 94.5965 142.98C94.5965 142.553 94.4698 142.227 94.2165 142C93.9632 141.767 93.6232 141.65 93.1965 141.65C92.8565 141.65 92.5598 141.72 92.3065 141.86C92.0532 142 91.8865 142.203 91.8065 142.47H90.8765C90.9432 142.103 91.0932 141.803 91.3265 141.57C91.5665 141.33 91.8532 141.15 92.1865 141.03C92.5265 140.91 92.8765 140.85 93.2365 140.85C93.6765 140.85 94.0632 140.93 94.3965 141.09C94.7365 141.25 94.9998 141.483 95.1865 141.79C95.3798 142.09 95.4765 142.46 95.4765 142.9C95.4765 143.333 95.3932 143.713 95.2265 144.04C95.0665 144.367 94.8532 144.663 94.5865 144.93C94.3265 145.19 94.0465 145.447 93.7465 145.7L91.9565 147.21H95.5565V148H90.6965ZM100.125 148V146.59H96.2852V145.94L99.7452 140.93H100.995V145.8H101.825V146.59H100.995V148H100.125ZM97.3352 145.8H100.125V141.72L97.3352 145.8Z" fill="#656C74"></path><line x1="130.5" y1="124" x2="130.5" y2="152" stroke="#D5D9E1"></line><path d="M142.1 134L144.73 126.93H145.98L148.6 134H147.66L147.1 132.48H143.6L143.04 134H142.1ZM143.89 131.69H146.81L145.35 127.69L143.89 131.69ZM149.369 134V128.73H150.219V131H151.139L152.699 128.73H153.669L151.909 131.24L153.819 134H152.819L151.239 131.74H150.219V134H149.369ZM155.785 134V129.48H153.975V128.73H158.445V129.48H156.635V134H155.785ZM159.203 134V128.73H160.053V132.77C160.1 132.677 160.163 132.577 160.243 132.47C160.323 132.357 160.387 132.27 160.433 132.21L162.983 128.73H163.823V134H162.973V129.96C162.92 130.06 162.86 130.153 162.793 130.24C162.733 130.327 162.677 130.407 162.623 130.48L160.033 134H159.203ZM165.16 134V128.73H167.2C167.434 128.73 167.664 128.747 167.89 128.78C168.124 128.807 168.334 128.867 168.52 128.96C168.714 129.047 168.867 129.177 168.98 129.35C169.1 129.523 169.16 129.753 169.16 130.04C169.16 130.213 169.134 130.373 169.08 130.52C169.027 130.66 168.947 130.783 168.84 130.89C168.74 130.997 168.61 131.09 168.45 131.17C168.81 131.25 169.07 131.407 169.23 131.64C169.39 131.873 169.47 132.14 169.47 132.44C169.47 132.707 169.42 132.94 169.32 133.14C169.227 133.333 169.094 133.493 168.92 133.62C168.754 133.747 168.557 133.843 168.33 133.91C168.11 133.97 167.874 134 167.62 134H165.16ZM166.03 133.26H167.42C167.627 133.26 167.82 133.24 168 133.2C168.18 133.16 168.327 133.087 168.44 132.98C168.554 132.867 168.61 132.707 168.61 132.5C168.61 132.287 168.56 132.127 168.46 132.02C168.367 131.907 168.244 131.83 168.09 131.79C167.944 131.743 167.784 131.717 167.61 131.71C167.437 131.703 167.274 131.7 167.12 131.7H166.03V133.26ZM166.03 130.98H166.76C166.894 130.98 167.047 130.973 167.22 130.96C167.4 130.947 167.574 130.917 167.74 130.87C167.914 130.817 168.054 130.737 168.16 130.63C168.274 130.523 168.33 130.377 168.33 130.19C168.33 129.943 168.26 129.773 168.12 129.68C167.987 129.58 167.827 129.523 167.64 129.51C167.454 129.49 167.28 129.48 167.12 129.48H166.03V130.98ZM170.629 134V128.73H171.479V131.04H174.119V128.73H174.969V134H174.119V131.79H171.479V134H170.629ZM178.613 134.06C178.059 134.06 177.596 133.947 177.223 133.72C176.849 133.487 176.569 133.167 176.383 132.76C176.203 132.353 176.113 131.89 176.113 131.37C176.113 130.843 176.203 130.38 176.383 129.98C176.569 129.573 176.849 129.253 177.223 129.02C177.596 128.787 178.066 128.67 178.633 128.67C179.186 128.67 179.646 128.787 180.013 129.02C180.386 129.253 180.663 129.573 180.843 129.98C181.029 130.38 181.123 130.843 181.123 131.37C181.123 131.89 181.029 132.353 180.843 132.76C180.656 133.167 180.376 133.487 180.003 133.72C179.636 133.947 179.173 134.06 178.613 134.06ZM178.613 133.31C178.999 133.31 179.313 133.223 179.553 133.05C179.799 132.877 179.979 132.643 180.093 132.35C180.213 132.057 180.273 131.73 180.273 131.37C180.273 131.01 180.213 130.683 180.093 130.39C179.979 130.097 179.799 129.863 179.553 129.69C179.313 129.517 178.999 129.43 178.613 129.43C178.233 129.43 177.919 129.517 177.673 129.69C177.433 129.863 177.253 130.097 177.133 130.39C177.019 130.683 176.963 131.01 176.963 131.37C176.963 131.73 177.019 132.057 177.133 132.35C177.253 132.643 177.433 132.877 177.673 133.05C177.919 133.223 178.233 133.31 178.613 133.31ZM184.51 134.06C183.957 134.06 183.497 133.947 183.13 133.72C182.77 133.487 182.5 133.167 182.32 132.76C182.147 132.353 182.06 131.893 182.06 131.38C182.06 130.88 182.15 130.427 182.33 130.02C182.517 129.607 182.797 129.28 183.17 129.04C183.55 128.793 184.03 128.67 184.61 128.67C184.97 128.67 185.29 128.73 185.57 128.85C185.857 128.97 186.093 129.147 186.28 129.38C186.467 129.607 186.597 129.893 186.67 130.24H185.8C185.7 129.947 185.54 129.74 185.32 129.62C185.107 129.493 184.853 129.43 184.56 129.43C184.16 129.43 183.84 129.523 183.6 129.71C183.36 129.897 183.183 130.14 183.07 130.44C182.963 130.733 182.91 131.047 182.91 131.38C182.91 131.727 182.967 132.047 183.08 132.34C183.193 132.633 183.37 132.87 183.61 133.05C183.85 133.223 184.16 133.31 184.54 133.31C184.82 133.31 185.083 133.25 185.33 133.13C185.583 133.01 185.75 132.797 185.83 132.49H186.71C186.643 132.85 186.5 133.147 186.28 133.38C186.067 133.613 185.803 133.787 185.49 133.9C185.183 134.007 184.857 134.06 184.51 134.06ZM189.017 134V129.48H187.207V128.73H191.677V129.48H189.867V134H189.017ZM192.436 134V128.73H193.286V132.77C193.332 132.677 193.396 132.577 193.476 132.47C193.556 132.357 193.619 132.27 193.666 132.21L196.216 128.73H197.056V134H196.206V129.96C196.152 130.06 196.092 130.153 196.026 130.24C195.966 130.327 195.909 130.407 195.856 130.48L193.266 134H192.436Z" fill="#656C74"></path><path d="M146.26 148V146.59H142.42V145.94L145.88 140.93H147.13V145.8H147.96V146.59H147.13V148H146.26ZM143.47 145.8H146.26V141.72L143.47 145.8ZM148.718 149.68L151.808 139.99H152.708L149.618 149.68H148.718ZM154.784 148V142.33H153.344V141.74C153.61 141.72 153.847 141.69 154.054 141.65C154.26 141.603 154.444 141.527 154.604 141.42C154.77 141.307 154.917 141.143 155.044 140.93H155.654V148H154.784ZM158.417 148V142.33H156.977V141.74C157.243 141.72 157.48 141.69 157.687 141.65C157.893 141.603 158.077 141.527 158.237 141.42C158.403 141.307 158.55 141.143 158.677 140.93H159.287V148H158.417Z" fill="#656C74"></path><g clip-path="url(#clip0_2297_3737)"><path d="M287.009 121C277.617 121 270 128.617 270 138.009C270 147.4 277.617 155.017 287.009 155.017C296.4 155.017 304.017 147.4 304.017 138.009C304 128.617 296.4 121 287.009 121ZM287.009 151.817C279.391 151.817 273.2 145.626 273.2 138.009C273.2 130.374 279.391 124.2 287.009 124.2C294.643 124.2 300.817 130.374 300.817 138.009C300.817 145.626 294.626 151.817 287.009 151.817Z" fill="#D5D9E1"></path><path d="M287.078 121V124.2C290.904 124.217 294.348 125.8 296.835 128.322L299.096 126.061C296.035 122.948 291.791 121.017 287.078 121Z" fill="#51B7CE"></path><path d="M304 138.009C304 133.348 302.122 129.139 299.096 126.061C296.035 122.948 291.791 121.017 287.078 121V124.2C290.904 124.217 294.348 125.8 296.835 128.322C299.287 130.809 300.8 134.235 300.8 138.009C300.8 141.748 299.304 145.157 296.887 147.643C294.4 150.2 290.922 151.8 287.078 151.817V155.017C291.809 155 296.087 153.035 299.148 149.904C302.156 146.826 304 142.635 304 138.009Z" fill="#51B7CE"></path><path d="M280.467 141V139.59H276.627V138.94L280.087 133.93H281.337V138.8H282.167V139.59H281.337V141H280.467ZM277.677 138.8H280.467V134.72L277.677 138.8ZM285.645 141.08C285.325 141.08 285.012 141.047 284.705 140.98C284.405 140.907 284.135 140.79 283.895 140.63C283.655 140.47 283.462 140.26 283.315 140C283.175 139.733 283.105 139.41 283.105 139.03C283.105 138.763 283.152 138.52 283.245 138.3C283.338 138.08 283.472 137.89 283.645 137.73C283.825 137.57 284.035 137.443 284.275 137.35C284.008 137.223 283.805 137.067 283.665 136.88C283.525 136.687 283.432 136.487 283.385 136.28C283.338 136.073 283.315 135.887 283.315 135.72C283.315 135.387 283.378 135.103 283.505 134.87C283.638 134.637 283.815 134.443 284.035 134.29C284.262 134.137 284.512 134.027 284.785 133.96C285.065 133.887 285.352 133.85 285.645 133.85C285.938 133.85 286.222 133.887 286.495 133.96C286.775 134.027 287.025 134.137 287.245 134.29C287.472 134.443 287.648 134.637 287.775 134.87C287.908 135.103 287.975 135.387 287.975 135.72C287.975 135.893 287.948 136.08 287.895 136.28C287.848 136.48 287.755 136.673 287.615 136.86C287.475 137.04 287.272 137.193 287.005 137.32C287.258 137.413 287.472 137.543 287.645 137.71C287.825 137.877 287.958 138.073 288.045 138.3C288.138 138.52 288.185 138.763 288.185 139.03C288.185 139.41 288.112 139.733 287.965 140C287.825 140.26 287.632 140.47 287.385 140.63C287.145 140.79 286.875 140.907 286.575 140.98C286.275 141.047 285.965 141.08 285.645 141.08ZM285.645 140.29C285.805 140.29 285.978 140.273 286.165 140.24C286.352 140.207 286.528 140.147 286.695 140.06C286.868 139.967 287.008 139.84 287.115 139.68C287.228 139.513 287.285 139.3 287.285 139.04C287.285 138.733 287.205 138.49 287.045 138.31C286.892 138.13 286.688 138 286.435 137.92C286.188 137.84 285.925 137.8 285.645 137.8C285.372 137.8 285.108 137.84 284.855 137.92C284.602 138 284.395 138.13 284.235 138.31C284.075 138.49 283.995 138.733 283.995 139.04C283.995 139.3 284.048 139.513 284.155 139.68C284.268 139.84 284.412 139.967 284.585 140.06C284.758 140.147 284.938 140.207 285.125 140.24C285.312 140.273 285.485 140.29 285.645 140.29ZM285.645 137.03C285.898 137.03 286.132 136.99 286.345 136.91C286.558 136.823 286.732 136.697 286.865 136.53C287.005 136.357 287.075 136.14 287.075 135.88C287.082 135.573 287.018 135.33 286.885 135.15C286.752 134.97 286.575 134.84 286.355 134.76C286.142 134.68 285.905 134.64 285.645 134.64C285.378 134.64 285.135 134.683 284.915 134.77C284.702 134.85 284.532 134.98 284.405 135.16C284.278 135.333 284.215 135.56 284.215 135.84C284.215 136.12 284.282 136.35 284.415 136.53C284.555 136.703 284.732 136.83 284.945 136.91C285.165 136.99 285.398 137.03 285.645 137.03ZM290.146 141L294.496 133.93H295.376L291.036 141H290.146ZM294.766 141.06C294.446 141.06 294.176 140.99 293.956 140.85C293.743 140.71 293.579 140.523 293.466 140.29C293.353 140.05 293.296 139.783 293.296 139.49C293.296 139.183 293.353 138.913 293.466 138.68C293.579 138.447 293.746 138.263 293.966 138.13C294.186 137.997 294.453 137.93 294.766 137.93C295.073 137.93 295.333 137.997 295.546 138.13C295.759 138.263 295.923 138.447 296.036 138.68C296.149 138.913 296.206 139.183 296.206 139.49C296.206 139.783 296.149 140.05 296.036 140.29C295.923 140.523 295.759 140.71 295.546 140.85C295.333 140.99 295.073 141.06 294.766 141.06ZM294.756 140.35C294.929 140.35 295.066 140.31 295.166 140.23C295.273 140.15 295.346 140.043 295.386 139.91C295.433 139.777 295.456 139.637 295.456 139.49C295.456 139.343 295.433 139.207 295.386 139.08C295.346 138.947 295.273 138.84 295.166 138.76C295.066 138.68 294.929 138.64 294.756 138.64C294.489 138.64 294.299 138.727 294.186 138.9C294.079 139.073 294.026 139.27 294.026 139.49C294.026 139.723 294.083 139.927 294.196 140.1C294.309 140.267 294.496 140.35 294.756 140.35ZM290.806 136.98C290.486 136.98 290.216 136.91 289.996 136.77C289.783 136.63 289.619 136.443 289.506 136.21C289.399 135.97 289.346 135.703 289.346 135.41C289.346 135.103 289.399 134.833 289.506 134.6C289.619 134.367 289.786 134.183 290.006 134.05C290.226 133.917 290.493 133.85 290.806 133.85C291.119 133.85 291.383 133.917 291.596 134.05C291.809 134.183 291.969 134.367 292.076 134.6C292.189 134.833 292.246 135.103 292.246 135.41C292.246 135.703 292.189 135.97 292.076 136.21C291.969 136.443 291.809 136.63 291.596 136.77C291.383 136.91 291.119 136.98 290.806 136.98ZM290.806 136.27C290.979 136.27 291.116 136.23 291.216 136.15C291.316 136.07 291.389 135.963 291.436 135.83C291.483 135.697 291.506 135.557 291.506 135.41C291.506 135.263 291.483 135.127 291.436 135C291.389 134.867 291.316 134.76 291.216 134.68C291.116 134.6 290.979 134.56 290.806 134.56C290.539 134.56 290.349 134.647 290.236 134.82C290.123 134.993 290.066 135.19 290.066 135.41C290.066 135.643 290.123 135.847 290.236 136.02C290.349 136.187 290.539 136.27 290.806 136.27Z" fill="#1D2529"></path></g><defs><radialGradient id="paint0_radial_2297_3737" cx="0" cy="0" r="1" gradientUnits="userSpaceOnUse" gradientTransform="translate(160) rotate(90) scale(111 320)"><stop stop-color="#004C54"></stop><stop offset="1" stop-color="#09747F"></stop></radialGradient><clipPath id="clip0_2297_3737"><rect width="34" height="34" fill="white" transform="translate(270 121)"></rect></clipPath></defs></svg>