<?xml version="1.0" encoding="UTF-8"?> <svg xmlns="http://www.w3.org/2000/svg" width="578" height="67" viewBox="0 0 578 67" fill="none"><rect width="578" height="67" fill="white"></rect><rect x="49" y="16.5" width="113" height="33" rx="5.5" fill="#F8FAFB"></rect><rect x="49" y="16.5" width="113" height="33" rx="5.5" stroke="#D5D9E1"></rect><circle cx="63.5" cy="33" r="3" fill="#3C84E0"></circle><path d="M77.349 37.104C76.4043 37.104 75.6157 36.9047 74.983 36.506C74.359 36.0987 73.891 35.544 73.579 34.842C73.2757 34.1313 73.124 33.321 73.124 32.411C73.124 31.5097 73.28 30.708 73.592 30.006C73.904 29.2953 74.372 28.7363 74.996 28.329C75.6287 27.913 76.4217 27.705 77.375 27.705C78.051 27.705 78.6317 27.8133 79.117 28.03C79.611 28.238 80.0097 28.5283 80.313 28.901C80.6163 29.2737 80.8243 29.7113 80.937 30.214H79.793C79.663 29.7633 79.3813 29.4037 78.948 29.135C78.5233 28.8663 77.986 28.732 77.336 28.732C76.608 28.732 76.0187 28.9053 75.568 29.252C75.126 29.59 74.801 30.0363 74.593 30.591C74.385 31.137 74.281 31.7307 74.281 32.372C74.281 33.048 74.3893 33.6677 74.606 34.231C74.8227 34.7943 75.1607 35.245 75.62 35.583C76.0793 35.9123 76.6643 36.077 77.375 36.077C77.8083 36.077 78.194 36.0163 78.532 35.895C78.8787 35.7737 79.1647 35.6003 79.39 35.375C79.624 35.1497 79.7843 34.8897 79.871 34.595H81.106C80.976 35.0977 80.742 35.5397 80.404 35.921C80.0747 36.2937 79.6543 36.584 79.143 36.792C78.6317 37 78.0337 37.104 77.349 37.104ZM84.7975 37.078C84.4855 37.078 84.1822 37.039 83.8875 36.961C83.6015 36.8743 83.3415 36.7487 83.1075 36.584C82.8822 36.4107 82.7002 36.1983 82.5615 35.947C82.4315 35.687 82.3665 35.388 82.3665 35.05C82.3665 34.66 82.4358 34.3307 82.5745 34.062C82.7218 33.7933 82.9168 33.581 83.1595 33.425C83.4022 33.269 83.6838 33.1563 84.0045 33.087C84.3252 33.0177 84.6588 32.983 85.0055 32.983H87.0205C87.0205 32.593 86.9642 32.255 86.8515 31.969C86.7475 31.683 86.5742 31.462 86.3315 31.306C86.0888 31.1413 85.7682 31.059 85.3695 31.059C85.1268 31.059 84.9015 31.085 84.6935 31.137C84.4855 31.189 84.3078 31.2713 84.1605 31.384C84.0132 31.4967 83.9048 31.6483 83.8355 31.839H82.6525C82.7132 31.527 82.8302 31.2627 83.0035 31.046C83.1855 30.8207 83.4022 30.6387 83.6535 30.5C83.9135 30.3527 84.1908 30.2443 84.4855 30.175C84.7802 30.1057 85.0748 30.071 85.3695 30.071C86.0282 30.071 86.5568 30.2053 86.9555 30.474C87.3542 30.734 87.6445 31.1067 87.8265 31.592C88.0085 32.0687 88.0995 32.6363 88.0995 33.295V37H87.1765L87.1115 36.129C86.9208 36.389 86.6912 36.5883 86.4225 36.727C86.1538 36.8657 85.8765 36.9567 85.5905 37C85.3132 37.052 85.0488 37.078 84.7975 37.078ZM84.9015 36.103C85.3348 36.103 85.7075 36.0337 86.0195 35.895C86.3402 35.7477 86.5872 35.5353 86.7605 35.258C86.9338 34.9807 87.0205 34.6427 87.0205 34.244V33.906H85.8115C85.5255 33.906 85.2438 33.9103 84.9665 33.919C84.6892 33.9277 84.4378 33.9623 84.2125 34.023C83.9872 34.0837 83.8052 34.1877 83.6665 34.335C83.5365 34.4823 83.4715 34.6947 83.4715 34.972C83.4715 35.232 83.5365 35.4443 83.6665 35.609C83.8052 35.7737 83.9828 35.8993 84.1995 35.986C84.4248 36.064 84.6588 36.103 84.9015 36.103ZM89.8114 37V30.149H91.2934L93.5164 33.581L95.7004 30.149H97.1564V37H96.0644V31.371L93.6464 35.245H93.3344L90.9034 31.371V37H89.8114ZM101.891 37.078C101.172 37.078 100.57 36.9307 100.084 36.636C99.5989 36.3327 99.2349 35.9167 98.9923 35.388C98.7583 34.8593 98.6413 34.257 98.6413 33.581C98.6413 32.8963 98.7583 32.294 98.9923 31.774C99.2349 31.2453 99.5989 30.8293 100.084 30.526C100.57 30.2227 101.181 30.071 101.917 30.071C102.637 30.071 103.235 30.2227 103.711 30.526C104.197 30.8293 104.556 31.2453 104.79 31.774C105.033 32.294 105.154 32.8963 105.154 33.581C105.154 34.257 105.033 34.8593 104.79 35.388C104.548 35.9167 104.184 36.3327 103.698 36.636C103.222 36.9307 102.619 37.078 101.891 37.078ZM101.891 36.103C102.394 36.103 102.801 35.9903 103.113 35.765C103.434 35.5397 103.668 35.2363 103.815 34.855C103.971 34.4737 104.049 34.049 104.049 33.581C104.049 33.113 103.971 32.6883 103.815 32.307C103.668 31.9257 103.434 31.6223 103.113 31.397C102.801 31.1717 102.394 31.059 101.891 31.059C101.397 31.059 100.99 31.1717 100.669 31.397C100.357 31.6223 100.123 31.9257 99.9673 32.307C99.8199 32.6883 99.7463 33.113 99.7463 33.581C99.7463 34.049 99.8199 34.4737 99.9673 34.855C100.123 35.2363 100.357 35.5397 100.669 35.765C100.99 35.9903 101.397 36.103 101.891 36.103ZM109.623 37.078C108.903 37.078 108.301 36.9307 107.816 36.636C107.33 36.3327 106.966 35.9167 106.724 35.388C106.49 34.8593 106.373 34.257 106.373 33.581C106.373 32.8963 106.49 32.294 106.724 31.774C106.966 31.2453 107.33 30.8293 107.816 30.526C108.301 30.2227 108.912 30.071 109.649 30.071C110.368 30.071 110.966 30.2227 111.443 30.526C111.928 30.8293 112.288 31.2453 112.522 31.774C112.764 32.294 112.886 32.8963 112.886 33.581C112.886 34.257 112.764 34.8593 112.522 35.388C112.279 35.9167 111.915 36.3327 111.43 36.636C110.953 36.9307 110.351 37.078 109.623 37.078ZM109.623 36.103C110.125 36.103 110.533 35.9903 110.845 35.765C111.165 35.5397 111.399 35.2363 111.547 34.855C111.703 34.4737 111.781 34.049 111.781 33.581C111.781 33.113 111.703 32.6883 111.547 32.307C111.399 31.9257 111.165 31.6223 110.845 31.397C110.533 31.1717 110.125 31.059 109.623 31.059C109.129 31.059 108.721 31.1717 108.401 31.397C108.089 31.6223 107.855 31.9257 107.699 32.307C107.551 32.6883 107.478 33.113 107.478 33.581C107.478 34.049 107.551 34.4737 107.699 34.855C107.855 35.2363 108.089 35.5397 108.401 35.765C108.721 35.9903 109.129 36.103 109.623 36.103ZM119.72 39.106V37H114.364V30.149H115.469V36.038H118.784V30.149H119.902V36.038H120.799V39.106H119.72ZM124.92 37.078C124.192 37.078 123.59 36.9307 123.113 36.636C122.636 36.3327 122.281 35.9167 122.047 35.388C121.813 34.8593 121.696 34.257 121.696 33.581C121.696 32.8963 121.817 32.294 122.06 31.774C122.311 31.2453 122.675 30.8293 123.152 30.526C123.629 30.2227 124.214 30.071 124.907 30.071C125.418 30.071 125.865 30.1707 126.246 30.37C126.636 30.5607 126.957 30.8207 127.208 31.15C127.468 31.4793 127.654 31.8477 127.767 32.255C127.888 32.6623 127.94 33.0827 127.923 33.516C127.914 33.594 127.91 33.672 127.91 33.75C127.91 33.828 127.906 33.906 127.897 33.984H122.814C122.849 34.3827 122.948 34.7423 123.113 35.063C123.278 35.3837 123.512 35.6393 123.815 35.83C124.118 36.012 124.495 36.103 124.946 36.103C125.171 36.103 125.397 36.077 125.622 36.025C125.856 35.9643 126.064 35.8647 126.246 35.726C126.437 35.5873 126.571 35.401 126.649 35.167H127.78C127.676 35.609 127.481 35.973 127.195 36.259C126.909 36.5363 126.567 36.7443 126.168 36.883C125.769 37.013 125.353 37.078 124.92 37.078ZM122.84 33.022H126.805C126.796 32.632 126.71 32.2897 126.545 31.995C126.38 31.7003 126.155 31.4707 125.869 31.306C125.592 31.1413 125.258 31.059 124.868 31.059C124.443 31.059 124.084 31.15 123.789 31.332C123.503 31.514 123.282 31.7523 123.126 32.047C122.97 32.3417 122.875 32.6667 122.84 33.022ZM129.408 37V30.149H130.513V33.152H133.945V30.149H135.05V37H133.945V34.127H130.513V37H129.408ZM136.797 37V30.149H137.902V33.1H139.098L141.126 30.149H142.387L140.099 33.412L142.582 37H141.282L139.228 34.062H137.902V37H136.797ZM145.608 37.078C145.296 37.078 144.993 37.039 144.698 36.961C144.412 36.8743 144.152 36.7487 143.918 36.584C143.693 36.4107 143.511 36.1983 143.372 35.947C143.242 35.687 143.177 35.388 143.177 35.05C143.177 34.66 143.246 34.3307 143.385 34.062C143.532 33.7933 143.727 33.581 143.97 33.425C144.213 33.269 144.494 33.1563 144.815 33.087C145.136 33.0177 145.469 32.983 145.816 32.983H147.831C147.831 32.593 147.775 32.255 147.662 31.969C147.558 31.683 147.385 31.462 147.142 31.306C146.899 31.1413 146.579 31.059 146.18 31.059C145.937 31.059 145.712 31.085 145.504 31.137C145.296 31.189 145.118 31.2713 144.971 31.384C144.824 31.4967 144.715 31.6483 144.646 31.839H143.463C143.524 31.527 143.641 31.2627 143.814 31.046C143.996 30.8207 144.213 30.6387 144.464 30.5C144.724 30.3527 145.001 30.2443 145.296 30.175C145.591 30.1057 145.885 30.071 146.18 30.071C146.839 30.071 147.367 30.2053 147.766 30.474C148.165 30.734 148.455 31.1067 148.637 31.592C148.819 32.0687 148.91 32.6363 148.91 33.295V37H147.987L147.922 36.129C147.731 36.389 147.502 36.5883 147.233 36.727C146.964 36.8657 146.687 36.9567 146.401 37C146.124 37.052 145.859 37.078 145.608 37.078ZM145.712 36.103C146.145 36.103 146.518 36.0337 146.83 35.895C147.151 35.7477 147.398 35.5353 147.571 35.258C147.744 34.9807 147.831 34.6427 147.831 34.244V33.906H146.622C146.336 33.906 146.054 33.9103 145.777 33.919C145.5 33.9277 145.248 33.9623 145.023 34.023C144.798 34.0837 144.616 34.1877 144.477 34.335C144.347 34.4823 144.282 34.6947 144.282 34.972C144.282 35.232 144.347 35.4443 144.477 35.609C144.616 35.7737 144.793 35.8993 145.01 35.986C145.235 36.064 145.469 36.103 145.712 36.103Z" fill="#1D2529"></path><rect x="169" y="16.5" width="116" height="33" rx="5.5" fill="#F8FAFB"></rect><rect x="169" y="16.5" width="116" height="33" rx="5.5" stroke="#D5D9E1"></rect><circle cx="183.5" cy="33" r="3" fill="#EE8C36"></circle><path d="M193.631 37V27.809H196.816C197.492 27.809 198.073 27.9217 198.558 28.147C199.043 28.3637 199.412 28.6973 199.663 29.148C199.923 29.5987 200.053 30.1707 200.053 30.864C200.053 31.54 199.901 32.112 199.598 32.58C199.303 33.0393 198.896 33.386 198.376 33.62C197.856 33.854 197.258 33.971 196.582 33.971H194.762V37H193.631ZM194.762 32.944H196.53C197.232 32.944 197.8 32.7793 198.233 32.45C198.675 32.112 198.896 31.566 198.896 30.812C198.896 30.1533 198.718 29.6593 198.363 29.33C198.008 29.0007 197.475 28.836 196.764 28.836H194.762V32.944ZM201.717 39.938V38.885C202.142 38.885 202.48 38.8243 202.731 38.703C202.982 38.5903 203.19 38.4083 203.355 38.157C203.528 37.9143 203.693 37.6023 203.849 37.221L200.846 30.149H202.146L204.46 35.921L206.358 30.149H207.606L205.682 35.544C205.587 35.8213 205.478 36.1333 205.357 36.48C205.236 36.8267 205.101 37.1777 204.954 37.533C204.807 37.897 204.642 38.2307 204.46 38.534C204.287 38.846 204.092 39.0973 203.875 39.288C203.693 39.4527 203.515 39.5827 203.342 39.678C203.169 39.7733 202.956 39.8383 202.705 39.873C202.462 39.9163 202.133 39.938 201.717 39.938ZM208.631 37V30.149H209.736V33.1H210.932L212.96 30.149H214.221L211.933 33.412L214.416 37H213.116L211.062 34.062H209.736V37H208.631ZM218.235 37.078C217.516 37.078 216.913 36.9307 216.428 36.636C215.943 36.3327 215.579 35.9167 215.336 35.388C215.102 34.8593 214.985 34.257 214.985 33.581C214.985 32.8963 215.102 32.294 215.336 31.774C215.579 31.2453 215.943 30.8293 216.428 30.526C216.913 30.2227 217.524 30.071 218.261 30.071C218.98 30.071 219.578 30.2227 220.055 30.526C220.54 30.8293 220.9 31.2453 221.134 31.774C221.377 32.294 221.498 32.8963 221.498 33.581C221.498 34.257 221.377 34.8593 221.134 35.388C220.891 35.9167 220.527 36.3327 220.042 36.636C219.565 36.9307 218.963 37.078 218.235 37.078ZM218.235 36.103C218.738 36.103 219.145 35.9903 219.457 35.765C219.778 35.5397 220.012 35.2363 220.159 34.855C220.315 34.4737 220.393 34.049 220.393 33.581C220.393 33.113 220.315 32.6883 220.159 32.307C220.012 31.9257 219.778 31.6223 219.457 31.397C219.145 31.1717 218.738 31.059 218.235 31.059C217.741 31.059 217.334 31.1717 217.013 31.397C216.701 31.6223 216.467 31.9257 216.311 32.307C216.164 32.6883 216.09 33.113 216.09 33.581C216.09 34.049 216.164 34.4737 216.311 34.855C216.467 35.2363 216.701 35.5397 217.013 35.765C217.334 35.9903 217.741 36.103 218.235 36.103ZM222.976 37V30.149H225.628C225.932 30.149 226.231 30.1707 226.525 30.214C226.829 30.2487 227.102 30.3267 227.344 30.448C227.596 30.5607 227.795 30.7297 227.942 30.955C228.098 31.1803 228.176 31.4793 228.176 31.852C228.176 32.0773 228.142 32.2853 228.072 32.476C228.003 32.658 227.899 32.8183 227.76 32.957C227.63 33.0957 227.461 33.217 227.253 33.321C227.721 33.425 228.059 33.6287 228.267 33.932C228.475 34.2353 228.579 34.582 228.579 34.972C228.579 35.3187 228.514 35.622 228.384 35.882C228.263 36.1333 228.09 36.3413 227.864 36.506C227.648 36.6707 227.392 36.7963 227.097 36.883C226.811 36.961 226.504 37 226.174 37H222.976ZM224.107 36.038H225.914C226.183 36.038 226.434 36.012 226.668 35.96C226.902 35.908 227.093 35.8127 227.24 35.674C227.388 35.5267 227.461 35.3187 227.461 35.05C227.461 34.7727 227.396 34.5647 227.266 34.426C227.145 34.2787 226.985 34.179 226.785 34.127C226.595 34.0663 226.387 34.0317 226.161 34.023C225.936 34.0143 225.724 34.01 225.524 34.01H224.107V36.038ZM224.107 33.074H225.056C225.23 33.074 225.429 33.0653 225.654 33.048C225.888 33.0307 226.114 32.9917 226.33 32.931C226.556 32.8617 226.738 32.7577 226.876 32.619C227.024 32.4803 227.097 32.2897 227.097 32.047C227.097 31.7263 227.006 31.5053 226.824 31.384C226.651 31.254 226.443 31.1803 226.2 31.163C225.958 31.137 225.732 31.124 225.524 31.124H224.107V33.074ZM233.076 37.078C232.357 37.078 231.754 36.9307 231.269 36.636C230.784 36.3327 230.42 35.9167 230.177 35.388C229.943 34.8593 229.826 34.257 229.826 33.581C229.826 32.8963 229.943 32.294 230.177 31.774C230.42 31.2453 230.784 30.8293 231.269 30.526C231.754 30.2227 232.365 30.071 233.102 30.071C233.821 30.071 234.419 30.2227 234.896 30.526C235.381 30.8293 235.741 31.2453 235.975 31.774C236.218 32.294 236.339 32.8963 236.339 33.581C236.339 34.257 236.218 34.8593 235.975 35.388C235.732 35.9167 235.368 36.3327 234.883 36.636C234.406 36.9307 233.804 37.078 233.076 37.078ZM233.076 36.103C233.579 36.103 233.986 35.9903 234.298 35.765C234.619 35.5397 234.853 35.2363 235 34.855C235.156 34.4737 235.234 34.049 235.234 33.581C235.234 33.113 235.156 32.6883 235 32.307C234.853 31.9257 234.619 31.6223 234.298 31.397C233.986 31.1717 233.579 31.059 233.076 31.059C232.582 31.059 232.175 31.1717 231.854 31.397C231.542 31.6223 231.308 31.9257 231.152 32.307C231.005 32.6883 230.931 33.113 230.931 33.581C230.931 34.049 231.005 34.4737 231.152 34.855C231.308 35.2363 231.542 35.5397 231.854 35.765C232.175 35.9903 232.582 36.103 233.076 36.103ZM237.08 39.106V36.038C237.331 36.038 237.531 35.9687 237.678 35.83C237.834 35.6913 237.955 35.5093 238.042 35.284C238.129 35.0587 238.194 34.816 238.237 34.556C238.28 34.2873 238.315 34.0317 238.341 33.789C238.384 33.3903 238.41 32.996 238.419 32.606C238.436 32.2073 238.445 31.891 238.445 31.657C238.454 31.4057 238.458 31.1543 238.458 30.903C238.458 30.6517 238.458 30.4003 238.458 30.149H243.32V36.038H244.217V39.106H243.151V37H238.146V39.106H237.08ZM238.835 36.038H242.215V31.124H239.511C239.502 31.488 239.494 31.8953 239.485 32.346C239.476 32.7967 239.459 33.217 239.433 33.607C239.424 33.8323 239.403 34.088 239.368 34.374C239.342 34.66 239.29 34.9503 239.212 35.245C239.134 35.531 239.008 35.7953 238.835 36.038ZM248.296 37.078C247.577 37.078 246.979 36.9307 246.502 36.636C246.034 36.3327 245.683 35.9167 245.449 35.388C245.224 34.8593 245.111 34.2613 245.111 33.594C245.111 32.944 245.228 32.3547 245.462 31.826C245.705 31.2887 246.069 30.864 246.554 30.552C247.048 30.2313 247.672 30.071 248.426 30.071C248.894 30.071 249.31 30.149 249.674 30.305C250.047 30.461 250.354 30.6907 250.597 30.994C250.84 31.2887 251.009 31.6613 251.104 32.112H249.973C249.843 31.7307 249.635 31.462 249.349 31.306C249.072 31.1413 248.742 31.059 248.361 31.059C247.841 31.059 247.425 31.1803 247.113 31.423C246.801 31.6657 246.571 31.982 246.424 32.372C246.285 32.7533 246.216 33.1607 246.216 33.594C246.216 34.0447 246.29 34.4607 246.437 34.842C246.584 35.2233 246.814 35.531 247.126 35.765C247.438 35.9903 247.841 36.103 248.335 36.103C248.699 36.103 249.041 36.025 249.362 35.869C249.691 35.713 249.908 35.4357 250.012 35.037H251.156C251.069 35.505 250.883 35.8907 250.597 36.194C250.32 36.4973 249.977 36.7227 249.57 36.87C249.171 37.0087 248.747 37.078 248.296 37.078ZM254.156 37V31.124H251.803V30.149H257.614V31.124H255.261V37H254.156ZM258.6 37V30.149H261.252C261.555 30.149 261.854 30.1707 262.149 30.214C262.452 30.2487 262.725 30.3267 262.968 30.448C263.219 30.5607 263.418 30.7297 263.566 30.955C263.722 31.1803 263.8 31.4793 263.8 31.852C263.8 32.0773 263.765 32.2853 263.696 32.476C263.626 32.658 263.522 32.8183 263.384 32.957C263.254 33.0957 263.085 33.217 262.877 33.321C263.345 33.425 263.683 33.6287 263.891 33.932C264.099 34.2353 264.203 34.582 264.203 34.972C264.203 35.3187 264.138 35.622 264.008 35.882C263.886 36.1333 263.713 36.3413 263.488 36.506C263.271 36.6707 263.015 36.7963 262.721 36.883C262.435 36.961 262.127 37 261.798 37H258.6ZM259.731 36.038H261.538C261.806 36.038 262.058 36.012 262.292 35.96C262.526 35.908 262.716 35.8127 262.864 35.674C263.011 35.5267 263.085 35.3187 263.085 35.05C263.085 34.7727 263.02 34.5647 262.89 34.426C262.768 34.2787 262.608 34.179 262.409 34.127C262.218 34.0663 262.01 34.0317 261.785 34.023C261.559 34.0143 261.347 34.01 261.148 34.01H259.731V36.038ZM259.731 33.074H260.68C260.853 33.074 261.052 33.0653 261.278 33.048C261.512 33.0307 261.737 32.9917 261.954 32.931C262.179 32.8617 262.361 32.7577 262.5 32.619C262.647 32.4803 262.721 32.2897 262.721 32.047C262.721 31.7263 262.63 31.5053 262.448 31.384C262.274 31.254 262.066 31.1803 261.824 31.163C261.581 31.137 261.356 31.124 261.148 31.124H259.731V33.074ZM268.699 37.078C267.98 37.078 267.377 36.9307 266.892 36.636C266.407 36.3327 266.043 35.9167 265.8 35.388C265.566 34.8593 265.449 34.257 265.449 33.581C265.449 32.8963 265.566 32.294 265.8 31.774C266.043 31.2453 266.407 30.8293 266.892 30.526C267.377 30.2227 267.988 30.071 268.725 30.071C269.444 30.071 270.042 30.2227 270.519 30.526C271.004 30.8293 271.364 31.2453 271.598 31.774C271.841 32.294 271.962 32.8963 271.962 33.581C271.962 34.257 271.841 34.8593 271.598 35.388C271.355 35.9167 270.991 36.3327 270.506 36.636C270.029 36.9307 269.427 37.078 268.699 37.078ZM268.699 36.103C269.202 36.103 269.609 35.9903 269.921 35.765C270.242 35.5397 270.476 35.2363 270.623 34.855C270.779 34.4737 270.857 34.049 270.857 33.581C270.857 33.113 270.779 32.6883 270.623 32.307C270.476 31.9257 270.242 31.6223 269.921 31.397C269.609 31.1717 269.202 31.059 268.699 31.059C268.205 31.059 267.798 31.1717 267.477 31.397C267.165 31.6223 266.931 31.9257 266.775 32.307C266.628 32.6883 266.554 33.113 266.554 33.581C266.554 34.049 266.628 34.4737 266.775 34.855C266.931 35.2363 267.165 35.5397 267.477 35.765C267.798 35.9903 268.205 36.103 268.699 36.103Z" fill="#1D2529"></path><rect x="292" y="16.5" width="116" height="33" rx="5.5" fill="#F8FAFB"></rect><rect x="292" y="16.5" width="116" height="33" rx="5.5" stroke="#D5D9E1"></rect><circle cx="306.5" cy="33" r="3" fill="#80B43B"></circle><path d="M316.631 37V27.809H319.816C320.492 27.809 321.073 27.9217 321.558 28.147C322.043 28.3637 322.412 28.6973 322.663 29.148C322.923 29.5987 323.053 30.1707 323.053 30.864C323.053 31.54 322.901 32.112 322.598 32.58C322.303 33.0393 321.896 33.386 321.376 33.62C320.856 33.854 320.258 33.971 319.582 33.971H317.762V37H316.631ZM317.762 32.944H319.53C320.232 32.944 320.8 32.7793 321.233 32.45C321.675 32.112 321.896 31.566 321.896 30.812C321.896 30.1533 321.718 29.6593 321.363 29.33C321.008 29.0007 320.475 28.836 319.764 28.836H317.762V32.944ZM324.717 39.938V38.885C325.142 38.885 325.48 38.8243 325.731 38.703C325.982 38.5903 326.19 38.4083 326.355 38.157C326.528 37.9143 326.693 37.6023 326.849 37.221L323.846 30.149H325.146L327.46 35.921L329.358 30.149H330.606L328.682 35.544C328.587 35.8213 328.478 36.1333 328.357 36.48C328.236 36.8267 328.101 37.1777 327.954 37.533C327.807 37.897 327.642 38.2307 327.46 38.534C327.287 38.846 327.092 39.0973 326.875 39.288C326.693 39.4527 326.515 39.5827 326.342 39.678C326.169 39.7733 325.956 39.8383 325.705 39.873C325.462 39.9163 325.133 39.938 324.717 39.938ZM331.631 37V30.149H332.736V33.1H333.932L335.96 30.149H337.221L334.933 33.412L337.416 37H336.116L334.062 34.062H332.736V37H331.631ZM341.235 37.078C340.516 37.078 339.913 36.9307 339.428 36.636C338.943 36.3327 338.579 35.9167 338.336 35.388C338.102 34.8593 337.985 34.257 337.985 33.581C337.985 32.8963 338.102 32.294 338.336 31.774C338.579 31.2453 338.943 30.8293 339.428 30.526C339.913 30.2227 340.524 30.071 341.261 30.071C341.98 30.071 342.578 30.2227 343.055 30.526C343.54 30.8293 343.9 31.2453 344.134 31.774C344.377 32.294 344.498 32.8963 344.498 33.581C344.498 34.257 344.377 34.8593 344.134 35.388C343.891 35.9167 343.527 36.3327 343.042 36.636C342.565 36.9307 341.963 37.078 341.235 37.078ZM341.235 36.103C341.738 36.103 342.145 35.9903 342.457 35.765C342.778 35.5397 343.012 35.2363 343.159 34.855C343.315 34.4737 343.393 34.049 343.393 33.581C343.393 33.113 343.315 32.6883 343.159 32.307C343.012 31.9257 342.778 31.6223 342.457 31.397C342.145 31.1717 341.738 31.059 341.235 31.059C340.741 31.059 340.334 31.1717 340.013 31.397C339.701 31.6223 339.467 31.9257 339.311 32.307C339.164 32.6883 339.09 33.113 339.09 33.581C339.09 34.049 339.164 34.4737 339.311 34.855C339.467 35.2363 339.701 35.5397 340.013 35.765C340.334 35.9903 340.741 36.103 341.235 36.103ZM345.976 37V30.149H348.628C348.932 30.149 349.231 30.1707 349.525 30.214C349.829 30.2487 350.102 30.3267 350.344 30.448C350.596 30.5607 350.795 30.7297 350.942 30.955C351.098 31.1803 351.176 31.4793 351.176 31.852C351.176 32.0773 351.142 32.2853 351.072 32.476C351.003 32.658 350.899 32.8183 350.76 32.957C350.63 33.0957 350.461 33.217 350.253 33.321C350.721 33.425 351.059 33.6287 351.267 33.932C351.475 34.2353 351.579 34.582 351.579 34.972C351.579 35.3187 351.514 35.622 351.384 35.882C351.263 36.1333 351.09 36.3413 350.864 36.506C350.648 36.6707 350.392 36.7963 350.097 36.883C349.811 36.961 349.504 37 349.174 37H345.976ZM347.107 36.038H348.914C349.183 36.038 349.434 36.012 349.668 35.96C349.902 35.908 350.093 35.8127 350.24 35.674C350.388 35.5267 350.461 35.3187 350.461 35.05C350.461 34.7727 350.396 34.5647 350.266 34.426C350.145 34.2787 349.985 34.179 349.785 34.127C349.595 34.0663 349.387 34.0317 349.161 34.023C348.936 34.0143 348.724 34.01 348.524 34.01H347.107V36.038ZM347.107 33.074H348.056C348.23 33.074 348.429 33.0653 348.654 33.048C348.888 33.0307 349.114 32.9917 349.33 32.931C349.556 32.8617 349.738 32.7577 349.876 32.619C350.024 32.4803 350.097 32.2897 350.097 32.047C350.097 31.7263 350.006 31.5053 349.824 31.384C349.651 31.254 349.443 31.1803 349.2 31.163C348.958 31.137 348.732 31.124 348.524 31.124H347.107V33.074ZM356.076 37.078C355.357 37.078 354.754 36.9307 354.269 36.636C353.784 36.3327 353.42 35.9167 353.177 35.388C352.943 34.8593 352.826 34.257 352.826 33.581C352.826 32.8963 352.943 32.294 353.177 31.774C353.42 31.2453 353.784 30.8293 354.269 30.526C354.754 30.2227 355.365 30.071 356.102 30.071C356.821 30.071 357.419 30.2227 357.896 30.526C358.381 30.8293 358.741 31.2453 358.975 31.774C359.218 32.294 359.339 32.8963 359.339 33.581C359.339 34.257 359.218 34.8593 358.975 35.388C358.732 35.9167 358.368 36.3327 357.883 36.636C357.406 36.9307 356.804 37.078 356.076 37.078ZM356.076 36.103C356.579 36.103 356.986 35.9903 357.298 35.765C357.619 35.5397 357.853 35.2363 358 34.855C358.156 34.4737 358.234 34.049 358.234 33.581C358.234 33.113 358.156 32.6883 358 32.307C357.853 31.9257 357.619 31.6223 357.298 31.397C356.986 31.1717 356.579 31.059 356.076 31.059C355.582 31.059 355.175 31.1717 354.854 31.397C354.542 31.6223 354.308 31.9257 354.152 32.307C354.005 32.6883 353.931 33.113 353.931 33.581C353.931 34.049 354.005 34.4737 354.152 34.855C354.308 35.2363 354.542 35.5397 354.854 35.765C355.175 35.9903 355.582 36.103 356.076 36.103ZM360.08 39.106V36.038C360.331 36.038 360.531 35.9687 360.678 35.83C360.834 35.6913 360.955 35.5093 361.042 35.284C361.129 35.0587 361.194 34.816 361.237 34.556C361.28 34.2873 361.315 34.0317 361.341 33.789C361.384 33.3903 361.41 32.996 361.419 32.606C361.436 32.2073 361.445 31.891 361.445 31.657C361.454 31.4057 361.458 31.1543 361.458 30.903C361.458 30.6517 361.458 30.4003 361.458 30.149H366.32V36.038H367.217V39.106H366.151V37H361.146V39.106H360.08ZM361.835 36.038H365.215V31.124H362.511C362.502 31.488 362.494 31.8953 362.485 32.346C362.476 32.7967 362.459 33.217 362.433 33.607C362.424 33.8323 362.403 34.088 362.368 34.374C362.342 34.66 362.29 34.9503 362.212 35.245C362.134 35.531 362.008 35.7953 361.835 36.038ZM371.296 37.078C370.577 37.078 369.979 36.9307 369.502 36.636C369.034 36.3327 368.683 35.9167 368.449 35.388C368.224 34.8593 368.111 34.2613 368.111 33.594C368.111 32.944 368.228 32.3547 368.462 31.826C368.705 31.2887 369.069 30.864 369.554 30.552C370.048 30.2313 370.672 30.071 371.426 30.071C371.894 30.071 372.31 30.149 372.674 30.305C373.047 30.461 373.354 30.6907 373.597 30.994C373.84 31.2887 374.009 31.6613 374.104 32.112H372.973C372.843 31.7307 372.635 31.462 372.349 31.306C372.072 31.1413 371.742 31.059 371.361 31.059C370.841 31.059 370.425 31.1803 370.113 31.423C369.801 31.6657 369.571 31.982 369.424 32.372C369.285 32.7533 369.216 33.1607 369.216 33.594C369.216 34.0447 369.29 34.4607 369.437 34.842C369.584 35.2233 369.814 35.531 370.126 35.765C370.438 35.9903 370.841 36.103 371.335 36.103C371.699 36.103 372.041 36.025 372.362 35.869C372.691 35.713 372.908 35.4357 373.012 35.037H374.156C374.069 35.505 373.883 35.8907 373.597 36.194C373.32 36.4973 372.977 36.7227 372.57 36.87C372.171 37.0087 371.747 37.078 371.296 37.078ZM377.156 37V31.124H374.803V30.149H380.614V31.124H378.261V37H377.156ZM381.6 37V30.149H384.252C384.555 30.149 384.854 30.1707 385.149 30.214C385.452 30.2487 385.725 30.3267 385.968 30.448C386.219 30.5607 386.418 30.7297 386.566 30.955C386.722 31.1803 386.8 31.4793 386.8 31.852C386.8 32.0773 386.765 32.2853 386.696 32.476C386.626 32.658 386.522 32.8183 386.384 32.957C386.254 33.0957 386.085 33.217 385.877 33.321C386.345 33.425 386.683 33.6287 386.891 33.932C387.099 34.2353 387.203 34.582 387.203 34.972C387.203 35.3187 387.138 35.622 387.008 35.882C386.886 36.1333 386.713 36.3413 386.488 36.506C386.271 36.6707 386.015 36.7963 385.721 36.883C385.435 36.961 385.127 37 384.798 37H381.6ZM382.731 36.038H384.538C384.806 36.038 385.058 36.012 385.292 35.96C385.526 35.908 385.716 35.8127 385.864 35.674C386.011 35.5267 386.085 35.3187 386.085 35.05C386.085 34.7727 386.02 34.5647 385.89 34.426C385.768 34.2787 385.608 34.179 385.409 34.127C385.218 34.0663 385.01 34.0317 384.785 34.023C384.559 34.0143 384.347 34.01 384.148 34.01H382.731V36.038ZM382.731 33.074H383.68C383.853 33.074 384.052 33.0653 384.278 33.048C384.512 33.0307 384.737 32.9917 384.954 32.931C385.179 32.8617 385.361 32.7577 385.5 32.619C385.647 32.4803 385.721 32.2897 385.721 32.047C385.721 31.7263 385.63 31.5053 385.448 31.384C385.274 31.254 385.066 31.1803 384.824 31.163C384.581 31.137 384.356 31.124 384.148 31.124H382.731V33.074ZM391.699 37.078C390.98 37.078 390.377 36.9307 389.892 36.636C389.407 36.3327 389.043 35.9167 388.8 35.388C388.566 34.8593 388.449 34.257 388.449 33.581C388.449 32.8963 388.566 32.294 388.8 31.774C389.043 31.2453 389.407 30.8293 389.892 30.526C390.377 30.2227 390.988 30.071 391.725 30.071C392.444 30.071 393.042 30.2227 393.519 30.526C394.004 30.8293 394.364 31.2453 394.598 31.774C394.841 32.294 394.962 32.8963 394.962 33.581C394.962 34.257 394.841 34.8593 394.598 35.388C394.355 35.9167 393.991 36.3327 393.506 36.636C393.029 36.9307 392.427 37.078 391.699 37.078ZM391.699 36.103C392.202 36.103 392.609 35.9903 392.921 35.765C393.242 35.5397 393.476 35.2363 393.623 34.855C393.779 34.4737 393.857 34.049 393.857 33.581C393.857 33.113 393.779 32.6883 393.623 32.307C393.476 31.9257 393.242 31.6223 392.921 31.397C392.609 31.1717 392.202 31.059 391.699 31.059C391.205 31.059 390.798 31.1717 390.477 31.397C390.165 31.6223 389.931 31.9257 389.775 32.307C389.628 32.6883 389.554 33.113 389.554 33.581C389.554 34.049 389.628 34.4737 389.775 34.855C389.931 35.2363 390.165 35.5397 390.477 35.765C390.798 35.9903 391.205 36.103 391.699 36.103Z" fill="#1D2529"></path><rect x="415" y="16.5" width="112" height="33" rx="5.5" fill="#F8FAFB"></rect><rect x="415" y="16.5" width="112" height="33" rx="5.5" stroke="#D5D9E1"></rect><circle cx="429.5" cy="33" r="3" fill="#AC3795"></circle><path d="M439.631 37V27.809H446.859V37H445.728V28.836H440.762V37H439.631ZM451.857 37.078C451.138 37.078 450.535 36.9307 450.05 36.636C449.565 36.3327 449.201 35.9167 448.958 35.388C448.724 34.8593 448.607 34.257 448.607 33.581C448.607 32.8963 448.724 32.294 448.958 31.774C449.201 31.2453 449.565 30.8293 450.05 30.526C450.535 30.2227 451.146 30.071 451.883 30.071C452.602 30.071 453.2 30.2227 453.677 30.526C454.162 30.8293 454.522 31.2453 454.756 31.774C454.999 32.294 455.12 32.8963 455.12 33.581C455.12 34.257 454.999 34.8593 454.756 35.388C454.513 35.9167 454.149 36.3327 453.664 36.636C453.187 36.9307 452.585 37.078 451.857 37.078ZM451.857 36.103C452.36 36.103 452.767 35.9903 453.079 35.765C453.4 35.5397 453.634 35.2363 453.781 34.855C453.937 34.4737 454.015 34.049 454.015 33.581C454.015 33.113 453.937 32.6883 453.781 32.307C453.634 31.9257 453.4 31.6223 453.079 31.397C452.767 31.1717 452.36 31.059 451.857 31.059C451.363 31.059 450.956 31.1717 450.635 31.397C450.323 31.6223 450.089 31.9257 449.933 32.307C449.786 32.6883 449.712 33.113 449.712 33.581C449.712 34.049 449.786 34.4737 449.933 34.855C450.089 35.2363 450.323 35.5397 450.635 35.765C450.956 35.9903 451.363 36.103 451.857 36.103ZM455.861 39.106V36.038C456.113 36.038 456.312 35.9687 456.459 35.83C456.615 35.6913 456.737 35.5093 456.823 35.284C456.91 35.0587 456.975 34.816 457.018 34.556C457.062 34.2873 457.096 34.0317 457.122 33.789C457.166 33.3903 457.192 32.996 457.2 32.606C457.218 32.2073 457.226 31.891 457.226 31.657C457.235 31.4057 457.239 31.1543 457.239 30.903C457.239 30.6517 457.239 30.4003 457.239 30.149H462.101V36.038H462.998V39.106H461.932V37H456.927V39.106H455.861ZM457.616 36.038H460.996V31.124H458.292C458.284 31.488 458.275 31.8953 458.266 32.346C458.258 32.7967 458.24 33.217 458.214 33.607C458.206 33.8323 458.184 34.088 458.149 34.374C458.123 34.66 458.071 34.9503 457.993 35.245C457.915 35.531 457.79 35.7953 457.616 36.038ZM468.182 37V34.361C467.853 34.4217 467.532 34.465 467.22 34.491C466.917 34.5083 466.644 34.517 466.401 34.517C465.76 34.517 465.253 34.4173 464.88 34.218C464.508 34.0187 464.243 33.7153 464.087 33.308C463.931 32.892 463.853 32.3763 463.853 31.761V30.149H464.958V31.683C464.958 32.0817 464.997 32.4197 465.075 32.697C465.153 32.9743 465.305 33.1867 465.53 33.334C465.756 33.4727 466.094 33.542 466.544 33.542C466.804 33.542 467.077 33.529 467.363 33.503C467.658 33.477 467.931 33.438 468.182 33.386V30.149H469.287V37H468.182ZM471.033 37V30.149H472.138V35.401C472.199 35.2797 472.281 35.1497 472.385 35.011C472.489 34.8637 472.571 34.751 472.632 34.673L475.947 30.149H477.039V37H475.934V31.748C475.865 31.878 475.787 31.9993 475.7 32.112C475.622 32.2247 475.548 32.3287 475.479 32.424L472.112 37H471.033ZM478.777 37V30.149H479.882V33.152H483.314V30.149H484.419V37H483.314V34.127H479.882V37H478.777ZM489.13 37.078C488.402 37.078 487.8 36.9307 487.323 36.636C486.846 36.3327 486.491 35.9167 486.257 35.388C486.023 34.8593 485.906 34.257 485.906 33.581C485.906 32.8963 486.027 32.294 486.27 31.774C486.521 31.2453 486.885 30.8293 487.362 30.526C487.839 30.2227 488.424 30.071 489.117 30.071C489.628 30.071 490.075 30.1707 490.456 30.37C490.846 30.5607 491.167 30.8207 491.418 31.15C491.678 31.4793 491.864 31.8477 491.977 32.255C492.098 32.6623 492.15 33.0827 492.133 33.516C492.124 33.594 492.12 33.672 492.12 33.75C492.12 33.828 492.116 33.906 492.107 33.984H487.024C487.059 34.3827 487.158 34.7423 487.323 35.063C487.488 35.3837 487.722 35.6393 488.025 35.83C488.328 36.012 488.705 36.103 489.156 36.103C489.381 36.103 489.607 36.077 489.832 36.025C490.066 35.9643 490.274 35.8647 490.456 35.726C490.647 35.5873 490.781 35.401 490.859 35.167H491.99C491.886 35.609 491.691 35.973 491.405 36.259C491.119 36.5363 490.777 36.7443 490.378 36.883C489.979 37.013 489.563 37.078 489.13 37.078ZM487.05 33.022H491.015C491.006 32.632 490.92 32.2897 490.755 31.995C490.59 31.7003 490.365 31.4707 490.079 31.306C489.802 31.1413 489.468 31.059 489.078 31.059C488.653 31.059 488.294 31.15 487.999 31.332C487.713 31.514 487.492 31.7523 487.336 32.047C487.18 32.3417 487.085 32.6667 487.05 33.022ZM493.618 37V30.149H494.723V33.152H498.155V30.149H499.26V37H498.155V34.127H494.723V37H493.618ZM501.007 37V30.149H502.112V35.401C502.172 35.2797 502.255 35.1497 502.359 35.011C502.463 34.8637 502.545 34.751 502.606 34.673L505.921 30.149H507.013V37H505.908V31.748C505.838 31.878 505.76 31.9993 505.674 32.112C505.596 32.2247 505.522 32.3287 505.453 32.424L502.086 37H501.007ZM511.715 37.078C510.987 37.078 510.385 36.9307 509.908 36.636C509.431 36.3327 509.076 35.9167 508.842 35.388C508.608 34.8593 508.491 34.257 508.491 33.581C508.491 32.8963 508.612 32.294 508.855 31.774C509.106 31.2453 509.47 30.8293 509.947 30.526C510.424 30.2227 511.009 30.071 511.702 30.071C512.213 30.071 512.66 30.1707 513.041 30.37C513.431 30.5607 513.752 30.8207 514.003 31.15C514.263 31.4793 514.449 31.8477 514.562 32.255C514.683 32.6623 514.735 33.0827 514.718 33.516C514.709 33.594 514.705 33.672 514.705 33.75C514.705 33.828 514.701 33.906 514.692 33.984H509.609C509.644 34.3827 509.743 34.7423 509.908 35.063C510.073 35.3837 510.307 35.6393 510.61 35.83C510.913 36.012 511.29 36.103 511.741 36.103C511.966 36.103 512.192 36.077 512.417 36.025C512.651 35.9643 512.859 35.8647 513.041 35.726C513.232 35.5873 513.366 35.401 513.444 35.167H514.575C514.471 35.609 514.276 35.973 513.99 36.259C513.704 36.5363 513.362 36.7443 512.963 36.883C512.564 37.013 512.148 37.078 511.715 37.078ZM509.635 33.022H513.6C513.591 32.632 513.505 32.2897 513.34 31.995C513.175 31.7003 512.95 31.4707 512.664 31.306C512.387 31.1413 512.053 31.059 511.663 31.059C511.238 31.059 510.879 31.15 510.584 31.332C510.298 31.514 510.077 31.7523 509.921 32.047C509.765 32.3417 509.67 32.6667 509.635 33.022Z" fill="#1D2529"></path></svg>