<?xml version="1.0" encoding="UTF-8"?> <svg xmlns="http://www.w3.org/2000/svg" width="578" height="68" viewBox="0 0 578 68" fill="none"><rect width="578" height="68" fill="white"></rect><rect x="56.5" y="17.5" width="154" height="33" rx="5.5" fill="white"></rect><rect x="56.5" y="17.5" width="154" height="33" rx="5.5" stroke="#D5D9E1"></rect><circle cx="71" cy="34" r="2.5" stroke="#A1A5B2"></circle><path d="M84.953 38.104C83.9997 38.104 83.2023 37.9003 82.561 37.493C81.9197 37.0857 81.4343 36.5267 81.105 35.816C80.7843 35.1053 80.624 34.3037 80.624 33.411C80.624 32.5097 80.7843 31.7037 81.105 30.993C81.4343 30.2823 81.9197 29.7233 82.561 29.316C83.2023 28.9087 83.9997 28.705 84.953 28.705C85.9063 28.705 86.6993 28.9087 87.332 29.316C87.9733 29.7233 88.4543 30.2823 88.775 30.993C89.1043 31.7037 89.269 32.5097 89.269 33.411C89.269 34.3037 89.1043 35.1053 88.775 35.816C88.4543 36.5267 87.9733 37.0857 87.332 37.493C86.6993 37.9003 85.9063 38.104 84.953 38.104ZM84.953 37.077C85.681 37.077 86.279 36.9123 86.747 36.583C87.215 36.245 87.5573 35.7987 87.774 35.244C87.9993 34.6893 88.112 34.0783 88.112 33.411C88.112 32.9083 88.047 32.436 87.917 31.994C87.7957 31.5433 87.605 31.149 87.345 30.811C87.085 30.473 86.7557 30.2087 86.357 30.018C85.9583 29.8273 85.4903 29.732 84.953 29.732C84.2337 29.732 83.6357 29.901 83.159 30.239C82.691 30.577 82.34 31.0233 82.106 31.578C81.8807 32.1327 81.768 32.7437 81.768 33.411C81.768 34.0697 81.8807 34.6763 82.106 35.231C82.3313 35.7857 82.678 36.232 83.146 36.57C83.6227 36.908 84.225 37.077 84.953 37.077ZM96.1166 40.106V38H90.7606V31.149H91.8656V37.038H95.1806V31.149H96.2986V37.038H97.1956V40.106H96.1166ZM101.316 38.078C100.588 38.078 99.9861 37.9307 99.5094 37.636C99.0328 37.3327 98.6774 36.9167 98.4434 36.388C98.2094 35.8593 98.0924 35.257 98.0924 34.581C98.0924 33.8963 98.2138 33.294 98.4564 32.774C98.7078 32.2453 99.0718 31.8293 99.5484 31.526C100.025 31.2227 100.61 31.071 101.303 31.071C101.815 31.071 102.261 31.1707 102.642 31.37C103.032 31.5607 103.353 31.8207 103.604 32.15C103.864 32.4793 104.051 32.8477 104.163 33.255C104.285 33.6623 104.337 34.0827 104.319 34.516C104.311 34.594 104.306 34.672 104.306 34.75C104.306 34.828 104.302 34.906 104.293 34.984H99.2104C99.2451 35.3827 99.3448 35.7423 99.5094 36.063C99.6741 36.3837 99.9081 36.6393 100.211 36.83C100.515 37.012 100.892 37.103 101.342 37.103C101.568 37.103 101.793 37.077 102.018 37.025C102.252 36.9643 102.46 36.8647 102.642 36.726C102.833 36.5873 102.967 36.401 103.045 36.167H104.176C104.072 36.609 103.877 36.973 103.591 37.259C103.305 37.5363 102.963 37.7443 102.564 37.883C102.166 38.013 101.75 38.078 101.316 38.078ZM99.2364 34.022H103.201C103.193 33.632 103.106 33.2897 102.941 32.995C102.777 32.7003 102.551 32.4707 102.265 32.306C101.988 32.1413 101.654 32.059 101.264 32.059C100.84 32.059 100.48 32.15 100.185 32.332C99.8994 32.514 99.6784 32.7523 99.5224 33.047C99.3664 33.3417 99.2711 33.6667 99.2364 34.022ZM105.805 38V31.149H106.91V34.152H110.342V31.149H111.447V38H110.342V35.127H106.91V38H105.805ZM113.193 38V31.149H114.298V34.1H115.494L117.522 31.149H118.783L116.495 34.412L118.978 38H117.678L115.624 35.062H114.298V38H113.193ZM122.005 38.078C121.693 38.078 121.389 38.039 121.095 37.961C120.809 37.8743 120.549 37.7487 120.315 37.584C120.089 37.4107 119.907 37.1983 119.769 36.947C119.639 36.687 119.574 36.388 119.574 36.05C119.574 35.66 119.643 35.3307 119.782 35.062C119.929 34.7933 120.124 34.581 120.367 34.425C120.609 34.269 120.891 34.1563 121.212 34.087C121.532 34.0177 121.866 33.983 122.213 33.983H124.228C124.228 33.593 124.171 33.255 124.059 32.969C123.955 32.683 123.781 32.462 123.539 32.306C123.296 32.1413 122.975 32.059 122.577 32.059C122.334 32.059 122.109 32.085 121.901 32.137C121.693 32.189 121.515 32.2713 121.368 32.384C121.22 32.4967 121.112 32.6483 121.043 32.839H119.86C119.92 32.527 120.037 32.2627 120.211 32.046C120.393 31.8207 120.609 31.6387 120.861 31.5C121.121 31.3527 121.398 31.2443 121.693 31.175C121.987 31.1057 122.282 31.071 122.577 31.071C123.235 31.071 123.764 31.2053 124.163 31.474C124.561 31.734 124.852 32.1067 125.034 32.592C125.216 33.0687 125.307 33.6363 125.307 34.295V38H124.384L124.319 37.129C124.128 37.389 123.898 37.5883 123.63 37.727C123.361 37.8657 123.084 37.9567 122.798 38C122.52 38.052 122.256 38.078 122.005 38.078ZM122.109 37.103C122.542 37.103 122.915 37.0337 123.227 36.895C123.547 36.7477 123.794 36.5353 123.968 36.258C124.141 35.9807 124.228 35.6427 124.228 35.244V34.906H123.019C122.733 34.906 122.451 34.9103 122.174 34.919C121.896 34.9277 121.645 34.9623 121.42 35.023C121.194 35.0837 121.012 35.1877 120.874 35.335C120.744 35.4823 120.679 35.6947 120.679 35.972C120.679 36.232 120.744 36.4443 120.874 36.609C121.012 36.7737 121.19 36.8993 121.407 36.986C121.632 37.064 121.866 37.103 122.109 37.103ZM133.512 38.078C132.793 38.078 132.191 37.9307 131.705 37.636C131.22 37.3327 130.856 36.9167 130.613 36.388C130.379 35.8593 130.262 35.257 130.262 34.581C130.262 33.8963 130.379 33.294 130.613 32.774C130.856 32.2453 131.22 31.8293 131.705 31.526C132.191 31.2227 132.802 31.071 133.538 31.071C134.258 31.071 134.856 31.2227 135.332 31.526C135.818 31.8293 136.177 32.2453 136.411 32.774C136.654 33.294 136.775 33.8963 136.775 34.581C136.775 35.257 136.654 35.8593 136.411 36.388C136.169 36.9167 135.805 37.3327 135.319 37.636C134.843 37.9307 134.24 38.078 133.512 38.078ZM133.512 37.103C134.015 37.103 134.422 36.9903 134.734 36.765C135.055 36.5397 135.289 36.2363 135.436 35.855C135.592 35.4737 135.67 35.049 135.67 34.581C135.67 34.113 135.592 33.6883 135.436 33.307C135.289 32.9257 135.055 32.6223 134.734 32.397C134.422 32.1717 134.015 32.059 133.512 32.059C133.018 32.059 132.611 32.1717 132.29 32.397C131.978 32.6223 131.744 32.9257 131.588 33.307C131.441 33.6883 131.367 34.113 131.367 34.581C131.367 35.049 131.441 35.4737 131.588 35.855C131.744 36.2363 131.978 36.5397 132.29 36.765C132.611 36.9903 133.018 37.103 133.512 37.103ZM138.254 38V31.149H139.359V34.1H140.555L142.583 31.149H143.844L141.556 34.412L144.039 38H142.739L140.685 35.062H139.359V38H138.254ZM144.995 40.47V31.149H146.048L146.1 32.202C146.334 31.8293 146.65 31.5477 147.049 31.357C147.456 31.1663 147.894 31.071 148.362 31.071C149.055 31.071 149.623 31.227 150.065 31.539C150.507 31.8423 150.832 32.2583 151.04 32.787C151.257 33.3157 151.365 33.9137 151.365 34.581C151.365 35.2483 151.257 35.8463 151.04 36.375C150.823 36.9037 150.49 37.3197 150.039 37.623C149.588 37.9263 149.012 38.078 148.31 38.078C147.963 38.078 147.651 38.0433 147.374 37.974C147.097 37.896 146.854 37.7877 146.646 37.649C146.438 37.5103 146.256 37.3543 146.1 37.181V40.47H144.995ZM148.219 37.103C148.722 37.103 149.12 36.9903 149.415 36.765C149.71 36.531 149.922 36.2233 150.052 35.842C150.191 35.4607 150.26 35.0403 150.26 34.581C150.26 34.113 150.191 33.6883 150.052 33.307C149.922 32.9257 149.705 32.6223 149.402 32.397C149.099 32.1717 148.696 32.059 148.193 32.059C147.742 32.059 147.357 32.176 147.036 32.41C146.724 32.6353 146.486 32.943 146.321 33.333C146.156 33.7143 146.074 34.1347 146.074 34.594C146.074 35.0707 146.152 35.4997 146.308 35.881C146.464 36.2623 146.702 36.5613 147.023 36.778C147.344 36.9947 147.742 37.103 148.219 37.103ZM153.011 40.938V39.885C153.436 39.885 153.774 39.8243 154.025 39.703C154.276 39.5903 154.484 39.4083 154.649 39.157C154.822 38.9143 154.987 38.6023 155.143 38.221L152.14 31.149H153.44L155.754 36.921L157.652 31.149H158.9L156.976 36.544C156.881 36.8213 156.772 37.1333 156.651 37.48C156.53 37.8267 156.395 38.1777 156.248 38.533C156.101 38.897 155.936 39.2307 155.754 39.534C155.581 39.846 155.386 40.0973 155.169 40.288C154.987 40.4527 154.809 40.5827 154.636 40.678C154.463 40.7733 154.25 40.8383 153.999 40.873C153.756 40.9163 153.427 40.938 153.011 40.938ZM159.236 38L161.459 34.412L159.431 31.149H160.614L162.421 34.113H163.448V31.149H164.553V34.113H165.58L167.387 31.149H168.57L166.542 34.412L168.765 38H167.478L165.697 35.049H164.553V38H163.448V35.049H162.304L160.523 38H159.236ZM172.651 38.078C171.923 38.078 171.321 37.9307 170.844 37.636C170.368 37.3327 170.012 36.9167 169.778 36.388C169.544 35.8593 169.427 35.257 169.427 34.581C169.427 33.8963 169.549 33.294 169.791 32.774C170.043 32.2453 170.407 31.8293 170.883 31.526C171.36 31.2227 171.945 31.071 172.638 31.071C173.15 31.071 173.596 31.1707 173.977 31.37C174.367 31.5607 174.688 31.8207 174.939 32.15C175.199 32.4793 175.386 32.8477 175.498 33.255C175.62 33.6623 175.672 34.0827 175.654 34.516C175.646 34.594 175.641 34.672 175.641 34.75C175.641 34.828 175.637 34.906 175.628 34.984H170.545C170.58 35.3827 170.68 35.7423 170.844 36.063C171.009 36.3837 171.243 36.6393 171.546 36.83C171.85 37.012 172.227 37.103 172.677 37.103C172.903 37.103 173.128 37.077 173.353 37.025C173.587 36.9643 173.795 36.8647 173.977 36.726C174.168 36.5873 174.302 36.401 174.38 36.167H175.511C175.407 36.609 175.212 36.973 174.926 37.259C174.64 37.5363 174.298 37.7443 173.899 37.883C173.501 38.013 173.085 38.078 172.651 38.078ZM170.571 34.022H174.536C174.528 33.632 174.441 33.2897 174.276 32.995C174.112 32.7003 173.886 32.4707 173.6 32.306C173.323 32.1413 172.989 32.059 172.599 32.059C172.175 32.059 171.815 32.15 171.52 32.332C171.234 32.514 171.013 32.7523 170.857 33.047C170.701 33.3417 170.606 33.6667 170.571 34.022ZM177.14 38V31.149H178.245V34.152H181.677V31.149H182.782V38H181.677V35.127H178.245V38H177.14ZM184.528 38V31.149H185.633V36.401C185.694 36.2797 185.776 36.1497 185.88 36.011C185.984 35.8637 186.067 35.751 186.127 35.673L189.442 31.149H190.534V38H189.429V32.748C189.36 32.878 189.282 32.9993 189.195 33.112C189.117 33.2247 189.044 33.3287 188.974 33.424L185.607 38H184.528ZM191.843 38L193.624 35.296C193.13 35.1573 192.74 34.932 192.454 34.62C192.168 34.2993 192.025 33.8747 192.025 33.346C192.025 32.93 192.086 32.5833 192.207 32.306C192.329 32.02 192.506 31.7947 192.74 31.63C192.974 31.4567 193.256 31.3353 193.585 31.266C193.915 31.188 194.292 31.149 194.716 31.149H197.472V38H196.367V35.465H194.794L193.13 38H191.843ZM195.548 34.503H196.367V32.124H194.898C194.638 32.124 194.4 32.137 194.183 32.163C193.967 32.189 193.78 32.2453 193.624 32.332C193.477 32.41 193.36 32.527 193.273 32.683C193.187 32.8303 193.143 33.034 193.143 33.294C193.143 33.58 193.213 33.8053 193.351 33.97C193.499 34.1347 193.685 34.256 193.91 34.334C194.144 34.4033 194.404 34.451 194.69 34.477C194.976 34.4943 195.262 34.503 195.548 34.503Z" fill="#1D2529"></path><rect x="217.5" y="17.5" width="136" height="33" rx="5.5" fill="white"></rect><rect x="217.5" y="17.5" width="136" height="33" rx="5.5" stroke="#D5D9E1"></rect><circle cx="232" cy="34" r="2.5" stroke="#A1A5B2"></circle><path d="M245.849 38.104C244.904 38.104 244.116 37.9047 243.483 37.506C242.859 37.0987 242.391 36.544 242.079 35.842C241.776 35.1313 241.624 34.321 241.624 33.411C241.624 32.5097 241.78 31.708 242.092 31.006C242.404 30.2953 242.872 29.7363 243.496 29.329C244.129 28.913 244.922 28.705 245.875 28.705C246.551 28.705 247.132 28.8133 247.617 29.03C248.111 29.238 248.51 29.5283 248.813 29.901C249.116 30.2737 249.324 30.7113 249.437 31.214H248.293C248.163 30.7633 247.881 30.4037 247.448 30.135C247.023 29.8663 246.486 29.732 245.836 29.732C245.108 29.732 244.519 29.9053 244.068 30.252C243.626 30.59 243.301 31.0363 243.093 31.591C242.885 32.137 242.781 32.7307 242.781 33.372C242.781 34.048 242.889 34.6677 243.106 35.231C243.323 35.7943 243.661 36.245 244.12 36.583C244.579 36.9123 245.164 37.077 245.875 37.077C246.308 37.077 246.694 37.0163 247.032 36.895C247.379 36.7737 247.665 36.6003 247.89 36.375C248.124 36.1497 248.284 35.8897 248.371 35.595H249.606C249.476 36.0977 249.242 36.5397 248.904 36.921C248.575 37.2937 248.154 37.584 247.643 37.792C247.132 38 246.534 38.104 245.849 38.104ZM251.1 40.47V31.149H252.153L252.205 32.202C252.439 31.8293 252.756 31.5477 253.154 31.357C253.562 31.1663 253.999 31.071 254.467 31.071C255.161 31.071 255.728 31.227 256.17 31.539C256.612 31.8423 256.937 32.2583 257.145 32.787C257.362 33.3157 257.47 33.9137 257.47 34.581C257.47 35.2483 257.362 35.8463 257.145 36.375C256.929 36.9037 256.595 37.3197 256.144 37.623C255.694 37.9263 255.117 38.078 254.415 38.078C254.069 38.078 253.757 38.0433 253.479 37.974C253.202 37.896 252.959 37.7877 252.751 37.649C252.543 37.5103 252.361 37.3543 252.205 37.181V40.47H251.1ZM254.324 37.103C254.827 37.103 255.226 36.9903 255.52 36.765C255.815 36.531 256.027 36.2233 256.157 35.842C256.296 35.4607 256.365 35.0403 256.365 34.581C256.365 34.113 256.296 33.6883 256.157 33.307C256.027 32.9257 255.811 32.6223 255.507 32.397C255.204 32.1717 254.801 32.059 254.298 32.059C253.848 32.059 253.462 32.176 253.141 32.41C252.829 32.6353 252.591 32.943 252.426 33.333C252.262 33.7143 252.179 34.1347 252.179 34.594C252.179 35.0707 252.257 35.4997 252.413 35.881C252.569 36.2623 252.808 36.5613 253.128 36.778C253.449 36.9947 253.848 37.103 254.324 37.103ZM261.859 38.078C261.131 38.078 260.529 37.9307 260.052 37.636C259.576 37.3327 259.22 36.9167 258.986 36.388C258.752 35.8593 258.635 35.257 258.635 34.581C258.635 33.8963 258.757 33.294 258.999 32.774C259.251 32.2453 259.615 31.8293 260.091 31.526C260.568 31.2227 261.153 31.071 261.846 31.071C262.358 31.071 262.804 31.1707 263.185 31.37C263.575 31.5607 263.896 31.8207 264.147 32.15C264.407 32.4793 264.594 32.8477 264.706 33.255C264.828 33.6623 264.88 34.0827 264.862 34.516C264.854 34.594 264.849 34.672 264.849 34.75C264.849 34.828 264.845 34.906 264.836 34.984H259.753C259.788 35.3827 259.888 35.7423 260.052 36.063C260.217 36.3837 260.451 36.6393 260.754 36.83C261.058 37.012 261.435 37.103 261.885 37.103C262.111 37.103 262.336 37.077 262.561 37.025C262.795 36.9643 263.003 36.8647 263.185 36.726C263.376 36.5873 263.51 36.401 263.588 36.167H264.719C264.615 36.609 264.42 36.973 264.134 37.259C263.848 37.5363 263.506 37.7443 263.107 37.883C262.709 38.013 262.293 38.078 261.859 38.078ZM259.779 34.022H263.744C263.736 33.632 263.649 33.2897 263.484 32.995C263.32 32.7003 263.094 32.4707 262.808 32.306C262.531 32.1413 262.197 32.059 261.807 32.059C261.383 32.059 261.023 32.15 260.728 32.332C260.442 32.514 260.221 32.7523 260.065 33.047C259.909 33.3417 259.814 33.6667 259.779 34.022ZM265.61 40.106V37.038C265.862 37.038 266.061 36.9687 266.208 36.83C266.364 36.6913 266.486 36.5093 266.572 36.284C266.659 36.0587 266.724 35.816 266.767 35.556C266.811 35.2873 266.845 35.0317 266.871 34.789C266.915 34.3903 266.941 33.996 266.949 33.606C266.967 33.2073 266.975 32.891 266.975 32.657C266.984 32.4057 266.988 32.1543 266.988 31.903C266.988 31.6517 266.988 31.4003 266.988 31.149H271.85V37.038H272.747V40.106H271.681V38H266.676V40.106H265.61ZM267.365 37.038H270.745V32.124H268.041C268.033 32.488 268.024 32.8953 268.015 33.346C268.007 33.7967 267.989 34.217 267.963 34.607C267.955 34.8323 267.933 35.088 267.898 35.374C267.872 35.66 267.82 35.9503 267.742 36.245C267.664 36.531 267.539 36.7953 267.365 37.038ZM273.901 38V31.149H275.006V34.152H278.438V31.149H279.543V38H278.438V35.127H275.006V38H273.901ZM280.861 38L282.642 35.296C282.148 35.1573 281.758 34.932 281.472 34.62C281.186 34.2993 281.043 33.8747 281.043 33.346C281.043 32.93 281.104 32.5833 281.225 32.306C281.346 32.02 281.524 31.7947 281.758 31.63C281.992 31.4567 282.274 31.3353 282.603 31.266C282.932 31.188 283.309 31.149 283.734 31.149H286.49V38H285.385V35.465H283.812L282.148 38H280.861ZM284.566 34.503H285.385V32.124H283.916C283.656 32.124 283.418 32.137 283.201 32.163C282.984 32.189 282.798 32.2453 282.642 32.332C282.495 32.41 282.378 32.527 282.291 32.683C282.204 32.8303 282.161 33.034 282.161 33.294C282.161 33.58 282.23 33.8053 282.369 33.97C282.516 34.1347 282.703 34.256 282.928 34.334C283.162 34.4033 283.422 34.451 283.708 34.477C283.994 34.4943 284.28 34.503 284.566 34.503ZM287.805 38L289.586 35.296C289.092 35.1573 288.702 34.932 288.416 34.62C288.13 34.2993 287.987 33.8747 287.987 33.346C287.987 32.93 288.048 32.5833 288.169 32.306C288.291 32.02 288.468 31.7947 288.702 31.63C288.936 31.4567 289.218 31.3353 289.547 31.266C289.877 31.188 290.254 31.149 290.678 31.149H293.434V38H292.329V35.465H290.756L289.092 38H287.805ZM291.51 34.503H292.329V32.124H290.86C290.6 32.124 290.362 32.137 290.145 32.163C289.929 32.189 289.742 32.2453 289.586 32.332C289.439 32.41 289.322 32.527 289.235 32.683C289.149 32.8303 289.105 33.034 289.105 33.294C289.105 33.58 289.175 33.8053 289.313 33.97C289.461 34.1347 289.647 34.256 289.872 34.334C290.106 34.4033 290.366 34.451 290.652 34.477C290.938 34.4943 291.224 34.503 291.51 34.503ZM301.673 38.078C300.953 38.078 300.351 37.9307 299.866 37.636C299.38 37.3327 299.016 36.9167 298.774 36.388C298.54 35.8593 298.423 35.257 298.423 34.581C298.423 33.8963 298.54 33.294 298.774 32.774C299.016 32.2453 299.38 31.8293 299.866 31.526C300.351 31.2227 300.962 31.071 301.699 31.071C302.418 31.071 303.016 31.2227 303.493 31.526C303.978 31.8293 304.338 32.2453 304.572 32.774C304.814 33.294 304.936 33.8963 304.936 34.581C304.936 35.257 304.814 35.8593 304.572 36.388C304.329 36.9167 303.965 37.3327 303.48 37.636C303.003 37.9307 302.401 38.078 301.673 38.078ZM301.673 37.103C302.175 37.103 302.583 36.9903 302.895 36.765C303.215 36.5397 303.449 36.2363 303.597 35.855C303.753 35.4737 303.831 35.049 303.831 34.581C303.831 34.113 303.753 33.6883 303.597 33.307C303.449 32.9257 303.215 32.6223 302.895 32.397C302.583 32.1717 302.175 32.059 301.673 32.059C301.179 32.059 300.771 32.1717 300.451 32.397C300.139 32.6223 299.905 32.9257 299.749 33.307C299.601 33.6883 299.528 34.113 299.528 34.581C299.528 35.049 299.601 35.4737 299.749 35.855C299.905 36.2363 300.139 36.5397 300.451 36.765C300.771 36.9903 301.179 37.103 301.673 37.103ZM311.77 40.106V38H306.414V31.149H307.519V37.038H310.834V31.149H311.952V37.038H312.849V40.106H311.77ZM316.97 38.078C316.242 38.078 315.639 37.9307 315.163 37.636C314.686 37.3327 314.331 36.9167 314.097 36.388C313.863 35.8593 313.746 35.257 313.746 34.581C313.746 33.8963 313.867 33.294 314.11 32.774C314.361 32.2453 314.725 31.8293 315.202 31.526C315.678 31.2227 316.263 31.071 316.957 31.071C317.468 31.071 317.914 31.1707 318.296 31.37C318.686 31.5607 319.006 31.8207 319.258 32.15C319.518 32.4793 319.704 32.8477 319.817 33.255C319.938 33.6623 319.99 34.0827 319.973 34.516C319.964 34.594 319.96 34.672 319.96 34.75C319.96 34.828 319.955 34.906 319.947 34.984H314.864C314.898 35.3827 314.998 35.7423 315.163 36.063C315.327 36.3837 315.561 36.6393 315.865 36.83C316.168 37.012 316.545 37.103 316.996 37.103C317.221 37.103 317.446 37.077 317.672 37.025C317.906 36.9643 318.114 36.8647 318.296 36.726C318.486 36.5873 318.621 36.401 318.699 36.167H319.83C319.726 36.609 319.531 36.973 319.245 37.259C318.959 37.5363 318.616 37.7443 318.218 37.883C317.819 38.013 317.403 38.078 316.97 38.078ZM314.89 34.022H318.855C318.846 33.632 318.759 33.2897 318.595 32.995C318.43 32.7003 318.205 32.4707 317.919 32.306C317.641 32.1413 317.308 32.059 316.918 32.059C316.493 32.059 316.133 32.15 315.839 32.332C315.553 32.514 315.332 32.7523 315.176 33.047C315.02 33.3417 314.924 33.6667 314.89 34.022ZM321.458 38V31.149H322.563V34.152H325.995V31.149H327.1V38H325.995V35.127H322.563V38H321.458ZM328.847 38V31.149H329.952V34.1H331.148L333.176 31.149H334.437L332.149 34.412L334.632 38H333.332L331.278 35.062H329.952V38H328.847ZM337.658 38.078C337.346 38.078 337.043 38.039 336.748 37.961C336.462 37.8743 336.202 37.7487 335.968 37.584C335.743 37.4107 335.561 37.1983 335.422 36.947C335.292 36.687 335.227 36.388 335.227 36.05C335.227 35.66 335.296 35.3307 335.435 35.062C335.582 34.7933 335.777 34.581 336.02 34.425C336.263 34.269 336.544 34.1563 336.865 34.087C337.186 34.0177 337.519 33.983 337.866 33.983H339.881C339.881 33.593 339.825 33.255 339.712 32.969C339.608 32.683 339.435 32.462 339.192 32.306C338.949 32.1413 338.629 32.059 338.23 32.059C337.987 32.059 337.762 32.085 337.554 32.137C337.346 32.189 337.168 32.2713 337.021 32.384C336.874 32.4967 336.765 32.6483 336.696 32.839H335.513C335.574 32.527 335.691 32.2627 335.864 32.046C336.046 31.8207 336.263 31.6387 336.514 31.5C336.774 31.3527 337.051 31.2443 337.346 31.175C337.641 31.1057 337.935 31.071 338.23 31.071C338.889 31.071 339.417 31.2053 339.816 31.474C340.215 31.734 340.505 32.1067 340.687 32.592C340.869 33.0687 340.96 33.6363 340.96 34.295V38H340.037L339.972 37.129C339.781 37.389 339.552 37.5883 339.283 37.727C339.014 37.8657 338.737 37.9567 338.451 38C338.174 38.052 337.909 38.078 337.658 38.078ZM337.762 37.103C338.195 37.103 338.568 37.0337 338.88 36.895C339.201 36.7477 339.448 36.5353 339.621 36.258C339.794 35.9807 339.881 35.6427 339.881 35.244V34.906H338.672C338.386 34.906 338.104 34.9103 337.827 34.919C337.55 34.9277 337.298 34.9623 337.073 35.023C336.848 35.0837 336.666 35.1877 336.527 35.335C336.397 35.4823 336.332 35.6947 336.332 35.972C336.332 36.232 336.397 36.4443 336.527 36.609C336.666 36.7737 336.843 36.8993 337.06 36.986C337.285 37.064 337.519 37.103 337.762 37.103Z" fill="#1D2529"></path><rect x="360.5" y="17.5" width="160" height="33" rx="5.5" fill="white"></rect><rect x="360.5" y="17.5" width="160" height="33" rx="5.5" stroke="#D5D9E1"></rect><circle cx="375" cy="34" r="2.5" stroke="#A1A5B2"></circle><path d="M387.133 38V29.836H384.182V28.809H391.215V29.836H388.264V38H387.133ZM391.752 40.47V31.149H392.805L392.857 32.202C393.091 31.8293 393.407 31.5477 393.806 31.357C394.213 31.1663 394.651 31.071 395.119 31.071C395.812 31.071 396.38 31.227 396.822 31.539C397.264 31.8423 397.589 32.2583 397.797 32.787C398.014 33.3157 398.122 33.9137 398.122 34.581C398.122 35.2483 398.014 35.8463 397.797 36.375C397.58 36.9037 397.247 37.3197 396.796 37.623C396.345 37.9263 395.769 38.078 395.067 38.078C394.72 38.078 394.408 38.0433 394.131 37.974C393.854 37.896 393.611 37.7877 393.403 37.649C393.195 37.5103 393.013 37.3543 392.857 37.181V40.47H391.752ZM394.976 37.103C395.479 37.103 395.877 36.9903 396.172 36.765C396.467 36.531 396.679 36.2233 396.809 35.842C396.948 35.4607 397.017 35.0403 397.017 34.581C397.017 34.113 396.948 33.6883 396.809 33.307C396.679 32.9257 396.462 32.6223 396.159 32.397C395.856 32.1717 395.453 32.059 394.95 32.059C394.499 32.059 394.114 32.176 393.793 32.41C393.481 32.6353 393.243 32.943 393.078 33.333C392.913 33.7143 392.831 34.1347 392.831 34.594C392.831 35.0707 392.909 35.4997 393.065 35.881C393.221 36.2623 393.459 36.5613 393.78 36.778C394.101 36.9947 394.499 37.103 394.976 37.103ZM402.511 38.078C401.783 38.078 401.18 37.9307 400.704 37.636C400.227 37.3327 399.872 36.9167 399.638 36.388C399.404 35.8593 399.287 35.257 399.287 34.581C399.287 33.8963 399.408 33.294 399.651 32.774C399.902 32.2453 400.266 31.8293 400.743 31.526C401.219 31.2227 401.804 31.071 402.498 31.071C403.009 31.071 403.455 31.1707 403.837 31.37C404.227 31.5607 404.547 31.8207 404.799 32.15C405.059 32.4793 405.245 32.8477 405.358 33.255C405.479 33.6623 405.531 34.0827 405.514 34.516C405.505 34.594 405.501 34.672 405.501 34.75C405.501 34.828 405.496 34.906 405.488 34.984H400.405C400.439 35.3827 400.539 35.7423 400.704 36.063C400.868 36.3837 401.102 36.6393 401.406 36.83C401.709 37.012 402.086 37.103 402.537 37.103C402.762 37.103 402.987 37.077 403.213 37.025C403.447 36.9643 403.655 36.8647 403.837 36.726C404.027 36.5873 404.162 36.401 404.24 36.167H405.371C405.267 36.609 405.072 36.973 404.786 37.259C404.5 37.5363 404.157 37.7443 403.759 37.883C403.36 38.013 402.944 38.078 402.511 38.078ZM400.431 34.022H404.396C404.387 33.632 404.3 33.2897 404.136 32.995C403.971 32.7003 403.746 32.4707 403.46 32.306C403.182 32.1413 402.849 32.059 402.459 32.059C402.034 32.059 401.674 32.15 401.38 32.332C401.094 32.514 400.873 32.7523 400.717 33.047C400.561 33.3417 400.465 33.6667 400.431 34.022ZM410.012 38.078C409.579 38.078 409.193 38.0173 408.855 37.896C408.517 37.766 408.227 37.5883 407.984 37.363C407.741 37.129 407.542 36.856 407.386 36.544C407.23 36.2233 407.113 35.8767 407.035 35.504C406.957 35.1313 406.918 34.737 406.918 34.321C406.918 33.6537 406.931 33.034 406.957 32.462C406.992 31.8813 407.087 31.3657 407.243 30.915C407.399 30.4557 407.663 30.0743 408.036 29.771C408.409 29.4677 408.933 29.2553 409.609 29.134C409.956 29.0733 410.298 29.0213 410.636 28.978C410.974 28.9347 411.316 28.8913 411.663 28.848C411.776 28.8307 411.893 28.8133 412.014 28.796C412.135 28.7787 412.261 28.757 412.391 28.731C412.53 28.705 412.66 28.6833 412.781 28.666V29.68C412.686 29.7147 412.582 29.745 412.469 29.771C412.365 29.7883 412.252 29.8057 412.131 29.823C412.018 29.8403 411.901 29.8533 411.78 29.862C411.667 29.8707 411.555 29.8837 411.442 29.901C411.329 29.9097 411.221 29.9227 411.117 29.94C410.814 29.9747 410.493 30.0093 410.155 30.044C409.817 30.07 409.496 30.1393 409.193 30.252C408.898 30.356 408.647 30.5597 408.439 30.863C408.335 31.019 408.244 31.2053 408.166 31.422C408.097 31.6387 408.045 31.8597 408.01 32.085C407.984 32.3017 407.967 32.5097 407.958 32.709C408.131 32.4663 408.344 32.2713 408.595 32.124C408.846 31.968 409.115 31.8553 409.401 31.786C409.687 31.708 409.96 31.669 410.22 31.669C410.844 31.669 411.373 31.799 411.806 32.059C412.239 32.3103 412.569 32.67 412.794 33.138C413.019 33.606 413.132 34.152 413.132 34.776C413.132 35.4 413.011 35.9633 412.768 36.466C412.525 36.96 412.17 37.3543 411.702 37.649C411.243 37.935 410.679 38.078 410.012 38.078ZM410.038 37.103C410.471 37.103 410.835 36.999 411.13 36.791C411.425 36.583 411.646 36.3057 411.793 35.959C411.949 35.6123 412.027 35.231 412.027 34.815C412.027 34.4077 411.949 34.0437 411.793 33.723C411.646 33.3937 411.425 33.1337 411.13 32.943C410.844 32.7523 410.489 32.657 410.064 32.657C409.648 32.657 409.288 32.7567 408.985 32.956C408.69 33.1553 408.461 33.424 408.296 33.762C408.14 34.0913 408.062 34.451 408.062 34.841C408.062 35.2397 408.136 35.6123 408.283 35.959C408.43 36.3057 408.647 36.583 408.933 36.791C409.228 36.999 409.596 37.103 410.038 37.103ZM414.837 40.938V39.885C415.262 39.885 415.6 39.8243 415.851 39.703C416.102 39.5903 416.31 39.4083 416.475 39.157C416.648 38.9143 416.813 38.6023 416.969 38.221L413.966 31.149H415.266L417.58 36.921L419.478 31.149H420.726L418.802 36.544C418.707 36.8213 418.598 37.1333 418.477 37.48C418.356 37.8267 418.221 38.1777 418.074 38.533C417.927 38.897 417.762 39.2307 417.58 39.534C417.407 39.846 417.212 40.0973 416.995 40.288C416.813 40.4527 416.635 40.5827 416.462 40.678C416.289 40.7733 416.076 40.8383 415.825 40.873C415.582 40.9163 415.253 40.938 414.837 40.938ZM424.715 38.078C423.987 38.078 423.385 37.9307 422.908 37.636C422.431 37.3327 422.076 36.9167 421.842 36.388C421.608 35.8593 421.491 35.257 421.491 34.581C421.491 33.8963 421.612 33.294 421.855 32.774C422.106 32.2453 422.47 31.8293 422.947 31.526C423.424 31.2227 424.009 31.071 424.702 31.071C425.213 31.071 425.66 31.1707 426.041 31.37C426.431 31.5607 426.752 31.8207 427.003 32.15C427.263 32.4793 427.449 32.8477 427.562 33.255C427.683 33.6623 427.735 34.0827 427.718 34.516C427.709 34.594 427.705 34.672 427.705 34.75C427.705 34.828 427.701 34.906 427.692 34.984H422.609C422.644 35.3827 422.743 35.7423 422.908 36.063C423.073 36.3837 423.307 36.6393 423.61 36.83C423.913 37.012 424.29 37.103 424.741 37.103C424.966 37.103 425.192 37.077 425.417 37.025C425.651 36.9643 425.859 36.8647 426.041 36.726C426.232 36.5873 426.366 36.401 426.444 36.167H427.575C427.471 36.609 427.276 36.973 426.99 37.259C426.704 37.5363 426.362 37.7443 425.963 37.883C425.564 38.013 425.148 38.078 424.715 38.078ZM422.635 34.022H426.6C426.591 33.632 426.505 33.2897 426.34 32.995C426.175 32.7003 425.95 32.4707 425.664 32.306C425.387 32.1413 425.053 32.059 424.663 32.059C424.238 32.059 423.879 32.15 423.584 32.332C423.298 32.514 423.077 32.7523 422.921 33.047C422.765 33.3417 422.67 33.6667 422.635 34.022ZM429.203 38V31.149H430.685L432.908 34.581L435.092 31.149H436.548V38H435.456V32.371L433.038 36.245H432.726L430.295 32.371V38H429.203ZM438.293 38V31.149H439.424V33.762H440.659C441.066 33.762 441.435 33.7967 441.764 33.866C442.093 33.9353 442.375 34.048 442.609 34.204C442.843 34.36 443.021 34.5723 443.142 34.841C443.263 35.101 443.324 35.4303 443.324 35.829C443.324 36.2103 443.259 36.5397 443.129 36.817C442.999 37.0943 442.813 37.3197 442.57 37.493C442.336 37.6663 442.054 37.7963 441.725 37.883C441.404 37.961 441.053 38 440.672 38H438.293ZM439.424 37.038H439.788C440.091 37.038 440.386 37.0337 440.672 37.025C440.958 37.0077 441.214 36.9643 441.439 36.895C441.673 36.8257 441.859 36.713 441.998 36.557C442.137 36.3923 442.206 36.1627 442.206 35.868C442.206 35.5907 442.15 35.3783 442.037 35.231C441.933 35.075 441.794 34.9623 441.621 34.893C441.448 34.815 441.257 34.7673 441.049 34.75C440.85 34.7327 440.65 34.724 440.451 34.724H439.424V37.038ZM444.273 38V31.149H445.378V38H444.273ZM447.116 38V31.149H448.221V36.401C448.282 36.2797 448.364 36.1497 448.468 36.011C448.572 35.8637 448.654 35.751 448.715 35.673L452.03 31.149H453.122V38H452.017V32.748C451.948 32.878 451.87 32.9993 451.783 33.112C451.705 33.2247 451.631 33.3287 451.562 33.424L448.195 38H447.116ZM450.21 30.187C449.525 30.187 448.988 30.0397 448.598 29.745C448.217 29.4503 448.017 29.0213 448 28.458H449.014C449.031 28.7613 449.144 28.9823 449.352 29.121C449.569 29.2597 449.859 29.329 450.223 29.329C450.587 29.329 450.873 29.2597 451.081 29.121C451.298 28.9823 451.415 28.7613 451.432 28.458H452.446C452.437 28.8307 452.342 29.147 452.16 29.407C451.978 29.667 451.722 29.862 451.393 29.992C451.064 30.122 450.669 30.187 450.21 30.187ZM458.585 40.938V39.885C459.01 39.885 459.348 39.8243 459.599 39.703C459.85 39.5903 460.058 39.4083 460.223 39.157C460.396 38.9143 460.561 38.6023 460.717 38.221L457.714 31.149H459.014L461.328 36.921L463.226 31.149H464.474L462.55 36.544C462.455 36.8213 462.346 37.1333 462.225 37.48C462.104 37.8267 461.969 38.1777 461.822 38.533C461.675 38.897 461.51 39.2307 461.328 39.534C461.155 39.846 460.96 40.0973 460.743 40.288C460.561 40.4527 460.383 40.5827 460.21 40.678C460.037 40.7733 459.824 40.8383 459.573 40.873C459.33 40.9163 459.001 40.938 458.585 40.938ZM465.499 40.47V31.149H466.552L466.604 32.202C466.838 31.8293 467.154 31.5477 467.553 31.357C467.96 31.1663 468.398 31.071 468.866 31.071C469.559 31.071 470.127 31.227 470.569 31.539C471.011 31.8423 471.336 32.2583 471.544 32.787C471.761 33.3157 471.869 33.9137 471.869 34.581C471.869 35.2483 471.761 35.8463 471.544 36.375C471.327 36.9037 470.994 37.3197 470.543 37.623C470.092 37.9263 469.516 38.078 468.814 38.078C468.467 38.078 468.155 38.0433 467.878 37.974C467.601 37.896 467.358 37.7877 467.15 37.649C466.942 37.5103 466.76 37.3543 466.604 37.181V40.47H465.499ZM468.723 37.103C469.226 37.103 469.624 36.9903 469.919 36.765C470.214 36.531 470.426 36.2233 470.556 35.842C470.695 35.4607 470.764 35.0403 470.764 34.581C470.764 34.113 470.695 33.6883 470.556 33.307C470.426 32.9257 470.209 32.6223 469.906 32.397C469.603 32.1717 469.2 32.059 468.697 32.059C468.246 32.059 467.861 32.176 467.54 32.41C467.228 32.6353 466.99 32.943 466.825 33.333C466.66 33.7143 466.578 34.1347 466.578 34.594C466.578 35.0707 466.656 35.4997 466.812 35.881C466.968 36.2623 467.206 36.5613 467.527 36.778C467.848 36.9947 468.246 37.103 468.723 37.103ZM476.284 38.078C475.565 38.078 474.962 37.9307 474.477 37.636C473.992 37.3327 473.628 36.9167 473.385 36.388C473.151 35.8593 473.034 35.257 473.034 34.581C473.034 33.8963 473.151 33.294 473.385 32.774C473.628 32.2453 473.992 31.8293 474.477 31.526C474.962 31.2227 475.573 31.071 476.31 31.071C477.029 31.071 477.627 31.2227 478.104 31.526C478.589 31.8293 478.949 32.2453 479.183 32.774C479.426 33.294 479.547 33.8963 479.547 34.581C479.547 35.257 479.426 35.8593 479.183 36.388C478.94 36.9167 478.576 37.3327 478.091 37.636C477.614 37.9307 477.012 38.078 476.284 38.078ZM476.284 37.103C476.787 37.103 477.194 36.9903 477.506 36.765C477.827 36.5397 478.061 36.2363 478.208 35.855C478.364 35.4737 478.442 35.049 478.442 34.581C478.442 34.113 478.364 33.6883 478.208 33.307C478.061 32.9257 477.827 32.6223 477.506 32.397C477.194 32.1717 476.787 32.059 476.284 32.059C475.79 32.059 475.383 32.1717 475.062 32.397C474.75 32.6223 474.516 32.9257 474.36 33.307C474.213 33.6883 474.139 34.113 474.139 34.581C474.139 35.049 474.213 35.4737 474.36 35.855C474.516 36.2363 474.75 36.5397 475.062 36.765C475.383 36.9903 475.79 37.103 476.284 37.103ZM481.025 38V31.149H483.677C483.981 31.149 484.28 31.1707 484.574 31.214C484.878 31.2487 485.151 31.3267 485.393 31.448C485.645 31.5607 485.844 31.7297 485.991 31.955C486.147 32.1803 486.225 32.4793 486.225 32.852C486.225 33.0773 486.191 33.2853 486.121 33.476C486.052 33.658 485.948 33.8183 485.809 33.957C485.679 34.0957 485.51 34.217 485.302 34.321C485.77 34.425 486.108 34.6287 486.316 34.932C486.524 35.2353 486.628 35.582 486.628 35.972C486.628 36.3187 486.563 36.622 486.433 36.882C486.312 37.1333 486.139 37.3413 485.913 37.506C485.697 37.6707 485.441 37.7963 485.146 37.883C484.86 37.961 484.553 38 484.223 38H481.025ZM482.156 37.038H483.963C484.232 37.038 484.483 37.012 484.717 36.96C484.951 36.908 485.142 36.8127 485.289 36.674C485.437 36.5267 485.51 36.3187 485.51 36.05C485.51 35.7727 485.445 35.5647 485.315 35.426C485.194 35.2787 485.034 35.179 484.834 35.127C484.644 35.0663 484.436 35.0317 484.21 35.023C483.985 35.0143 483.773 35.01 483.573 35.01H482.156V37.038ZM482.156 34.074H483.105C483.279 34.074 483.478 34.0653 483.703 34.048C483.937 34.0307 484.163 33.9917 484.379 33.931C484.605 33.8617 484.787 33.7577 484.925 33.619C485.073 33.4803 485.146 33.2897 485.146 33.047C485.146 32.7263 485.055 32.5053 484.873 32.384C484.7 32.254 484.492 32.1803 484.249 32.163C484.007 32.137 483.781 32.124 483.573 32.124H482.156V34.074ZM491.099 38.078C490.371 38.078 489.768 37.9307 489.292 37.636C488.815 37.3327 488.46 36.9167 488.226 36.388C487.992 35.8593 487.875 35.257 487.875 34.581C487.875 33.8963 487.996 33.294 488.239 32.774C488.49 32.2453 488.854 31.8293 489.331 31.526C489.807 31.2227 490.392 31.071 491.086 31.071C491.597 31.071 492.043 31.1707 492.425 31.37C492.815 31.5607 493.135 31.8207 493.387 32.15C493.647 32.4793 493.833 32.8477 493.946 33.255C494.067 33.6623 494.119 34.0827 494.102 34.516C494.093 34.594 494.089 34.672 494.089 34.75C494.089 34.828 494.084 34.906 494.076 34.984H488.993C489.027 35.3827 489.127 35.7423 489.292 36.063C489.456 36.3837 489.69 36.6393 489.994 36.83C490.297 37.012 490.674 37.103 491.125 37.103C491.35 37.103 491.575 37.077 491.801 37.025C492.035 36.9643 492.243 36.8647 492.425 36.726C492.615 36.5873 492.75 36.401 492.828 36.167H493.959C493.855 36.609 493.66 36.973 493.374 37.259C493.088 37.5363 492.745 37.7443 492.347 37.883C491.948 38.013 491.532 38.078 491.099 38.078ZM489.019 34.022H492.984C492.975 33.632 492.888 33.2897 492.724 32.995C492.559 32.7003 492.334 32.4707 492.048 32.306C491.77 32.1413 491.437 32.059 491.047 32.059C490.622 32.059 490.262 32.15 489.968 32.332C489.682 32.514 489.461 32.7523 489.305 33.047C489.149 33.3417 489.053 33.6667 489.019 34.022ZM495.587 38V31.149H496.692V34.152H500.124V31.149H501.229V38H500.124V35.127H496.692V38H495.587ZM502.975 38V31.149H504.106V33.762H505.614C506.022 33.762 506.386 33.7967 506.706 33.866C507.036 33.9267 507.317 34.035 507.551 34.191C507.785 34.347 507.963 34.5593 508.084 34.828C508.214 35.088 508.279 35.4217 508.279 35.829C508.279 36.2017 508.214 36.5267 508.084 36.804C507.954 37.0727 507.772 37.298 507.538 37.48C507.304 37.6533 507.023 37.7833 506.693 37.87C506.373 37.9567 506.017 38 505.627 38H502.975ZM504.106 37.038H504.756C505.06 37.038 505.35 37.0293 505.627 37.012C505.913 36.9947 506.173 36.9513 506.407 36.882C506.641 36.8127 506.823 36.7 506.953 36.544C507.092 36.3793 507.161 36.154 507.161 35.868C507.161 35.5907 507.105 35.3783 506.992 35.231C506.888 35.075 506.75 34.9623 506.576 34.893C506.403 34.815 506.212 34.7673 506.004 34.75C505.805 34.7327 505.606 34.724 505.406 34.724H504.106V37.038Z" fill="#1D2529"></path></svg>