<?xml version="1.0" encoding="UTF-8"?> <svg xmlns="http://www.w3.org/2000/svg" width="122" height="53" viewBox="0 0 122 53" fill="none"><path d="M117.529 1.7207H4.31359C2.78854 1.7207 1.55225 2.95713 1.55225 4.48233V49.2207C1.55225 50.7459 2.78854 51.9823 4.31359 51.9823H117.529C119.054 51.9823 120.29 50.7459 120.29 49.2207V4.48233C120.29 2.95713 119.054 1.7207 117.529 1.7207Z" fill="white"></path><path d="M117.529 1.7207H4.31359C2.78854 1.7207 1.55225 2.95713 1.55225 4.48233V49.2207C1.55225 50.7459 2.78854 51.9823 4.31359 51.9823H117.529C119.054 51.9823 120.29 50.7459 120.29 49.2207V4.48233C120.29 2.95713 119.054 1.7207 117.529 1.7207Z" stroke="white" stroke-width="2"></path><path d="M3.20898 5.58723C3.20898 4.36714 4.19802 3.37793 5.41806 3.37793H50.1518V50.3256H5.41806C4.19802 50.3256 3.20898 49.3364 3.20898 48.1163V5.58723Z" fill="#F0F4F7"></path><path d="M62.9977 18.6111C62.7917 18.6111 62.5945 18.589 62.4067 18.5449C62.2228 18.5007 62.055 18.4305 61.9042 18.335C61.7567 18.2394 61.6374 18.1157 61.5452 17.9649C61.4568 17.8141 61.4071 17.6319 61.3961 17.4181H62.0643C62.0793 17.5214 62.114 17.6076 62.1693 17.6777C62.2284 17.7479 62.3002 17.8048 62.3847 17.8489C62.473 17.8931 62.5708 17.9246 62.6774 17.9428C62.7839 17.9611 62.8911 17.9705 62.9977 17.9705C63.086 17.9705 63.1783 17.9649 63.2738 17.9539C63.3732 17.939 63.4654 17.9113 63.5499 17.871C63.6383 17.8307 63.7084 17.7733 63.7598 17.6998C63.815 17.6225 63.8426 17.5231 63.8426 17.4016C63.8426 17.2911 63.8206 17.2011 63.7764 17.1309C63.7361 17.0608 63.6786 17.0077 63.6052 16.9707C63.5317 16.9337 63.445 16.9083 63.3456 16.8934C63.2501 16.8785 63.1451 16.8713 63.0308 16.8713H62.5006V16.2914H62.8762C62.9866 16.2914 63.0916 16.282 63.191 16.2638C63.2904 16.2417 63.3771 16.2102 63.4505 16.1699C63.5279 16.1295 63.5886 16.076 63.6328 16.0097C63.677 15.9395 63.6991 15.8567 63.6991 15.7612C63.6991 15.6175 63.6604 15.5109 63.5831 15.4408C63.5096 15.3673 63.4157 15.3176 63.3014 15.2917C63.1871 15.2624 63.0733 15.2475 62.959 15.2475C62.8193 15.2475 62.6901 15.2657 62.5724 15.3027C62.4548 15.3397 62.3587 15.3966 62.2852 15.4739C62.2118 15.5513 62.1709 15.649 62.1637 15.7667H61.4955C61.4994 15.5827 61.5342 15.4259 61.6004 15.2972C61.6667 15.1646 61.7534 15.0558 61.86 14.9713C61.9666 14.8829 62.0864 14.8128 62.219 14.7614C62.3515 14.7062 62.4879 14.6675 62.6277 14.6454C62.7674 14.6233 62.8983 14.6123 63.0198 14.6123C63.1893 14.6123 63.3528 14.6305 63.5113 14.6675C63.6731 14.7045 63.8189 14.7653 63.9476 14.8498C64.0801 14.931 64.1851 15.0392 64.2624 15.1757C64.3397 15.3121 64.3783 15.4756 64.3783 15.6672C64.3783 15.7628 64.3634 15.8589 64.3342 15.9545C64.3082 16.05 64.2607 16.1422 64.1906 16.2306C64.1243 16.319 64.0232 16.4002 63.8868 16.4736C64.1039 16.5361 64.2662 16.6543 64.3728 16.8271C64.4833 17 64.5385 17.1988 64.5385 17.4236C64.5346 17.6335 64.4888 17.8141 64.4004 17.9649C64.3159 18.1157 64.2016 18.2394 64.058 18.335C63.9144 18.4272 63.7504 18.4968 63.5665 18.5449C63.3859 18.589 63.1965 18.6111 62.9977 18.6111ZM65.9993 18.6056C65.8706 18.6056 65.7452 18.5874 65.6237 18.5504C65.5061 18.5134 65.3989 18.4604 65.3034 18.3902C65.2079 18.3168 65.1322 18.2262 65.077 18.1196C65.0217 18.0091 64.9941 17.8804 64.9941 17.7329C64.9941 17.5451 65.0311 17.3922 65.1046 17.2745C65.178 17.153 65.2774 17.0608 65.4028 16.9984C65.5315 16.9359 65.6773 16.8934 65.8391 16.8713C66.0009 16.8454 66.1705 16.8326 66.3472 16.8326H66.916C66.916 16.704 66.8956 16.5935 66.8553 16.5013C66.815 16.4057 66.7503 16.33 66.662 16.2748C66.5775 16.2196 66.467 16.192 66.3306 16.192C66.2422 16.192 66.1594 16.203 66.0821 16.2251C66.0086 16.2433 65.944 16.2748 65.8888 16.319C65.8374 16.3593 65.8004 16.4129 65.7783 16.4792H65.088C65.114 16.3284 65.1653 16.1991 65.2426 16.0925C65.3238 15.9821 65.421 15.892 65.5353 15.8219C65.653 15.7518 65.7822 15.7004 65.9219 15.6672C66.0617 15.6302 66.2036 15.612 66.3472 15.612C66.6305 15.612 66.8608 15.6673 67.0375 15.7777C67.2181 15.8882 67.3507 16.0467 67.4351 16.2527C67.5196 16.4587 67.5622 16.7073 67.5622 16.9984V18.567H66.9657L66.9492 18.2135C66.868 18.3167 66.7741 18.3974 66.6675 18.4565C66.5642 18.5117 66.456 18.5504 66.3417 18.5725C66.2273 18.5946 66.1136 18.6056 65.9993 18.6056ZM66.1539 18.0588C66.3047 18.0588 66.4372 18.0312 66.5515 17.976C66.6658 17.9207 66.7559 17.8434 66.8221 17.744C66.8884 17.6446 66.9215 17.5286 66.9215 17.396V17.3077H66.3969C66.3013 17.3077 66.2091 17.3115 66.1208 17.3187C66.0324 17.3226 65.9534 17.3369 65.8833 17.3629C65.817 17.385 65.7634 17.4198 65.7231 17.4678C65.6828 17.5159 65.6624 17.5838 65.6624 17.6722C65.6624 17.7567 65.6845 17.8285 65.7286 17.8876C65.7728 17.9428 65.8319 17.9854 65.9054 18.0146C65.9827 18.0439 66.0655 18.0588 66.1539 18.0588ZM68.2056 18.567V15.6562H70.7736V18.567H70.0998V16.2527H68.8793V18.567H68.2056ZM71.4253 19.6385V15.6562H72.0549L72.088 16.0539C72.2018 15.8992 72.3421 15.7871 72.5077 15.717C72.6734 15.6468 72.8479 15.612 73.0324 15.612C73.3118 15.612 73.546 15.6783 73.7338 15.8109C73.9215 15.9434 74.0613 16.124 74.1535 16.3521C74.2452 16.5769 74.2916 16.831 74.2916 17.1143C74.2916 17.3977 74.2435 17.6518 74.148 17.8766C74.0557 18.1013 73.9122 18.2797 73.7172 18.4123C73.5256 18.541 73.2787 18.6056 72.9772 18.6056C72.8369 18.6056 72.7121 18.5907 72.6016 18.5614C72.4912 18.5283 72.3934 18.4858 72.3089 18.4344C72.2277 18.3792 72.1576 18.3201 72.0991 18.2577V19.6385H71.4253ZM72.8833 17.9981C73.071 17.9981 73.218 17.9577 73.3251 17.8766C73.4317 17.792 73.509 17.6832 73.557 17.5507C73.6045 17.4143 73.6288 17.2707 73.6288 17.1199C73.6288 16.9613 73.6029 16.8144 73.5515 16.678C73.5035 16.5416 73.4245 16.4311 73.314 16.3466C73.2036 16.2621 73.0561 16.2196 72.8722 16.2196C72.7027 16.2196 72.5591 16.2621 72.4415 16.3466C72.3271 16.4278 72.2404 16.5361 72.1819 16.6725C72.1228 16.8089 72.0935 16.9558 72.0935 17.1143C72.0935 17.2762 72.1211 17.4253 72.1764 17.5617C72.2316 17.6943 72.3178 17.8009 72.4359 17.8821C72.5536 17.9594 72.7027 17.9981 72.8833 17.9981ZM76.1433 18.6056C75.8451 18.6056 75.5872 18.5449 75.3701 18.4233C75.1564 18.3018 74.9907 18.129 74.8731 17.9042C74.7588 17.6794 74.7019 17.4165 74.7019 17.1143C74.7019 16.8089 74.7588 16.5454 74.8731 16.3245C74.9907 16.0997 75.1564 15.9252 75.3701 15.7998C75.5872 15.6744 75.8451 15.612 76.1433 15.612C76.4377 15.612 76.6917 15.6744 76.9054 15.7998C77.1186 15.9252 77.2826 16.1019 77.397 16.33C77.5107 16.5548 77.5682 16.82 77.5682 17.1254C77.5682 17.4237 77.5107 17.6849 77.397 17.9097C77.2865 18.1306 77.1241 18.3018 76.911 18.4233C76.6972 18.5449 76.4415 18.6056 76.1433 18.6056ZM76.1378 17.9925C76.3217 17.9925 76.4692 17.9522 76.5796 17.871C76.6934 17.7898 76.7762 17.6832 76.8281 17.5507C76.8795 17.4181 76.9054 17.2745 76.9054 17.1199C76.9054 16.9652 76.8795 16.8199 76.8281 16.6835C76.7762 16.5471 76.6934 16.4388 76.5796 16.3577C76.4692 16.2731 76.3217 16.2306 76.1378 16.2306C75.9533 16.2306 75.8042 16.2731 75.6905 16.3577C75.5761 16.4388 75.4933 16.5471 75.4419 16.6835C75.39 16.8199 75.3646 16.9652 75.3646 17.1199C75.3646 17.2784 75.39 17.4237 75.4419 17.5562C75.4933 17.6888 75.5761 17.7954 75.6905 17.8766C75.8042 17.9539 75.9533 17.9925 76.1378 17.9925ZM79.3884 18.6056C79.0869 18.6056 78.8329 18.5449 78.6263 18.4233C78.4203 18.298 78.264 18.1234 78.1569 17.8986C78.0503 17.6739 77.9967 17.4143 77.9967 17.1199C77.9967 16.8255 78.052 16.5659 78.1624 16.3411C78.2729 16.113 78.4352 15.934 78.6484 15.8053C78.8621 15.6766 79.1217 15.612 79.4271 15.612C79.6519 15.612 79.8507 15.6507 80.0236 15.728C80.2003 15.8053 80.3422 15.9197 80.4488 16.0705C80.5592 16.2179 80.6294 16.4018 80.6587 16.6228H79.9959C79.9518 16.483 79.8783 16.3814 79.775 16.319C79.6756 16.2527 79.5541 16.2196 79.4105 16.2196C79.2266 16.2196 79.0792 16.2654 78.9687 16.3577C78.8621 16.446 78.7848 16.5581 78.7368 16.6946C78.6893 16.831 78.665 16.9724 78.665 17.1199C78.665 17.2745 78.6909 17.4198 78.7423 17.5562C78.7942 17.6888 78.8732 17.7954 78.9798 17.8766C79.0902 17.9577 79.2321 17.9981 79.405 17.9981C79.5453 17.9981 79.6701 17.9666 79.7806 17.9042C79.8949 17.8417 79.9683 17.7401 80.0015 17.6004H80.6863C80.6609 17.8252 80.5852 18.013 80.4598 18.1638C80.3383 18.3112 80.1837 18.4217 79.9959 18.4952C79.8082 18.5686 79.606 18.6056 79.3884 18.6056ZM81.1922 18.567V15.6562H81.8659V17.5507C81.888 17.5104 81.9156 17.4662 81.9488 17.4181C81.9858 17.3701 82.0172 17.3314 82.0426 17.3021L83.2908 15.6562H83.8872V18.567H83.219V16.6946C83.1897 16.7426 83.1582 16.7885 83.1251 16.8326C83.0958 16.873 83.0665 16.9116 83.0367 16.9486L81.8052 18.567H81.1922ZM85.2265 18.567V16.2527H84.2655V15.6562H86.8667V16.2527H85.9002V18.567H85.2265ZM87.2434 18.567V15.6562H87.9226V16.6504H88.5301C88.6997 16.6504 88.8543 16.6653 88.994 16.6946C89.1376 16.7238 89.2613 16.7736 89.3641 16.8437C89.4673 16.9138 89.5463 17.0094 89.6015 17.1309C89.6568 17.2486 89.6844 17.3977 89.6844 17.5783C89.6844 17.7512 89.6535 17.9025 89.5905 18.0312C89.5281 18.1566 89.4414 18.2593 89.3309 18.3405C89.2205 18.4178 89.0918 18.4747 88.9443 18.5117C88.7974 18.5487 88.6406 18.567 88.4749 18.567H87.2434ZM87.9226 17.9815H88.2706C88.37 17.9815 88.4639 17.9776 88.5522 17.9705C88.6406 17.9594 88.7201 17.9428 88.7897 17.9207C88.8637 17.8948 88.9189 17.8561 88.9554 17.8047C88.9963 17.7495 89.0161 17.6794 89.0161 17.5949C89.0161 17.5104 88.9996 17.4441 88.9664 17.396C88.9333 17.3447 88.8891 17.306 88.8339 17.28C88.7825 17.2541 88.7218 17.2375 88.6516 17.2303C88.5854 17.2231 88.5174 17.2193 88.4473 17.2193H87.9226V17.9815ZM91.8625 18.567V14.662H92.5529V16.33H94.3754V14.662H95.0602V18.567H94.3754V16.9597H92.5529V18.567H91.8625ZM95.9344 18.567V14.662H97.4752C97.674 14.662 97.8618 14.6825 98.0385 14.7228C98.2153 14.7598 98.3721 14.8261 98.508 14.9216C98.6444 15.0138 98.751 15.1409 98.8283 15.3027C98.9056 15.4645 98.9443 15.6656 98.9443 15.9047C98.9443 16.1036 98.9095 16.2787 98.8393 16.4295C98.7697 16.5802 98.672 16.7073 98.5466 16.8106C98.4251 16.9139 98.2799 16.9928 98.1103 17.0481L98.9664 18.567H98.1932L97.4255 17.1585H96.6247V18.567H95.9344ZM96.6247 16.5454H97.3813C97.5067 16.5454 97.621 16.5361 97.7238 16.5178C97.8309 16.4957 97.9226 16.4609 97.9999 16.4129C98.0811 16.3648 98.1418 16.3008 98.1821 16.2196C98.2263 16.1351 98.2506 16.0279 98.2539 15.8992C98.2539 15.7446 98.2208 15.6231 98.1545 15.5347C98.0921 15.4463 97.9999 15.3839 97.8784 15.3469C97.7608 15.3099 97.6188 15.2917 97.4531 15.2917H96.6247V16.5454ZM99.6109 16.9597V16.3521H101.428V16.9597H99.6109ZM61.2856 27.1446V25.703C61.3812 25.703 61.4607 25.6793 61.5231 25.6312C61.5855 25.5798 61.6352 25.5114 61.6722 25.4268C61.7125 25.3423 61.744 25.2501 61.7661 25.1507C61.7882 25.0474 61.8048 24.9447 61.8158 24.8414C61.8379 24.6757 61.8506 24.5061 61.8545 24.3332C61.8617 24.1565 61.8655 24.0057 61.8655 23.8803C61.8694 23.7991 61.871 23.7185 61.871 23.6373C61.871 23.5528 61.871 23.47 61.871 23.3888H64.1188V25.703H64.4943V27.1446H63.8316V26.2995H61.9484V27.1446H61.2856ZM62.2466 25.703H63.445V23.9853H62.4785C62.4747 24.1217 62.4714 24.2686 62.4675 24.4271C62.4636 24.5818 62.4565 24.7293 62.4454 24.869C62.4415 24.9502 62.4327 25.0402 62.4178 25.1396C62.4067 25.239 62.3885 25.3368 62.3626 25.4324C62.3366 25.5279 62.298 25.6185 62.2466 25.703ZM66.2411 26.3382C65.9429 26.3382 65.685 26.2774 65.468 26.1559C65.2542 26.0344 65.0886 25.8615 64.9709 25.6367C64.8566 25.4119 64.7997 25.149 64.7997 24.8469C64.7997 24.5415 64.8566 24.278 64.9709 24.0571C65.0886 23.8323 65.2542 23.6577 65.468 23.5324C65.685 23.407 65.9429 23.3446 66.2411 23.3446C66.5355 23.3446 66.7895 23.407 67.0033 23.5324C67.2165 23.6577 67.3805 23.8345 67.4948 24.0626C67.6086 24.2874 67.666 24.5525 67.666 24.858C67.666 25.1562 67.6086 25.4175 67.4948 25.6422C67.3843 25.8632 67.222 26.0344 67.0088 26.1559C66.7951 26.2774 66.5394 26.3382 66.2411 26.3382ZM66.2356 25.7251C66.4195 25.7251 66.567 25.6848 66.6774 25.6036C66.7912 25.5224 66.874 25.4158 66.926 25.2832C66.9773 25.1507 67.0033 25.0071 67.0033 24.8524C67.0033 24.6978 66.9773 24.5525 66.926 24.4161C66.874 24.2797 66.7912 24.1714 66.6774 24.0902C66.567 24.0057 66.4195 23.9632 66.2356 23.9632C66.0512 23.9632 65.9021 24.0057 65.7883 24.0902C65.674 24.1714 65.5911 24.2797 65.5398 24.4161C65.4879 24.5525 65.4624 24.6978 65.4624 24.8524C65.4624 25.0109 65.4879 25.1562 65.5398 25.2888C65.5911 25.4213 65.674 25.5279 65.7883 25.6091C65.9021 25.6864 66.0512 25.7251 66.2356 25.7251ZM68.2056 26.2995V23.3888H68.8793V24.5542H69.3432L70.0998 23.3888H70.862L69.9286 24.7641L70.8951 26.2995H70.1164L69.3929 25.1507H68.8793V26.2995H68.2056ZM71.3794 27.603V26.9292C71.5451 26.9292 71.6777 26.9109 71.7771 26.8739C71.8804 26.8408 71.9665 26.7856 72.0366 26.7082C72.1068 26.6348 72.1709 26.537 72.2299 26.4155L70.9929 23.3888H71.7771L72.6165 25.6478L73.2793 23.3888H74.0193L73.2351 25.8245C73.1909 25.9609 73.1412 26.1023 73.086 26.2498C73.0346 26.3973 72.9739 26.5409 72.9037 26.6806C72.8374 26.8204 72.7618 26.9496 72.6773 27.0673C72.5928 27.1849 72.4967 27.2827 72.3901 27.36C72.3017 27.4224 72.2134 27.4704 72.125 27.5036C72.0405 27.5406 71.9389 27.566 71.8213 27.5809C71.7069 27.5958 71.56 27.603 71.3794 27.603ZM74.37 26.2995V23.3888H75.1929L76.0434 24.7143L76.8773 23.3888H77.6891V26.2995H77.0153V24.2449L76.1317 25.6588H75.9329L75.0382 24.2393V26.2995H74.37ZM79.6425 26.3382C79.341 26.3382 79.083 26.2758 78.8693 26.1504C78.6594 26.025 78.4993 25.8521 78.3888 25.6312C78.2822 25.4064 78.2287 25.1468 78.2287 24.8524C78.2287 24.558 78.2839 24.2984 78.3944 24.0736C78.5087 23.8455 78.6705 23.6666 78.8804 23.5379C79.0941 23.4092 79.3498 23.3446 79.648 23.3446C79.8617 23.3446 80.0512 23.3832 80.2168 23.4606C80.3825 23.534 80.5228 23.639 80.6366 23.7754C80.7509 23.9079 80.8354 24.0626 80.8906 24.2393C80.9458 24.4122 80.9718 24.5984 80.9679 24.7972C80.9679 24.8414 80.9663 24.8856 80.9624 24.9297C80.9591 24.9701 80.9536 25.0143 80.9458 25.0623H78.9025C78.9135 25.191 78.9466 25.3092 79.0019 25.4158C79.0609 25.5224 79.1421 25.6074 79.2449 25.6699C79.352 25.7323 79.4845 25.7638 79.6425 25.7638C79.7347 25.7638 79.8231 25.7527 79.9076 25.7306C79.9926 25.7047 80.0661 25.6682 80.1285 25.6201C80.1948 25.5721 80.2389 25.5113 80.261 25.4379H80.9348C80.8873 25.6478 80.7989 25.819 80.6697 25.9515C80.541 26.0841 80.3864 26.1819 80.2058 26.2443C80.0291 26.3067 79.8413 26.3382 79.6425 26.3382ZM78.9135 24.5597H80.3163C80.3163 24.4382 80.2886 24.3277 80.2334 24.2283C80.1782 24.1289 80.0992 24.0515 79.9959 23.9963C79.8965 23.9372 79.775 23.908 79.6314 23.908C79.4768 23.908 79.3481 23.9394 79.2449 24.0018C79.1421 24.0643 79.0626 24.1454 79.0074 24.2449C78.9521 24.3443 78.9212 24.4492 78.9135 24.5597ZM81.5103 26.2995V23.3888H82.184V24.5597H83.399V23.3888H84.0728V26.2995H83.399V25.1617H82.184V26.2995H81.5103ZM85.4098 26.2995V23.9853H84.4489V23.3888H87.0501V23.9853H86.0836V26.2995H85.4098ZM87.4267 26.2995V23.3888H88.106V24.3829H88.5699C88.7356 24.3829 88.8886 24.3979 89.0283 24.4271C89.1719 24.4564 89.2956 24.5061 89.3983 24.5763C89.5016 24.6464 89.5806 24.742 89.6358 24.8635C89.6949 24.9811 89.7241 25.1302 89.7241 25.3108C89.7241 25.4915 89.691 25.6439 89.6247 25.7693C89.5623 25.8947 89.4756 25.9974 89.3652 26.0786C89.2547 26.1559 89.126 26.2128 88.9786 26.2498C88.835 26.2829 88.6826 26.2995 88.5202 26.2995H87.4267ZM88.106 25.7141H88.3048C88.4081 25.7141 88.5036 25.7102 88.592 25.703C88.6842 25.6958 88.7632 25.6809 88.8295 25.6588C88.8996 25.6329 88.9548 25.5942 88.9952 25.5428C89.036 25.4915 89.0559 25.4213 89.0559 25.3329C89.0559 25.2484 89.0393 25.1822 89.0062 25.1341C88.9731 25.0828 88.9289 25.0441 88.8737 25.0181C88.8223 24.9888 88.7632 24.9701 88.6969 24.9629C88.6307 24.9557 88.5611 24.9518 88.4871 24.9518H88.106V25.7141ZM90.0942 26.2995V23.3888H90.7679V26.2995H90.0942Z" fill="#1D2529"></path><path d="M64.5106 39.0789C64.3433 39.0784 64.1831 39.0116 64.065 38.8934C63.9468 38.7752 63.8799 38.615 63.8794 38.4476C63.8794 38.4001 63.8987 38.3543 63.9324 38.32C63.9661 38.2864 64.0119 38.2676 64.06 38.2676C64.1075 38.2676 64.1533 38.2864 64.187 38.32C64.2207 38.3543 64.24 38.4001 64.24 38.4476C64.24 38.5194 64.2682 38.5885 64.319 38.6393C64.3698 38.6901 64.4388 38.7183 64.5106 38.7183C64.5824 38.7183 64.6515 38.6901 64.7023 38.6393C64.7531 38.5885 64.7812 38.5194 64.7812 38.4476C64.7812 38.4001 64.8006 38.3543 64.8343 38.32C64.868 38.2864 64.9138 38.2676 64.9618 38.2676C65.0093 38.2676 65.0552 38.2864 65.0889 38.32C65.1225 38.3543 65.1419 38.4001 65.1419 38.4476C65.1413 38.615 65.0745 38.7752 64.9563 38.8934C64.8381 39.0116 64.678 39.0784 64.5106 39.0789Z" fill="#656C74"></path><path d="M66.2948 38.1093H62.7277C62.651 38.1093 62.5775 38.0789 62.524 38.0248C62.4698 37.9706 62.4395 37.8972 62.4395 37.821V37.6321C62.4395 37.4796 62.5002 37.3327 62.6079 37.2245C62.7161 37.1167 62.863 37.056 63.0155 37.056C63.0265 37.056 63.0376 37.0538 63.0475 37.0494C63.058 37.0455 63.0668 37.0394 63.0746 37.0311C63.0823 37.0234 63.0884 37.0146 63.0928 37.0041C63.0972 36.9941 63.0994 36.9831 63.0994 36.972V35.8889C63.0994 35.6868 63.1795 35.4929 63.3225 35.3499C63.4656 35.2068 63.6594 35.1267 63.8615 35.1267H63.935C63.935 34.9632 63.9996 34.8064 64.115 34.6909C64.2305 34.5755 64.3868 34.5103 64.5502 34.5098H64.58C64.7435 34.5098 64.9004 34.5749 65.0163 34.6904C65.1318 34.8064 65.1969 34.9632 65.1969 35.1267C65.3913 35.1378 65.5741 35.2223 65.7078 35.3637C65.842 35.5056 65.9165 35.6929 65.9171 35.8873V36.9665C65.9171 36.9886 65.9259 37.0102 65.9414 37.0256C65.9574 37.0411 65.9784 37.0499 66.0005 37.0499C66.1535 37.0499 66.3004 37.1107 66.4081 37.2189C66.5163 37.3272 66.577 37.4735 66.577 37.6265V37.8226C66.5765 37.8977 66.5467 37.9695 66.4942 38.0231C66.4412 38.0767 66.3699 38.1076 66.2948 38.1093ZM62.8051 37.7492H66.217V37.6321C66.2164 37.5741 66.1932 37.5183 66.1518 37.4769C66.1104 37.4354 66.0546 37.4122 65.9966 37.4117C65.879 37.4117 65.7658 37.3647 65.6829 37.2819C65.5995 37.1985 65.5526 37.0858 65.5526 36.9682V35.8889C65.5526 35.7823 65.5101 35.6801 65.435 35.6045C65.3598 35.5294 65.2571 35.4868 65.1505 35.4868H65.018C64.9705 35.4868 64.9247 35.4681 64.891 35.4338C64.8573 35.4001 64.838 35.3543 64.838 35.3068V35.1251C64.838 35.0914 64.8313 35.0582 64.8186 35.0267C64.8059 34.9958 64.7866 34.9676 64.7628 34.9439C64.7391 34.9201 64.7109 34.9008 64.68 34.8881C64.6485 34.8754 64.6154 34.8688 64.5817 34.8688H64.5513C64.4834 34.8688 64.4188 34.8964 64.3707 34.9445C64.3232 34.9925 64.2962 35.0571 64.2962 35.1251V35.3068C64.2962 35.3543 64.2774 35.4001 64.2437 35.4338C64.21 35.4681 64.1642 35.4868 64.1161 35.4868H63.8715C63.7649 35.4868 63.6627 35.5294 63.5871 35.6045C63.512 35.6801 63.4694 35.7823 63.4694 35.8889V36.9682C63.4694 37.0858 63.4225 37.1985 63.3396 37.2819C63.2563 37.3647 63.1436 37.4117 63.026 37.4117C62.9674 37.4122 62.9116 37.4354 62.8702 37.4769C62.8288 37.5183 62.8056 37.5741 62.8051 37.6321V37.7492Z" fill="#656C74"></path><path d="M71.0687 38.4508V35.3192H70.2734V34.9933C70.4203 34.9822 70.5512 34.9657 70.6655 34.9436C70.7793 34.9176 70.8809 34.8756 70.9693 34.8165C71.061 34.7541 71.1422 34.6635 71.2123 34.5459H71.5492V38.4508H71.0687Z" fill="#656C74"></path><path d="M82.1832 39.0661C81.7337 39.0661 81.2946 38.9324 80.9207 38.6828C80.5474 38.4331 80.2564 38.0785 80.0841 37.6632C79.9123 37.2478 79.867 36.791 79.9548 36.3503C80.0426 35.9095 80.2591 35.5047 80.5767 35.1871C80.8942 34.869 81.299 34.653 81.7398 34.5652C82.1805 34.4774 82.6377 34.5227 83.0525 34.6944C83.4678 34.8662 83.8224 35.1578 84.072 35.5312C84.3222 35.9051 84.4553 36.3442 84.4553 36.7938C84.4542 37.3958 84.2145 37.973 83.7887 38.3989C83.3629 38.8247 82.7852 39.065 82.1832 39.0661ZM82.1832 34.8872C81.8049 34.8872 81.4349 34.9999 81.1207 35.2097C80.8059 35.4202 80.5607 35.7195 80.4165 36.0692C80.2718 36.4188 80.2343 36.8032 80.3083 37.1744C80.3828 37.5455 80.5656 37.8863 80.8335 38.1536C81.1013 38.4204 81.4426 38.6021 81.8138 38.6756C82.1849 38.7485 82.5698 38.7098 82.9188 38.564C83.2679 38.4187 83.5661 38.1724 83.7754 37.8576C83.9847 37.5422 84.0963 37.1722 84.0952 36.7938C84.0946 36.2868 83.8931 35.8007 83.5346 35.4423C83.1762 35.0838 82.6902 34.8822 82.1832 34.8817V34.8872Z" fill="#656C74"></path><path d="M83.003 37.5946C82.9638 37.594 82.9252 37.5808 82.8937 37.557L82.0752 36.9373C82.0531 36.9207 82.0349 36.8986 82.0222 36.8738C82.01 36.8489 82.0034 36.8213 82.0034 36.7931V35.7211C82.0034 35.6736 82.0222 35.6277 82.0559 35.594C82.0896 35.5604 82.1354 35.541 82.1835 35.541C82.231 35.541 82.2768 35.5604 82.3105 35.594C82.3447 35.6277 82.3635 35.6736 82.3635 35.7211V36.7042L83.1113 37.2704C83.1416 37.293 83.1637 37.3245 83.1753 37.3604C83.1864 37.3968 83.1858 37.4355 83.1742 37.4714C83.1621 37.5073 83.1389 37.5382 83.1085 37.5603C83.0776 37.5824 83.0411 37.5946 83.003 37.5946Z" fill="#656C74"></path><path d="M88.682 38.4511V35.3194H87.8867V34.9935C88.0342 34.9825 88.1645 34.9659 88.2788 34.9438C88.3932 34.9178 88.4942 34.8759 88.5826 34.8168C88.6748 34.7544 88.7554 34.6638 88.8256 34.5461H89.1625V38.4511H88.682ZM91.5941 38.4953C91.3218 38.4953 91.0877 38.4456 90.8927 38.3461C90.7011 38.2428 90.5448 38.1015 90.4233 37.9208C90.3018 37.7369 90.2118 37.5248 90.1527 37.2857C90.0974 37.0427 90.0698 36.7814 90.0698 36.5014C90.0698 36.2213 90.0974 35.9617 90.1527 35.7226C90.2079 35.4796 90.2963 35.268 90.4178 35.0874C90.5393 34.9035 90.6956 34.7599 90.8872 34.6566C91.0821 34.5533 91.318 34.502 91.5941 34.502C91.8851 34.502 92.1281 34.5588 92.3231 34.6732C92.5219 34.7836 92.6782 34.9344 92.7925 35.1261C92.9102 35.3177 92.993 35.5331 93.041 35.7723C93.0924 36.0081 93.1184 36.2512 93.1184 36.5014C93.1184 36.7516 93.0924 36.9968 93.041 37.236C92.993 37.4718 92.9102 37.685 92.7925 37.8767C92.6782 38.0644 92.5219 38.2152 92.3231 38.3296C92.1281 38.44 91.8851 38.4953 91.5941 38.4953ZM91.5941 38.0589C91.8111 38.0589 91.9862 38.0131 92.1188 37.9208C92.2552 37.8253 92.3601 37.6999 92.4335 37.5453C92.507 37.3906 92.5567 37.2233 92.5827 37.0427C92.6086 36.8587 92.6213 36.6781 92.6213 36.5014C92.6213 36.3285 92.6086 36.1518 92.5827 35.9711C92.5567 35.7872 92.507 35.6176 92.4335 35.463C92.3601 35.3045 92.2552 35.1774 92.1188 35.0819C91.9862 34.9863 91.8111 34.9383 91.5941 34.9383C91.3732 34.9383 91.1948 34.9863 91.0584 35.0819C90.922 35.1774 90.8171 35.3045 90.7436 35.463C90.6735 35.6176 90.626 35.7872 90.6 35.9711C90.5741 36.1518 90.5614 36.3285 90.5614 36.5014C90.5614 36.6781 90.5741 36.8587 90.6 37.0427C90.626 37.2233 90.6735 37.3906 90.7436 37.5453C90.8171 37.6999 90.922 37.8253 91.0584 37.9208C91.1948 38.0131 91.3732 38.0589 91.5941 38.0589ZM95.2866 38.4511V35.5403H95.9161L96.8605 36.9985L97.7883 35.5403H98.4069V38.4511H97.943V36.0595L96.9158 37.7054H96.7832L95.7505 36.0595V38.4511H95.2866ZM99.148 38.4511V35.5403H99.6174V37.7717C99.6434 37.7203 99.6782 37.6651 99.7224 37.606C99.7666 37.5436 99.8014 37.4955 99.8273 37.4624L101.236 35.5403H101.7V38.4511H101.23V36.2197C101.201 36.2749 101.168 36.3263 101.131 36.3743C101.098 36.4224 101.066 36.4666 101.037 36.5069L99.6064 38.4511H99.148ZM102.438 38.4511V35.5403H102.907V36.8162H104.365V35.5403H104.835V38.4511H104.365V37.2304H102.907V38.4511H102.438ZM105.67 39.6993V39.252C105.851 39.252 105.994 39.226 106.101 39.1746C106.208 39.1266 106.297 39.0493 106.366 38.9427C106.44 38.8394 106.51 38.7068 106.576 38.545L105.3 35.5403H105.853L106.836 37.9927L107.642 35.5403H108.172L107.355 37.8325C107.314 37.9501 107.269 38.0827 107.217 38.2302C107.165 38.3776 107.108 38.5267 107.045 38.6775C106.983 38.8322 106.913 38.9741 106.836 39.1028C106.762 39.2354 106.679 39.342 106.587 39.4232C106.51 39.4933 106.435 39.5485 106.361 39.5889C106.287 39.6292 106.197 39.6568 106.09 39.6717C105.987 39.6899 105.847 39.6993 105.67 39.6993ZM109.341 38.4511V35.9546H108.341V35.5403H110.81V35.9546H109.81V38.4511H109.341Z" fill="#656C74"></path><g clip-path="url(#clip0_2301_4414)"><path d="M3 5C3 3.89543 3.89543 3 5 3H51V51H5C3.89543 51 3 50.1046 3 49V5Z" fill="white"></path><g clip-path="url(#clip1_2301_4414)"><path d="M55.2249 -1.69434H-4.62842V54.0514H55.2249V-1.69434Z" fill="url(#paint0_linear_2301_4414)"></path><path d="M-9.83936 60.0546H6.43839L98.3191 -12.0225H82.0531L-9.83936 60.0546Z" fill="url(#paint1_linear_2301_4414)"></path><path d="M-38.8975 60.0546H-22.6314L69.261 -12.0225H52.995L-38.8975 60.0546Z" fill="url(#paint2_linear_2301_4414)"></path><path d="M-24.9785 60.0546H-8.7125L83.1799 -12.0225H66.9022L-24.9785 60.0546Z" fill="url(#paint3_linear_2301_4414)"></path><path d="M27.1053 50.1783L6.56738 41.6045V14.6865L27.1053 23.2603V50.1783Z" fill="url(#paint4_linear_2301_4414)"></path><path d="M27.1055 50.1783L47.6551 41.6045V14.6865L27.1055 23.2603V50.1783Z" fill="url(#paint5_linear_2301_4414)"></path><path d="M27.1053 6.12402L6.56738 14.6862L27.1053 23.26L47.6549 14.6862L27.1053 6.12402Z" fill="url(#paint6_linear_2301_4414)"></path></g></g><defs><linearGradient id="paint0_linear_2301_4414" x1="25.2942" y1="54.0528" x2="25.2942" y2="-1.69291" gradientUnits="userSpaceOnUse"><stop offset="4.74173e-07" stop-color="#BBABE4"></stop><stop offset="1" stop-color="#6D55A6"></stop></linearGradient><linearGradient id="paint1_linear_2301_4414" x1="55.1786" y1="36.2569" x2="30.8564" y2="14.5229" gradientUnits="userSpaceOnUse"><stop offset="4.74173e-07" stop-color="#BBABE4"></stop><stop offset="1" stop-color="#6D55A6"></stop></linearGradient><linearGradient id="paint2_linear_2301_4414" x1="26.1158" y1="36.2569" x2="1.79357" y2="14.5229" gradientUnits="userSpaceOnUse"><stop offset="4.74173e-07" stop-color="#BBABE4"></stop><stop offset="1" stop-color="#6D55A6"></stop></linearGradient><linearGradient id="paint3_linear_2301_4414" x1="40.0336" y1="36.2569" x2="15.7113" y2="14.5229" gradientUnits="userSpaceOnUse"><stop offset="4.74173e-07" stop-color="#BBABE4"></stop><stop offset="1" stop-color="#6D55A6"></stop></linearGradient><linearGradient id="paint4_linear_2301_4414" x1="7.06668" y1="42.1027" x2="26.4079" y2="22.5645" gradientUnits="userSpaceOnUse"><stop stop-color="#6D55A6"></stop><stop offset="1" stop-color="#BBABE4"></stop></linearGradient><linearGradient id="paint5_linear_2301_4414" x1="23.285" y1="46.3875" x2="51.1954" y2="18.1928" gradientUnits="userSpaceOnUse"><stop offset="4.74173e-07" stop-color="#BBABE4"></stop><stop offset="1" stop-color="#6D55A6"></stop></linearGradient><linearGradient id="paint6_linear_2301_4414" x1="16.8363" y1="24.8588" x2="37.1746" y2="4.31334" gradientUnits="userSpaceOnUse"><stop stop-color="#6D55A6"></stop><stop offset="1" stop-color="#BBABE4"></stop></linearGradient><clipPath id="clip0_2301_4414"><path d="M3 5C3 3.89543 3.89543 3 5 3H51V51H5C3.89543 51 3 50.1046 3 49V5Z" fill="white"></path></clipPath><clipPath id="clip1_2301_4414"><rect width="137.217" height="64.4068" fill="white" transform="translate(-38.8975 -2.28125)"></rect></clipPath></defs></svg>